<svg width="30" height="31" viewBox="0 0 30 31" fill="none" xmlns="http://www.w3.org/2000/svg">
<g clip-path="url(#clip0)">
<path d="M29.5438 19.1286C27.5407 27.1645 19.3998 32.0545 11.3625 30.0514C3.32794 28.0482 -1.56206 19.9086 0.441118 11.8727C2.4443 3.83681 10.5838 -1.05455 18.6198 0.948628C26.657 2.95181 31.547 11.0927 29.5438 19.1286Z" fill="currentColor"/>
<path d="M20.8862 11.5812C20.6571 9.57532 18.9116 8.93304 16.7189 8.77895L16.6712 5.99304L14.9734 6.02304L15.0212 8.73532C14.5766 8.7435 14.1198 8.75986 13.6684 8.77759L13.6207 6.04622L11.9257 6.07622L11.9734 8.86077C11.6066 8.87577 11.2452 8.88804 10.8934 8.89486V8.88668L8.55479 8.92622L8.58616 10.7371C8.58616 10.7371 9.83798 10.6921 9.81752 10.7153C10.5048 10.703 10.7366 11.0985 10.8062 11.4408L10.8621 14.6153C10.9098 14.614 10.9712 14.6153 11.0421 14.6235L10.8634 14.6276L10.9398 19.073C10.9125 19.2899 10.7925 19.6376 10.3125 19.6458C10.3343 19.6649 9.07979 19.6676 9.07979 19.6676L8.77707 21.6994L10.9848 21.6599C11.3966 21.653 11.8002 21.653 12.1971 21.649L12.2462 24.4676L13.9412 24.4376L13.8921 21.6503C14.3571 21.6517 14.8071 21.6476 15.2475 21.6394L15.2952 24.4144L16.9902 24.3844L16.9425 21.5726C19.7912 21.3585 21.7739 20.6058 21.9743 17.9235C22.138 15.7649 21.1071 14.8199 19.4816 14.4599C20.4552 13.9403 21.0552 13.0485 20.8862 11.5812ZM18.6184 17.648C18.6552 19.7535 15.0457 19.5776 13.8948 19.598L13.8307 15.8644C14.9802 15.8453 18.5789 15.4512 18.6184 17.6467V17.648ZM17.7362 12.394C17.7702 14.3099 14.758 14.1394 13.8007 14.1558L13.7421 10.7699C14.6993 10.7521 17.7021 10.3962 17.7362 12.394Z" fill="white"/>
</g>
<defs>
<clipPath id="clip0">
<rect width="30" height="30" fill="white" transform="translate(0 0.5)"/>
</clipPath>
</defs>
</svg>
