<svg width="30" height="31" viewBox="0 0 30 31" fill="none" xmlns="http://www.w3.org/2000/svg">
<path d="M24.975 6.96167C22.5867 5.03979 18.8086 4.71401 18.6469 4.70229C18.3961 4.6812 18.157 4.82182 18.0539 5.05385C18.0445 5.06792 17.9625 5.25776 17.8711 5.55307C19.4508 5.82026 21.3914 6.35698 23.1469 7.44682C23.4281 7.62026 23.5149 7.99057 23.3414 8.27182C23.2266 8.45698 23.032 8.55776 22.8305 8.55776C22.7227 8.55776 22.6125 8.52729 22.5141 8.46635C19.4953 6.5937 15.7266 6.49995 15 6.49995C14.2734 6.49995 10.5024 6.5937 7.48595 8.46635C7.2047 8.64214 6.83439 8.55542 6.66095 8.27417C6.48517 7.99057 6.57189 7.6226 6.85314 7.44682C8.60861 6.35932 10.5492 5.82026 12.1289 5.55542C12.0375 5.25776 11.9555 5.07026 11.9484 5.05385C11.843 4.82182 11.6063 4.67651 11.3531 4.70229C11.1914 4.71401 7.41329 5.03979 4.9922 6.98745C3.72892 8.15698 1.20001 14.9914 1.20001 20.8999C1.20001 21.0054 1.22814 21.1062 1.2797 21.1976C3.02345 24.2632 7.78361 25.0648 8.86876 25.0999C8.87345 25.0999 8.88048 25.0999 8.88751 25.0999C9.0797 25.0999 9.26017 25.0085 9.37267 24.8539L10.4695 23.3445C7.50939 22.5804 5.99767 21.282 5.91095 21.2046C5.66251 20.9867 5.63907 20.607 5.85939 20.3585C6.07736 20.1101 6.45704 20.0867 6.70548 20.3046C6.74064 20.3374 9.52501 22.6999 15 22.6999C20.4844 22.6999 23.2688 20.3281 23.2969 20.3046C23.5453 20.089 23.9227 20.1101 24.143 20.3609C24.3609 20.6093 24.3375 20.9867 24.0891 21.2046C24.0024 21.282 22.4906 22.5804 19.5305 23.3445L20.6274 24.8539C20.7399 25.0085 20.9203 25.0999 21.1125 25.0999C21.1195 25.0999 21.1266 25.0999 21.1313 25.0999C22.2164 25.0648 26.9766 24.2632 28.7203 21.1976C28.7719 21.1062 28.8 21.0054 28.8 20.8999C28.8 14.9914 26.2711 8.15698 24.975 6.96167ZM11.1 18.4999C9.93986 18.4999 9.00001 17.4265 9.00001 16.0999C9.00001 14.7734 9.93986 13.6999 11.1 13.6999C12.2602 13.6999 13.2 14.7734 13.2 16.0999C13.2 17.4265 12.2602 18.4999 11.1 18.4999ZM18.9 18.4999C17.7399 18.4999 16.8 17.4265 16.8 16.0999C16.8 14.7734 17.7399 13.6999 18.9 13.6999C20.0602 13.6999 21 14.7734 21 16.0999C21 17.4265 20.0602 18.4999 18.9 18.4999Z" fill="currentColor"/>
</svg>
