<svg width="30" height="31" viewBox="0 0 30 31" fill="none" xmlns="http://www.w3.org/2000/svg">
<g clip-path="url(#clip0)">
<path d="M28.3448 0.5H1.65517C1.21619 0.5 0.795194 0.674384 0.484789 0.984789C0.174384 1.29519 0 1.71619 0 2.15517L0 28.8448C0 29.2838 0.174384 29.7048 0.484789 30.0152C0.795194 30.3256 1.21619 30.5 1.65517 30.5H16.0345V18.8983H12.1293V14.3569H16.0345V11.0155C16.0345 7.14138 18.4034 5.03103 21.8586 5.03103C23.023 5.0285 24.1866 5.0872 25.3448 5.2069V9.2569H22.9655C21.0828 9.2569 20.7155 10.1466 20.7155 11.4603V14.3517H25.2155L24.631 18.8931H20.6897V30.5H28.3448C28.7838 30.5 29.2048 30.3256 29.5152 30.0152C29.8256 29.7048 30 29.2838 30 28.8448V2.15517C30 1.71619 29.8256 1.29519 29.5152 0.984789C29.2048 0.674384 28.7838 0.5 28.3448 0.5V0.5Z" fill="currentColor"/>
<path d="M20.6897 30.5001V18.8983H24.6052L25.1897 14.357H20.6897V11.4656C20.6897 10.1518 21.0569 9.26213 22.9397 9.26213H25.3448V5.20696C24.185 5.08708 23.0195 5.02838 21.8535 5.0311C18.3931 5.0311 16.0345 7.14144 16.0345 11.0156V14.357H12.1293V18.8983H16.0345V30.5001H20.6897Z" fill="white"/>
</g>
<defs>
<clipPath id="clip0">
<rect width="30" height="30" fill="white" transform="translate(0 0.5)"/>
</clipPath>
</defs>
</svg>
