<svg width="30" height="31" viewBox="0 0 30 31" fill="none" xmlns="http://www.w3.org/2000/svg">
<g clip-path="url(#clip0)">
<path fill-rule="evenodd" clip-rule="evenodd" d="M14.9986 0.5C6.71659 0.5 0 7.21568 0 15.5014C0 22.1277 4.29755 27.7504 10.2581 29.7339C11.0086 29.8711 11.2821 29.4079 11.2821 29.011C11.2821 28.6546 11.2692 27.7117 11.2619 26.4594C7.08953 27.3664 6.20921 24.4492 6.20921 24.4492C5.52687 22.7162 4.54341 22.2548 4.54341 22.2548C3.18149 21.3238 4.64654 21.3432 4.64654 21.3432C6.15211 21.4491 6.94403 22.8883 6.94403 22.8883C8.28201 25.1812 10.4552 24.5192 11.3097 24.1352C11.446 23.1655 11.8337 22.5044 12.2619 22.1296C8.93121 21.7511 5.42926 20.4638 5.42926 14.7159C5.42926 13.0787 6.014 11.7398 6.97351 10.6909C6.81881 10.3115 6.30405 8.78662 7.12083 6.72118C7.12083 6.72118 8.37962 6.31786 11.2453 8.25899C12.4414 7.92656 13.7251 7.75989 15.0005 7.75437C16.2749 7.75989 17.5576 7.92656 18.7556 8.25899C21.6194 6.31786 22.8764 6.72118 22.8764 6.72118C23.695 8.78662 23.1803 10.3115 23.0265 10.6909C23.9878 11.7398 24.568 13.0787 24.568 14.7159C24.568 20.4785 21.0605 21.7465 17.7197 22.1176C18.2575 22.5808 18.7372 23.4961 18.7372 24.8958C18.7372 26.9014 18.7188 28.5193 18.7188 29.011C18.7188 29.4116 18.9895 29.8784 19.7501 29.732C25.7061 27.7449 30 22.1259 30 15.5014C30 7.21568 23.2834 0.5 14.9986 0.5Z" fill="currentColor"/>
</g>
<defs>
<clipPath id="clip0">
<rect width="30" height="30" fill="white" transform="translate(0 0.5)"/>
</clipPath>
</defs>
</svg>
