<svg width="30" height="31" viewBox="0 0 30 31" fill="none" xmlns="http://www.w3.org/2000/svg">
<g clip-path="url(#clip0)">
<path d="M14.9953 0.515503C10.9228 0.515503 10.4121 0.532765 8.81274 0.605741C7.21667 0.678598 6.12661 0.932051 5.17274 1.30276C4.18667 1.68598 3.35042 2.19872 2.51679 3.03235C1.68315 3.86598 1.17042 4.70223 0.787202 5.6883C0.416488 6.64211 0.163036 7.73217 0.0901786 9.32824C0.0172024 10.9276 0 11.4383 0 15.5108C0 19.5832 0.0172024 20.0939 0.0901786 21.6933C0.163036 23.2894 0.416488 24.3794 0.787202 25.3332C1.17042 26.3193 1.68315 27.1556 2.51679 27.9893C3.35042 28.8229 4.18667 29.3356 5.17274 29.7188C6.12661 30.0895 7.21667 30.343 8.81274 30.4158C10.4121 30.4888 10.9228 30.506 14.9953 30.506C19.0677 30.506 19.5784 30.4888 21.1778 30.4158C22.7739 30.343 23.8639 30.0895 24.8177 29.7188C25.8038 29.3356 26.6401 28.8229 27.4738 27.9893C28.3074 27.1556 28.8201 26.3193 29.2033 25.3332C29.574 24.3794 29.8275 23.2894 29.9003 21.6933C29.9733 20.0939 29.9905 19.5832 29.9905 15.5108C29.9905 11.4383 29.9733 10.9276 29.9003 9.32824C29.8275 7.73217 29.574 6.64211 29.2033 5.6883C28.8201 4.70223 28.3074 3.86598 27.4738 3.03235C26.6401 2.19872 25.8038 1.68598 24.8177 1.30276C23.8639 0.932051 22.7739 0.678598 21.1778 0.605741C19.5784 0.532765 19.0677 0.515503 14.9953 0.515503ZM14.9953 3.21741C18.9992 3.21741 19.4735 3.23265 21.0546 3.30479C22.5167 3.37152 23.3107 3.6158 23.839 3.8211C24.539 4.09312 25.0385 4.41812 25.5632 4.94283C26.088 5.46753 26.4129 5.96711 26.6849 6.66699C26.8903 7.19538 27.1346 7.98937 27.2013 9.4514C27.2734 11.0326 27.2887 11.5069 27.2887 15.5108C27.2887 19.5147 27.2734 19.989 27.2013 21.5702C27.1346 23.0322 26.8903 23.8262 26.6849 24.3546C26.4129 25.0545 26.088 25.554 25.5632 26.0787C25.0385 26.6035 24.539 26.9284 23.839 27.2004C23.3107 27.4058 22.5167 27.6501 21.0546 27.7168C19.4737 27.7889 18.9995 27.8042 14.9953 27.8042C10.9911 27.8042 10.5169 27.7889 8.93589 27.7168C7.47387 27.6501 6.67988 27.4058 6.15149 27.2004C5.45155 26.9284 4.95202 26.6035 4.42726 26.0787C3.90256 25.554 3.57756 25.0545 3.3056 24.3546C3.10024 23.8262 2.85595 23.0322 2.78923 21.5702C2.71708 19.989 2.70185 19.5147 2.70185 15.5108C2.70185 11.5069 2.71708 11.0326 2.78923 9.4514C2.85595 7.98937 3.10024 7.19538 3.3056 6.66699C3.57756 5.96711 3.90256 5.46753 4.42726 4.94283C4.95202 4.41812 5.45155 4.09312 6.15149 3.8211C6.67988 3.6158 7.47387 3.37152 8.93589 3.30479C10.5171 3.23265 10.9914 3.21741 14.9953 3.21741Z" fill="currentColor"/>
<path d="M14.9952 20.5081C12.2346 20.5081 9.99677 18.2703 9.99677 15.5097C9.99677 12.7492 12.2346 10.5113 14.9952 10.5113C17.7558 10.5113 19.9936 12.7492 19.9936 15.5097C19.9936 18.2703 17.7558 20.5081 14.9952 20.5081ZM14.9952 7.80945C10.7424 7.80945 7.29492 11.2569 7.29492 15.5097C7.29492 19.7625 10.7424 23.21 14.9952 23.21C19.248 23.21 22.6955 19.7625 22.6955 15.5097C22.6955 11.2569 19.248 7.80945 14.9952 7.80945Z" fill="currentColor"/>
<path d="M24.8024 7.4996C24.8024 8.49341 23.9967 9.299 23.0029 9.299C22.0092 9.299 21.2035 8.49341 21.2035 7.4996C21.2035 6.50579 22.0092 5.7002 23.0029 5.7002C23.9967 5.7002 24.8024 6.50579 24.8024 7.4996Z" fill="currentColor"/>
</g>
<defs>
<clipPath id="clip0">
<rect width="30" height="30" fill="white" transform="translate(0 0.5)"/>
</clipPath>
</defs>
</svg>
