<svg width="30" height="31" viewBox="0 0 30 31" fill="none" xmlns="http://www.w3.org/2000/svg">
<g clip-path="url(#clip0)">
<path d="M4.53015 0.501709H25.4698C27.9718 0.501709 30 2.52993 30 5.03186V25.9686C30 28.4705 27.9718 30.4987 25.4698 30.4987H4.53015C2.02822 30.4987 -1.90735e-06 28.4705 -1.90735e-06 25.9686V5.03186C-1.90735e-06 2.52993 2.02822 0.501709 4.53015 0.501709Z" fill="currentColor"/>
<path opacity="0.781116" d="M22.0739 1.78418H7.92592C4.18087 1.78418 1.16602 4.82363 1.16602 8.59913V22.4021C1.28724 25.3492 1.75352 23.4861 2.64107 20.2225C3.67259 16.4294 7.03202 13.1143 11.1231 10.6297C14.2457 8.73338 17.741 7.52243 24.1031 7.40723C27.7112 7.3419 27.3927 2.72453 22.074 1.78418H22.0739Z" fill="url(#paint0_linear)"/>
<path d="M9.59879 25.6775V12.0449H5.06759V25.6775H9.59879ZM7.33379 10.1825C8.91389 10.1825 9.89744 9.13566 9.89744 7.8275C9.868 6.48981 8.91395 5.47205 7.36379 5.47205C5.81384 5.47205 4.80029 6.48983 4.80029 7.8275C4.80029 9.13574 5.78359 10.1825 7.30424 10.1825H7.33369H7.33379Z" fill="white"/>
<path d="M12.1069 25.6775H16.6381V18.0644C16.6381 17.6569 16.6676 17.2499 16.7872 16.9587C17.1148 16.1446 17.8604 15.3015 19.1121 15.3015C20.7517 15.3015 21.4077 16.5516 21.4077 18.3843V25.6774H25.9386V17.8606C25.9386 13.6732 23.7031 11.7249 20.7219 11.7249C18.2775 11.7249 17.2042 13.0912 16.608 14.0218H16.6382V12.0447H12.107C12.1665 13.3239 12.107 25.6772 12.107 25.6772L12.1069 25.6775Z" fill="white"/>
</g>
<defs>
<linearGradient id="paint0_linear" x1="3.75731" y1="-2.57892" x2="7.66081" y2="8.7986" gradientUnits="userSpaceOnUse">
<stop stop-color="white"/>
<stop offset="1" stop-color="white" stop-opacity="0"/>
</linearGradient>
<clipPath id="clip0">
<rect width="30" height="30" fill="white" transform="translate(0 0.5)"/>
</clipPath>
</defs>
</svg>
