<svg width="30" height="31" viewBox="0 0 30 31" fill="none" xmlns="http://www.w3.org/2000/svg">
<g clip-path="url(#clip0)">
<path d="M30 0.5H0V30.5H30V0.5Z" fill="currentColor"/>
<path d="M7.15912 10.5331C7.18415 10.2857 7.08981 10.0412 6.90508 9.87469L5.0233 7.60779V7.26917H10.8662L15.3825 17.1739L19.353 7.26917H24.9231V7.60779L23.3142 9.15041C23.1755 9.25614 23.1067 9.42992 23.1354 9.60191V20.9364C23.1067 21.1084 23.1755 21.2822 23.3142 21.3879L24.8855 22.9305V23.2692H16.982V22.9305L18.6097 21.3503C18.7697 21.1904 18.7697 21.1434 18.7697 20.8988V11.7371L14.244 23.2315H13.6324L8.36345 11.7371V19.4408C8.31952 19.7647 8.42709 20.0908 8.65513 20.325L10.7721 22.8929V23.2315H4.76926V22.8929L6.88626 20.325C7.11264 20.0904 7.21393 19.7622 7.15912 19.4408V10.5331Z" fill="white"/>
</g>
<defs>
<clipPath id="clip0">
<rect width="30" height="30" fill="white" transform="translate(0 0.5)"/>
</clipPath>
</defs>
</svg>
