<svg width="30" height="31" viewBox="0 0 30 31" fill="none" xmlns="http://www.w3.org/2000/svg">
<g clip-path="url(#clip0)">
<path d="M17.7975 19.685C17.9037 19.79 17.9037 19.9613 17.7975 20.0675C17.2162 20.645 16.305 20.9263 15.0087 20.9263L14.9987 20.9238L14.9888 20.9263C13.6938 20.9263 12.7812 20.645 12.2 20.0662C12.0938 19.9613 12.0938 19.79 12.2 19.685C12.305 19.58 12.4775 19.58 12.5838 19.685C13.0575 20.1562 13.8438 20.3862 14.9888 20.3862L14.9987 20.3888L15.0087 20.3862C16.1525 20.3862 16.9387 20.1562 17.4137 19.685C17.52 19.58 17.6925 19.58 17.7975 19.685ZM13.4975 16.6625C13.4975 16.0288 12.98 15.5138 12.345 15.5138C11.7088 15.5138 11.1912 16.0288 11.1912 16.6625C11.1912 17.295 11.7088 17.81 12.345 17.81C12.98 17.8112 13.4975 17.2963 13.4975 16.6625ZM30 15.5C30 23.7838 23.2838 30.5 15 30.5C6.71625 30.5 0 23.7838 0 15.5C0 7.21625 6.71625 0.5 15 0.5C23.2838 0.5 30 7.21625 30 15.5ZM23.75 15.3388C23.75 14.275 22.8813 13.41 21.8125 13.41C21.2913 13.41 20.8187 13.6187 20.47 13.9537C19.15 13.085 17.3638 12.5325 15.3875 12.4613L16.4688 9.05625L19.3975 9.7425L19.3938 9.785C19.3938 10.655 20.105 11.3625 20.9788 11.3625C21.8525 11.3625 22.5625 10.655 22.5625 9.785C22.5625 8.915 21.8525 8.2075 20.9788 8.2075C20.3075 8.2075 19.7362 8.62625 19.505 9.2125L16.3488 8.4725C16.2113 8.43875 16.07 8.51875 16.0275 8.65375L14.8213 12.4513C12.7513 12.4762 10.8775 13.0337 9.49875 13.9275C9.1525 13.6087 8.69375 13.4087 8.18625 13.4087C7.11875 13.41 6.25 14.275 6.25 15.3388C6.25 16.0463 6.63875 16.6588 7.21 16.995C7.1725 17.2 7.1475 17.4088 7.1475 17.62C7.1475 20.4713 10.6537 22.7913 14.9637 22.7913C19.2738 22.7913 22.78 20.4713 22.78 17.62C22.78 17.42 22.7588 17.2237 22.725 17.03C23.3325 16.7038 23.75 16.0725 23.75 15.3388ZM17.66 15.515C17.0238 15.515 16.5075 16.03 16.5075 16.6637C16.5075 17.2962 17.025 17.8113 17.66 17.8113C18.295 17.8113 18.8125 17.2962 18.8125 16.6637C18.8125 16.03 18.2962 15.515 17.66 15.515Z" fill="currentColor"/>
</g>
<defs>
<clipPath id="clip0">
<rect width="30" height="30" fill="white" transform="translate(0 0.5)"/>
</clipPath>
</defs>
</svg>
