<svg width="30" height="31" viewBox="0 0 30 31" fill="none" xmlns="http://www.w3.org/2000/svg">
<g clip-path="url(#clip0)">
<path d="M23.751 24.6527C21.9686 26.3811 19.3761 27.4613 17.3236 27.6233C15.8653 27.7854 14.3529 27.7854 12.8946 27.6233C10.7341 27.3533 9.16777 26.7591 7.60142 26.165C8.35759 25.4088 9.16777 24.3826 9.49184 23.4644C9.70789 22.9243 9.65388 22.3301 9.43783 21.844C7.76346 18.4413 8.51962 14.3904 11.2202 11.7438C13.1647 9.79934 15.8653 8.93515 18.6199 9.25922C20.6183 9.52928 22.4547 10.3935 23.9131 11.7978C27.3698 15.3086 27.2618 21.1959 23.751 24.6527ZM25.8575 9.58329C24.6152 8.34102 23.1569 7.42281 21.5906 6.82868C22.5088 4.18208 25.7495 3.20987 25.7495 3.20987C25.7495 3.20987 18.2958 -0.679004 10.086 0.887347C7.33136 1.31944 4.68477 2.99382 2.79434 5.20831C-1.36459 10.0154 -0.824468 17.307 4.03662 21.4119C4.79279 22.0601 6.46716 23.0323 6.46716 23.0863C5.38692 25.8949 1.87614 26.6511 1.87614 26.6511C1.87614 26.6511 6.52118 29.5678 12.7326 30.3239C14.4069 30.54 16.1353 30.594 17.9177 30.378C20.7804 30.1619 23.643 28.5956 25.8575 26.4891C30.5025 21.844 30.5566 14.2823 25.8575 9.58329Z" fill="currentColor"/>
</g>
<defs>
<clipPath id="clip0">
<rect width="30" height="30" fill="white" transform="translate(0 0.5)"/>
</clipPath>
</defs>
</svg>
