<svg width="30" height="31" viewBox="0 0 30 31" fill="none" xmlns="http://www.w3.org/2000/svg">
<g clip-path="url(#clip0)">
<path d="M15 30.5C23.2843 30.5 30 23.7843 30 15.5C30 7.21573 23.2843 0.5 15 0.5C6.71573 0.5 0 7.21573 0 15.5C0 23.7843 6.71573 30.5 15 30.5Z" fill="currentColor"/>
<path d="M10.1514 16.5918L11.9311 21.5177C11.9311 21.5177 12.1535 21.9778 12.3913 21.9778C12.629 21.9778 16.173 18.2914 16.173 18.2914L20.1137 10.6808L10.215 15.3206L10.1514 16.5918Z" fill="#C8DAEA"/>
<path d="M12.5134 17.8585L12.1714 21.4852C12.1714 21.4852 12.0291 22.5975 13.1414 21.4852C14.2536 20.3729 15.3176 19.5149 15.3176 19.5149" fill="#A9C6D8"/>
<path d="M10.1811 16.7756L6.52139 15.5832C6.52139 15.5832 6.0841 15.4052 6.22393 15.0035C6.25317 14.9197 6.31165 14.8497 6.48707 14.7277C7.29809 14.162 21.4998 9.05694 21.4998 9.05694C21.4998 9.05694 21.9002 8.92219 22.1354 9.01245C22.2535 9.04893 22.3433 9.14605 22.3705 9.26669C22.3961 9.37232 22.4068 9.48101 22.4023 9.58957C22.4023 9.68363 22.3896 9.77135 22.382 9.90736C22.2943 11.3057 19.7125 21.7192 19.7125 21.7192C19.7125 21.7192 19.5574 22.3281 19.0019 22.3548C18.7264 22.3638 18.4587 22.2606 18.2608 22.0688C17.1714 21.1319 13.4087 18.6023 12.5773 18.0468C12.5394 18.0211 12.5144 17.9803 12.5087 17.9349C12.4972 17.8764 12.5608 17.8078 12.5608 17.8078C12.5608 17.8078 19.1138 11.9832 19.2879 11.3718C19.3019 11.3247 19.2511 11.3006 19.1824 11.3209C18.7464 11.4811 11.2019 16.2468 10.3693 16.7718C10.3079 16.7884 10.2432 16.7897 10.1811 16.7756Z" fill="white"/>
</g>
<defs>
<clipPath id="clip0">
<rect width="30" height="30" fill="white" transform="translate(0 0.5)"/>
</clipPath>
</defs>
</svg>
