<?xml version="1.0" encoding="UTF-8" standalone="no"?>
<svg
   xmlns:dc="http://purl.org/dc/elements/1.1/"
   xmlns:cc="http://creativecommons.org/ns#"
   xmlns:rdf="http://www.w3.org/1999/02/22-rdf-syntax-ns#"
   xmlns:svg="http://www.w3.org/2000/svg"
   xmlns="http://www.w3.org/2000/svg"
   xmlns:sodipodi="http://sodipodi.sourceforge.net/DTD/sodipodi-0.dtd"
   xmlns:inkscape="http://www.inkscape.org/namespaces/inkscape"
   width="46"
   height="47"
   viewBox="0 0 46 47"
   fill="none"
   version="1.1"
   id="svg4"
   sodipodi:docname="twitter.svg"
   inkscape:version="0.92.5 (2060ec1f9f, 2020-04-08)">
  <metadata
     id="metadata10">
    <rdf:RDF>
      <cc:Work
         rdf:about="">
        <dc:format>image/svg+xml</dc:format>
        <dc:type
           rdf:resource="http://purl.org/dc/dcmitype/StillImage" />
      </cc:Work>
    </rdf:RDF>
  </metadata>
  <defs
     id="defs8" />
  <sodipodi:namedview
     pagecolor="#ffffff"
     bordercolor="#666666"
     borderopacity="1"
     objecttolerance="10"
     gridtolerance="10"
     guidetolerance="10"
     inkscape:pageopacity="0"
     inkscape:pageshadow="2"
     inkscape:window-width="1920"
     inkscape:window-height="1017"
     id="namedview6"
     showgrid="false"
     inkscape:zoom="7.1011575"
     inkscape:cx="19.837706"
     inkscape:cy="25.317346"
     inkscape:window-x="-8"
     inkscape:window-y="-8"
     inkscape:window-maximized="1"
     inkscape:current-layer="svg4" />
  <path
     d="m 14.479011,41.265515 c 17.332257,0 26.812271,-14.359648 26.812271,-26.812271 0,-0.40786 0,-0.813964 -0.02748,-1.218151 1.844241,-1.333975 3.436226,-2.985708 4.701345,-4.8777177 -1.71979,0.7620439 -3.544221,1.2617652 -5.412425,1.4825502 1.967253,-1.177732 3.43942,-3.0299614 4.142992,-5.2120904 -1.849833,1.0975348 -3.873642,1.871241 -5.983879,2.2872495 C 37.291112,5.4044171 35.411884,4.4040153 33.36539,4.0686839 31.318736,3.7335131 29.218563,4.0822657 27.390138,5.0607781 25.561553,6.0392935 24.106641,7.5932553 23.25018,9.4820689 22.393879,11.371041 22.183798,13.489427 22.652687,15.509562 18.906212,15.321847 15.241054,14.348124 11.895252,12.651978 8.5494495,10.955832 5.5976091,8.5749657 3.2316,5.6640233 2.0265642,7.7384751 1.6574763,10.194267 2.199502,12.531361 c 0.5419618,2.337093 1.9543785,4.379753 3.9495899,5.711971 -1.4996435,-0.04441 -2.966538,-0.448918 -4.2770292,-1.179488 0,0.03866 0,0.07907 0,0.119497 5.909e-4,2.175579 0.7537362,4.28406 2.1316459,5.967743 1.3779086,1.683686 3.295958,2.838893 5.4285613,3.26976 -1.3873342,0.378305 -2.8430452,0.43358 -4.2551428,0.161674 0.602286,1.872358 1.7745877,3.509714 3.3531513,4.683133 1.5785646,1.173419 3.4843126,1.824111 5.4509286,1.861016 -3.337016,2.622419 -7.4590807,4.046019 -11.7032004,4.041865 -0.7496775,-0.0015 -1.49871723,-0.04681 -2.24315551,-0.135953 4.30946011,2.765403 9.32361121,4.232297 14.44415991,4.225588"
     id="path2"
     inkscape:connector-curvature="0"
     style="fill:currentColor;stroke-width:1.59757555" />
</svg>
