<svg width="30" height="31" viewBox="0 0 30 31" fill="none" xmlns="http://www.w3.org/2000/svg">
<g clip-path="url(#clip0)">
<path fill-rule="evenodd" clip-rule="evenodd" d="M19.6047 0.5H10.3953C1.99 0.5 0 2.49 0 10.8953V20.1047C0 28.51 1.99 30.5 10.3953 30.5H19.6047C28.01 30.5 30 28.51 30 20.1047V10.8953C30 2.49 27.9888 0.5 19.6047 0.5V0.5ZM24.2202 21.9045H22.0395C21.2137 21.9045 20.9598 21.248 19.4778 19.745C18.1863 18.4958 17.6148 18.3265 17.297 18.3265C16.8525 18.3265 16.7255 18.4535 16.7255 19.0675V21.0362C16.7255 21.5658 16.556 21.8832 15.1587 21.8832C12.851 21.8832 10.2892 20.486 8.48975 17.8818C5.77975 14.071 5.03875 11.2127 5.03875 10.62C5.03875 10.3025 5.16575 10.006 5.77975 10.006H7.9605C8.511 10.006 8.72275 10.26 8.93425 10.8527C10.014 13.965 11.8138 16.6963 12.5548 16.6963C12.83 16.6963 12.957 16.5693 12.957 15.8705V12.6525C12.8722 11.1705 12.089 11.0435 12.089 10.514C12.089 10.26 12.3007 10.006 12.6395 10.006H16.0693C16.535 10.006 16.7043 10.26 16.7043 10.8105V15.1508C16.7043 15.6165 16.916 15.7858 17.043 15.7858C17.3182 15.7858 17.5513 15.6165 18.0592 15.1082C19.626 13.351 20.748 10.6412 20.748 10.6412C20.8962 10.3235 21.1502 10.0273 21.7008 10.0273H23.8815C24.5378 10.0273 24.686 10.366 24.5378 10.8317C24.2625 12.102 21.595 15.8705 21.595 15.8705C21.362 16.2515 21.2772 16.421 21.595 16.8445C21.8277 17.162 22.59 17.8182 23.098 18.411C24.0297 19.4697 24.7495 20.3587 24.94 20.9727C25.1518 21.5868 24.8342 21.9045 24.2202 21.9045Z" fill="currentColor"/>
</g>
<defs>
<clipPath id="clip0">
<rect width="30" height="30" fill="white" transform="translate(0 0.5)"/>
</clipPath>
</defs>
</svg>
