<svg width="30" height="31" viewBox="0 0 30 31" fill="none" xmlns="http://www.w3.org/2000/svg">
<g clip-path="url(#clip0)">
<path fill-rule="evenodd" clip-rule="evenodd" d="M14.8347 0.5C8.65179 0.500588 4.36758 0.521158 2.16846 2.66866C0.0210798 4.86728 0.000505463 9.35269 0.000505463 15.3344C6.64255 15.134 9.67992 14.9677 12.1024 12.6021C14.4679 10.1796 14.6342 7.14231 14.8347 0.5ZM2.16808 28.3316C0.0206964 26.1329 0.00012207 21.6476 0.00012207 15.6658C6.64217 15.8663 9.67954 16.0326 12.102 18.3981C14.4675 20.8206 14.6339 23.8579 14.8343 30.4997C8.65142 30.4997 4.3672 30.4797 2.16808 28.3316ZM15.1659 30.4997C15.3663 23.8579 15.5327 20.8206 17.8982 18.3981C20.3206 16.0326 23.358 15.8663 30 15.6658C29.9994 21.6476 29.9789 26.1329 27.8315 28.3316C25.6324 30.4797 21.3488 30.4997 15.1659 30.4997ZM15.1659 0.5C15.3663 7.14231 15.5327 10.1796 17.8982 12.6021C20.3206 14.9677 23.358 15.134 30 15.3344C29.9994 9.35269 29.9789 4.86728 27.8315 2.66866C25.6324 0.521158 21.3488 0.500588 15.1659 0.5Z" fill="currentColor"/>
<path fill-rule="evenodd" clip-rule="evenodd" d="M17.8982 18.3981C15.5327 20.8206 15.3663 23.8579 15.1659 30.4997C21.3488 30.4997 25.6324 30.4797 27.8315 28.3316C29.9789 26.1329 29.9994 21.6476 30 15.6658C23.358 15.8663 20.3206 16.0326 17.8982 18.3981ZM0.00012207 15.6658C0.00012207 21.6476 0.0206964 26.1329 2.16808 28.3316C4.3672 30.4797 8.65142 30.4997 14.8343 30.4997C14.6339 23.8579 14.4675 20.8206 12.102 18.3981C9.67954 16.0326 6.64217 15.8663 0.00012207 15.6658ZM14.8347 0.5C8.65179 0.500588 4.36758 0.521158 2.16846 2.66866C0.0210798 4.86728 0.000505463 9.35269 0.000505463 15.3344C6.64255 15.134 9.67992 14.9677 12.1024 12.6021C14.4679 10.1796 14.6342 7.14231 14.8347 0.5ZM17.8982 12.6021C15.5327 10.1796 15.3663 7.14231 15.1659 0.5C21.3488 0.500588 25.6324 0.521158 27.8315 2.66866C29.9789 4.86728 29.9994 9.35269 30 15.3344C23.358 15.134 20.3206 14.9677 17.8982 12.6021Z" fill="url(#paint0_linear)"/>
<path fill-rule="evenodd" clip-rule="evenodd" d="M29.9999 15.6663V15.5006V15.3354C23.3579 15.1344 20.3205 14.9687 17.898 12.6026C15.5326 10.1806 15.3662 7.1433 15.1657 0.500977H14.9999H14.8342C14.6337 7.1433 14.4674 10.1806 12.1019 12.6026C9.67937 14.9687 6.642 15.1344 0 15.3354V15.5006V15.6663C6.642 15.8672 9.67937 16.033 12.1019 18.3986C14.4674 20.8211 14.6337 23.8584 14.8342 30.5007H14.9999H15.1657C15.3662 23.8584 15.5326 20.8211 17.898 18.3986C20.3205 16.033 23.3579 15.8672 29.9999 15.6663Z" fill="white"/>
</g>
<defs>
<linearGradient id="paint0_linear" x1="30" y1="30.4997" x2="30" y2="0.5" gradientUnits="userSpaceOnUse">
<stop stop-color="white" stop-opacity="0.01"/>
<stop offset="0.47509" stop-color="white" stop-opacity="0.01"/>
<stop offset="0.76042" stop-color="white" stop-opacity="0.04271"/>
<stop offset="0.99531" stop-color="white" stop-opacity="0.09855"/>
<stop offset="1" stop-color="white" stop-opacity="0.1"/>
</linearGradient>
<clipPath id="clip0">
<rect width="30" height="30" fill="white" transform="translate(0 0.5)"/>
</clipPath>
</defs>
</svg>
