<svg width="100" height="100" viewBox="0 0 100 100" fill="none" xmlns="http://www.w3.org/2000/svg">
<path fill-rule="evenodd" clip-rule="evenodd" d="M100 50.0002C100 22.3857 77.6144 0 50 0C22.3858 0 0 22.3857 0 50.0002C0 77.614 22.3858 100 50 100C77.6144 100 100 77.614 100 50.0002ZM99.6473 50.0002C99.6473 77.4194 77.4197 99.6473 50 99.6473C22.5805 99.6473 0.352633 77.4194 0.352633 50.0002C0.352633 22.5805 22.5805 0.352675 50 0.352675C77.4197 0.352675 99.6473 22.5805 99.6473 50.0002ZM98.4618 50.0002C98.4618 23.2353 76.7651 1.53807 50 1.53807C23.2354 1.53807 1.53799 23.2353 1.53799 50.0002C1.53799 76.7647 23.2354 98.4618 50 98.4618C76.7651 98.4618 98.4618 76.7647 98.4618 50.0002ZM24.9185 77.3148L16.4897 84.0256C25.1122 92.5173 36.9445 97.7564 50 97.7564H50.022L48.1515 87.0382C39.2075 86.5985 31.0966 82.9909 24.9185 77.3148ZM75.157 77.2455C68.9803 82.952 60.8562 86.5849 51.8925 87.0356L50.022 97.7564C63.1049 97.75 74.9573 92.4836 83.5782 83.9587L75.157 77.2455ZM56.3937 90.8636L56.2287 90.8772C56.084 90.4964 55.8796 90.2039 55.6155 89.9991C55.3515 89.7943 55.0447 89.7063 54.6943 89.7346C54.5216 89.7486 54.3672 89.7955 54.2301 89.8768C54.093 89.9576 53.988 90.0656 53.9153 90.201C53.8425 90.3364 53.8124 90.487 53.8255 90.6537C53.834 90.7498 53.8576 90.8434 53.8979 90.9336C53.9376 91.0246 54.0253 91.1327 54.1606 91.2582C54.2961 91.3836 54.4971 91.5182 54.765 91.6609C55.0645 91.8164 55.2478 91.9146 55.3138 91.9582C55.6875 92.1527 55.9955 92.3364 56.2372 92.51C56.4788 92.6845 56.668 92.8782 56.8046 93.0918C56.9414 93.3046 57.0209 93.5527 57.0442 93.8355C57.0649 94.0955 57.034 94.3364 56.9511 94.5573C56.8682 94.7791 56.7399 94.9755 56.5681 95.1473C56.3955 95.3191 56.1847 95.4582 55.9363 95.5655C55.6879 95.6718 55.4137 95.7382 55.1141 95.7618C54.806 95.7873 54.4455 95.7582 54.032 95.6745C53.9859 95.6673 53.9279 95.6591 53.8573 95.6509C53.787 95.6418 53.7248 95.64 53.6711 95.6445C53.5386 95.6545 53.448 95.7327 53.3998 95.8755L53.2517 95.8873L53.1472 94.1209L53.3126 94.1073C53.393 94.4364 53.5305 94.7064 53.7252 94.9145C53.9199 95.1236 54.1327 95.2691 54.3638 95.3518C54.5953 95.4336 54.8183 95.4664 55.0333 95.4491C55.3468 95.4236 55.5986 95.3146 55.7895 95.1227C55.9799 94.9309 56.0654 94.71 56.0451 94.4582C56.0311 94.2891 55.9765 94.1445 55.8796 94.0264C55.7836 93.9073 55.6439 93.7927 55.4619 93.6845C55.2795 93.5755 54.9372 93.3873 54.4353 93.1209C54.1704 92.9773 53.9435 92.8373 53.7548 92.6982C53.5657 92.56 53.4163 92.4255 53.3063 92.2936C53.1958 92.1618 53.1145 92.0273 53.0625 91.8909C53.0101 91.7545 52.9779 91.6064 52.9647 91.4482C52.9398 91.1436 52.994 90.8362 53.1268 90.5268C53.2593 90.2175 53.4625 89.9576 53.7354 89.746C54.0084 89.5349 54.3299 89.4143 54.6998 89.3843C54.872 89.3703 55.0387 89.3741 55.2 89.3953C55.2427 89.3974 55.3003 89.405 55.3722 89.4173C55.4445 89.4299 55.5046 89.4401 55.5542 89.4473C55.6803 89.46 55.7743 89.4638 55.8365 89.4587C55.9325 89.4511 55.9981 89.4299 56.0341 89.3956C56.0696 89.3614 56.1022 89.3135 56.131 89.2514L56.2622 89.2407L56.3937 90.8636ZM57.2761 89.1235L57.2554 89.0115L60.1295 88.4748L60.152 88.595C59.8334 88.6546 59.6416 88.7655 59.5761 88.9285C59.51 89.091 59.4999 89.2915 59.5443 89.5294L60.3463 93.8245C60.3721 93.96 60.4072 94.0791 60.452 94.1827C60.4974 94.2855 60.5811 94.3709 60.7043 94.4382C60.827 94.5064 60.9979 94.5191 61.2163 94.4782L61.2497 94.4718L61.2725 94.5927L58.3984 95.13L58.3755 95.0091C58.6912 94.95 58.8829 94.84 58.9502 94.6782C59.017 94.5173 59.0285 94.3164 58.984 94.0782L58.1817 89.7841C58.1292 89.5015 58.0294 89.3089 57.8829 89.2061C57.7361 89.1033 57.5338 89.0757 57.2761 89.1235ZM67.8924 85.4703L67.9364 85.5803C67.7942 85.6497 67.6812 85.717 67.5974 85.7817C67.5132 85.8465 67.4585 85.9392 67.434 86.0597C67.4091 86.1799 67.4437 86.3297 67.5368 86.5096L69.362 90.1328C69.4911 90.3863 69.607 90.5653 69.7095 90.6695C69.8118 90.7735 69.91 90.8311 70.0048 90.8429C70.0992 90.8547 70.2375 90.8459 70.4195 90.8163L70.464 90.9255L67.9025 91.9636L67.8581 91.8536C68.0705 91.7618 68.2161 91.6364 68.2947 91.4782C68.3735 91.32 68.335 91.0855 68.1796 90.7748L66.4671 87.3315L66.4518 87.3374L66.4438 92.5545L66.3114 92.6082L62.6771 89.0389L62.6623 89.0448L63.6758 92.2555C63.7748 92.5718 63.8912 92.7964 64.0249 92.9327C64.1591 93.0673 64.2924 93.1373 64.4248 93.1409C64.5573 93.1445 64.6999 93.1209 64.8531 93.0709L64.8979 93.1809L63.0029 93.9482L62.9585 93.8382C63.1926 93.7264 63.3347 93.5564 63.3855 93.33C63.4367 93.1036 63.4003 92.7764 63.2764 92.3464L62.2209 88.6636C61.8333 88.3822 61.4233 88.2925 60.9912 88.394L60.9467 88.284L62.9627 87.4673L66.0642 90.4854L66.0735 86.207L67.8924 85.4703ZM74.6597 88.5556L71.4838 90.4557L71.4216 90.352C71.6984 90.1862 71.8397 90.0177 71.8439 89.8464C71.8486 89.6754 71.7889 89.4871 71.6666 89.2818L69.4513 85.579C69.3387 85.3903 69.2067 85.2506 69.0569 85.1593C68.9063 85.0675 68.6989 85.1008 68.4335 85.2595L68.3904 85.2854L68.3286 85.1813L71.0785 83.5359C71.4436 83.3176 71.772 83.1779 72.0632 83.1175C72.2134 83.0925 72.3818 83.084 72.5685 83.092C72.7546 83.1005 72.9514 83.1517 73.1584 83.2452C73.3648 83.3384 73.5337 83.4949 73.6653 83.7149C73.8325 83.9943 73.8866 84.268 73.8286 84.5364C73.7703 84.8046 73.6636 85.0332 73.5095 85.2227C73.3555 85.4123 73.1973 85.5799 73.0352 85.7255L73.0436 85.7398C73.2027 85.6641 73.3885 85.5917 73.6018 85.5224C73.8147 85.4534 74.0377 85.4145 74.27 85.4047C74.5027 85.3954 74.7355 85.4449 74.9691 85.5532C75.2027 85.6615 75.402 85.8541 75.5679 86.1308C75.7418 86.4225 75.8172 86.717 75.7926 87.0149C75.7685 87.3132 75.6674 87.5951 75.4887 87.8604C75.3846 88.0169 75.2687 88.1431 75.1414 88.2387C75.014 88.3344 74.8535 88.4401 74.6597 88.5556ZM72.1749 86.5557L71.7741 86.7961L72.783 88.4825C72.9362 88.738 73.0957 88.862 73.2633 88.854C73.43 88.8468 73.612 88.7842 73.8075 88.6669C73.9365 88.5899 74.0534 88.5087 74.1579 88.4232C74.2624 88.3382 74.3555 88.2255 74.4376 88.0864C74.5188 87.9463 74.5556 87.7745 74.5472 87.5705C74.5387 87.3669 74.4558 87.1334 74.2988 86.8706C74.124 86.5795 73.923 86.3852 73.6954 86.2883C73.4668 86.1918 73.2252 86.1711 72.97 86.2261C72.7145 86.2819 72.4495 86.392 72.1749 86.5557ZM75.3817 80.9165L79.974 83.3218C80.2131 83.442 80.4145 83.4915 80.5779 83.4712C80.7416 83.4509 80.9093 83.3875 81.0815 83.2812L81.1534 83.3637L79.1598 85.1051L79.0875 85.0222C79.3465 84.7691 79.4078 84.5647 79.2711 84.4086C79.2495 84.3836 79.2153 84.3526 79.1675 84.3155C79.1196 84.2782 79.0667 84.2401 79.0084 84.2025C78.9499 84.1644 78.914 84.1415 78.9 84.133L77.768 83.5456L76.5112 84.6434L76.9618 85.7653C77.0135 85.9015 77.0756 86.0111 77.1493 86.0949C77.2623 86.2248 77.3765 86.2785 77.4916 86.257C77.6072 86.235 77.7235 86.1859 77.8421 86.1097L77.914 86.1926L76.6516 87.295L76.5789 87.2125C76.6986 87.0843 76.768 86.9155 76.7866 86.7064C76.8053 86.4969 76.7396 86.1995 76.5903 85.8126L74.8362 81.3935L75.3817 80.9165ZM70.6959 84.1644L70.3303 84.3827L71.5985 86.5024L71.9637 86.2836C72.2358 86.1207 72.4596 85.8986 72.6349 85.6171C72.8101 85.3362 72.7593 84.9637 72.4821 84.5008C72.2777 84.1593 72.0098 83.9545 71.6776 83.8872C71.5595 83.858 71.4275 83.8596 71.2824 83.8931C71.1368 83.9266 70.9413 84.0166 70.6959 84.1644ZM86.3779 49.9997C86.3779 70.0908 70.0912 86.378 50 86.378C29.9091 86.378 13.622 70.0908 13.622 49.9997C13.622 29.9088 29.9091 13.6219 50 13.6219C70.0912 13.6219 86.3779 29.9088 86.3779 49.9997ZM49.4144 85.9277C49.2586 85.9248 49.1257 85.8659 49.0153 85.7508C48.9053 85.6357 48.8515 85.5004 48.854 85.3442C48.857 85.1885 48.915 85.0568 49.0284 84.9498C49.1418 84.8431 49.2772 84.7906 49.4346 84.7936C49.5984 84.7965 49.7325 84.8516 49.8366 84.9595C49.9404 85.0675 49.9911 85.2028 49.9882 85.367C49.9852 85.5262 49.9281 85.6599 49.8164 85.7686C49.7042 85.8774 49.5705 85.9303 49.4144 85.9277ZM51.3749 85.9096C51.2187 85.9155 51.0829 85.8638 50.9665 85.7551C50.8505 85.6459 50.7896 85.5135 50.7842 85.3577C50.7782 85.2015 50.8295 85.0675 50.9369 84.9545C51.0444 84.8415 51.1768 84.7818 51.3343 84.7763C51.498 84.7704 51.6347 84.8185 51.7444 84.9205C51.8539 85.0225 51.9115 85.1555 51.9174 85.3192C51.9234 85.4784 51.873 85.6155 51.7672 85.7297C51.6614 85.8439 51.5306 85.904 51.3749 85.9096ZM47.4542 85.8397C47.2988 85.8287 47.1689 85.7627 47.0653 85.6421C46.9612 85.5211 46.915 85.3831 46.926 85.2274C46.9375 85.0716 47.0026 84.9438 47.1215 84.8431C47.2405 84.742 47.3785 84.6972 47.5358 84.709C47.6992 84.7205 47.8299 84.783 47.9281 84.896C48.0259 85.009 48.069 85.1478 48.0572 85.3112C48.0457 85.4698 47.9815 85.6006 47.8638 85.703C47.7465 85.8055 47.6099 85.8512 47.4542 85.8397ZM53.3329 85.7864C53.1776 85.8004 53.0388 85.7559 52.9169 85.6535C52.7951 85.5511 52.7269 85.422 52.713 85.2667C52.699 85.1115 52.7426 84.9744 52.8437 84.8558C52.9449 84.7374 53.0739 84.6709 53.2309 84.6569C53.3943 84.6421 53.5335 84.6824 53.6482 84.7784C53.7633 84.8745 53.8281 85.0039 53.8428 85.1673C53.8573 85.326 53.8145 85.4652 53.7151 85.5854C53.6156 85.7052 53.4883 85.772 53.3329 85.7864ZM45.5012 85.6464C45.3467 85.6265 45.2206 85.5536 45.1233 85.4271C45.0264 85.301 44.9879 85.1606 45.0074 85.0056C45.0268 84.8512 45.0987 84.7264 45.2232 84.6324C45.3476 84.5385 45.4876 84.5012 45.6438 84.5211C45.8067 84.5418 45.9337 84.6113 46.0255 84.7293C46.1174 84.8478 46.1529 84.9883 46.1322 85.1512C46.1118 85.3086 46.0404 85.4355 45.9176 85.5316C45.7949 85.6277 45.6561 85.6658 45.5012 85.6464ZM55.2829 85.5566C55.1285 85.579 54.9875 85.5422 54.8602 85.4465C54.7328 85.3509 54.6579 85.2261 54.6355 85.0716C54.613 84.9172 54.649 84.778 54.7438 84.654C54.8386 84.53 54.9635 84.4568 55.1195 84.4344C55.2816 84.4106 55.4225 84.4436 55.5427 84.5329C55.6625 84.6226 55.7345 84.7484 55.7582 84.9105C55.781 85.0683 55.7463 85.2096 55.6536 85.3348C55.5605 85.4601 55.4374 85.5342 55.2829 85.5566ZM43.5626 85.3463C43.4095 85.3184 43.2875 85.2384 43.1975 85.1072C43.1073 84.9755 43.0764 84.8334 43.1044 84.6798C43.1327 84.5266 43.2114 84.406 43.3405 84.3188C43.4695 84.2316 43.6117 84.2025 43.767 84.2308C43.9278 84.2605 44.0514 84.3365 44.136 84.4597C44.2215 84.5829 44.2495 84.7251 44.2198 84.8863C44.1911 85.0429 44.1127 85.166 43.985 85.2549C43.8567 85.3437 43.7163 85.3742 43.5626 85.3463ZM57.213 85.221C57.0603 85.2519 56.9176 85.2232 56.7852 85.1343C56.6532 85.0458 56.5715 84.9253 56.5406 84.7725C56.5097 84.6193 56.5381 84.4784 56.6253 84.3497C56.7133 84.2206 56.8343 84.1406 56.9887 84.1094C57.1495 84.0767 57.2922 84.1022 57.417 84.1846C57.5415 84.2676 57.6202 84.3895 57.6527 84.5503C57.684 84.706 57.6569 84.8495 57.5711 84.9794C57.4852 85.1097 57.3663 85.1902 57.213 85.221ZM41.6425 84.9405C41.4909 84.9036 41.3736 84.8177 41.2909 84.6815C41.2082 84.5452 41.1851 84.4014 41.2216 84.2498C41.2581 84.0979 41.3433 83.9824 41.4769 83.9025C41.6108 83.8225 41.7543 83.8008 41.9075 83.8376C42.0671 83.8757 42.1857 83.9587 42.2639 84.0869C42.3422 84.2143 42.3621 84.3577 42.324 84.5173C42.2865 84.6717 42.2016 84.7903 42.0689 84.8724C41.9363 84.9545 41.7942 84.9768 41.6425 84.9405ZM59.1275 84.7793C58.976 84.8186 58.8321 84.7975 58.6955 84.7162C58.5584 84.6354 58.4699 84.5194 58.4309 84.3684C58.3916 84.2173 58.4124 84.0751 58.4927 83.9414C58.5731 83.8081 58.6895 83.7213 58.8418 83.6815C59.0005 83.6405 59.1445 83.6574 59.2735 83.7336C59.4025 83.8094 59.488 83.9265 59.5291 84.0853C59.5693 84.2393 59.5498 84.3835 59.4715 84.5185C59.3928 84.6531 59.2782 84.7399 59.1275 84.7793ZM84.4614 50.0002C84.4614 30.9675 69.0328 15.5386 50 15.5386C30.9675 15.5386 15.5386 30.9675 15.5386 50.0002C15.5386 69.0325 30.9675 84.4615 50 84.4615C69.0328 84.4615 84.4614 69.0325 84.4614 50.0002ZM39.7481 84.4293C39.5987 84.3845 39.4865 84.2922 39.4113 84.1516C39.3362 84.0112 39.3211 83.866 39.3658 83.7166C39.4106 83.5673 39.5021 83.4564 39.64 83.3836C39.7781 83.3113 39.9225 83.2977 40.0735 83.343C40.2305 83.39 40.3446 83.4793 40.4156 83.6108C40.4867 83.7429 40.4987 83.8872 40.4516 84.0442C40.4059 84.1969 40.3146 84.3104 40.1776 84.3848C40.0408 84.4594 39.8975 84.4741 39.7481 84.4293ZM76.3639 84.2786L77.4121 83.3633L75.6322 82.42L76.3639 84.2786ZM61.014 84.2325C60.8655 84.2799 60.7207 84.2668 60.5795 84.1936C60.4381 84.1199 60.3437 84.0091 60.2963 83.8605C60.2485 83.712 60.2616 83.5686 60.3344 83.431C60.4072 83.293 60.5185 83.1999 60.6687 83.1521C60.8248 83.1022 60.9695 83.1115 61.1025 83.1801C61.2357 83.2486 61.3272 83.3612 61.3771 83.5174C61.4254 83.6688 61.4144 83.814 61.3433 83.9528C61.2725 84.0915 61.163 84.1846 61.014 84.2325ZM84.1089 50.0002C84.1089 68.8378 68.8377 84.1086 50 84.1086C31.1624 84.1086 15.8913 68.8378 15.8913 50.0002C15.8913 31.1622 31.1624 15.8913 50 15.8913C68.8377 15.8913 84.1089 31.1622 84.1089 50.0002ZM2.24335 49.924L2.24325 50.0002C2.24325 63.3115 7.68966 75.3509 16.4745 84.0107L23.1708 75.6001C17.2023 69.346 13.3985 61.0107 12.9593 51.794L2.24335 49.924ZM97.7564 49.924L87.0411 51.794C86.6031 60.9718 82.83 69.2749 76.9073 75.518L83.6104 83.927C92.3455 75.2747 97.7564 63.2693 97.7564 50.0002V49.924ZM37.887 83.8161C37.7403 83.7632 37.6333 83.6646 37.5661 83.5203C37.4987 83.376 37.4916 83.23 37.5445 83.0835C37.5975 82.9367 37.6948 82.8309 37.8365 82.7662C37.9783 82.7015 38.1235 82.6955 38.2717 82.7493C38.4258 82.8047 38.5348 82.9004 38.5985 83.0357C38.6623 83.1712 38.6662 83.3159 38.6106 83.4704C38.5566 83.6202 38.4594 83.7281 38.3185 83.7954C38.1775 83.8622 38.0339 83.869 37.887 83.8161ZM50.0161 79.933C49.821 79.8209 48.9636 79.1413 48.7423 78.4366C48.4998 77.6661 48.4123 77.5086 48.4123 77.5086L48.0415 78.4227C48.0415 78.4227 47.7135 78.3795 47.3429 77.5945C46.9726 76.8092 47.0149 77.0376 47.0149 77.0376L46.2883 77.7372C46.2883 77.7372 46.1741 78.0085 45.7179 76.8806L45.2621 75.7529L44.3641 76.752C44.3641 76.752 44.1788 76.8828 43.5228 75.5256C42.8674 74.1681 42.9389 74.0399 42.9389 74.0399L41.9551 75.3818C41.9551 75.3818 41.5845 75.2675 40.9859 73.9684C40.3873 72.6692 40.0024 71.2418 40.0024 71.2418L40.0355 71.2528C39.7365 70.6346 39.4103 69.8018 39.4724 69.2123C39.5829 68.1607 39.6565 67.4964 39.3983 67.1455C39.3039 67.0173 39.2231 66.7638 39.1173 66.3953C39.1139 66.7782 39.0946 68.3351 39.4159 71.1242C39.6753 73.3759 39.1802 74.4394 38.4055 75.4765C38.4147 75.5583 38.4262 75.6412 38.4414 75.7266C38.5794 76.5003 39.4653 77.0563 39.4653 77.0563L40.9175 76.0165C40.9175 76.0165 40.9176 76.0165 41.0573 76.9594C41.1971 77.9022 41.5514 78.2895 41.5514 78.2895L42.5508 75.7266C42.5508 75.7266 42.8983 76.5485 43.2215 77.9264C43.5448 79.3046 44.4039 79.5949 44.4039 79.5949L44.5364 78.8451L45.409 79.95L46.7712 78.1926C46.7712 78.1926 47.108 78.8451 47.7682 80.0938C48.4284 81.3422 49.1795 81.5288 49.1795 81.5288L50.201 80.8814L51.0995 81.5288C51.0995 81.5288 51.7892 81.3422 52.4494 80.0938C53.1095 78.8451 53.4155 78.1926 53.4155 78.1926L54.7625 79.95L55.6274 78.8451L55.7561 79.5949C55.7561 79.5949 56.6134 79.3046 56.9363 77.9264C57.2595 76.5485 57.6062 75.7266 57.6062 75.7266L58.6053 78.2895C58.6053 78.2895 58.9591 77.9022 59.0987 76.9594C59.2388 76.0165 59.2384 76.0165 59.2384 76.0165L60.6907 77.0563C60.6907 77.0563 61.5765 76.5003 61.7148 75.7266C61.752 75.5164 61.7694 75.3149 61.7757 75.1317C61.1461 74.191 60.7795 73.1284 61.0102 71.1242C61.3809 67.9068 61.3361 66.2395 61.3361 66.2395C61.3361 66.2395 62.317 67.8082 62.4045 69.6748C62.4926 71.5415 65.8949 74.3323 65.8949 74.3323L65.834 71.5715L66.7425 73.0133C66.7425 73.0133 67.1281 72.7814 67.1281 70.4725V68.2001C67.1281 68.2001 67.7311 70.2335 69.3984 71.5715C71.0662 72.9096 70.7983 72.3967 70.7983 72.3967C70.7983 72.3967 69.8736 71.3274 69.2321 69.2322C68.5905 67.1375 68.5986 66.5387 68.5986 66.5387C68.5986 66.5387 70.5122 69.1472 72.3149 69.66C74.1181 70.1729 74.5049 70.1306 74.5049 70.1306C74.5049 70.1306 73.7724 68.8565 72.8989 67.3555C72.6086 66.8561 72.4144 66.5514 72.2841 66.3656C72.5524 66.5641 73.0635 66.8244 73.9937 66.9538C75.6183 67.1802 76.7346 66.8535 76.7346 66.8535C76.7346 66.8535 75.5979 66.4105 74.7317 65.5556L73.8655 64.7005C73.8655 64.7005 75.7338 64.7165 77.5361 63.9175L79.3384 63.1185C79.3384 63.1185 77.286 62.819 76.2171 61.8786C75.2133 60.9951 75.0685 60.9625 75.0545 60.9621H75.0533H75.0537H75.0545C75.1134 60.9604 77.2166 60.8897 78.3549 60.5101C79.5094 60.1255 80.1509 59.3985 80.1509 59.3985C80.1509 59.3985 78.9872 58.9566 78.0938 56.377C77.2005 53.7977 76.7346 52.6014 76.7346 52.6014C76.7346 52.6014 77.9563 52.6243 79.3528 53.5315C80.7493 54.4388 81.4573 55.0067 81.4573 55.0067C81.4573 55.0067 82.684 51.6188 80.2415 49.9079C77.7989 48.1965 75.4477 46.9139 75.4477 46.9139L80.0226 47.6405C80.0226 47.6405 79.1273 44.694 77.6296 43.9441C76.1315 43.1942 75.3191 43.1765 75.3191 43.1765C75.3191 43.1765 75.8188 42.0171 76.8303 41.2374L77.8421 40.4575C77.8421 40.4575 76.8158 41.1669 74.4215 39.6151C72.0272 38.0632 70.9299 34.849 70.9299 34.849C70.9299 34.849 73.5642 36.8604 74.5467 36.4235C75.5298 35.9866 76.33 34.7547 78.0063 34.6039C79.3401 34.4841 80.2567 35.4005 80.577 35.7813C80.4082 35.6488 80.0303 35.524 79.2123 35.7966C77.9017 36.2335 77.2471 37.6891 76.3732 38.4536C75.4994 39.2182 75.4997 39.2177 75.4997 39.2177C75.4997 39.2177 77.1743 39.3997 78.7765 38.4895C80.0032 37.7924 81.1377 38.3709 81.6016 38.68C81.4289 38.6077 81.1496 38.5843 80.7421 38.8172C79.9778 39.2539 79.4746 40.0595 79.4746 40.0595C79.4746 40.0595 79.9415 39.4267 81.07 39.8864C82.1983 40.3461 82.4695 41.2374 82.4695 41.2374C82.4695 41.2374 81.9799 40.8194 80.924 41.1105C80.1624 41.3208 79.5538 41.6639 79.2733 41.8392C79.4861 41.7427 79.9418 41.63 80.8635 41.7101C82.3197 41.8365 83.1965 43.4409 83.2245 43.4934C83.1978 43.4473 82.9532 43.1003 81.9718 43.6525C81.07 44.1591 80.4789 44.5268 80.2419 44.6191C80.5872 44.5619 81.778 44.4464 82.4564 44.8442C83.2905 45.3334 83.6975 46.6503 83.6975 46.6503C83.6975 46.6503 83.5465 46.448 82.3265 46.2728C81.106 46.0981 80.6693 46.5712 80.6693 46.5712C80.6693 46.5712 81.9799 47.0079 82.7805 48.2456C83.5816 49.4835 83.9189 51.7771 83.5139 53.124C83.2028 54.1565 83.0662 54.5722 83.0192 54.7101C83.0565 54.5835 83.1127 54.2657 82.8961 53.8921C82.6151 53.4075 82.1521 53.1634 82.1521 53.1634C82.1521 53.1634 82.9197 54.0864 82.9892 55.6097C83.0581 57.1336 82.4564 58.1166 82.4564 58.1166C82.4564 58.1166 82.6705 57.4244 81.9088 56.5238C81.1471 55.6237 80.4683 55.5823 80.4683 55.5823C80.4683 55.5823 81.3134 56.0114 81.5347 57.0227C81.7565 58.0337 81.6455 58.3109 81.6455 58.3109C81.6455 58.3109 81.5762 57.4518 80.9947 57.0917C80.4128 56.7316 80.302 56.8425 80.302 56.8425C80.302 56.8425 80.164 56.9275 80.7133 57.8636C81.2626 58.8001 82.1521 59.2059 82.1521 59.2059C82.1521 59.2059 81.792 60.6015 80.3731 60.9621L78.9533 61.3226C78.9533 61.3226 79.0388 62.1351 80.1082 61.8786C81.1771 61.6218 81.6045 61.3654 81.6045 61.3654C81.6045 61.3654 82.0179 63.7296 80.0794 64.4287C78.1413 65.1278 76.9305 65.1444 76.9305 65.1444C76.9305 65.1444 77.0635 65.9806 78.0938 65.7681C79.1247 65.5556 79.5479 65.3513 79.5479 65.3513C79.5479 65.3513 80.0413 66.6245 78.0224 67.3085C76.0034 67.9923 75.2767 67.6931 75.2767 67.6931C75.2767 67.6931 75.8751 68.5484 76.559 68.5911C77.2433 68.6338 77.6571 68.5052 77.6571 68.5052C77.6571 68.5052 77.5425 69.5318 75.7042 70.558C73.8655 71.5838 72.6683 71.5715 72.6683 71.5715L74.7317 72.208C74.7317 72.208 74.0135 74.1897 71.6091 74.3835C69.205 74.5769 67.7086 73.7221 67.7086 73.7221C67.7086 73.7221 68.0336 74.6277 69.3591 75.2845L70.6845 75.9408C70.6845 75.9408 69.9629 77.3775 67.2965 77.2171C66.0465 77.1417 65.4011 76.8671 65.0685 76.5963C65.2157 76.9378 65.3537 77.4156 65.3571 78.0156C65.3638 79.3097 64.0694 80.0938 64.0694 80.0938C64.0694 80.0938 64.4591 78.6424 63.1337 76.8875C62.862 76.5277 62.5971 76.2086 62.3504 75.9006C62.3872 76.24 62.3809 76.6272 62.2979 77.0593C61.9632 78.8035 61.2315 79.3465 61.2315 79.3465L60.5599 78.1409C60.5599 78.1409 60.6386 78.771 60.2955 79.5445C59.9518 80.3186 59.0992 81.2864 59.0992 81.2864L57.7335 79.4976C57.7335 79.4976 57.7335 80.5374 56.7035 81.5526C55.6739 82.5682 54.7497 83.1001 54.7497 83.1001C54.7497 83.1001 54.3414 81.9397 54.0705 81.5529L53.7993 81.1662C53.7993 81.1662 53.1687 82.23 52.165 82.979C51.162 83.7289 50.201 83.8317 50.201 83.8317C50.201 83.8317 49.1173 83.7289 48.1139 82.979C47.1105 82.23 46.3569 81.1662 46.3569 81.1662L46.0856 81.5529C45.8144 81.9397 45.406 83.1001 45.406 83.1001C45.406 83.1001 44.4822 82.5682 43.4522 81.5526C42.4226 80.5374 42.4226 79.4976 42.4226 79.4976L41.0569 81.2864C41.0569 81.2864 40.2041 80.3186 39.8608 79.5445C39.5175 78.771 39.5961 78.1409 39.5961 78.1409L38.9244 79.3465C38.9244 79.3465 38.1925 78.8035 37.8579 77.0593C37.8029 76.7719 37.7839 76.5062 37.7866 76.259C37.6263 76.4579 37.4606 76.6648 37.2925 76.8875C35.967 78.6424 36.3566 80.0938 36.3566 80.0938C36.3566 80.0938 35.0621 79.3097 35.069 78.0156C35.0724 77.4156 35.2105 76.9378 35.3578 76.5963C35.0251 76.8671 34.3799 77.1417 33.1295 77.2171C30.4631 77.3775 29.7419 75.9408 29.7419 75.9408L31.0672 75.2845C32.3925 74.6277 32.7175 73.7221 32.7175 73.7221C32.7175 73.7221 31.2209 74.5769 28.8169 74.3835C26.4127 74.1897 25.6942 72.208 25.6942 72.208L27.7577 71.5715C27.7577 71.5715 26.5605 71.5838 24.722 70.558C22.8835 69.5318 22.7688 68.5052 22.7688 68.5052C22.7688 68.5052 23.1828 68.6338 23.867 68.5911C24.5509 68.5484 25.1495 67.6931 25.1495 67.6931C25.1495 67.6931 24.4227 67.9923 22.4038 67.3085C20.3847 66.6245 20.8783 65.3513 20.8783 65.3513C20.8783 65.3513 21.3015 65.5556 22.3321 65.7681C23.3628 65.9806 23.4956 65.1444 23.4956 65.1444C23.4956 65.1444 22.285 65.1278 20.3466 64.4287C18.4084 63.7296 18.8216 61.3654 18.8216 61.3654C18.8216 61.3654 19.2493 61.6218 20.3181 61.8786C21.387 62.1351 21.4725 61.3226 21.4725 61.3226L20.0533 60.9621C18.634 60.6015 18.274 59.2059 18.274 59.2059C18.274 59.2059 19.1637 58.8001 19.713 57.8636C20.262 56.9275 20.1242 56.8425 20.1242 56.8425C20.1242 56.8425 20.0133 56.7316 19.4315 57.0917C18.8498 57.4518 18.7805 58.3109 18.7805 58.3109C18.7805 58.3109 18.6698 58.0337 18.8914 57.0227C19.1129 56.0114 19.9579 55.5823 19.9579 55.5823C19.9579 55.5823 19.2792 55.6237 18.5175 56.5238C17.7556 57.4244 17.9697 58.1166 17.9697 58.1166C17.9697 58.1166 17.3677 57.1336 17.437 55.6097C17.5063 54.0864 18.274 53.1634 18.274 53.1634C18.274 53.1634 17.811 53.4075 17.5299 53.8921C17.3134 54.2657 17.3696 54.5835 17.407 54.7101C17.3599 54.5722 17.2231 54.1565 16.9123 53.124C16.5071 51.7771 16.8444 49.4835 17.6454 48.2456C18.4463 47.0079 19.7567 46.5712 19.7567 46.5712C19.7567 46.5712 19.32 46.0981 18.0998 46.2728C16.8795 46.448 16.7285 46.6503 16.7285 46.6503C16.7285 46.6503 17.1356 45.3334 17.9697 44.8442C18.648 44.4464 19.8388 44.5619 20.1841 44.6191C19.9473 44.5268 19.3559 44.1591 18.4544 43.6525C17.4728 43.1003 17.2284 43.4473 17.2014 43.4934C17.2296 43.4409 18.1064 41.8365 19.5625 41.7101C20.4842 41.63 20.94 41.7427 21.153 41.8392C20.8723 41.6639 20.264 41.3208 19.5019 41.1105C18.4463 40.8194 17.9566 41.2374 17.9566 41.2374C17.9566 41.2374 18.2278 40.3461 19.3563 39.8864C20.4849 39.4267 20.9516 40.0595 20.9516 40.0595C20.9516 40.0595 20.4485 39.2539 19.6841 38.8172C19.2765 38.5843 18.9973 38.6079 18.8245 38.68C19.2885 38.3709 20.4228 37.7924 21.6499 38.4895C23.2516 39.3997 24.9264 39.2177 24.9264 39.2177C24.9264 39.2177 24.9265 39.2182 24.0528 38.4536C23.1792 37.6891 22.5243 36.2335 21.2138 35.7966C20.3957 35.524 20.0178 35.6488 19.8493 35.7813C20.1693 35.4005 21.086 34.4841 22.4197 34.6039C24.0962 34.7547 24.8964 35.9866 25.8794 36.4235C26.8622 36.8604 29.4961 34.849 29.4961 34.849C29.4961 34.849 28.399 38.0632 26.0047 39.6151C23.6105 41.1669 22.5842 40.4575 22.5842 40.4575L23.5956 41.2374C24.6072 42.0171 25.1069 43.1765 25.1069 43.1765C25.1069 43.1765 24.2945 43.1942 22.7967 43.9441C21.299 44.694 20.4036 47.6405 20.4036 47.6405L24.9785 46.9139C24.9785 46.9139 22.6269 48.1965 20.1845 49.9079C17.742 51.6188 18.9689 55.0067 18.9689 55.0067C18.9689 55.0067 19.6768 54.4388 21.0733 53.5315C22.4698 52.6243 23.6915 52.6014 23.6915 52.6014C23.6915 52.6014 23.2255 53.7977 22.3321 56.377C21.4388 58.9566 20.2755 59.3985 20.2755 59.3985C20.2755 59.3985 20.9167 60.1255 22.0711 60.5101C23.2094 60.8897 25.3128 60.9604 25.3715 60.9621H25.3725C25.3725 60.9621 25.3727 60.9621 25.3728 60.9621H25.3715C25.3576 60.9625 25.2129 60.9951 24.209 61.8786C23.14 62.819 21.0878 63.1185 21.0878 63.1185L22.8902 63.9175C24.6925 64.7165 26.5605 64.7005 26.5605 64.7005C26.5605 64.7005 26.5606 64.7005 25.6944 65.5556C24.8281 66.4105 23.6915 66.8535 23.6915 66.8535C23.6915 66.8535 24.8076 67.1802 26.4325 66.9538C27.362 66.8244 27.8735 66.5645 28.142 66.3656C28.0115 66.5514 27.8172 66.8565 27.5269 67.3555C26.6537 68.8565 25.9208 70.1306 25.9208 70.1306C25.9208 70.1306 26.3074 70.1729 28.1102 69.66C29.9133 69.1472 31.8261 66.5387 31.8261 66.5387C31.8261 66.5387 31.8324 67.1375 31.1911 69.2322C30.5496 71.3274 29.6218 72.3967 29.6218 72.3967C29.6218 72.3967 29.3482 72.9096 31.0156 71.5715C32.6832 70.2335 33.274 68.2001 33.274 68.2001V70.4725C33.274 72.7814 33.6716 73.0133 33.6716 73.0133L34.592 71.5715L34.5312 74.3323C34.5312 74.3323 37.9337 71.5415 38.0215 69.6748C38.1025 67.9521 38.9423 66.4866 39.0719 66.27C38.894 65.6407 38.7281 64.8905 38.66 64.6882C38.6535 64.6686 38.6491 64.6517 38.6435 64.6335C38.4988 64.3665 38.3909 64.0995 38.3303 63.8528C38.1326 63.0466 38.4744 62.0255 38.4744 61.5896C38.4744 61.1538 38.2862 60.037 38.34 59.7416C38.3937 59.4463 38.7698 58.5055 39.0924 58.1027C39.4148 57.6994 39.8985 56.1679 39.8985 56.1679C39.8985 56.1679 40.0328 56.9741 39.7372 57.4845C39.4416 57.9952 39.2805 58.7205 39.2645 59.258C39.2484 59.7954 39.4148 60.2791 39.3069 60.7517C39.1988 61.2245 39.3343 62.9663 39.3073 63.6378C39.2805 64.3098 40.4359 66.3516 43.2034 66.9157C45.9709 67.4803 48.8194 65.3843 49.2869 64.6826C49.46 64.4233 49.584 63.9929 49.672 63.5532V63.4977C49.6492 63.5143 49.5798 63.4724 49.5282 63.3975C49.5256 63.3983 49.496 63.3995 49.496 63.3995V63.3882C49.496 63.2473 49.3043 63.0031 49.2273 62.816C49.0956 62.4961 46.1105 59.767 45.527 59.3079C44.9435 58.8479 43.0053 57.7913 42.9109 57.4523C42.817 57.1137 43.3066 55.2315 43.4759 55.0622C43.4903 55.0478 43.5038 55.0381 43.5161 55.0305C43.4983 54.9826 43.4805 54.9318 43.4615 54.8755C43.4069 54.7165 43.2689 54.3969 43.0959 54.157C42.9236 53.9856 42.8055 53.8244 42.8178 53.6915C42.8691 53.1257 42.6117 52.7647 42.3028 51.6327C41.9941 50.5004 42.1996 50.9125 42.6117 49.9341C43.0235 48.9562 42.8691 48.7505 43.0239 47.9262C43.178 47.1031 42.5089 47.3604 42.6117 46.228C42.7145 45.0951 41.2218 45.4041 40.8615 45.4041C40.5019 45.4041 39.3686 45.0439 39.3686 45.0439L39.3966 44.9695C39.1426 44.8615 38.9169 44.6948 38.7612 44.4401C38.2702 43.6368 37.5306 42.62 37.6188 42.1351C36.7255 41.6688 36.2301 40.8519 36.6924 41.1457C37.3615 41.5717 37.8765 41.2865 39.1117 41.1838C40.2745 41.087 41.1203 41.1754 42.1596 41.4855C42.4074 41.4749 42.6545 41.4678 42.8898 41.4314C43.3105 41.3661 44.9041 41.2508 44.3815 42.0453L44.1216 42.0224C44.1225 42.2061 43.9143 42.4342 43.8521 42.5615C43.745 42.7812 43.7535 43.0271 43.7585 43.2713C43.7925 43.3242 43.8263 43.377 43.8652 43.4337C44.7069 44.6555 43.8652 46.228 43.8652 46.228C43.8652 46.228 43.7442 47.412 43.847 48.3392C43.9498 49.2655 43.5902 49.3163 43.3066 49.9341C43.0235 50.5515 42.7658 51.4271 42.7658 51.4271L43.1267 52.7647C43.1267 52.7647 43.1272 53.5159 43.3079 54.3233C43.8825 54.8142 44.5715 55.424 43.847 55.545C43.847 55.545 43.814 55.7414 43.6286 55.3174C43.624 55.3534 43.6168 55.3888 43.6075 55.4197C43.5512 55.6081 43.2499 57.0384 43.6075 57.509C43.9651 57.9791 45.753 58.8826 46.4305 59.1272C47.108 59.3722 47.5033 59.2969 47.5033 59.2969C47.5033 59.2969 46.8635 58.6571 45.9409 58.2614C45.0188 57.8666 44.3417 57.7722 43.9841 57.4146C43.6261 57.0575 44.2664 56.6432 44.8118 56.1916C45.3577 55.7396 46.3928 56.0219 46.6565 56.0973C46.8871 56.1633 49.1401 56.7637 49.7584 56.9115C50.3762 56.7637 52.6292 56.1633 52.8598 56.0973C53.1235 56.0219 54.1585 55.7396 54.704 56.1916C55.2499 56.6432 55.8902 57.0575 55.5326 57.4146C55.175 57.7722 54.4971 57.8666 53.575 58.2614C52.6529 58.6571 52.0131 59.2969 52.0131 59.2969C52.0131 59.2969 52.4083 59.3722 53.0858 59.1272C53.7633 58.8826 55.5513 57.9791 55.9088 57.509C56.2664 57.0384 55.9651 55.6081 55.9088 55.4197C55.8995 55.3893 55.8927 55.3545 55.8876 55.3186C55.7032 55.7409 55.6702 55.545 55.6702 55.545C54.8594 55.4096 55.5787 54.8975 56.1543 54.4012C56.3595 53.8976 56.3904 52.7647 56.3904 52.7647L56.7514 51.4271C56.7514 51.4271 56.4936 50.5515 56.2105 49.9341C55.927 49.3163 55.5673 49.2655 55.6702 48.3392C55.7725 47.412 55.6519 46.228 55.6519 46.228C55.6519 46.228 54.8103 44.6555 55.6519 43.4337C55.7375 43.3097 55.8068 43.1967 55.8686 43.0905C55.8682 42.9073 55.8534 42.7266 55.7725 42.5615C55.7116 42.4367 55.511 42.2158 55.503 42.0342L55.3769 42.0453C54.8538 41.2508 56.4475 41.3661 56.8677 41.4314C57.037 41.4575 57.2126 41.468 57.3895 41.476C58.4145 41.1735 59.2545 41.088 60.4051 41.1838C61.6407 41.2865 62.1557 41.5717 62.8248 41.1457C63.2874 40.8519 62.7918 41.6688 61.898 42.1351C61.9865 42.62 61.2467 43.6368 60.7559 44.4401C60.6002 44.6948 60.3745 44.8615 60.1207 44.9695L60.1482 45.0439C60.1482 45.0439 59.0154 45.4041 58.6556 45.4041C58.2955 45.4041 56.8025 45.0951 56.9054 46.228C57.0082 47.3604 56.3392 47.1031 56.4932 47.9262C56.6481 48.7505 56.4936 48.9562 56.9054 49.9341C57.3175 50.9125 57.5233 50.5004 57.2143 51.6327C56.9054 52.7647 56.6481 53.1257 56.6993 53.6915C56.7099 53.8079 56.3239 54.463 56.1026 54.7329C56.0883 54.7807 56.073 54.8282 56.0569 54.8755C56.0375 54.9318 56.0201 54.983 56.0027 55.0308C56.015 55.0385 56.0298 55.0482 56.0438 55.0622C56.2135 55.2315 56.7061 57.1137 56.6121 57.4523C56.5182 57.7913 54.5864 58.8479 54.0033 59.3079C53.4197 59.767 50.4227 62.4961 50.2912 62.816C50.2141 63.0031 50.025 63.2473 50.025 63.3882V63.3995C50.025 63.3995 49.9928 63.3983 49.9898 63.3975C49.9729 63.422 49.9289 63.4432 49.9145 63.4596C50.0034 63.9311 50.1325 64.405 50.3178 64.6826C50.7855 65.3843 53.6334 67.4803 56.401 66.9157C59.1685 66.3516 60.3243 64.3098 60.2975 63.6378C60.2705 62.9663 60.4055 61.2245 60.2975 60.7517C60.1896 60.2791 60.3564 59.7954 60.3404 59.258C60.3243 58.7205 60.163 57.9952 59.8672 57.4845C59.5718 56.9741 59.706 56.1679 59.706 56.1679C59.706 56.1679 60.1896 57.6994 60.5121 58.1027C60.835 58.5055 61.2108 59.4463 61.2645 59.7416C61.3183 60.037 61.1304 61.1538 61.1304 61.5896C61.1304 62.0255 61.4719 63.0466 61.2743 63.8528C61.2214 64.0686 61.1313 64.3001 61.0132 64.5336C61.0022 64.5803 60.9886 64.6302 60.9692 64.6882C60.8587 65.0169 60.4893 66.7947 60.2307 67.1455C59.9725 67.4964 60.0462 68.1607 60.1566 69.2123C60.2185 69.7993 59.8955 70.627 59.5976 71.2444L59.6053 71.2418C59.6053 71.2418 59.2354 72.6692 58.6603 73.9684C58.0852 75.2675 57.7293 75.3818 57.7293 75.3818L56.7839 74.0399C56.7839 74.0399 56.8529 74.1681 56.2228 75.5256C55.5927 76.8828 55.415 76.752 55.415 76.752L54.5521 75.7529L54.1137 76.8806C53.6757 78.0085 53.5661 77.7372 53.5661 77.7372L52.8679 77.0376C52.8679 77.0376 52.9097 76.8092 52.5535 77.5945C52.1975 78.3795 51.8835 78.4227 51.8835 78.4227L51.5294 77.5086C51.5294 77.5086 51.465 77.6661 51.2323 78.4366C51.0165 79.1515 50.201 79.8404 50.025 79.9373V79.9376L50.0161 79.933ZM62.8629 83.5846C62.7173 83.6401 62.5722 83.635 62.427 83.5694C62.2818 83.5038 62.1815 83.398 62.1257 83.2525C62.0703 83.1068 62.0749 82.9634 62.1401 82.8216C62.2056 82.6798 62.3119 82.5813 62.4587 82.525C62.6124 82.4665 62.7571 82.4678 62.8937 82.5292C63.0305 82.5902 63.1278 82.6972 63.1862 82.8504C63.2429 82.9994 63.2395 83.1449 63.1765 83.2871C63.1134 83.4297 63.0089 83.5292 62.8629 83.5846ZM36.0565 83.0988C35.913 83.0383 35.8116 82.9337 35.7524 82.7861C35.6932 82.638 35.6941 82.4924 35.7551 82.3485C35.8159 82.2051 35.9189 82.1047 36.0642 82.0481C36.2093 81.9909 36.3544 81.9935 36.4993 82.0548C36.6505 82.1187 36.7539 82.2203 36.81 82.3591C36.8661 82.4979 36.8622 82.6426 36.7982 82.7937C36.7361 82.9401 36.6328 83.0429 36.4884 83.1017C36.3442 83.161 36.2003 83.1602 36.0565 83.0988ZM64.677 82.8344C64.5345 82.8978 64.3888 82.9012 64.2403 82.8436C64.0918 82.7861 63.986 82.6862 63.9225 82.5436C63.859 82.401 63.8556 82.2575 63.9132 82.1124C63.9704 81.9676 64.071 81.8632 64.2149 81.7988C64.3647 81.732 64.5095 81.7256 64.6491 81.7789C64.7892 81.8323 64.8925 81.9343 64.9593 82.084C65.024 82.2292 65.0287 82.3747 64.9736 82.5207C64.9183 82.6664 64.8192 82.7708 64.677 82.8344ZM34.2706 82.2829C34.1305 82.2144 34.035 82.1044 33.9841 81.9537C33.9331 81.8026 33.9419 81.6571 34.0107 81.517C34.0793 81.3769 34.1877 81.2825 34.3358 81.2339C34.4837 81.1852 34.6287 81.1954 34.7701 81.2647C34.9174 81.3371 35.015 81.4437 35.0635 81.5855C35.112 81.7273 35.1 81.8716 35.0279 82.0188C34.9577 82.1619 34.8491 82.2584 34.7017 82.3095C34.5543 82.3604 34.4106 82.3519 34.2706 82.2829ZM66.4451 81.9867C66.3063 82.0582 66.1611 82.0692 66.0092 82.0197C65.8581 81.9706 65.7468 81.8766 65.6757 81.7379C65.6042 81.5991 65.5932 81.4556 65.6427 81.3079C65.6918 81.1598 65.7866 81.0498 65.9266 80.9778C66.0726 80.9034 66.217 80.8885 66.3595 80.9343C66.5017 80.98 66.6105 81.076 66.6855 81.222C66.7582 81.3634 66.7709 81.5085 66.7239 81.6571C66.6766 81.806 66.5835 81.9156 66.4451 81.9867ZM32.5357 81.3726C32.3996 81.2961 32.3105 81.1814 32.2677 81.0282C32.2251 80.8746 32.2418 80.7299 32.3182 80.5936C32.3945 80.4577 32.5079 80.3694 32.6583 80.3287C32.8089 80.2881 32.9527 80.3058 33.0903 80.3833C33.2333 80.4633 33.325 80.5755 33.3657 80.7193C33.4063 80.8636 33.3865 81.0071 33.3065 81.1501C33.2285 81.2889 33.1148 81.3799 32.9647 81.4226C32.8149 81.4654 32.6718 81.4488 32.5357 81.3726ZM68.167 81.0422C68.032 81.1209 67.8876 81.1399 67.7336 81.0989C67.58 81.0578 67.4636 80.9703 67.3849 80.8356C67.3062 80.7006 67.2872 80.5585 67.3286 80.4078C67.3697 80.2576 67.4585 80.1425 67.5945 80.0634C67.7357 79.9805 67.8792 79.958 68.0239 79.9956C68.1686 80.0337 68.2825 80.1239 68.3655 80.2652C68.4455 80.4027 68.4662 80.5466 68.4272 80.6977C68.3883 80.8484 68.3016 80.9635 68.167 81.0422ZM30.8525 80.3681C30.7208 80.2843 30.638 80.1649 30.6038 80.0096C30.5695 79.8539 30.5943 79.71 30.6778 79.5784C30.7615 79.4468 30.8794 79.3647 31.0319 79.3326C31.1844 79.3 31.3273 79.3262 31.4602 79.4104C31.5985 79.498 31.6843 79.6153 31.7169 79.7612C31.7495 79.9072 31.722 80.0498 31.6342 80.1882C31.5489 80.3224 31.4302 80.407 31.2782 80.4417C31.1263 80.476 30.9845 80.4515 30.8525 80.3681ZM69.8326 80.0063C69.7026 80.0922 69.5592 80.1188 69.4031 80.0866C69.2474 80.0541 69.1263 79.9728 69.0404 79.8425C68.9545 79.7121 68.9283 79.5708 68.9608 79.4189C68.9938 79.2665 69.0759 79.1467 69.2076 79.0596C69.3443 78.9695 69.486 78.939 69.6328 78.9695C69.7793 78.9991 69.8977 79.0829 69.9884 79.2191C70.0759 79.3525 70.1047 79.495 70.0738 79.6478C70.0429 79.801 69.9629 79.9204 69.8326 80.0063ZM50.0254 79.9445C50.0279 79.9475 50.025 79.95 50.025 79.95L50.0241 79.9496C50.0233 79.9483 50.0215 79.9462 50.0245 79.944L50.0254 79.9445ZM29.2225 79.2704C29.0955 79.1798 29.0194 79.0558 28.9936 78.8988C28.968 78.7414 29.0005 78.5992 29.0911 78.4726C29.1817 78.3453 29.3041 78.2699 29.458 78.2463C29.6121 78.2221 29.7532 78.2555 29.8815 78.3474C30.015 78.4426 30.094 78.5641 30.1185 78.7117C30.1435 78.8595 30.1079 78.9999 30.0127 79.1336C29.9202 79.2627 29.7971 79.341 29.6435 79.3673C29.4898 79.3931 29.3494 79.3609 29.2225 79.2704ZM71.4381 78.881C71.3125 78.9741 71.1715 79.0088 71.0141 78.9847C70.8563 78.9605 70.731 78.8861 70.6383 78.7608C70.5456 78.6356 70.5109 78.4959 70.5359 78.3423C70.5605 78.1878 70.6358 78.0639 70.7623 77.9704C70.8939 77.8726 71.034 77.8349 71.1821 77.8565C71.3302 77.8785 71.4529 77.9555 71.5507 78.0872C71.6455 78.2149 71.6819 78.3558 71.6595 78.5103C71.637 78.6647 71.5634 78.7884 71.4381 78.881ZM27.6572 78.0875C27.5355 77.9903 27.4659 77.8625 27.4488 77.7042C27.4319 77.5459 27.4721 77.4058 27.5694 77.284C27.6669 77.1621 27.7932 77.0931 27.9482 77.0779C28.1034 77.0622 28.2425 77.1036 28.3655 77.2019C28.4935 77.3043 28.5658 77.4299 28.5824 77.5785C28.599 77.7275 28.5561 77.8658 28.4536 77.994C28.3545 78.1185 28.2271 78.1891 28.0723 78.2074C27.9175 78.2246 27.7791 78.1853 27.6572 78.0875ZM72.9832 77.6682C72.8634 77.7681 72.7242 77.81 72.5655 77.7947C72.4068 77.7795 72.2777 77.7118 72.1783 77.592C72.0788 77.4718 72.0369 77.3343 72.053 77.179C72.0691 77.0241 72.1376 76.8959 72.2591 76.7956C72.3852 76.6906 72.5232 76.6454 72.6721 76.6594C72.8211 76.6733 72.948 76.7431 73.0526 76.8693C73.1541 76.992 73.1981 77.1307 73.1842 77.2861C73.1702 77.4414 73.1034 77.5687 72.9832 77.6682ZM26.1605 76.8231C26.0441 76.719 25.9816 76.5874 25.9734 76.4283C25.9649 76.2696 26.0125 76.1316 26.1164 76.0153C26.2204 75.8989 26.3502 75.8371 26.5058 75.8299C26.6615 75.8232 26.7982 75.8718 26.9158 75.9767C27.0382 76.0859 27.1034 76.2155 27.1118 76.3648C27.1205 76.5142 27.0701 76.65 26.9609 76.7724C26.8549 76.8913 26.7242 76.9552 26.5685 76.9649C26.4129 76.9742 26.2768 76.9268 26.1605 76.8231ZM74.4587 76.3745C74.3445 76.4804 74.2074 76.5298 74.0487 76.5236C73.8892 76.5167 73.7567 76.4558 73.6505 76.3415C73.5447 76.2273 73.4956 76.0919 73.5032 75.9365C73.5108 75.7808 73.5726 75.6492 73.6882 75.5422C73.8084 75.4309 73.9434 75.378 74.0931 75.3839C74.2426 75.3894 74.3733 75.4525 74.4845 75.5726C74.5925 75.6898 74.6441 75.8257 74.6386 75.9818C74.6331 76.1376 74.5735 76.2684 74.4587 76.3745ZM24.7306 75.4753C24.6201 75.3653 24.5649 75.2307 24.5651 75.0712C24.5653 74.9121 24.6205 74.7771 24.7305 74.6666C24.8405 74.5557 24.9736 74.5012 25.1295 74.5028C25.2853 74.5041 25.4192 74.5604 25.5307 74.6713C25.6469 74.7872 25.7052 74.9196 25.7055 75.0695C25.7058 75.2193 25.6482 75.3522 25.5325 75.4686C25.4202 75.5811 25.2862 75.6382 25.1302 75.6391C24.9745 75.6399 24.8412 75.5854 24.7306 75.4753ZM75.8607 75.003C75.7524 75.1152 75.6183 75.1719 75.4592 75.174C75.3 75.1757 75.1646 75.1228 75.0525 75.014C74.9404 74.9057 74.8841 74.7733 74.8832 74.6175C74.8824 74.4618 74.9365 74.3272 75.0461 74.2138C75.1604 74.0962 75.2925 74.0361 75.4418 74.0335C75.5916 74.031 75.7254 74.0873 75.843 74.2011C75.9572 74.312 76.0161 74.4453 76.0195 74.6015C76.0224 74.7567 75.9695 74.8909 75.8607 75.003ZM50.793 66.6508C50.3864 66.6529 50.044 66.6741 49.8485 66.6889V66.7042C49.8485 66.7042 49.8312 66.7025 49.7985 66.6995L49.7614 66.6961L49.7233 66.6995L49.672 66.7042V66.6889C49.4799 66.6736 49.1452 66.6529 48.7478 66.6508H48.6975C48.0433 66.65 47.2307 66.7016 46.5994 66.9111C46.4766 66.9517 46.3391 66.9894 46.191 67.0249C45.7242 67.1629 45.3467 67.2648 45.1919 67.2919C45.1309 67.3029 45.0365 67.308 44.9185 67.3085H44.8986C44.8254 67.3085 44.7433 67.3072 44.6548 67.3042L44.6062 67.3025C43.4665 67.4646 42.2875 67.6021 41.8205 67.8467C41.0455 68.2525 40.9415 67.8654 40.5909 68.7511C40.2402 69.6367 39.81 70.0057 40.2897 70.9101C40.7695 71.8145 41.5048 71.8698 41.5048 71.8698L41.5054 71.8787L41.5193 71.8771C41.5891 71.8682 41.6616 71.8491 41.7368 71.8161C42.3515 71.5483 42.7684 71.1009 42.7684 71.1009L43.0125 71.8838L43.6109 71.4924C43.6109 71.4924 43.621 71.5381 43.5516 72.0646C43.4823 72.5909 43.2837 72.7598 43.2837 72.7598L44.0971 72.442L44.1466 74.0509L44.7911 72.7399L44.8902 74.1402L45.2968 72.8292L45.6637 73.4449L46.3082 73.0675L46.7843 74.5079L47.8651 73.326L48.3115 74.1504L48.9065 73.5045L49.3098 75.1105L49.9957 73.4115L50.6627 75.1105L51.0504 73.5045L51.622 74.1504L52.0507 73.326L53.0896 74.5079L53.5466 73.0675L54.1657 73.4449L54.5186 72.8292L54.9093 74.1402L55.0045 72.7399L55.6236 74.0509L55.6715 72.442L56.4526 72.7598L56.4505 72.7576C56.4294 72.7374 56.2579 72.5579 56.1953 72.0646C56.1288 71.5381 56.1382 71.4924 56.1382 71.4924L56.7133 71.8838L56.9481 71.1009L56.9528 71.106C56.9997 71.1564 57.3916 71.5647 57.9455 71.8161C58.0086 71.8449 58.1355 71.8618 58.1355 71.872V71.8698C58.1355 71.8698 58.863 71.8145 59.3425 70.9101C59.8224 70.0057 59.3823 69.6367 59.0315 68.7511C58.681 67.8654 58.5702 68.2525 57.7949 67.8467C57.343 67.6097 56.2131 67.4735 55.1048 67.3177L54.9973 67.3025C54.8991 67.3059 54.8073 67.308 54.7256 67.3085H54.7053C54.5784 67.3085 54.4768 67.3034 54.4129 67.2919C54.2656 67.2661 53.9186 67.173 53.4848 67.0456C53.2965 67.0042 53.1226 66.9597 52.9758 66.9111C52.3588 66.7063 51.5556 66.6525 50.8958 66.6508H50.8443H50.793ZM23.3805 74.0564C23.2761 73.9405 23.2284 73.8029 23.2372 73.6438C23.246 73.4851 23.3084 73.3535 23.4242 73.249C23.5401 73.1445 23.6758 73.0971 23.8315 73.1068C23.987 73.1169 24.1175 73.18 24.223 73.2972C24.3328 73.4191 24.3837 73.5546 24.376 73.7043C24.3683 73.8537 24.3034 73.9832 24.1817 74.0932C24.0635 74.1995 23.9264 74.2489 23.7707 74.2417C23.615 74.2341 23.4849 74.1724 23.3805 74.0564ZM77.187 73.5571C77.0845 73.6747 76.9538 73.739 76.7951 73.7495C76.6365 73.7602 76.4981 73.714 76.38 73.6121C76.2624 73.5096 76.1988 73.3805 76.1896 73.2253C76.1803 73.0695 76.2272 72.932 76.3305 72.8136C76.4384 72.6896 76.5666 72.6223 76.716 72.6116C76.8654 72.6015 77.0016 72.6497 77.1256 72.7573C77.2458 72.8617 77.3114 72.9917 77.3228 73.147C77.3346 73.3023 77.2894 73.439 77.187 73.5571ZM22.1046 72.5605C22.0067 72.4395 21.9665 72.2994 21.984 72.1411C22.0015 71.9828 22.0707 71.855 22.1923 71.7568C22.3137 71.6587 22.4518 71.6189 22.6066 71.6371C22.7615 71.6553 22.8884 71.726 22.9871 71.8483C23.0901 71.9761 23.1338 72.114 23.1178 72.2634C23.1019 72.4119 23.0302 72.538 22.9026 72.6409C22.7787 72.7407 22.6392 72.7826 22.4843 72.767C22.3291 72.7509 22.2026 72.6824 22.1046 72.5605ZM78.4315 72.0429C78.3355 72.1661 78.2089 72.2372 78.0506 72.2566C77.8928 72.2756 77.7519 72.2372 77.6287 72.1415C77.5056 72.0459 77.4354 71.9206 77.4176 71.7657C77.3998 71.6108 77.4392 71.4712 77.5361 71.3468C77.6368 71.2173 77.7612 71.1433 77.9097 71.1246C78.0583 71.106 78.1975 71.1471 78.3266 71.2478C78.4527 71.3455 78.5255 71.4716 78.5454 71.6261C78.5648 71.781 78.5272 71.9198 78.4315 72.0429ZM20.9146 71.0015C20.8233 70.875 20.7908 70.7332 20.8169 70.5758C20.8428 70.4188 20.9192 70.2948 21.0458 70.2034C21.1725 70.1124 21.3124 70.0798 21.466 70.1065C21.6195 70.1332 21.7425 70.2105 21.8345 70.3384C21.9304 70.4713 21.9664 70.6117 21.9425 70.7595C21.9185 70.9071 21.84 71.029 21.707 71.1251C21.5777 71.2182 21.4364 71.2525 21.2823 71.2279C21.1283 71.2034 21.0057 71.128 20.9146 71.0015ZM79.5932 70.4611C79.5043 70.5894 79.3816 70.6672 79.2245 70.6951C79.0676 70.723 78.9254 70.6922 78.7972 70.6033C78.6689 70.5145 78.5919 70.393 78.5656 70.2394C78.5395 70.0857 78.5712 69.9444 78.6614 69.8149C78.7545 69.6799 78.875 69.5995 79.0223 69.5728C79.1695 69.5462 79.3105 69.5792 79.445 69.6727C79.5763 69.7633 79.6558 69.8856 79.6841 70.0387C79.7125 70.192 79.682 70.3329 79.5932 70.4611ZM19.811 69.3795C19.7269 69.2483 19.7022 69.1053 19.7368 68.9495C19.7713 68.7942 19.8544 68.674 19.9855 68.5898C20.1169 68.5056 20.2585 68.4811 20.4105 68.5162C20.5625 68.5513 20.681 68.6351 20.766 68.768C20.8543 68.9055 20.8827 69.0481 20.8506 69.1941C20.8186 69.3406 20.7337 69.4577 20.5956 69.5462C20.4616 69.6321 20.3185 69.6584 20.166 69.6257C20.0135 69.5932 19.8953 69.5111 19.811 69.3795ZM80.6693 68.8149C80.5876 68.9478 80.4691 69.0325 80.3138 69.0688C80.1589 69.1053 80.0151 69.0824 79.8817 69.0007C79.7493 68.9191 79.6656 68.8023 79.6313 68.6504C79.5965 68.498 79.6206 68.355 79.7032 68.2208C79.7891 68.0812 79.905 67.994 80.0506 67.9593C80.1962 67.9246 80.3388 67.95 80.4785 68.0359C80.6138 68.1196 80.7002 68.2369 80.737 68.3884C80.7734 68.5403 80.751 68.6821 80.6693 68.8149ZM18.7989 67.7016C18.7221 67.5662 18.7051 67.4215 18.7481 67.2683C18.7912 67.1146 18.8805 66.9995 19.0164 66.9229C19.1519 66.8459 19.2947 66.829 19.4445 66.8722C19.5943 66.9153 19.7081 67.0055 19.7856 67.1425C19.8665 67.2852 19.887 67.4286 19.847 67.5729C19.8071 67.7173 19.7158 67.8298 19.5732 67.9106C19.4347 67.9894 19.2902 68.0079 19.1397 67.9669C18.9895 67.9258 18.8758 67.8375 18.7989 67.7016ZM72.6603 43.8515C72.6442 43.8505 72.5396 43.8324 71.9802 43.7084C71.2168 43.5383 70.7331 43.1709 70.1695 42.6665C69.6057 42.1618 69.1725 40.9087 68.3523 39.8864C67.5322 38.8641 67.5212 38.4203 67.5212 38.4203C67.5212 38.4203 67.1873 38.2223 68.2334 38.7313C69.2799 39.2404 70.6548 41.7727 70.6548 41.7727V41.3612L70.3853 40.2297C70.3853 40.2297 69.8051 38.1085 69.2676 37.3733C68.7302 36.6382 67.1737 36.5782 65.1895 35.9168C63.4642 35.3416 63.8955 34.769 64.0372 34.6292C64.1049 34.6741 64.418 34.781 65.5175 35.0363C67.4375 35.4822 68.3798 35.3274 68.3798 35.3274C68.3798 35.3274 65.561 34.377 63.5112 32.7236C61.4609 31.0703 58.9223 31.6365 58.9223 31.6365L60.7427 32.5084L60.0538 33.0675C60.0538 33.0675 61.6793 33.3362 62.5112 33.6817C63.3432 34.0274 63.5654 35.4525 63.5654 35.4525L63.0008 35.6159C63.0008 35.6159 63.0969 35.6478 64.1506 36.1942C65.2043 36.7406 65.79 38.1457 65.79 38.1457L64.7752 38.458L65.3605 38.6532C65.9461 38.8484 67.0354 40.5619 67.0354 40.5619L65.9851 40.7608L66.8437 41.3464C67.7023 41.9317 67.9757 43.2196 67.9757 43.2196L67.1213 43.022C66.2669 42.8244 66.4535 43.0639 66.4535 43.0639L66.8047 43.3072C67.156 43.551 67.4886 44.3067 67.4886 44.3067L66.6096 43.8794C66.6096 43.8794 66.6486 43.9615 67.156 45.757C67.6634 47.5521 67.5462 50.3624 66.6875 51.9628C65.8289 53.5633 64.8446 54.2716 64.8446 54.2716L64.2289 53.6801C64.2289 53.6801 64.2289 53.8752 64.421 55.7342C64.6089 57.55 63.8011 57.9914 63.7638 58.0105C63.7595 57.9905 63.6991 57.8695 63.292 57.2212C62.7456 56.3515 62.9014 55.7096 62.9014 55.7096C62.9014 55.7096 62.3551 57.3101 62.4536 59.0409C62.5518 60.7716 63.2136 61.6036 63.8129 63.8028C64.4121 66.0021 63.6822 66.4435 63.6822 66.4435C63.6822 66.4435 63.4481 67.1849 64.1895 65.8967C64.6465 65.1028 64.6885 64.4732 64.6529 64.1058C64.6936 64.3018 64.7557 64.6039 64.8531 65.0775C65.1265 66.4045 64.6292 67.7194 64.6292 67.7194C64.6292 67.7194 65.0482 67.4583 65.5353 65.7681C66.0227 64.0779 65.5555 63.9065 65.1577 62.7153C64.7604 61.5241 65.1577 61.3303 65.1577 61.3303C65.1577 61.3303 65.1654 61.213 65.8458 62.4106C66.5263 63.6078 67.4104 63.9878 67.4104 63.9878C67.4104 63.9878 66.5001 62.4894 66.5055 61.7382C66.5111 60.9875 67.5242 59.9283 67.0443 58.8965C66.5644 57.8648 66.0634 57.4434 66.0634 57.4434C66.0634 57.4434 67.3345 58.2021 67.8275 58.6765C68.2465 59.0789 68.7472 61.2173 68.8538 61.8542C68.8293 61.172 68.8394 58.7231 68.4222 57.8636C67.9355 56.8615 67.3345 56.3055 67.3345 56.3055C67.3345 56.3055 69.3451 57.5191 70.161 58.3723C70.8673 59.1107 71.3603 61.0598 71.4546 61.5981C71.4398 61.2055 71.4271 60.0429 71.1783 58.8965C70.8676 57.4663 70.5402 56.9123 70.0848 56.3055C69.6299 55.6982 68.5864 54.7694 68.5864 54.7694C68.5864 54.7694 70.4263 55.2052 71.6595 55.7935C72.8922 56.3812 73.9547 58.4298 73.9547 58.4298C73.9547 58.4298 73.4423 56.7417 73.0817 55.9991C72.7207 55.2565 72.1656 54.7694 72.1656 54.7694C72.1656 54.7694 70.9688 53.7313 69.8724 51.9167C68.7764 50.1022 69.1017 49.5668 69.1017 49.5668C69.1017 49.5668 69.9468 50.8905 70.654 51.3149C71.3611 51.739 73.5951 52.2764 74.6978 52.7005C75.8006 53.1245 76.055 53.5315 76.055 53.5315C76.055 53.5315 75.8574 52.9831 75.1786 52.2765C74.4998 51.5693 74.1321 51.513 73.199 50.8905C72.2658 50.2685 71.7285 49.4767 71.1325 48.6892C70.5372 47.9012 70.2016 47.3591 70.2016 47.3591C70.2016 47.3591 70.965 47.5821 72.3505 47.9219C73.7364 48.2614 74.6962 50.2613 74.6962 50.2613C74.6962 50.2613 74.2734 49.1373 73.199 47.5255C72.1245 45.914 71.6155 45.9703 70.5126 45.1438C69.4095 44.3169 69.1115 43.4981 69.1115 43.4981C69.1115 43.4981 69.5787 43.793 71.1059 43.9911C72.5908 44.1832 72.6573 43.8687 72.6603 43.8515ZM81.6489 67.1201C81.5749 67.2573 81.4611 67.3482 81.3083 67.3931C81.1555 67.4379 81.0104 67.4231 80.8733 67.3486C80.7362 67.2742 80.6465 67.1616 80.6037 67.0122C80.561 66.862 80.577 66.7181 80.6524 66.5793C80.7306 66.435 80.8416 66.3419 80.985 66.2996C81.1285 66.2568 81.2724 66.2746 81.4162 66.3525C81.5563 66.4286 81.6486 66.5413 81.6934 66.6906C81.7383 66.84 81.7235 66.983 81.6489 67.1201ZM17.8787 65.9686C17.8094 65.8286 17.8005 65.6835 17.8517 65.5328C17.9032 65.3822 17.9985 65.2721 18.1384 65.2027C18.2781 65.1334 18.4216 65.1245 18.5688 65.1756C18.7159 65.2268 18.8246 65.3234 18.8946 65.4643C18.9675 65.6111 18.9802 65.7558 18.9325 65.8975C18.8846 66.0394 18.7873 66.1468 18.6405 66.2196C18.4977 66.2903 18.3525 66.3013 18.2047 66.2518C18.0567 66.2027 17.948 66.1083 17.8787 65.9686ZM41.354 32.4705C41.2204 32.3798 40.842 32.1509 40.3214 32.0704C39.6666 31.9688 38.9227 32.4602 38.9227 32.4602C38.9227 32.4602 39.7049 31.7125 41.3865 31.1527C42.4268 30.8065 42.9757 30.8886 43.2435 31.0016C42.7303 30.6725 41.3975 29.9178 40.0198 29.9623C38.2622 30.019 37.9503 30.7276 37.9503 30.7276L39.1976 31.0962C39.1976 31.0962 38.9143 31.0394 36.9299 31.4647C34.9455 31.89 33.3864 33.9025 33.3864 33.9025C33.3864 33.9025 33.5281 33.9025 34.2743 33.8593C35.0205 33.8161 35.4275 34.5545 35.4275 34.5545C35.4275 34.5545 33.5281 34.8665 31.9406 35.6035C30.3531 36.3405 30.0129 37.2194 30.0129 37.2194C30.0129 37.2194 30.5515 37.0775 31.6571 36.8225C32.6485 36.5935 32.8416 37.1158 32.871 37.2264C32.8478 37.207 32.744 37.2119 32.3092 37.4561C31.6855 37.8063 31.1468 38.8068 30.2805 40.2429C29.6068 41.3597 28.8781 41.7727 28.5866 41.9017C28.6857 41.863 28.8587 41.7956 29.1625 41.6773C29.8712 41.4012 30.9201 41.5282 30.9201 41.5282C30.9201 41.5282 29.701 42.2086 28.0629 43.4981C26.4249 44.7879 26.7529 45.724 26.7529 45.724C26.7529 45.724 27.0647 45.4972 28.4255 45.0435C29.7862 44.5898 30.1702 45.1438 30.1702 45.1438C30.1702 45.1438 29.7294 45.2986 27.8868 46.8009C26.889 47.6147 26.4071 47.9206 26.1745 48.0307C26.3637 47.9952 26.7056 47.9329 27.3201 47.8242C28.9077 47.5436 30.1263 47.8242 30.1263 47.8242C30.1263 47.8242 28.5105 48.1615 27.2347 49.1855C25.959 50.21 25.3922 51.7902 25.5905 51.5595C25.7891 51.3294 27.2064 50.6561 28.3403 50.5998C29.4743 50.5426 29.6444 51.4499 29.6444 51.4499C29.6444 51.4499 29.1625 51.3649 27.8018 52.499C26.4411 53.6331 26.5261 56.2407 26.356 57.1764C26.186 58.112 25.0803 58.6224 25.0803 58.6224C25.0803 58.6224 25.3638 58.6503 26.1363 58.3223C26.9087 57.9944 26.8096 57.5165 27.0647 56.8077C27.3199 56.0989 28.0852 55.0504 29.0847 54.5797C30.0844 54.1092 30.6925 54.5797 30.6925 54.5797C30.6925 54.5797 30.4665 54.7101 29.9562 55.0165C29.446 55.3225 28.964 57.3465 28.7656 58.5936C28.5673 59.8411 27.2242 60.5668 27.2242 60.5668C27.2242 60.5668 28.0285 60.635 28.794 59.9828C29.5595 59.3307 29.7578 58.3955 30.2113 57.8852C30.6649 57.3748 31.3452 57.5449 31.3452 57.5449C31.3452 57.5449 30.5798 58.3955 30.3531 59.5575C30.1679 60.5064 29.5862 61.6628 29.3788 62.0552C29.4538 61.979 29.5567 61.8765 29.6995 61.7382C30.492 60.971 31.317 59.5292 32.0256 59.2059C32.7343 58.8826 33.0304 59.2059 33.0304 59.2059C33.0304 59.2059 32.6209 59.274 32.224 60.0112C31.8271 60.7484 31.7137 62.0522 31.4549 63.2502C31.1958 64.4482 30.3244 65.2281 30.3244 65.2281C30.3244 65.2281 31.317 64.5468 32.0775 63.9764C32.8379 63.4059 32.8761 62.2223 33.5565 61.5702C34.2367 60.9181 34.7727 61.1728 34.7727 61.1728C34.7727 61.1728 34.269 61.5042 33.6253 63.3302C32.9813 65.1557 33.2229 65.9742 33.2229 65.9742C33.2229 65.9742 33.9361 65.0233 34.7445 63.8028C35.553 62.5825 37.598 61.3137 37.6105 59.1551C37.6233 56.9961 37.3018 56.8915 37.3018 56.8915C37.3018 56.8915 36.5517 57.6046 35.6956 58.4607C34.8398 59.3168 34.1639 58.8965 34.1639 58.8965C34.1639 58.8965 34.6971 58.7933 35.4104 57.5094C36.1237 56.2255 35.458 56.4565 35.458 56.4565C35.458 56.4565 34.5069 56.0829 33.7935 54.4185C33.0802 52.7537 33.7459 51.5595 33.7459 51.5595L32.68 51.7508C32.68 51.7508 33.544 51.3319 33.7741 50.1081C33.8192 49.8673 33.8508 49.7018 33.8725 49.5896C33.8086 49.6519 33.4616 49.982 32.7063 50.5465C31.8638 51.1762 31.1354 51.0962 31.1354 51.0962C31.1354 51.0962 32.763 49.9172 33.4633 48.9325C34.0964 48.0417 33.7146 46.5495 33.6358 46.272C33.5891 46.3227 33.514 46.3985 33.3945 46.5132C32.8785 47.0095 31.8444 47.0993 31.8444 47.0993C31.8444 47.0993 33.1513 46.2267 33.7797 44.6034C34.408 42.9801 34.1327 42.1774 34.1327 42.1774C34.1327 42.1774 33.4131 42.6661 32.5491 43.3072C31.7443 43.9052 31.78 44.2412 31.7887 44.2844C31.7774 44.2323 31.6696 43.6406 32.4445 42.6665C33.256 41.6455 33.4915 41.933 34.4248 40.3378C35.3582 38.7425 34.6961 39.341 34.6961 39.341L33.3093 39.7827C33.4775 39.6763 33.8883 39.3186 34.8855 38.171C36.4267 36.397 36.5115 36.3589 36.5159 36.3587L34.5531 36.2512C34.7192 36.2372 35.1501 36.1488 36.2638 35.7504C37.9637 35.1421 38.4667 34.0803 38.4667 34.0803L36.8267 34.3595C36.8267 34.3595 37.7322 33.4919 39.4985 32.8507C40.8129 32.3735 41.2276 32.417 41.354 32.4705ZM82.538 65.3677C82.4712 65.5086 82.3628 65.606 82.2126 65.6589C82.0624 65.7122 81.9168 65.7055 81.7759 65.6386C81.635 65.5717 81.5389 65.4646 81.4882 65.3174C81.4374 65.1697 81.4458 65.025 81.5131 64.8828C81.5834 64.7347 81.6887 64.6353 81.8296 64.5849C81.9706 64.5346 82.1153 64.5447 82.2634 64.6145C82.4073 64.6826 82.5055 64.7901 82.5588 64.9365C82.6116 65.083 82.6049 65.2268 82.538 65.3677ZM17.0545 64.1871C16.993 64.0441 16.9919 63.8981 17.0515 63.7508C17.1112 63.6031 17.2125 63.4982 17.3559 63.4368C17.4993 63.3755 17.6431 63.3742 17.7872 63.4335C17.9312 63.4931 18.0345 63.5946 18.0966 63.7394C18.1614 63.8905 18.1659 64.0352 18.1105 64.1744C18.055 64.3132 17.952 64.4152 17.8013 64.4799C17.6551 64.5425 17.5095 64.5455 17.3644 64.488C17.2194 64.4308 17.1161 64.3305 17.0545 64.1871ZM83.3273 63.5752C83.2685 63.7195 83.1656 63.8224 83.0184 63.8836C82.8715 63.9446 82.7259 63.9459 82.5812 63.8871C82.4369 63.8283 82.3354 63.7267 82.2761 63.5824C82.2173 63.4376 82.2177 63.2929 82.2774 63.1469C82.3392 62.995 82.439 62.8901 82.577 62.8321C82.7154 62.7741 82.8601 62.7758 83.012 62.838C83.1593 62.8981 83.2634 63.0001 83.3243 63.1431C83.3853 63.2865 83.3866 63.4305 83.3273 63.5752ZM44.6358 63.8028C44.7885 63.8028 44.9122 63.6793 44.9122 63.5266C44.9122 63.3737 44.7885 63.2502 44.6358 63.2502C44.4831 63.2502 44.3595 63.3737 44.3595 63.5266C44.3595 63.6793 44.4831 63.8028 44.6358 63.8028ZM54.9685 63.2502C54.8162 63.2502 54.6922 63.3737 54.6922 63.5266C54.6922 63.6793 54.8162 63.8028 54.9685 63.8028C55.1213 63.8028 55.2448 63.6793 55.2448 63.5266C55.2448 63.3737 55.1213 63.2502 54.9685 63.2502ZM56.7213 62.4106C56.4674 62.4106 56.2617 62.6163 56.2617 62.8702C56.2617 63.1241 56.4674 63.3302 56.7213 63.3302C56.9752 63.3302 57.1813 63.1241 57.1813 62.8702C57.1813 62.6163 56.9752 62.4106 56.7213 62.4106ZM42.8835 63.3302C43.1374 63.3302 43.343 63.1241 43.343 62.8702C43.343 62.6163 43.1374 62.4106 42.8835 62.4106C42.6295 62.4106 42.4235 62.6163 42.4235 62.8702C42.4235 63.1241 42.6295 63.3302 42.8835 63.3302ZM16.3288 62.3611C16.2754 62.2146 16.2823 62.0691 16.3499 61.9248C16.4175 61.7809 16.5245 61.6819 16.671 61.6282C16.8175 61.5748 16.9611 61.5816 17.1018 61.6489C17.2425 61.7162 17.3398 61.8236 17.3939 61.9718C17.4504 62.1258 17.4468 62.2705 17.3839 62.4064C17.3208 62.5418 17.2124 62.6383 17.0585 62.6942C16.9089 62.7492 16.7633 62.7441 16.6216 62.6789C16.4801 62.6133 16.3824 62.5079 16.3288 62.3611ZM84.0187 61.7361C83.968 61.8834 83.8706 61.9916 83.7276 62.0611C83.5837 62.1301 83.4386 62.1394 83.2909 62.0885C83.1436 62.0378 83.0366 61.9417 82.9696 61.8008C82.9033 61.6599 82.8952 61.5152 82.9468 61.3662C83.0002 61.2109 83.0941 61.1009 83.2286 61.0353C83.3633 60.9697 83.508 60.9638 83.6633 61.0171C83.8135 61.0692 83.9231 61.1652 83.9921 61.3048C84.0606 61.4449 84.0695 61.5884 84.0187 61.7361ZM44.0722 60.7086C43.8161 60.7086 43.6084 60.9164 43.6084 61.1728C43.6084 61.4293 43.8161 61.6371 44.0722 61.6371C44.3285 61.6371 44.5364 61.4293 44.5364 61.1728C44.5364 60.9164 44.3285 60.7086 44.0722 60.7086ZM55.9965 61.1728C55.9965 60.9164 55.7886 60.7086 55.5322 60.7086C55.2762 60.7086 55.068 60.9164 55.068 61.1728C55.068 61.4293 55.2762 61.6371 55.5322 61.6371C55.7886 61.6371 55.9965 61.4293 55.9965 61.1728ZM15.7058 60.5004C15.6604 60.351 15.6754 60.2067 15.7508 60.0662C15.8263 59.9257 15.9386 59.8331 16.0878 59.7877C16.2369 59.7421 16.3799 59.7569 16.5167 59.8318C16.6534 59.9067 16.7447 60.0193 16.7907 60.1704C16.8385 60.3274 16.8271 60.4716 16.7567 60.6036C16.6862 60.7356 16.5726 60.8258 16.4159 60.8732C16.2635 60.9197 16.1185 60.9066 15.9805 60.8339C15.8428 60.7606 15.7512 60.6498 15.7058 60.5004ZM84.6074 59.8639C84.5646 60.0137 84.4736 60.1272 84.3345 60.2042C84.1948 60.2812 84.0501 60.2985 83.9003 60.2558C83.75 60.2131 83.6379 60.1234 83.5634 59.9863C83.4889 59.8495 83.4733 59.7048 83.5165 59.5534C83.5613 59.3955 83.6493 59.2804 83.7801 59.2076C83.9108 59.1348 84.0551 59.1208 84.2125 59.1657C84.3657 59.2093 84.4805 59.299 84.557 59.4348C84.6332 59.5706 84.6501 59.7137 84.6074 59.8639ZM57.4106 59.5153C57.5816 59.5153 57.7205 59.3769 57.7205 59.2059C57.7205 59.0349 57.5816 58.8965 57.4106 58.8965C57.2401 58.8965 57.1014 59.0349 57.1014 59.2059C57.1014 59.3769 57.2401 59.5153 57.4106 59.5153ZM42.1939 58.8965C42.0228 58.8965 41.8844 59.0349 41.8844 59.2059C41.8844 59.3769 42.0228 59.5153 42.1939 59.5153C42.3646 59.5153 42.503 59.3769 42.503 59.2059C42.503 59.0349 42.3646 58.8965 42.1939 58.8965ZM15.1862 58.6096C15.149 58.4582 15.1719 58.3147 15.2552 58.1788C15.338 58.0426 15.4553 57.9563 15.6069 57.919C15.7584 57.8818 15.9004 57.9042 16.0327 57.9867C16.1652 58.0688 16.2502 58.1865 16.2877 58.3396C16.3269 58.4988 16.3075 58.6423 16.2299 58.7705C16.1523 58.8983 16.034 58.9821 15.8747 59.021C15.7201 59.0591 15.5761 59.0379 15.4425 58.9576C15.3087 58.8771 15.2235 58.7615 15.1862 58.6096ZM85.0919 57.9622C85.0576 58.1145 84.973 58.233 84.838 58.3173C84.703 58.4023 84.5591 58.4273 84.4072 58.393C84.2553 58.3587 84.1381 58.2749 84.0564 58.1425C83.9743 58.0096 83.951 57.8665 83.9857 57.7125C84.0217 57.5525 84.1029 57.4328 84.2295 57.3528C84.356 57.2728 84.4995 57.2508 84.6595 57.2872C84.8147 57.3224 84.9341 57.4053 85.0178 57.5369C85.1016 57.6685 85.1262 57.8103 85.0919 57.9622ZM14.7715 56.6931C14.7427 56.5399 14.7735 56.3973 14.8639 56.2661C14.9544 56.1349 15.076 56.0554 15.2294 56.0265C15.3826 55.9974 15.5234 56.0283 15.651 56.1175C15.7786 56.2068 15.8572 56.3287 15.8862 56.4836C15.9164 56.6448 15.8892 56.787 15.8047 56.911C15.7203 57.0342 15.5974 57.1112 15.4363 57.1416C15.2798 57.1708 15.1372 57.1416 15.0081 57.0545C14.8792 56.9669 14.8003 56.8463 14.7715 56.6931ZM85.4711 56.0364C85.4453 56.1899 85.3674 56.3131 85.2375 56.4049C85.1072 56.4967 84.965 56.5294 84.8114 56.5035C84.6577 56.4777 84.5358 56.4006 84.447 56.2725C84.3581 56.1446 84.3268 56.0029 84.353 55.8475C84.3805 55.6859 84.455 55.5616 84.5769 55.4747C84.6988 55.388 84.8406 55.3584 85.0022 55.3859C85.1592 55.4125 85.2832 55.4887 85.3737 55.6157C85.4647 55.7422 85.4973 55.8827 85.4711 56.0364ZM14.4619 54.7536C14.4416 54.5992 14.4802 54.4587 14.5775 54.3326C14.675 54.2069 14.8009 54.1337 14.9556 54.1135C15.1103 54.0931 15.249 54.1312 15.3715 54.2273C15.4943 54.3237 15.5658 54.4498 15.5863 54.606C15.6078 54.7685 15.5729 54.909 15.4817 55.0279C15.3906 55.1468 15.2636 55.2166 15.1012 55.2382C14.9435 55.2589 14.8025 55.2222 14.6785 55.1277C14.5545 55.033 14.4822 54.9085 14.4619 54.7536ZM85.7445 54.0931C85.7271 54.248 85.6555 54.3749 85.5307 54.4735C85.4059 54.5725 85.2658 54.6132 85.1109 54.5958C84.9561 54.5781 84.8304 54.5078 84.7347 54.3851C84.6387 54.2619 84.5997 54.1223 84.6175 53.9657C84.6357 53.8028 84.7038 53.6745 84.8206 53.5815C84.9379 53.488 85.0776 53.4507 85.2405 53.4689C85.3987 53.4871 85.5266 53.5565 85.6243 53.678C85.7216 53.7995 85.7622 53.9378 85.7445 54.0931ZM14.2591 52.8033C14.2471 52.648 14.2934 52.5095 14.3975 52.389C14.5015 52.2684 14.6314 52.2024 14.787 52.1905C14.9425 52.1786 15.0788 52.2244 15.1961 52.3272C15.3134 52.43 15.3779 52.5595 15.3899 52.7169C15.4024 52.8803 15.3599 53.0186 15.2625 53.1325C15.1651 53.2459 15.0345 53.3094 14.8712 53.3216C14.7123 53.3335 14.5736 53.2891 14.455 53.1879C14.3364 53.0872 14.2711 52.959 14.2591 52.8033ZM85.9112 52.1393C85.9023 52.295 85.838 52.4258 85.7186 52.5312C85.5993 52.6365 85.4617 52.6848 85.306 52.6755C85.1503 52.6665 85.0213 52.6035 84.9188 52.4859C84.8165 52.3683 84.7699 52.2307 84.7787 52.0737C84.7885 51.9095 84.849 51.7784 84.9612 51.6789C85.0729 51.579 85.2108 51.5342 85.3742 51.5435C85.5333 51.5532 85.6649 51.6155 85.7685 51.7318C85.8726 51.8477 85.9201 51.9835 85.9112 52.1393ZM14.1624 50.8453C14.1587 50.6891 14.2124 50.5536 14.3227 50.439C14.4332 50.3243 14.5665 50.2655 14.7225 50.2616C14.8784 50.2583 15.012 50.3112 15.1235 50.4199C15.2351 50.5291 15.2925 50.6625 15.2961 50.8198C15.2998 50.9836 15.2499 51.1199 15.1464 51.2278C15.0429 51.3361 14.9093 51.392 14.7453 51.3954C14.5862 51.3992 14.4503 51.3475 14.3371 51.2396C14.224 51.1325 14.1656 51.001 14.1624 50.8453ZM85.9721 50.1817C85.9695 50.3378 85.9107 50.4712 85.7961 50.5816C85.6814 50.692 85.546 50.7458 85.3898 50.7433C85.2336 50.7407 85.1021 50.6827 84.995 50.5697C84.8879 50.4564 84.8355 50.3214 84.838 50.1639C84.8405 49.9993 84.8955 49.8655 85.0035 49.7615C85.1109 49.6574 85.2468 49.6066 85.4105 49.6091C85.5696 49.6121 85.7038 49.6688 85.8125 49.7805C85.9214 49.8923 85.9746 50.026 85.9721 50.1817ZM83.6582 16.1202L76.958 24.5354C82.8186 30.7365 86.5633 38.962 87.033 48.0531L97.7564 49.924C97.7355 36.7109 92.3491 24.7566 83.6582 16.1202ZM16.3998 16.063C7.67393 24.704 2.26386 36.6823 2.24335 49.924L12.9669 48.0531C13.4387 38.9345 17.2042 30.6873 23.0981 24.4761L16.3998 16.063ZM14.1709 48.8813C14.1757 48.7251 14.2365 48.5931 14.3529 48.4844C14.4695 48.3755 14.6056 48.3239 14.7616 48.3286C14.9175 48.3337 15.0482 48.3934 15.1536 48.5085C15.2593 48.6232 15.3095 48.7594 15.3045 48.9168C15.2994 49.0806 15.2423 49.2139 15.1331 49.3163C15.024 49.4187 14.8875 49.4674 14.7235 49.4623C14.5646 49.4572 14.4314 49.398 14.3244 49.285C14.2171 49.1715 14.166 49.037 14.1709 48.8813ZM85.9277 48.2165C85.9357 48.3717 85.8858 48.5089 85.7783 48.6265C85.6713 48.7442 85.5396 48.8068 85.3835 48.8145C85.2277 48.8225 85.0927 48.7729 84.9781 48.6672C84.8638 48.5614 84.8029 48.4297 84.7953 48.2724C84.7868 48.1085 84.8329 47.971 84.9336 47.8602C85.0339 47.7493 85.1664 47.6896 85.3297 47.6815C85.4888 47.6735 85.6264 47.7218 85.7424 47.8263C85.8583 47.9304 85.9201 48.0603 85.9277 48.2165ZM14.285 46.9241C14.2983 46.7688 14.3661 46.6402 14.4882 46.5377C14.6104 46.4357 14.7491 46.3913 14.9046 46.4045C15.0601 46.418 15.1873 46.4845 15.2864 46.605C15.3856 46.7252 15.4283 46.864 15.4149 47.021C15.401 47.1844 15.3368 47.3138 15.2224 47.4104C15.1077 47.5072 14.9688 47.5483 14.8055 47.5343C14.6468 47.5207 14.5173 47.4544 14.4164 47.3355C14.3154 47.2165 14.2716 47.0794 14.285 46.9241ZM62.3516 43.4981C62.3516 43.4981 62.4029 45.198 61.4761 45.6101C60.5498 46.0219 59.1394 46.3308 59.1394 46.3308C59.1394 46.3308 57.8948 46.1251 57.5236 46.9998C57.1525 47.875 57.8228 46.9491 58.8004 46.743C59.7775 46.5365 62.8146 47.6147 62.3516 43.4981ZM40.717 46.743C41.6944 46.9491 42.3646 47.875 41.9935 46.9998C41.6225 46.1251 40.3775 46.3308 40.3775 46.3308C40.3775 46.3308 38.9674 46.0219 38.0413 45.6101C37.1142 45.198 37.1656 43.4981 37.1656 43.4981C36.7026 47.6147 39.7396 46.5365 40.717 46.743ZM85.7779 46.2614C85.794 46.4167 85.7516 46.5559 85.6509 46.6791C85.5498 46.8026 85.422 46.8725 85.2667 46.8885C85.1114 46.9046 84.9738 46.8632 84.8541 46.7633C84.7339 46.6638 84.6662 46.5356 84.6497 46.379C84.6327 46.2157 84.6713 46.0761 84.7656 45.9601C84.86 45.8437 84.9886 45.7773 85.152 45.7604C85.3103 45.7438 85.4499 45.7845 85.5714 45.8823C85.6928 45.98 85.7618 46.1065 85.7779 46.2614ZM14.5057 44.9715C14.5276 44.8171 14.6023 44.6923 14.7299 44.5971C14.8574 44.5014 14.9985 44.465 15.1529 44.4866C15.3074 44.5082 15.4308 44.5823 15.5232 44.7075C15.6155 44.8332 15.6508 44.9736 15.6288 45.1298C15.606 45.2924 15.5348 45.4185 15.4151 45.5085C15.2955 45.5987 15.1546 45.6321 14.9923 45.6093C14.8346 45.5868 14.7087 45.5136 14.6145 45.3896C14.5203 45.2656 14.4841 45.126 14.5057 44.9715ZM46.8025 42.3703C46.7014 42.8345 46.7615 43.3271 46.6916 43.8024C46.6108 44.3495 46.4216 44.8713 46.2795 45.4032C46.2685 45.4446 46.3276 45.4709 46.3493 45.4324C46.794 44.6343 47.2828 43.2805 46.9717 42.3703C46.9455 42.2928 46.8224 42.2797 46.8025 42.3703ZM85.5215 44.3161C85.546 44.4701 85.5113 44.6118 85.4174 44.7401C85.3234 44.8692 85.1994 44.9454 85.0454 44.9703C84.8914 44.9948 84.7516 44.9605 84.6265 44.8679C84.5012 44.7748 84.4263 44.6508 84.4017 44.4951C84.3755 44.333 84.4068 44.1916 84.4944 44.0702C84.5824 43.9492 84.7073 43.8755 84.8694 43.8497C85.0264 43.8247 85.1681 43.8577 85.2946 43.9487C85.4212 44.0397 85.4969 44.162 85.5215 44.3161ZM53.9355 41.7914C53.9093 41.7015 53.8107 41.6886 53.7438 41.7408C53.0173 42.3119 53.6405 43.9644 53.9483 44.6204C53.9668 44.6605 54.0401 44.6424 54.0342 44.5971C53.9732 44.1443 53.8924 43.6978 53.8683 43.2399C53.8428 42.7638 54.0701 42.2442 53.9355 41.7914ZM41.1376 43.3915C41.1372 43.3915 41.1366 43.3915 41.1361 43.3915C41.1275 43.4117 41.1173 43.4291 41.1037 43.4409C41.0679 43.4705 41.0276 43.4833 40.9857 43.4836H40.9817C40.8517 43.4833 40.7071 43.3703 40.6325 43.3097C40.3295 43.063 40.3098 42.8459 40.3098 42.4638L40.8857 42.2856C40.86 42.2853 40.834 42.2848 40.808 42.2848H40.7557C40.2398 42.2865 39.6711 42.3385 39.1248 42.405C39.0965 42.6932 39.1012 43.0432 39.2247 43.3245C39.366 43.6466 39.6 43.9927 39.8928 44.2568C40.0679 44.2868 40.3854 44.341 40.9647 44.4401C41.1658 44.4747 41.3456 44.4916 41.5054 44.4921H41.5174C42.3714 44.4891 42.6549 44.0037 42.6117 43.1396C42.5834 42.5743 41.9972 42.3508 41.2022 42.2979L41.1834 42.2966C41.2892 42.6216 41.6106 43.3212 41.1481 43.391L41.1376 43.3915ZM58.315 42.2979C57.5198 42.3508 56.9337 42.5743 56.9054 43.1396C56.8618 44.008 57.1483 44.4938 58.0115 44.4921H58.0238C58.1808 44.4908 58.3565 44.4739 58.5524 44.4401C59.1317 44.341 59.4491 44.2868 59.6243 44.2568C59.9172 43.9927 60.1512 43.6466 60.2925 43.3245C60.4161 43.0432 60.4207 42.6932 60.3924 42.405C59.8461 42.3385 59.2773 42.2865 58.7615 42.2848H58.7094C58.6832 42.2848 58.6574 42.2853 58.6315 42.2856L59.2071 42.4638C59.2071 42.8459 59.1875 43.063 58.8845 43.3097C58.811 43.3698 58.6684 43.4807 58.5397 43.4836H58.5355C58.4923 43.4836 58.4504 43.4714 58.4136 43.4409C58.3996 43.4291 58.3899 43.4117 58.381 43.3915L58.3687 43.391C57.9138 43.322 58.2181 42.6433 58.3285 42.3124L58.334 42.2966L58.315 42.2979ZM14.8324 43.0381C14.8625 42.8853 14.9437 42.7647 15.0764 42.6763C15.2091 42.5883 15.3518 42.559 15.505 42.5891C15.6581 42.6195 15.7773 42.6999 15.8626 42.8303C15.9479 42.9606 15.9755 43.1033 15.9449 43.2577C15.9132 43.4185 15.8353 43.5408 15.7107 43.6242C15.5865 43.7075 15.4438 43.7334 15.283 43.7016C15.127 43.6707 15.0051 43.5907 14.9178 43.4616C14.8305 43.3322 14.802 43.1913 14.8324 43.0381ZM85.1588 42.3881C85.1918 42.5405 85.1651 42.6835 85.0784 42.8167C84.9912 42.9505 84.8718 43.0338 84.7195 43.0668C84.5667 43.0998 84.4255 43.0736 84.2955 42.9877C84.1656 42.9018 84.0835 42.7816 84.0505 42.628C84.0154 42.4676 84.0386 42.3246 84.1199 42.1985C84.2007 42.0728 84.3217 41.9925 84.4821 41.9578C84.6375 41.9242 84.7809 41.9494 84.9121 42.0334C85.0436 42.1173 85.1257 42.2353 85.1588 42.3881ZM15.2647 41.1242C15.3031 40.9731 15.3911 40.8573 15.5283 40.7763C15.6656 40.6955 15.8099 40.6744 15.961 40.713C16.1121 40.7516 16.2267 40.8384 16.3048 40.9733C16.3829 41.1082 16.4025 41.2518 16.3635 41.4047C16.323 41.5636 16.2384 41.6812 16.1096 41.7575C15.9809 41.8339 15.837 41.8519 15.6782 41.8114C15.5241 41.772 15.4068 41.6855 15.3267 41.5515C15.2469 41.4179 15.2261 41.2755 15.2647 41.1242ZM84.6912 40.4836C84.7326 40.634 84.7136 40.7783 84.6345 40.9165C84.5554 41.0545 84.4402 41.1445 84.29 41.1857C84.1394 41.227 83.9972 41.2085 83.8622 41.1298C83.7275 41.0514 83.6395 40.936 83.5976 40.7843C83.5541 40.6261 83.5697 40.4818 83.6438 40.3519C83.7175 40.2217 83.8334 40.135 83.9921 40.0915C84.1453 40.0493 84.29 40.0664 84.4255 40.1431C84.5613 40.2196 84.6501 40.3332 84.6912 40.4836ZM55.5673 32.0704C55.5673 32.0704 55.3375 32.1184 54.5382 32.5084C53.7387 32.8982 52.4185 32.9541 51.9534 33.1771C51.4887 33.4004 51.0982 33.735 51.0982 33.735C51.0982 33.735 51.2098 32.8982 51.9906 32.359C52.7718 31.8198 53.627 31.3735 53.9618 30.946C54.2965 30.5182 54.2406 30.2951 54.2406 30.2951C54.2406 30.2951 53.9804 30.7042 53.3295 30.8528C52.8099 30.9717 52.388 30.9382 52.1239 31.0044C52.3884 30.8324 52.8353 30.4586 52.9956 29.955C53.2009 29.312 52.9419 28.4467 52.8243 28.1125C52.8767 28.3088 52.9055 28.6867 52.5555 29.0993C52.0465 29.7001 51.9165 29.7373 51.9165 29.7373C51.9165 29.7373 52.121 29.2165 51.8421 28.7333C51.5632 28.2498 51.2471 27.9522 51.1167 27.6175C50.9868 27.2828 50.931 27.5803 50.8379 28.101C50.7536 28.5738 50.8527 28.6171 50.8717 28.6211C50.8379 28.6156 50.358 28.5314 50.1282 28.101C49.8895 27.6546 49.8709 27.7291 49.8709 27.7291C49.8709 27.7291 49.8337 27.822 49.8709 28.3427C49.9082 28.8634 50.0626 29.0993 50.0626 29.0993C50.0626 29.0993 49.499 29.3282 49.1646 28.8634L48.8299 28.3985C48.8299 28.3985 48.6801 28.4426 48.8109 29.0993C48.9416 29.7559 49.3318 30.3508 49.3318 30.3508C49.3318 30.3508 48.4021 30.4997 47.8257 29.8488C47.2494 29.198 45.3713 29.6628 45.3713 29.6628C45.3713 29.6628 47.3606 29.9975 47.9188 31.5036C48.4765 33.0098 48.3835 32.8796 48.3835 32.8796C48.3835 32.8796 48.2717 32.6007 47.6214 32.1916C47.0733 31.8471 46.579 31.9639 46.4365 31.976C46.6759 32.0602 47.9548 32.7963 48.4765 34.4787C49.0529 36.3381 49.0157 36.6357 49.0157 36.6357L48.1418 35.8733C48.1418 35.8733 48.4765 36.1707 49.2574 37.7326C50.0385 39.2946 50.1688 40.2429 50.1688 40.2429L50.4245 38.7438C50.4245 38.7438 51.0055 35.2969 52.3998 34.3299C53.7942 33.3632 55.0349 33.0087 55.5673 32.0704ZM15.8015 39.2372C15.8483 39.0884 15.9425 38.9775 16.0841 38.9043C16.2255 38.8311 16.3707 38.8179 16.5195 38.8648C16.6682 38.9117 16.7779 39.0045 16.8486 39.1435C16.9192 39.2825 16.9308 39.4273 16.8834 39.5775C16.8343 39.7339 16.7433 39.8467 16.6105 39.9158C16.4778 39.9852 16.3332 39.9952 16.1768 39.9458C16.025 39.898 15.9128 39.8053 15.8402 39.6672C15.7675 39.5294 15.7548 39.3858 15.8015 39.2372ZM42.8784 39.6151L44.208 39.3978L44.9138 39.6151C44.9138 39.6151 44.9245 39.5827 44.9393 39.528C44.9994 39.3044 45.1296 38.7061 44.9138 38.3824C44.6451 37.9789 44.7522 38.1472 44.7522 38.1472L44.5846 38.7438L43.894 38.4852L43.3604 38.257L43.2254 38.5905C43.2254 38.5905 43.0113 38.4852 42.4425 38.573C41.8736 38.6608 40.723 39.2511 40.723 39.2511L42.2949 39.1345L42.8784 39.6151ZM54.9486 39.6151L55.6545 39.3978L56.9841 39.6151L57.5673 39.1345L59.1394 39.2511C59.1394 39.2511 57.9887 38.6608 57.42 38.573C56.8513 38.4852 56.6371 38.5905 56.6371 38.5905L56.5021 38.257L55.9685 38.4852L55.2778 38.7438L55.1103 38.1472C55.1103 38.1472 55.2174 37.9789 54.9486 38.3824C54.7328 38.7061 54.8632 39.3044 54.9233 39.528C54.9381 39.5827 54.9486 39.6151 54.9486 39.6151ZM84.1195 38.6077C84.169 38.7556 84.158 38.9007 84.0865 39.043C84.0149 39.1854 83.9054 39.2813 83.7572 39.3308C83.6095 39.3804 83.4661 39.3696 83.3273 39.2985C83.1885 39.2276 83.0941 39.1175 83.0442 38.9679C82.9921 38.8125 82.9993 38.6676 83.0662 38.5336C83.1326 38.3998 83.2439 38.3067 83.3996 38.2547C83.5503 38.2041 83.6958 38.2135 83.8355 38.2824C83.9752 38.3514 84.0699 38.4598 84.1195 38.6077ZM16.4409 37.3842C16.496 37.2382 16.5961 37.1325 16.7412 37.0674C16.8867 37.0021 17.0324 36.997 17.1784 37.0518C17.3243 37.1068 17.4287 37.2055 17.4915 37.3482C17.5543 37.4909 17.5579 37.636 17.5025 37.7835C17.4447 37.937 17.3476 38.0447 17.2113 38.1065C17.075 38.1683 16.9301 38.1703 16.7766 38.1126C16.6276 38.0565 16.5208 37.9576 16.4559 37.8158C16.391 37.6741 16.3861 37.5302 16.4409 37.3842ZM83.4449 36.7639C83.5025 36.9088 83.4995 37.0543 83.4356 37.2003C83.3721 37.3465 83.268 37.4482 83.1229 37.5058C82.9782 37.5635 82.8343 37.5605 82.6916 37.4974C82.5495 37.4341 82.4492 37.3292 82.3908 37.1826C82.3303 37.0305 82.3298 36.8854 82.3891 36.748C82.4484 36.6105 82.5537 36.5115 82.7065 36.4509C82.8542 36.3923 82.9997 36.3935 83.1432 36.4546C83.2866 36.5158 83.3869 36.619 83.4449 36.7639ZM17.1824 35.5664C17.2454 35.4235 17.3511 35.3235 17.4997 35.2664C17.6484 35.2093 17.794 35.2121 17.9368 35.2751C18.0797 35.3378 18.1785 35.4424 18.2335 35.5882C18.2883 35.7342 18.2838 35.8791 18.2204 36.0234C18.1543 36.1734 18.0515 36.2755 17.912 36.3298C17.7724 36.3841 17.6275 36.3779 17.4775 36.312C17.3319 36.2478 17.2305 36.1431 17.1735 35.9981C17.1166 35.853 17.1195 35.709 17.1824 35.5664ZM82.6696 34.9598C82.7353 35.1014 82.7399 35.2468 82.6845 35.3962C82.629 35.5454 82.5305 35.6529 82.3891 35.7184C82.2474 35.7837 82.1038 35.7888 81.9578 35.7335C81.8123 35.6781 81.7065 35.579 81.6401 35.436C81.5715 35.287 81.5626 35.1425 81.6143 35.0019C81.6659 34.8614 81.7662 34.7568 81.9151 34.6878C82.0595 34.6212 82.205 34.6144 82.3515 34.6675C82.4978 34.7206 82.6041 34.8182 82.6696 34.9598ZM67.8259 27.6118L67.8263 26.5518C67.8263 26.5518 66.9186 26.9944 66.4815 28.555C66.0443 30.1156 66.0913 30.8659 66.0913 30.8659C66.0913 30.8659 67.4506 27.4106 70.2643 27.0633C73.0784 26.7159 74.485 28.1461 74.9306 28.8027C75.3762 29.4592 76.6424 31.5225 75.5167 33.2341C74.3911 34.9456 73.4051 34.4335 73.4051 34.4335C73.4051 34.4335 73.9458 35.4713 74.9539 35.3375C75.9623 35.2036 76.1967 34.9222 76.1967 34.9222C76.1967 34.9222 75.7355 35.0864 75.2746 34.8284C75.1985 34.7859 75.1358 34.751 75.0829 34.7214C75.2827 34.7771 75.5856 34.7615 75.9704 34.4335C76.6893 33.8202 77.2945 33.5622 77.2945 33.5622C77.2945 33.5622 76.7592 33.656 76.314 33.5622L75.8684 33.4686C75.8684 33.4686 75.6796 33.5325 76.493 32.3234C77.3063 31.1144 76.6186 28.8027 76.6186 28.8027L76.0325 29.1075C76.0325 29.1075 75.4227 27.8982 75.3995 27.6118C75.3762 27.3255 75.2746 27.2317 75.2746 27.2317L74.6259 27.349C74.6259 27.349 73.9349 27.153 73.5548 26.1459C73.1745 25.1387 73.0784 24.9866 73.0784 24.9866C73.0784 24.9866 72.9142 25.2856 72.2341 25.356C71.5541 25.4264 70.8453 25.4626 70.8453 25.4626L71.1711 24.7934C71.1711 24.7934 70.7335 24.58 69.4441 25.7887C68.1547 26.9972 67.8259 27.6118 67.8259 27.6118ZM18.0218 33.7934C18.0924 33.6543 18.2036 33.5603 18.3551 33.5115C18.5067 33.4625 18.652 33.4734 18.7912 33.5441C18.9303 33.6146 19.0232 33.7243 19.0699 33.8729C19.1166 34.0217 19.1045 34.1664 19.0331 34.3068C18.9588 34.453 18.8507 34.5493 18.7083 34.5956C18.566 34.6422 18.4217 34.6285 18.2756 34.5542C18.1336 34.4821 18.0383 34.3721 17.9893 34.2241C17.9404 34.076 17.9513 33.9325 18.0218 33.7934ZM25.209 32.5084L24.8211 33.8063L27.5682 34.5491C27.5682 34.5491 25.3655 32.8702 26.125 29.9603C26.8843 27.0505 30.1263 25.9525 31.8167 27.0173C33.5069 28.0823 34.7982 30.1216 34.7982 30.1216C34.7982 30.1216 35.4635 29.0242 34.6183 27.3885C33.7732 25.7527 33.4361 25.7892 33.4361 25.7892L33.3571 26.8826C33.3689 26.628 33.3445 25.578 32.209 25.0539C30.9111 24.4548 30.3317 24.7765 30.3317 24.7765L30.8113 25.6863C30.8113 25.6863 29.7796 25.4461 28.4484 26.0985C27.1174 26.751 25.9656 26.9508 25.9656 26.9508L26.1188 27.9575C26.1188 27.9575 25.6283 28.0014 24.8875 28.9746C24.1468 29.9478 24.0888 31.5434 24.0888 31.5434L24.8875 30.6448C24.8875 30.6448 25.5971 31.2103 25.209 32.5084ZM28.7555 32.8885C28.0069 33.7832 28.1227 34.2265 28.1227 34.2265C28.1227 34.2265 29.6757 33.0603 32.1071 32.9779C34.5386 32.8954 34.671 31.6635 34.671 31.6635C34.671 31.6635 33.2915 31.2884 32.4811 30.694C31.6705 30.0995 31.5108 28.9746 31.5108 28.9746V29.6313C31.5108 30.0527 31.6612 30.3658 31.7618 30.5296C31.6705 30.4184 31.4855 30.2211 31.1095 29.8835C30.407 29.2531 29.9566 29.5052 29.1475 29.3955C28.3384 29.2856 27.9034 29.163 27.9034 29.163C27.9034 29.163 27.9395 29.2531 28.2456 29.6133C28.5519 29.9735 28.804 29.9915 29.3734 29.9603C29.9425 29.9291 30.0885 30.6355 30.0885 30.6355C30.0885 30.6355 29.09 30.3881 27.9775 30.6353C26.8648 30.8826 26.4116 30.6353 26.4116 30.6353C26.4116 30.6353 27.1125 31.7476 28.4509 31.6763C29.7892 31.6046 30.3329 31.9533 30.3329 31.9533C30.3329 31.9533 29.5042 31.9936 28.7555 32.8885ZM81.7966 33.2022C81.8698 33.3399 81.883 33.4848 81.8355 33.637C81.7886 33.7892 81.6959 33.9016 81.5584 33.975C81.4205 34.0482 81.2774 34.061 81.1289 34.0137C80.9804 33.9665 80.869 33.8733 80.795 33.7342C80.718 33.5892 80.7015 33.4454 80.7455 33.3022C80.7891 33.159 80.8838 33.0492 81.0285 32.9721C81.1691 32.8975 81.3138 32.8826 81.4632 32.9278C81.6121 32.973 81.7235 33.0643 81.7966 33.2022ZM73.6069 33.2504C73.4042 33.2123 72.5084 33.0624 71.7411 33.2204C70.8698 33.3996 71.2286 33.0665 71.2286 33.0665C71.2286 33.0665 72.2663 32.2594 72.8173 32.0749C73.3682 31.8907 74.4727 32.0749 74.4727 32.0749C74.4727 32.0749 73.2273 31.6699 72.689 31.6828C72.1512 31.6955 72.0615 31.7597 71.4207 31.9904C70.7801 32.2209 70.8186 31.7981 70.8186 31.7981C70.8186 31.7981 71.0746 31.7468 71.5875 31.4265C72.1 31.1062 72.4072 30.773 73.0991 30.1066C73.7914 29.4405 74.7139 29.8244 74.7139 29.8244C74.7139 29.8244 74.2907 29.5045 73.5862 29.4661C72.8815 29.4276 72.2921 29.6327 71.5875 30.1324C70.8825 30.6321 70.3955 30.5936 70.3955 30.5936C70.3955 30.5936 70.447 29.8375 70.7415 29.1841C71.0365 28.5307 71.8156 28.2455 71.8156 28.2455C71.8156 28.2455 71.1373 28.3249 70.1051 29.2758C69.0725 30.2267 69.5072 30.9059 68.5563 32.0199C67.6055 33.1337 66.2741 32.6176 66.2741 32.6176C66.2741 32.6176 67.1793 33.1435 67.2563 33.1564C67.3333 33.169 67.3206 33.2204 68.8454 33.6176C70.37 34.0148 71.9333 33.9763 72.4842 33.5407C72.9501 33.1724 73.4601 33.2251 73.6069 33.2504ZM18.9571 32.0696C19.0352 31.9345 19.1512 31.8469 19.3053 31.8064C19.4593 31.7658 19.6038 31.7845 19.7389 31.8626C19.8737 31.9407 19.9607 32.0554 19.9992 32.2065C20.0377 32.3575 20.0176 32.5013 19.9388 32.6375C19.8566 32.7795 19.7433 32.8698 19.5985 32.9085C19.454 32.947 19.3107 32.9252 19.1688 32.8432C19.0311 32.7635 18.9417 32.6484 18.901 32.498C18.8603 32.3475 18.879 32.2047 18.9571 32.0696ZM80.8309 31.4978C80.9118 31.6313 80.9325 31.7754 80.8935 31.9298C80.8551 32.0843 80.7687 32.2019 80.635 32.2825C80.5017 32.3631 80.3591 32.3839 80.2085 32.3447C80.0574 32.3055 79.9415 32.2186 79.8597 32.0835C79.7751 31.9432 79.751 31.8004 79.787 31.6551C79.8229 31.5098 79.911 31.3949 80.0515 31.3101C80.1877 31.2279 80.3316 31.2052 80.4831 31.2422C80.6346 31.279 80.7505 31.3642 80.8309 31.4978ZM19.9854 30.3986C20.0709 30.2682 20.1915 30.1869 20.3475 30.1548C20.5036 30.1226 20.6468 30.1493 20.7773 30.2346C20.9079 30.32 20.9884 30.4392 21.0186 30.5921C21.0488 30.7451 21.021 30.8875 20.9345 31.0195C20.845 31.1566 20.7268 31.2405 20.5803 31.2713C20.4338 31.3019 20.2919 31.2723 20.1546 31.1825C20.0215 31.0955 19.9386 30.9757 19.9061 30.8232C19.8736 30.6707 19.9 30.5293 19.9854 30.3986ZM79.7688 29.842C79.8568 29.9709 79.8852 30.1135 79.8556 30.2699C79.8251 30.4263 79.7455 30.5484 79.6165 30.636C79.4874 30.724 79.3465 30.7524 79.1936 30.7215C79.0409 30.6908 78.9203 30.6102 78.8315 30.4799C78.7392 30.3445 78.707 30.2031 78.7349 30.056C78.7629 29.909 78.8446 29.7895 78.9804 29.697C79.112 29.6075 79.2542 29.5772 79.4074 29.6057C79.5605 29.6341 79.6812 29.7129 79.7688 29.842ZM34.5195 24.3852L34.2743 25.2967C34.2743 25.2967 35.2328 25.1775 36.3313 25.9798C37.1394 26.5699 37.7555 27.9121 38.0249 28.5805C37.9626 28.3986 37.8787 28.1395 37.7686 27.773C37.4715 26.7825 37.7489 26.7625 37.6023 25.2967C37.4557 23.8308 37.0555 23.652 37.0555 23.652C37.0555 23.652 37.9471 23.9294 38.4425 24.3255C38.9377 24.7219 39.3836 26.0985 39.3836 26.0985C39.3836 26.0985 39.6906 24.6823 39.4379 23.7675C39.1851 22.8527 38.9971 22.7803 38.9971 22.7803C38.9971 22.7803 39.4133 22.9387 39.9945 23.2784C40.5755 23.6181 40.8347 24.8816 40.8347 24.8816C40.8347 24.8816 41.1171 23.5925 40.967 22.9453C40.8169 22.298 40.5821 21.8885 40.5821 21.8885L41.1964 22.3444C41.8105 22.8 42.1275 25.0587 42.1275 25.0587C42.1275 25.0587 42.3257 24.1672 42.583 23.2359C42.8407 22.3047 43.8906 21.7223 43.8906 21.7223L43.3363 23.5332C43.3363 23.5332 44.2673 23.0378 44.7246 22.1464C45.1821 21.255 45.3472 20.9365 45.3472 20.9365C45.3472 20.9365 45.4758 20.9774 45.6544 21.9876C45.8321 22.9982 45.1787 24.5435 45.1787 24.5435C45.1787 24.5435 45.8525 23.8897 45.979 23.3349C46.1059 22.7803 46.1694 22.265 46.1694 22.265C46.1694 22.265 46.2485 22.285 46.5723 23.1567C46.8955 24.0285 46.2485 25.5343 46.2485 25.5343C46.2485 25.5343 46.9024 24.9199 47.2591 24.3652C47.6158 23.8105 47.8761 22.5623 47.8761 22.5623C47.8761 22.5623 47.9328 22.6415 48.3487 23.7675C48.7647 24.8933 49.9141 25.2766 49.9141 25.2766C49.9141 25.2766 50.0131 24.9398 49.934 24.0482C49.8595 23.211 50.4477 22.5512 50.5196 22.474C50.5112 22.52 50.5214 22.7785 50.7461 24.1275C51.0431 25.9107 51.8755 26.6834 51.8755 26.6834C51.8755 26.6834 51.9149 25.0785 51.8755 24.2266C51.8357 23.3746 52.6284 23.0378 52.9652 22.3642C53.302 21.6905 53.1434 21.1359 53.1434 21.1359C53.1434 21.1359 53.619 22.5623 53.8369 23.5925C54.0549 24.6228 53.1831 25.5936 53.1831 25.5936C53.1831 25.5936 54.0747 24.7416 54.5106 24.3455C54.9461 23.9493 55.1645 23.2557 55.0256 22.1265C54.8868 20.9971 55.5207 20.4821 55.5207 20.4821C55.5207 20.4821 55.5207 20.383 55.635 20.8597C55.7493 21.3366 56.69 23.2161 56.69 23.2161C56.69 23.2161 56.7294 23.4341 56.7493 22.0867C56.7691 20.7395 57.6607 20.7792 57.6607 20.7792L57.5786 21.8789C57.497 22.9785 58.5126 24.7787 58.5126 24.7787C58.5126 24.7787 58.5524 24.4246 58.6908 23.1369C58.8295 21.8491 60.0665 21.6517 60.0665 21.6517C60.0665 21.6517 59.959 21.8094 59.8795 23.3944C59.8004 24.9795 60.3356 26.4654 60.3356 26.4654C60.3356 26.4654 61.0885 24.7813 61.6428 24.0086C62.1976 23.2359 63.0969 23.3549 63.0969 23.3549C63.0969 23.3549 62.832 23.5529 62.3825 24.108C61.9332 24.663 61.6627 26.5051 61.6627 26.5051C61.6627 26.5051 61.8612 26.1087 62.9111 25.7125C63.961 25.3163 64.9715 25.4626 64.9715 25.4626C64.9715 25.4626 64.5357 25.8907 64.4366 27.2975C64.3376 28.7042 65.3283 30.1902 65.3283 30.1902C65.3283 30.1902 65.3876 28.6645 65.597 27.4759C65.8065 26.2872 66.8954 25.7887 66.8954 25.7887C66.8954 25.7887 68.4332 24.9344 68.6675 24.438C68.902 23.9417 68.6401 23.6246 68.7365 23.1421C68.8331 22.6595 69.1365 22.6767 69.1365 22.6767C69.1365 22.6767 67.8775 22.2257 67.2317 23.1558C66.586 24.0861 65.0833 23.7211 65.0833 23.7211C65.0833 23.7211 65.4827 23.542 65.8137 23.2525C66.1446 22.9629 66.1996 22.0944 66.2741 21.7496C66.3485 21.4049 66.696 21.4181 66.696 21.4181C66.696 21.4181 65.4277 21.0879 64.8099 21.6517C64.1925 22.2155 63.7321 21.984 63.7321 21.984C63.7321 21.984 64.1455 21.9013 64.3525 21.0189C64.5594 20.1366 63.6906 19.5025 63.6906 19.5025C63.6906 19.5025 63.5526 20.0263 62.8633 20.5778C62.1744 21.1292 61.4021 21.1154 61.4021 21.1154C61.4021 21.1154 61.6365 20.1229 61.6225 19.654C61.609 19.1854 62.0335 18.9647 62.0335 18.9647L61.5261 18.951C61.5261 18.951 60.8748 18.9395 60.2201 19.2665C59.5655 19.5934 59.3755 20.1366 59.3755 20.1366L59.4119 19.867C59.4486 19.5975 59.334 19.2404 59.3065 18.951C59.279 18.6615 59.8029 18.3553 59.8029 18.3553C59.8029 18.3553 58.8101 17.8756 58.0383 18.2891C57.2659 18.7028 56.894 19.6403 56.894 19.6403C56.894 19.6403 56.935 19.7644 56.811 19.4612C56.687 19.1577 56.2456 18.7717 56.1216 18.3553C55.9976 17.9389 56.3975 17.7133 56.3975 17.7133C56.3975 17.7133 56.0666 17.6551 55.4603 17.8989C54.8534 18.143 54.5089 19.2818 54.5089 19.2818C54.5089 19.2818 53.9186 18.5598 53.8839 18.0312C53.8492 17.5027 54.2123 17.468 54.2123 17.468C54.2123 17.468 53.2965 17.5063 52.5885 18.1491C51.8806 18.792 51.2585 19.6306 51.2585 19.6306C51.2585 19.6306 51.4485 18.8879 50.8395 18.0312C50.2302 17.1745 49.2365 17.3622 49.2365 17.3622C49.2365 17.3622 49.5658 17.6961 49.5658 18.3351C49.5658 18.9744 48.0115 19.9415 48.0115 19.9415C48.0115 19.9415 48.4258 18.7152 47.7005 18.0312C46.9751 17.3474 46.4567 17.6961 46.4567 17.6961C46.4567 17.6961 46.7505 17.9897 46.8715 18.762C46.9925 19.5345 46.3705 19.7343 46.3705 19.7343C46.3705 19.7343 46.4915 18.7324 46.0395 18.2613C45.5875 17.7899 44.8161 17.9897 44.8161 17.9897C44.8161 17.9897 45.1271 18.1625 45.3472 18.8391C45.5668 19.516 44.6781 19.9069 44.6781 19.9069C44.6781 19.9069 44.5571 19.2506 43.9007 18.762C43.2445 18.2736 42.5881 18.5078 42.5881 18.5078C42.5881 18.5078 43.1234 18.9912 43.3824 19.7685C43.6414 20.5457 42.7781 21.2882 42.7781 21.2882C42.7781 21.2882 42.8817 19.8369 42.1977 19.2899C41.5138 18.743 40.6016 18.9722 40.6016 18.9722C40.6016 18.9722 41.1543 19.1429 41.448 19.7992C41.7416 20.4556 41.448 20.834 41.448 20.834C41.448 20.834 40.8435 20.0633 40.0489 19.7697C39.2544 19.4761 37.9182 20.0497 37.9182 20.0497H38.0626C38.0626 20.0497 38.3389 20.1597 38.7016 20.4187C39.0643 20.6779 39.1507 21.3579 39.1507 21.3579C39.1507 21.3579 38.1145 21.0988 37.3716 20.8916C36.6289 20.6843 36.4735 20.6845 36.4735 20.6845C36.4735 20.6845 36.5253 20.8055 36.7151 21.2718C36.9052 21.7382 37.665 22.1473 37.665 22.1473C37.665 22.1473 37.5567 22.2501 36.0725 21.9887C34.588 21.7275 34.5186 21.9905 34.5186 21.9905L35.6768 23.2852C35.6768 23.2852 35.0045 23.3397 34.1845 23.0025C33.3646 22.6655 31.8015 23.1599 31.8015 23.1599C31.8015 23.1599 32.3995 23.1765 33.0732 23.2161C33.7467 23.2557 34.5195 24.3852 34.5195 24.3852ZM21.1049 28.7844C21.1973 28.6589 21.3221 28.5841 21.4797 28.5606C21.6372 28.5372 21.7788 28.5715 21.9045 28.6639C22.0303 28.7564 22.1039 28.8797 22.1258 29.0341C22.1476 29.1884 22.112 29.3291 22.0187 29.456C21.9216 29.5883 21.7991 29.6655 21.6511 29.6881C21.5032 29.7108 21.3632 29.6735 21.2311 29.5765C21.1027 29.4823 21.0265 29.358 21.0025 29.2041C20.9785 29.0501 21.0125 28.9101 21.1049 28.7844ZM78.6224 28.2526C78.7172 28.3765 78.7535 28.5175 78.7315 28.6753C78.71 28.8331 78.6372 28.9594 78.5132 29.0538C78.3892 29.1485 78.25 29.1846 78.0959 29.1623C77.9415 29.1398 77.8166 29.066 77.721 28.9408C77.6216 28.8104 77.5818 28.671 77.6017 28.5227C77.6216 28.3743 77.6965 28.2505 77.8273 28.1509C77.9534 28.0543 78.0938 28.0162 78.2487 28.0363C78.4032 28.0565 78.5276 28.1286 78.6224 28.2526ZM22.3085 27.2363C22.4075 27.1156 22.5363 27.048 22.695 27.0332C22.8533 27.0182 22.9928 27.0604 23.1135 27.1594C23.234 27.2585 23.301 27.3856 23.3145 27.541C23.3279 27.6963 23.2845 27.8347 23.1846 27.9565C23.0802 28.0832 22.9536 28.1537 22.8048 28.1682C22.6558 28.1828 22.5181 28.138 22.3915 28.034C22.2685 27.9327 22.1991 27.8047 22.1835 27.6496C22.1677 27.4945 22.2094 27.3567 22.3085 27.2363ZM77.3888 26.7245C77.49 26.8433 77.5344 26.982 77.5208 27.1407C77.5082 27.2995 77.4422 27.4294 77.3233 27.5307C77.2047 27.6319 77.0676 27.6755 76.9124 27.6615C76.757 27.6476 76.6284 27.5806 76.5264 27.4607C76.4197 27.3361 76.3728 27.1991 76.3842 27.0499C76.3961 26.9005 76.4642 26.7729 76.589 26.6664C76.7105 26.5631 76.8485 26.5175 77.0042 26.529C77.1595 26.5406 77.2877 26.6061 77.3888 26.7245ZM23.5955 25.7546C23.7009 25.6397 23.8331 25.579 23.9924 25.5729C24.1515 25.5665 24.2885 25.6161 24.4034 25.7215C24.5185 25.8271 24.5785 25.9577 24.5834 26.1135C24.5884 26.2694 24.5377 26.4053 24.431 26.5215C24.3203 26.6423 24.19 26.7057 24.0405 26.7123C23.8909 26.7186 23.7557 26.6664 23.6349 26.5555C23.5177 26.4479 23.4555 26.3162 23.448 26.1605C23.4408 26.0048 23.49 25.8696 23.5955 25.7546ZM76.0775 25.2699C76.1849 25.3827 76.2365 25.5189 76.2319 25.6781C76.2272 25.8375 76.1684 25.9708 76.0558 26.0782C75.9425 26.1859 75.8083 26.2369 75.6525 26.2313C75.4968 26.2258 75.3644 26.1658 75.256 26.0517C75.1426 25.9329 75.088 25.7987 75.0918 25.649C75.0956 25.4995 75.1565 25.3681 75.2755 25.2551C75.391 25.1453 75.5265 25.0922 75.6822 25.0954C75.8379 25.0987 75.9699 25.1569 76.0775 25.2699ZM24.9602 24.3456C25.0718 24.2367 25.207 24.1833 25.3665 24.1855C25.5256 24.188 25.6598 24.245 25.7688 24.3565C25.878 24.4682 25.9307 24.6018 25.9272 24.7577C25.9236 24.9134 25.8656 25.0465 25.7529 25.1567C25.6357 25.2714 25.5022 25.3277 25.3526 25.326C25.203 25.3243 25.0707 25.2648 24.9561 25.1475C24.8448 25.0338 24.7898 24.899 24.7911 24.7431C24.7923 24.5872 24.8485 24.4546 24.9602 24.3456ZM74.6847 23.884C74.7982 23.9908 74.857 24.124 74.8612 24.2833C74.8655 24.4425 74.8138 24.5789 74.7067 24.6923C74.6001 24.806 74.4685 24.8642 74.3127 24.867C74.1566 24.87 74.0216 24.8174 73.9069 24.7095C73.7872 24.5969 73.7258 24.4659 73.7212 24.3162C73.7165 24.1667 73.7706 24.0321 73.8833 23.9128C73.9925 23.7969 74.1249 23.7365 74.2806 23.7314C74.4364 23.7262 74.5709 23.777 74.6847 23.884ZM26.4022 23.0105C26.5195 22.9077 26.6576 22.8619 26.8165 22.8728C26.9754 22.8839 27.1063 22.9479 27.209 23.0654C27.3118 23.1826 27.3573 23.3191 27.3454 23.4745C27.3335 23.6299 27.2683 23.7595 27.1498 23.8634C27.0264 23.9715 26.89 24.0205 26.7407 24.0108C26.5914 24.0009 26.4626 23.9343 26.3545 23.811C26.2496 23.6913 26.202 23.5536 26.2117 23.3981C26.2215 23.2425 26.2849 23.1134 26.4022 23.0105ZM73.2231 22.58C73.3425 22.6806 73.4085 22.8102 73.4211 22.9691C73.4338 23.1278 73.3898 23.2667 73.2891 23.3859C73.1884 23.5051 73.0605 23.5704 72.9048 23.5816C72.7495 23.5931 72.6115 23.548 72.4914 23.4463C72.3657 23.3405 72.2967 23.2129 72.2845 23.0637C72.2722 22.9145 72.3187 22.7774 72.4245 22.6521C72.5274 22.5305 72.656 22.4629 72.8114 22.4493C72.9666 22.4357 73.1042 22.4793 73.2231 22.58ZM50.022 2.24338L51.8925 12.9641C60.8858 13.4163 69.0345 17.072 75.2205 22.8133L83.6442 16.1065C75.0174 7.54267 63.1388 2.24973 50.022 2.24338ZM27.9105 21.7592C28.0334 21.6629 28.1737 21.6246 28.3316 21.6442C28.4898 21.6638 28.617 21.735 28.7133 21.8577C28.8095 21.9805 28.8474 22.119 28.8271 22.2736C28.8067 22.4281 28.7345 22.5542 28.6106 22.6514C28.4817 22.7527 28.3427 22.7942 28.1941 22.7764C28.0457 22.7584 27.9206 22.6848 27.8195 22.556C27.7213 22.4308 27.6812 22.2905 27.6992 22.1358C27.7174 21.9812 27.7879 21.8555 27.9105 21.7592ZM50.022 2.24338H50C36.8995 2.24338 25.031 7.51838 16.4019 16.0609L24.8274 22.769C31.0189 17.0434 39.1647 13.4031 48.1515 12.9619L50.022 2.24338ZM71.6891 21.3538C71.8135 21.448 71.8863 21.5738 71.9078 21.7316C71.929 21.8895 71.8926 22.0306 71.7986 22.155C71.7047 22.2795 71.5803 22.3518 71.4258 22.3715C71.2714 22.3913 71.1309 22.3537 71.0052 22.2587C70.8745 22.16 70.7987 22.0364 70.778 21.8881C70.7573 21.7397 70.7965 21.6003 70.8956 21.4695C70.9913 21.3425 71.1165 21.2679 71.271 21.2459C71.425 21.2238 71.5646 21.2598 71.6891 21.3538ZM29.4866 20.5902C29.6145 20.5007 29.7567 20.4701 29.9133 20.4981C30.0702 20.5265 30.1933 20.6044 30.2826 20.7323C30.3721 20.8601 30.4026 21.0005 30.3738 21.1536C30.3451 21.3069 30.2661 21.4287 30.1371 21.5192C30.0026 21.6132 29.8618 21.6472 29.7144 21.6213C29.567 21.5952 29.4463 21.5149 29.3523 21.3807C29.2611 21.2503 29.2286 21.1084 29.2551 20.9548C29.2817 20.8012 29.3587 20.6795 29.4866 20.5902ZM70.0933 20.2153C70.2227 20.3024 70.3024 20.4242 70.3324 20.5806C70.3624 20.737 70.3336 20.8798 70.2465 21.0093C70.1593 21.1386 70.0391 21.2175 69.8859 21.2457C69.7323 21.2739 69.5905 21.2439 69.4597 21.156C69.3239 21.0645 69.2415 20.9451 69.2126 20.7982C69.1843 20.6514 69.2156 20.5099 69.307 20.3738C69.3959 20.2419 69.5169 20.1606 69.6696 20.1301C69.8228 20.0997 69.9638 20.1282 70.0933 20.2153ZM31.1215 19.5104C31.2539 19.428 31.3975 19.4053 31.5525 19.4419C31.7075 19.4785 31.8262 19.5632 31.9085 19.6956C31.9911 19.8281 32.0136 19.97 31.9766 20.1215C31.9395 20.2729 31.8543 20.3902 31.7205 20.4734C31.5811 20.56 31.4386 20.5863 31.2928 20.5524C31.147 20.5184 31.0308 20.4316 30.9445 20.2925C30.8602 20.1573 30.8356 20.0137 30.8705 19.8617C30.9053 19.7099 30.9889 19.5926 31.1215 19.5104ZM68.4345 19.1634C68.5686 19.2432 68.6549 19.3605 68.6934 19.5151C68.7319 19.6697 68.7107 19.814 68.6307 19.9478C68.5512 20.0818 68.4353 20.167 68.2837 20.2035C68.1323 20.2401 67.9888 20.2181 67.8534 20.1372C67.7125 20.0532 67.624 19.9386 67.5872 19.7935C67.5508 19.6485 67.5741 19.5055 67.6583 19.3646C67.74 19.228 67.8564 19.1402 68.007 19.1015C68.1581 19.0628 68.3007 19.0833 68.4345 19.1634ZM32.8172 18.5187C32.954 18.4437 33.0987 18.4289 33.2515 18.4739C33.4042 18.519 33.518 18.61 33.593 18.7468C33.6681 18.8837 33.6829 19.0266 33.6375 19.1756C33.5925 19.325 33.5007 19.4374 33.3625 19.5132C33.2186 19.592 33.0749 19.6105 32.9315 19.5685C32.7875 19.5267 32.6763 19.4338 32.5975 19.2901C32.5209 19.1505 32.5042 19.0058 32.5474 18.856C32.5904 18.7061 32.6804 18.5938 32.8172 18.5187ZM66.7218 18.2041C66.8597 18.2766 66.9525 18.3889 66.9995 18.5413C67.046 18.6935 67.0333 18.8385 66.9609 18.9768C66.8885 19.1148 66.7776 19.2064 66.6283 19.2511C66.4789 19.2959 66.3346 19.2816 66.195 19.2085C66.0498 19.1323 65.955 19.0226 65.9106 18.8798C65.8657 18.737 65.8818 18.5929 65.9576 18.4476C66.0316 18.3067 66.1429 18.2128 66.2919 18.1658C66.4404 18.119 66.5838 18.1316 66.7218 18.2041ZM34.5644 17.6219C34.705 17.5545 34.8504 17.5477 35.0005 17.6011C35.1505 17.6544 35.2593 17.7515 35.3266 17.8923C35.394 18.0329 35.401 18.1765 35.3476 18.323C35.2942 18.4695 35.1965 18.5767 35.0544 18.6447C34.9065 18.7156 34.7618 18.7262 34.6208 18.6764C34.4795 18.6268 34.3735 18.5278 34.3027 18.3801C34.2339 18.2364 34.2251 18.0911 34.2765 17.9439C34.3277 17.7966 34.4236 17.6893 34.5644 17.6219ZM64.9623 17.3417C65.104 17.4066 65.203 17.5138 65.2581 17.663C65.3131 17.8125 65.3084 17.9582 65.2433 18.1001C65.1785 18.2418 65.0731 18.3394 64.9263 18.3923C64.7799 18.4452 64.6347 18.4388 64.4913 18.3734C64.3419 18.3052 64.2415 18.2012 64.1891 18.0608C64.1366 17.9205 64.1446 17.7758 64.2128 17.6268C64.2788 17.4821 64.3846 17.3821 64.5306 17.3271C64.6766 17.2721 64.8205 17.277 64.9623 17.3417ZM36.3528 16.8245C36.497 16.765 36.6425 16.766 36.7894 16.8275C36.9363 16.8893 37.0395 16.9921 37.099 17.1362C37.1588 17.2804 37.1577 17.4241 37.0965 17.5675C37.035 17.7106 36.9316 17.8124 36.786 17.8726C36.6345 17.9352 36.4896 17.9379 36.3514 17.8804C36.213 17.8231 36.1126 17.7187 36.0501 17.5671C35.9892 17.42 35.9885 17.2744 36.0477 17.1301C36.107 16.9861 36.2085 16.8842 36.3528 16.8245ZM63.1536 16.5753C63.2987 16.6323 63.4033 16.7336 63.4664 16.8798C63.5294 17.0259 63.5327 17.1718 63.4756 17.3169C63.4189 17.4622 63.3186 17.5654 63.1752 17.6262C63.0317 17.687 62.8866 17.6885 62.7397 17.6313C62.587 17.5713 62.4807 17.4729 62.4211 17.3357C62.361 17.1985 62.361 17.0536 62.4206 16.9009C62.4786 16.7528 62.5794 16.6472 62.7219 16.5843C62.8642 16.5213 63.0085 16.5183 63.1536 16.5753ZM38.1878 16.1245C38.335 16.0727 38.4804 16.0817 38.6235 16.1514C38.7668 16.221 38.8644 16.3295 38.9156 16.4765C38.9674 16.6239 38.9585 16.7673 38.8895 16.9071C38.8203 17.0467 38.7113 17.1426 38.5626 17.1946C38.4078 17.249 38.2631 17.2435 38.1282 17.1786C37.9934 17.1137 37.8988 17.0039 37.8446 16.8493C37.7919 16.6989 37.7992 16.5534 37.8664 16.4127C37.9334 16.2722 38.0405 16.1759 38.1878 16.1245ZM61.309 15.9107C61.4571 15.9595 61.5667 16.0551 61.6378 16.1975C61.7093 16.3401 61.7203 16.4855 61.6716 16.6335C61.6225 16.7817 61.5282 16.89 61.3881 16.9587C61.2485 17.0274 61.1033 17.037 60.9539 16.9879C60.7982 16.9365 60.6869 16.844 60.6192 16.7104C60.5519 16.5766 60.5439 16.4319 60.5951 16.2762C60.645 16.1251 60.7394 16.0142 60.8782 15.9435C61.0174 15.8728 61.1608 15.8619 61.309 15.9107ZM40.0564 15.527C40.2062 15.4838 40.3507 15.5007 40.4899 15.5782C40.6292 15.6554 40.7205 15.7691 40.7637 15.919C40.8073 16.0687 40.7905 16.2115 40.7138 16.3473C40.6371 16.4829 40.5231 16.5728 40.3717 16.6165C40.2141 16.662 40.0699 16.6488 39.9389 16.5765C39.8076 16.5042 39.7194 16.3895 39.6737 16.2319C39.6295 16.0791 39.6448 15.9344 39.7195 15.7974C39.7941 15.6606 39.9065 15.5705 40.0564 15.527ZM59.4288 15.3481C59.5795 15.3887 59.6945 15.4782 59.7733 15.6166C59.852 15.7548 59.8715 15.8995 59.8308 16.05C59.7902 16.2005 59.7017 16.314 59.5659 16.3903C59.4301 16.4666 59.2857 16.4843 59.1338 16.4432C58.9756 16.4005 58.8588 16.3143 58.7843 16.1845C58.7094 16.0547 58.6937 15.9107 58.7365 15.7524C58.7779 15.5988 58.866 15.4827 59.0005 15.4046C59.1355 15.3264 59.2782 15.3075 59.4288 15.3481ZM41.9575 15.033C42.1094 14.9979 42.2528 15.0229 42.3875 15.1077C42.5225 15.1927 42.6071 15.3112 42.6423 15.4632C42.6774 15.6152 42.6528 15.7567 42.5686 15.8881C42.4848 16.0193 42.3659 16.1027 42.2122 16.1382C42.0525 16.175 41.9091 16.1536 41.7822 16.0743C41.6554 15.995 41.5735 15.8755 41.5365 15.7156C41.5007 15.5605 41.524 15.4168 41.6062 15.2845C41.6884 15.1518 41.8055 15.0681 41.9575 15.033ZM57.5211 14.89C57.6739 14.9222 57.7932 15.0053 57.88 15.1389C57.9663 15.2728 57.993 15.4159 57.9612 15.5686C57.9286 15.7214 57.8465 15.8393 57.7149 15.923C57.5837 16.0066 57.4407 16.0322 57.2866 15.9995C57.1263 15.9655 57.0053 15.886 56.9235 15.7605C56.8419 15.6351 56.8178 15.4921 56.8516 15.3316C56.8846 15.176 56.9664 15.0554 57.0966 14.9698C57.227 14.8843 57.3684 14.8577 57.5211 14.89ZM43.8805 14.6447C44.0341 14.6179 44.1758 14.6507 44.3057 14.7429C44.4356 14.8351 44.5139 14.958 44.5406 15.1118C44.5673 15.2655 44.5351 15.4055 44.4437 15.532C44.3527 15.6584 44.2295 15.7351 44.0743 15.7621C43.9126 15.7901 43.7708 15.761 43.6485 15.6748C43.5258 15.5885 43.4509 15.4647 43.4225 15.3031C43.3955 15.1464 43.4264 15.0041 43.5156 14.8764C43.605 14.7485 43.7268 14.6713 43.8805 14.6447ZM55.5897 14.537C55.7437 14.5608 55.8677 14.6373 55.9613 14.766C56.0548 14.8949 56.0899 15.0363 56.0658 15.1906C56.0421 15.3447 55.9668 15.4672 55.8398 15.5579C55.7133 15.6485 55.572 15.6818 55.4163 15.6579C55.2542 15.6328 55.1289 15.5598 55.0405 15.439C54.952 15.3183 54.9207 15.177 54.9453 15.015C54.9698 14.8577 55.0447 14.7326 55.1704 14.6401C55.2952 14.5475 55.4353 14.5132 55.5897 14.537ZM45.8207 14.3623C45.976 14.3441 46.1156 14.3845 46.2405 14.4835C46.3654 14.5828 46.4365 14.7098 46.4546 14.8645C46.4728 15.0195 46.433 15.1576 46.3353 15.279C46.2371 15.4003 46.1102 15.4701 45.9535 15.4886C45.7906 15.5078 45.6505 15.4709 45.5329 15.3782C45.4153 15.2853 45.3472 15.1576 45.3281 14.9947C45.3095 14.8367 45.348 14.6964 45.4445 14.5736C45.5405 14.4509 45.6658 14.3804 45.8207 14.3623ZM53.6448 14.2906C53.8001 14.306 53.9279 14.3755 54.0282 14.4989C54.1289 14.6226 54.1713 14.762 54.156 14.9171C54.1408 15.0725 54.0723 15.1987 53.9508 15.2962C53.8289 15.3937 53.6896 15.4348 53.5326 15.4191C53.3697 15.4031 53.2407 15.3369 53.1459 15.2213C53.0506 15.1055 53.0114 14.966 53.0278 14.8028C53.0435 14.6445 53.1116 14.5156 53.2314 14.4164C53.352 14.3171 53.4895 14.2752 53.6448 14.2906ZM47.7758 14.1859C47.9311 14.176 48.0686 14.2242 48.1875 14.3298C48.3069 14.4355 48.3712 14.5665 48.3809 14.7221C48.3906 14.8776 48.3433 15.0134 48.2387 15.1293C48.1346 15.2451 48.0039 15.3078 47.8465 15.3177C47.6831 15.3281 47.5452 15.2837 47.433 15.1845C47.3205 15.0857 47.2591 14.9544 47.2489 14.7907C47.2392 14.6318 47.2854 14.4937 47.3882 14.3765C47.4905 14.2593 47.6201 14.1955 47.7758 14.1859ZM51.6838 14.1501C51.8395 14.157 51.9712 14.2194 52.0782 14.3374C52.1853 14.4554 52.2352 14.5922 52.2285 14.748C52.2216 14.9039 52.1599 15.0338 52.0439 15.1377C51.9275 15.2415 51.7909 15.2902 51.6335 15.2832C51.4697 15.2759 51.3373 15.217 51.2361 15.1065C51.1354 14.9961 51.088 14.859 51.0956 14.6952C51.1028 14.5361 51.1633 14.4038 51.278 14.2982C51.3926 14.1926 51.5281 14.1433 51.6838 14.1501ZM49.7486 14.1142C49.9044 14.1142 50.0385 14.1709 50.1506 14.2838C50.2628 14.3968 50.3191 14.5314 50.3191 14.6872C50.3191 14.8433 50.2632 14.9758 50.1519 15.0848C50.0406 15.1937 49.9061 15.2483 49.7486 15.2483C49.5848 15.2483 49.4495 15.1954 49.3441 15.0895C49.2378 14.9837 49.185 14.8487 49.185 14.6849C49.185 14.5256 49.24 14.391 49.3495 14.2802C49.4596 14.1697 49.5925 14.1142 49.7486 14.1142Z" fill="#2C4359"/>
</svg>
