<svg width="20" height="22" viewBox="0 0 20 22" fill="none" xmlns="http://www.w3.org/2000/svg">
<path d="M11.1542 5.38462C12.6411 5.38462 13.8465 4.17923 13.8465 2.69231C13.8465 1.20539 12.6411 0 11.1542 0C9.6673 0 8.46191 1.20539 8.46191 2.69231C8.46191 4.17923 9.6673 5.38462 11.1542 5.38462Z" fill="#E0B72E"/>
<path d="M16.9229 8.46075C18.1974 8.46075 19.2306 7.42756 19.2306 6.15306C19.2306 4.87856 18.1974 3.84537 16.9229 3.84537C15.6484 3.84537 14.6152 4.87856 14.6152 6.15306C14.6152 7.42756 15.6484 8.46075 16.9229 8.46075Z" fill="#E0B72E"/>
<path d="M18.0774 14.6146C19.1395 14.6146 20.0005 13.7536 20.0005 12.6915C20.0005 11.6295 19.1395 10.7685 18.0774 10.7685C17.0153 10.7685 16.1543 11.6295 16.1543 12.6915C16.1543 13.7536 17.0153 14.6146 18.0774 14.6146Z" fill="#E0B72E"/>
<path d="M14.6156 19.9992C15.4653 19.9992 16.1541 19.3104 16.1541 18.4608C16.1541 17.6111 15.4653 16.9223 14.6156 16.9223C13.7659 16.9223 13.0771 17.6111 13.0771 18.4608C13.0771 19.3104 13.7659 19.9992 14.6156 19.9992Z" fill="#E0B72E"/>
<path d="M7.69276 21.5377C8.54243 21.5377 9.23122 20.8489 9.23122 19.9992C9.23122 19.1496 8.54243 18.4608 7.69276 18.4608C6.84309 18.4608 6.1543 19.1496 6.1543 19.9992C6.1543 20.8489 6.84309 21.5377 7.69276 21.5377Z" fill="#E0B72E"/>
<path d="M1.92338 16.9223C2.56063 16.9223 3.07722 16.4057 3.07722 15.7685C3.07722 15.1312 2.56063 14.6146 1.92338 14.6146C1.28613 14.6146 0.769531 15.1312 0.769531 15.7685C0.769531 16.4057 1.28613 16.9223 1.92338 16.9223Z" fill="#E0B72E"/>
<path d="M0.769231 9.99925C1.19407 9.99925 1.53846 9.65485 1.53846 9.23002C1.53846 8.80518 1.19407 8.46078 0.769231 8.46078C0.344396 8.46078 0 8.80518 0 9.23002C0 9.65485 0.344396 9.99925 0.769231 9.99925Z" fill="#E0B72E"/>
<path d="M4.61493 4.6146C5.03977 4.6146 5.38416 4.27021 5.38416 3.84537C5.38416 3.42054 5.03977 3.07614 4.61493 3.07614C4.1901 3.07614 3.8457 3.42054 3.8457 3.84537C3.8457 4.27021 4.1901 4.6146 4.61493 4.6146Z" fill="#E0B72E"/>
</svg>
