<svg width="120" height="120" viewBox="0 0 120 120" fill="none" xmlns="http://www.w3.org/2000/svg">
<path d="M118.206 74.5151C110.191 106.658 77.6301 126.218 45.4796 118.204C13.3441 110.191 -6.21993 77.6332 1.79659 45.4921C9.80749 13.3454 42.3668 -6.21823 74.5079 1.79548C106.657 9.80919 126.219 42.3703 118.204 74.5151H118.206Z" fill="#F7931A"/>
<path d="M86.4589 51.4527C87.6515 43.469 81.5721 39.1771 73.2593 36.314L75.9559 25.4991L69.3701 23.8585L66.7448 34.3884C65.0159 33.9572 63.2382 33.5503 61.4717 33.1472L64.1158 22.5478L57.5357 20.9072L54.8372 31.7184C53.4046 31.3922 51.9982 31.0697 50.633 30.7303L50.6405 30.6966L41.5607 28.4297L39.8093 35.4609C39.8093 35.4609 44.6942 36.5803 44.5911 36.6496C47.2576 37.3153 47.7414 39.0796 47.6589 40.4784L44.5873 52.7989C44.7711 52.8458 45.0092 52.9133 45.2718 53.0183L44.5779 52.8458L40.2706 70.1051C39.9443 70.9151 39.1173 72.1301 37.2534 71.6688C37.319 71.7645 32.4678 70.4745 32.4678 70.4745L29.1993 78.0119L37.7691 80.1476C39.363 80.5469 40.925 80.965 42.4608 81.3588L39.7362 92.2994L46.3125 93.94L49.0128 83.1175C50.8074 83.605 52.5513 84.055 54.2578 84.4788L51.5687 95.2506L58.1526 96.8912L60.8773 85.9732C72.1042 88.0975 80.5482 87.2406 84.098 77.0894C86.9615 68.9145 83.9574 64.1989 78.0505 61.122C82.3522 60.1264 85.5926 57.297 86.457 51.4527H86.4589ZM71.4141 72.5445C69.3776 80.7194 55.6136 76.302 51.1487 75.192L54.7641 60.7002C59.2271 61.8139 73.5368 64.0189 71.416 72.5445H71.4141ZM73.4487 51.3346C71.5922 58.7708 60.1347 54.9927 56.4162 54.0664L59.694 40.9228C63.4126 41.849 75.3839 43.5777 73.4487 51.3346Z" fill="#393939"/>
</svg>
