<svg width="22" height="22" viewBox="0 0 22 22" fill="none" xmlns="http://www.w3.org/2000/svg">
<path d="M21.6711 13.6611C20.2017 19.554 14.2322 23.14 8.33793 21.6708C2.44643 20.2016 -1.14032 14.2328 0.329375 8.34023C1.79804 2.44666 7.76724 -1.14001 13.6598 0.329172C19.5537 1.79835 23.1401 7.76788 21.6707 13.6611H21.6711Z" fill="#CECECE"/>
<path d="M15.8509 9.43301C16.0695 7.96933 14.9549 7.18249 13.4309 6.65759L13.9253 4.67485L12.7179 4.37407L12.2366 6.30456C11.9196 6.2255 11.5937 6.1509 11.2699 6.077L11.7546 4.13379L10.5483 3.83301L10.0536 5.81506C9.7909 5.75525 9.53305 5.69612 9.28278 5.63391L9.28415 5.62772L7.61953 5.21213L7.29843 6.50118C7.29843 6.50118 8.194 6.7064 8.17509 6.71912C8.66396 6.84115 8.75265 7.16462 8.73753 7.42105L8.1744 9.67982C8.20809 9.68842 8.25175 9.70079 8.29988 9.72004L8.17268 9.68842L7.383 12.8526C7.32318 13.0011 7.17157 13.2239 6.82984 13.1393C6.84188 13.1568 5.9525 12.9203 5.9525 12.9203L5.35327 14.3022L6.92439 14.6937C7.21661 14.767 7.50298 14.8436 7.78455 14.9158L7.28502 16.9216L8.49069 17.2223L8.98574 15.2382C9.31475 15.3276 9.63447 15.4101 9.94732 15.4878L9.45433 17.4626L10.6614 17.7634L11.1609 15.7618C13.2192 16.1512 14.7672 15.9941 15.418 14.1331C15.943 12.6343 15.3922 11.7698 14.3093 11.2057C15.098 11.0232 15.692 10.5045 15.8505 9.43301H15.8509ZM13.0926 13.2998C12.7193 14.7986 10.1959 13.9887 9.37732 13.7852L10.0401 11.1284C10.8584 11.3326 13.4818 11.7368 13.093 13.2998H13.0926ZM13.4657 9.41136C13.1253 10.7747 11.0248 10.082 10.343 9.9122L10.944 7.50252C11.6257 7.67233 13.8204 7.98927 13.4657 9.41136Z" fill="white"/>
</svg>
