<svg width="36" height="36" viewBox="0 0 36 36" fill="none" xmlns="http://www.w3.org/2000/svg">
<path d="M35.4618 22.3545C33.0574 31.9974 23.289 37.8654 13.6439 35.4613C4.00324 33.0572 -1.86598 23.29 0.538978 13.6476C2.94225 4.00363 12.71 -1.86547 22.3524 0.538645C31.997 2.94276 37.8656 12.7111 35.4612 22.3545H35.4618Z" fill="#F7931A"/>
<path d="M25.9376 15.4359C26.2954 13.0407 24.4716 11.7532 21.9778 10.8943L22.7867 7.64977L20.811 7.15759L20.0234 10.3166C19.5047 10.1872 18.9714 10.0651 18.4415 9.9442L19.2347 6.7644L17.2607 6.27222L16.4511 9.51558C16.0213 9.4177 15.5994 9.32095 15.1899 9.21914L15.1921 9.20901L12.4682 8.52896L11.9427 10.6383C11.9427 10.6383 13.4082 10.9741 13.3773 10.9949C14.1773 11.1946 14.3224 11.7239 14.2976 12.1436L13.3762 15.8397C13.4313 15.8538 13.5027 15.874 13.5815 15.9055L13.3733 15.8538L12.0811 21.0316C11.9833 21.2746 11.7352 21.6391 11.176 21.5007C11.1957 21.5294 9.74031 21.1424 9.74031 21.1424L8.75977 23.4036L11.3307 24.0443C11.8089 24.1641 12.2775 24.2896 12.7382 24.4077L11.9208 27.6899L13.8937 28.182L14.7038 24.9353C15.2422 25.0816 15.7654 25.2166 16.2773 25.3437L15.4706 28.5752L17.4457 29.0674L18.2631 25.792C21.6312 26.4293 24.1644 26.1722 25.2294 23.1269C26.0884 20.6744 25.1872 19.2597 23.4151 18.3367C24.7056 18.038 25.6777 17.1892 25.9371 15.4359H25.9376ZM21.4242 21.7634C20.8132 24.2159 16.684 22.8906 15.3446 22.5576L16.4292 18.2101C17.7681 18.5442 22.061 19.2057 21.4248 21.7634H21.4242ZM22.0346 15.4004C21.4776 17.6313 18.0404 16.4979 16.9248 16.22L17.9082 12.2769C19.0237 12.5547 22.6151 13.0734 22.0346 15.4004Z" fill="#393939"/>
</svg>
