<svg width="22" height="22" viewBox="0 0 22 22" fill="none" xmlns="http://www.w3.org/2000/svg">
<path d="M21.6711 13.6611C20.2017 19.554 14.2322 23.14 8.33793 21.6708C2.44643 20.2016 -1.14032 14.2328 0.329375 8.34023C1.79804 2.44666 7.76724 -1.14001 13.6598 0.329172C19.5537 1.79835 23.1401 7.76788 21.6707 13.6611H21.6711Z" fill="#F7931A"/>
<path d="M15.8506 9.433C16.0693 7.96932 14.9547 7.18248 13.4307 6.65758L13.9251 4.67484L12.7177 4.37406L12.2364 6.30455C11.9194 6.22549 11.5935 6.15089 11.2696 6.07699L11.7544 4.13378L10.548 3.833L10.0533 5.81505C9.79065 5.75524 9.53281 5.69612 9.28253 5.6339L9.28391 5.62771L7.61928 5.21212L7.29818 6.50117C7.29818 6.50117 8.19375 6.70639 8.17485 6.71911C8.66371 6.84114 8.75241 7.16461 8.73728 7.42104L8.17416 9.67982C8.20785 9.68841 8.25151 9.70078 8.29964 9.72003L8.17244 9.68841L7.38276 12.8526C7.32294 13.0011 7.17133 13.2239 6.8296 13.1393C6.84163 13.1568 5.95225 12.9203 5.95225 12.9203L5.35303 14.3022L6.92414 14.6937C7.21636 14.7669 7.50274 14.8436 7.7843 14.9158L7.28478 16.9216L8.49044 17.2223L8.9855 15.2382C9.31451 15.3276 9.63423 15.4101 9.94708 15.4878L9.45408 17.4626L10.6611 17.7634L11.1606 15.7618C13.2189 16.1512 14.767 15.9941 15.4178 14.1331C15.9428 12.6343 15.392 11.7698 14.3091 11.2057C15.0977 11.0232 15.6918 10.5045 15.8503 9.433H15.8506ZM13.0924 13.2998C12.719 14.7986 10.1956 13.9887 9.37707 13.7852L10.0399 11.1284C10.8581 11.3326 13.4816 11.7368 13.0927 13.2998H13.0924ZM13.4654 9.41135C13.1251 10.7747 11.0245 10.082 10.3428 9.91219L10.9437 7.50251C11.6255 7.67233 13.8202 7.98926 13.4654 9.41135Z" fill="#393939"/>
</svg>
