<svg width="16" height="12" viewBox="0 0 16 12" fill="none" xmlns="http://www.w3.org/2000/svg">
<path d="M14.0408 0.000839046C13.5473 0.0139705 13.0784 0.21528 12.7331 0.562243L5.56456 7.61486L3.09183 5.67334C2.89669 5.51974 2.6727 5.40549 2.43267 5.33706C2.19263 5.26863 1.94125 5.24738 1.69287 5.27453C1.44449 5.30168 1.20398 5.37669 0.985066 5.49529C0.766154 5.61389 0.573128 5.77374 0.417012 5.96573C0.260895 6.15773 0.144744 6.37809 0.0751898 6.61424C0.00563589 6.85039 -0.0159582 7.09772 0.0116396 7.34208C0.0673759 7.8356 0.320099 8.28712 0.714214 8.59732L4.51841 11.5915C4.88415 11.8785 5.3446 12.0229 5.81173 11.997C6.27886 11.9711 6.71991 11.7768 7.05057 11.4511L15.4198 3.21719C15.6958 2.95474 15.8846 2.61628 15.9615 2.2463C16.0383 1.87631 15.9996 1.49209 15.8504 1.14414C15.7013 0.796189 15.4486 0.500785 15.1256 0.296732C14.8026 0.0926793 14.4244 -0.0104653 14.0408 0.000839046Z" fill="black"/>
</svg>
