<svg width="600" height="600" viewBox="0 0 600 600" fill="none" xmlns="http://www.w3.org/2000/svg">
<path fill-rule="evenodd" clip-rule="evenodd" d="M600 300.001C600 134.314 465.686 0 300 0C134.315 0 0 134.314 0 300.001C0 465.684 134.315 600 300 600C465.686 600 600 465.684 600 300.001ZM597.884 300.001C597.884 464.516 464.518 597.884 300 597.884C135.483 597.884 2.1158 464.516 2.1158 300.001C2.1158 135.483 135.483 2.11605 300 2.11605C464.518 2.11605 597.884 135.483 597.884 300.001ZM590.771 300.001C590.771 139.412 460.591 9.22844 300 9.22844C139.412 9.22844 9.22795 139.412 9.22795 300.001C9.22795 460.588 139.412 590.771 300 590.771C460.591 590.771 590.771 460.588 590.771 300.001ZM149.511 463.889L98.9384 504.153C150.673 555.104 221.667 586.538 300 586.538H300.132L288.909 522.229C235.245 519.591 186.58 497.945 149.511 463.889ZM450.942 463.473C413.882 497.712 365.137 519.509 311.355 522.214L300.132 586.538C378.629 586.5 449.744 554.902 501.469 503.752L450.942 463.473ZM338.362 545.182L337.372 545.263C336.504 542.978 335.278 541.223 333.693 539.995C332.109 538.766 330.268 538.238 328.166 538.408C327.13 538.491 326.203 538.773 325.381 539.261C324.558 539.746 323.928 540.393 323.492 541.206C323.055 542.018 322.874 542.922 322.953 543.922C323.004 544.499 323.146 545.06 323.387 545.602C323.626 546.147 324.152 546.796 324.964 547.549C325.777 548.302 326.983 549.109 328.59 549.965C330.387 550.898 331.487 551.487 331.883 551.749C334.125 552.916 335.973 554.018 337.423 555.06C338.873 556.107 340.008 557.269 340.828 558.551C341.648 559.827 342.125 561.316 342.265 563.013C342.389 564.573 342.204 566.018 341.707 567.344C341.209 568.675 340.439 569.853 339.409 570.884C338.373 571.915 337.108 572.749 335.618 573.393C334.127 574.031 332.482 574.429 330.685 574.571C328.836 574.724 326.673 574.549 324.192 574.047C323.915 574.004 323.567 573.955 323.144 573.905C322.722 573.851 322.349 573.84 322.027 573.867C321.232 573.927 320.688 574.396 320.399 575.253L319.51 575.324L318.883 564.725L319.876 564.644C320.358 566.618 321.183 568.238 322.351 569.487C323.519 570.742 324.796 571.615 326.183 572.111C327.572 572.602 328.91 572.798 330.2 572.695C332.081 572.542 333.592 571.887 334.737 570.736C335.879 569.585 336.392 568.26 336.271 566.749C336.187 565.735 335.859 564.867 335.278 564.158C334.701 563.444 333.863 562.756 332.771 562.107C331.677 561.453 329.623 560.324 326.612 558.725C325.022 557.864 323.661 557.024 322.529 556.189C321.394 555.36 320.498 554.553 319.838 553.762C319.175 552.971 318.687 552.164 318.375 551.345C318.061 550.527 317.867 549.638 317.788 548.689C317.639 546.862 317.964 545.017 318.761 543.161C319.556 541.305 320.775 539.746 322.412 538.476C324.05 537.209 325.979 536.486 328.199 536.306C329.232 536.222 330.232 536.245 331.2 536.372C331.456 536.384 331.802 536.43 332.233 536.504C332.667 536.579 333.028 536.641 333.325 536.684C334.082 536.76 334.646 536.783 335.019 536.752C335.595 536.707 335.989 536.579 336.205 536.374C336.418 536.168 336.613 535.881 336.786 535.508L337.573 535.444L338.362 545.182ZM343.657 534.741L343.532 534.069L360.777 530.849L360.912 531.57C359 531.928 357.85 532.593 357.457 533.571C357.06 534.546 356.999 535.749 357.266 537.176L362.078 562.947C362.233 563.76 362.443 564.475 362.712 565.096C362.984 565.713 363.487 566.225 364.226 566.629C364.962 567.038 365.987 567.115 367.298 566.869L367.498 566.831L367.635 567.556L350.39 570.78L350.253 570.055C352.147 569.7 353.297 569.04 353.701 568.069C354.102 567.104 354.171 565.898 353.904 564.469L349.09 538.705C348.775 537.009 348.176 535.853 347.297 535.237C346.417 534.62 345.203 534.454 343.657 534.741ZM407.354 512.822L407.618 513.482C406.765 513.898 406.087 514.302 405.584 514.69C405.079 515.079 404.751 515.635 404.604 516.358C404.455 517.079 404.662 517.978 405.221 519.058L416.172 540.797C416.947 542.318 417.642 543.392 418.257 544.017C418.871 544.641 419.46 544.987 420.029 545.057C420.595 545.128 421.425 545.076 422.517 544.898L422.784 545.553L407.415 551.782L407.149 551.122C408.423 550.571 409.297 549.818 409.768 548.869C410.241 547.92 410.01 546.513 409.078 544.649L398.803 523.989L398.711 524.024L398.663 555.327L397.868 555.649L376.063 534.233L375.974 534.269L382.055 553.533C382.649 555.431 383.347 556.778 384.149 557.596C384.955 558.404 385.754 558.824 386.549 558.845C387.344 558.867 388.199 558.725 389.119 558.425L389.387 559.085L378.017 563.689L377.751 563.029C379.155 562.358 380.008 561.338 380.313 559.98C380.62 558.622 380.402 556.658 379.658 554.078L373.325 531.981C371 530.293 368.54 529.755 365.947 530.364L365.68 529.704L377.776 524.804L396.385 542.912L396.441 517.242L407.354 512.822ZM447.958 531.334L428.903 542.734L428.53 542.112C430.19 541.117 431.038 540.106 431.063 539.078C431.092 538.052 430.733 536.923 430 535.691L416.708 513.474C416.032 512.342 415.24 511.504 414.341 510.956C413.438 510.405 412.193 510.605 410.601 511.557L410.342 511.712L409.972 511.088L426.471 501.215C428.662 499.905 430.632 499.067 432.379 498.705C433.28 498.555 434.291 498.504 435.411 498.552C436.528 498.603 437.708 498.91 438.95 499.471C440.189 500.03 441.202 500.969 441.992 502.289C442.995 503.966 443.32 505.608 442.972 507.218C442.622 508.828 441.982 510.199 441.057 511.336C440.133 512.474 439.184 513.479 438.211 514.353L438.262 514.439C439.216 513.985 440.331 513.55 441.611 513.134C442.888 512.72 444.226 512.487 445.62 512.428C447.016 512.372 448.413 512.669 449.815 513.319C451.216 513.969 452.412 515.125 453.407 516.785C454.451 518.535 454.903 520.302 454.756 522.089C454.611 523.879 454.004 525.571 452.932 527.162C452.308 528.101 451.612 528.859 450.848 529.432C450.084 530.006 449.121 530.641 447.958 531.334ZM433.049 519.334L430.645 520.777L436.698 530.895C437.617 532.428 438.574 533.172 439.58 533.124C440.58 533.081 441.672 532.705 442.845 532.001C443.619 531.539 444.32 531.052 444.947 530.539C445.574 530.029 446.133 529.353 446.626 528.518C447.113 527.678 447.334 526.647 447.283 525.423C447.232 524.201 446.735 522.8 445.793 521.223C444.744 519.477 443.538 518.311 442.172 517.73C440.801 517.151 439.351 517.027 437.82 517.357C436.287 517.691 434.697 518.352 433.049 519.334ZM452.29 485.499L479.844 499.931C481.279 500.652 482.487 500.949 483.467 500.827C484.45 500.705 485.456 500.325 486.489 499.687L486.92 500.182L474.959 510.631L474.525 510.133C476.079 508.615 476.447 507.388 475.627 506.451C475.497 506.301 475.292 506.116 475.005 505.893C474.718 505.669 474.4 505.441 474.05 505.215C473.699 504.986 473.484 504.849 473.4 504.798L466.608 501.274L459.067 507.86L461.771 514.592C462.081 515.409 462.454 516.067 462.896 516.569C463.574 517.349 464.259 517.671 464.95 517.542C465.643 517.41 466.341 517.115 467.053 516.658L467.484 517.156L459.91 523.77L459.473 523.275C460.192 522.506 460.608 521.493 460.72 520.238C460.832 518.981 460.438 517.197 459.542 514.876L449.017 488.361L452.29 485.499ZM424.175 504.986L421.982 506.296L429.591 519.014L431.782 517.702C433.415 516.724 434.758 515.391 435.809 513.703C436.861 512.017 436.556 509.782 434.893 507.005C433.666 504.956 432.059 503.727 430.066 503.323C429.357 503.148 428.565 503.158 427.694 503.359C426.821 503.559 425.648 504.1 424.175 504.986ZM518.267 299.998C518.267 420.545 420.547 518.268 300 518.268C179.455 518.268 81.732 420.545 81.732 299.998C81.732 179.453 179.455 81.7315 300 81.7315C420.547 81.7315 518.267 179.453 518.267 299.998ZM296.486 515.566C295.552 515.549 294.754 515.195 294.092 514.505C293.432 513.814 293.109 513.002 293.124 512.065C293.142 511.131 293.49 510.341 294.17 509.699C294.851 509.059 295.663 508.744 296.608 508.762C297.59 508.779 298.395 509.11 299.02 509.757C299.642 510.405 299.947 511.217 299.929 512.202C299.911 513.157 299.569 513.959 298.898 514.612C298.225 515.264 297.423 515.582 296.486 515.566ZM308.249 515.457C307.312 515.493 306.497 515.183 305.799 514.531C305.103 513.875 304.738 513.081 304.705 512.146C304.669 511.209 304.977 510.405 305.621 509.727C306.266 509.049 307.061 508.691 308.006 508.658C308.988 508.622 309.808 508.911 310.466 509.523C311.123 510.135 311.469 510.933 311.504 511.915C311.54 512.87 311.238 513.693 310.603 514.378C309.968 515.063 309.184 515.424 308.249 515.457ZM284.725 515.038C283.793 514.972 283.013 514.576 282.392 513.853C281.767 513.127 281.49 512.299 281.556 511.364C281.625 510.43 282.016 509.663 282.729 509.059C283.443 508.452 284.271 508.183 285.215 508.254C286.195 508.323 286.979 508.698 287.569 509.376C288.155 510.054 288.414 510.887 288.343 511.867C288.274 512.819 287.889 513.604 287.183 514.218C286.479 514.833 285.659 515.107 284.725 515.038ZM319.997 514.718C319.066 514.802 318.233 514.535 317.501 513.921C316.771 513.307 316.361 512.532 316.278 511.6C316.194 510.669 316.456 509.846 317.062 509.135C317.669 508.424 318.443 508.025 319.385 507.941C320.366 507.853 321.201 508.094 321.889 508.67C322.58 509.247 322.969 510.023 323.057 511.004C323.144 511.956 322.887 512.791 322.291 513.512C321.694 514.231 320.93 514.632 319.997 514.718ZM273.007 513.878C272.08 513.759 271.324 513.322 270.74 512.563C270.158 511.806 269.927 510.963 270.044 510.034C270.161 509.107 270.592 508.358 271.339 507.794C272.086 507.231 272.926 507.007 273.863 507.127C274.84 507.251 275.602 507.668 276.153 508.376C276.704 509.087 276.917 509.93 276.793 510.907C276.671 511.852 276.242 512.613 275.506 513.19C274.769 513.766 273.937 513.995 273.007 513.878ZM331.697 513.34C330.771 513.474 329.925 513.253 329.161 512.679C328.397 512.105 327.947 511.357 327.813 510.43C327.678 509.503 327.894 508.668 328.463 507.924C329.032 507.18 329.781 506.741 330.717 506.606C331.69 506.464 332.535 506.662 333.256 507.197C333.975 507.736 334.407 508.49 334.549 509.463C334.686 510.41 334.478 511.258 333.922 512.009C333.363 512.761 332.624 513.205 331.697 513.34ZM261.376 512.078C260.457 511.91 259.725 511.43 259.185 510.643C258.644 509.853 258.458 509 258.626 508.079C258.796 507.16 259.268 506.436 260.043 505.913C260.817 505.39 261.67 505.215 262.602 505.385C263.567 505.563 264.308 506.019 264.816 506.758C265.329 507.497 265.497 508.351 265.319 509.318C265.147 510.257 264.676 510.996 263.91 511.529C263.14 512.062 262.298 512.245 261.376 512.078ZM343.278 511.326C342.362 511.511 341.506 511.339 340.711 510.806C339.919 510.275 339.429 509.552 339.244 508.635C339.058 507.716 339.229 506.87 339.752 506.098C340.28 505.324 341.006 504.844 341.932 504.656C342.897 504.46 343.753 504.613 344.502 505.108C345.249 505.606 345.721 506.337 345.916 507.302C346.104 508.236 345.941 509.097 345.427 509.876C344.911 510.658 344.198 511.141 343.278 511.326ZM249.855 509.643C248.945 509.422 248.242 508.906 247.745 508.089C247.249 507.271 247.111 506.408 247.33 505.499C247.549 504.587 248.06 503.894 248.861 503.415C249.665 502.935 250.526 502.805 251.445 503.026C252.403 503.254 253.114 503.752 253.583 504.521C254.053 505.286 254.173 506.146 253.944 507.104C253.719 508.03 253.21 508.742 252.413 509.234C251.618 509.727 250.765 509.861 249.855 509.643ZM354.765 508.676C353.856 508.911 352.993 508.785 352.173 508.297C351.35 507.812 350.819 507.116 350.585 506.21C350.35 505.304 350.474 504.451 350.956 503.648C351.439 502.849 352.137 502.328 353.051 502.089C354.003 501.843 354.867 501.944 355.641 502.401C356.415 502.856 356.928 503.559 357.175 504.512C357.416 505.436 357.299 506.301 356.829 507.111C356.357 507.919 355.669 508.439 354.765 508.676ZM506.768 300.001C506.768 185.805 414.197 93.2318 300 93.2318C185.805 93.2318 93.2318 185.805 93.2318 300.001C93.2318 414.195 185.805 506.769 300 506.769C414.197 506.769 506.768 414.195 506.768 300.001ZM238.489 506.576C237.592 506.307 236.919 505.753 236.468 504.91C236.017 504.067 235.927 503.196 236.195 502.3C236.464 501.404 237.013 500.738 237.84 500.302C238.669 499.868 239.535 499.786 240.441 500.058C241.383 500.34 242.068 500.876 242.494 501.665C242.92 502.457 242.992 503.323 242.71 504.265C242.435 505.181 241.888 505.862 241.066 506.309C240.245 506.756 239.385 506.845 238.489 506.576ZM458.183 505.672L464.473 500.18L453.793 494.52L458.183 505.672ZM366.084 505.395C365.193 505.679 364.324 505.601 363.477 505.161C362.629 504.719 362.062 504.055 361.778 503.163C361.491 502.272 361.57 501.411 362.006 500.586C362.443 499.758 363.111 499.199 364.012 498.913C364.949 498.613 365.817 498.669 366.615 499.081C367.414 499.492 367.963 500.167 368.263 501.104C368.552 502.013 368.486 502.884 368.06 503.717C367.635 504.549 366.978 505.108 366.084 505.395ZM504.653 300.001C504.653 413.027 413.026 504.651 300 504.651C186.974 504.651 95.3476 413.027 95.3476 300.001C95.3476 186.973 186.974 95.3476 300 95.3476C413.026 95.3476 504.653 186.973 504.653 300.001ZM13.4601 299.544L13.4595 300.001C13.4595 379.869 46.138 452.105 98.8473 504.064L139.025 453.601C103.214 416.076 80.3907 366.064 77.7556 310.764L13.4601 299.544ZM586.538 299.544L522.247 310.764C519.619 365.831 496.98 415.649 461.444 453.108L501.662 503.562C554.073 451.648 586.538 379.616 586.538 300.001V299.544ZM227.322 502.897C226.442 502.579 225.8 501.988 225.397 501.122C224.992 500.256 224.95 499.38 225.267 498.501C225.585 497.62 226.169 496.985 227.019 496.597C227.87 496.209 228.741 496.173 229.63 496.496C230.555 496.828 231.209 497.402 231.591 498.214C231.974 499.027 231.997 499.895 231.664 500.822C231.34 501.721 230.756 502.369 229.911 502.772C229.065 503.173 228.203 503.214 227.322 502.897ZM300.097 479.598C298.926 478.925 293.782 474.848 292.454 470.62C290.999 465.997 290.474 465.052 290.474 465.052L288.249 470.536C288.249 470.536 286.281 470.277 284.057 465.567C281.836 460.855 282.089 462.226 282.089 462.226L277.73 466.423C277.73 466.423 277.045 468.051 274.307 461.284L271.573 454.517L266.185 460.512C266.185 460.512 265.073 461.297 261.137 453.154C257.204 445.009 257.633 444.239 257.633 444.239L251.731 452.291C251.731 452.291 249.507 451.605 245.915 443.81C242.324 436.015 240.014 427.451 240.014 427.451L240.213 427.517C238.419 423.808 236.462 418.811 236.834 415.274C237.497 408.964 237.939 404.978 236.39 402.873C235.823 402.104 235.339 400.583 234.704 398.372C234.683 400.669 234.568 410.011 236.495 426.745C238.052 440.255 235.081 446.636 230.433 452.859C230.488 453.35 230.557 453.847 230.648 454.36C231.476 459.002 236.792 462.338 236.792 462.338L245.505 456.099C245.505 456.099 245.506 456.099 246.344 461.756C247.183 467.413 249.308 469.737 249.308 469.737L255.305 454.36C255.305 454.36 257.39 459.291 259.329 467.558C261.269 475.828 266.423 477.569 266.423 477.569L267.218 473.071L272.454 479.7L280.627 469.155C280.627 469.155 282.648 473.071 286.609 480.563C290.57 488.053 295.077 489.173 295.077 489.173L301.206 485.288L306.597 489.173C306.597 489.173 310.735 488.053 314.696 480.563C318.657 473.071 320.493 469.155 320.493 469.155L328.575 479.7L333.764 473.071L334.537 477.569C334.537 477.569 339.68 475.828 341.618 467.558C343.557 459.291 345.637 454.36 345.637 454.36L351.632 469.737C351.632 469.737 353.755 467.413 354.592 461.756C355.433 456.099 355.43 456.099 355.43 456.099L364.144 462.338C364.144 462.338 369.459 459.002 370.289 454.36C370.512 453.098 370.616 451.889 370.654 450.79C366.877 445.146 364.677 438.77 366.061 426.745C368.285 407.441 368.017 397.437 368.017 397.437C368.017 397.437 373.902 406.849 374.427 418.049C374.956 429.249 395.369 445.994 395.369 445.994L395.004 429.429L400.455 438.08C400.455 438.08 402.769 436.688 402.769 422.835V409.201C402.769 409.201 406.387 421.401 416.39 429.429C426.397 437.458 424.79 434.38 424.79 434.38C424.79 434.38 419.242 427.964 415.393 415.393C411.543 402.825 411.592 399.232 411.592 399.232C411.592 399.232 423.073 414.883 433.889 417.96C444.709 421.037 447.029 420.784 447.029 420.784C447.029 420.784 442.634 413.139 437.393 404.133C435.652 401.137 434.486 399.308 433.705 398.194C435.314 399.385 438.381 400.946 443.962 401.723C453.71 403.081 460.408 401.121 460.408 401.121C460.408 401.121 453.587 398.463 448.39 393.334L443.193 388.203C443.193 388.203 454.403 388.299 465.217 383.505L476.03 378.711C476.03 378.711 463.716 376.914 457.303 371.272C451.28 365.971 450.411 365.775 450.327 365.773H450.32H450.322H450.327C450.68 365.762 463.3 365.338 470.129 363.061C477.056 360.753 480.905 356.391 480.905 356.391C480.905 356.391 473.923 353.74 468.563 338.262C463.203 322.786 460.408 315.608 460.408 315.608C460.408 315.608 467.738 315.746 476.117 321.189C484.496 326.633 488.744 330.04 488.744 330.04C488.744 330.04 496.104 309.713 481.449 299.447C466.793 289.179 452.686 281.483 452.686 281.483L480.136 285.843C480.136 285.843 474.764 268.164 465.778 263.665C456.789 259.165 451.915 259.059 451.915 259.059C451.915 259.059 454.913 252.103 460.982 247.424L467.053 242.745C467.053 242.745 460.895 247.001 446.529 237.691C432.163 228.379 425.579 209.094 425.579 209.094C425.579 209.094 441.385 221.162 447.28 218.541C453.179 215.92 457.98 208.528 468.038 207.623C476.041 206.905 481.54 212.403 483.462 214.688C482.449 213.893 480.182 213.144 475.274 214.78C467.41 217.401 463.483 226.135 458.239 230.722C452.996 235.309 452.998 235.306 452.998 235.306C452.998 235.306 463.046 236.398 472.659 230.937C480.019 226.754 486.826 230.225 489.609 232.08C488.573 231.646 486.898 231.506 484.453 232.903C479.867 235.523 476.848 240.357 476.848 240.357C476.848 240.357 479.649 236.56 486.42 239.318C493.19 242.077 494.817 247.424 494.817 247.424C494.817 247.424 491.879 244.916 485.544 246.663C480.974 247.925 477.323 249.983 475.64 251.035C476.917 250.456 479.651 249.78 485.181 250.261C493.918 251.019 499.179 260.645 499.347 260.96C499.187 260.684 497.719 258.602 491.831 261.915C486.42 264.955 482.873 267.161 481.451 267.715C483.523 267.371 490.668 266.678 494.738 269.065C499.743 272 502.185 279.902 502.185 279.902C502.185 279.902 501.279 278.688 493.959 277.637C486.636 276.589 484.016 279.427 484.016 279.427C484.016 279.427 491.879 282.047 496.683 289.474C501.49 296.901 503.513 310.663 501.083 318.744C499.217 324.939 498.397 327.433 498.115 328.261C498.339 327.501 498.676 325.594 497.377 323.353C495.691 320.445 492.913 318.98 492.913 318.98C492.913 318.98 497.518 324.518 497.935 333.658C498.349 342.802 494.738 348.7 494.738 348.7C494.738 348.7 496.023 344.546 491.453 339.143C486.883 333.742 482.81 333.494 482.81 333.494C482.81 333.494 487.88 336.068 489.208 342.136C490.539 348.202 489.873 349.865 489.873 349.865C489.873 349.865 489.457 344.711 485.968 342.55C482.477 340.39 481.812 341.055 481.812 341.055C481.812 341.055 480.984 341.565 484.28 347.182C487.575 352.801 492.913 355.235 492.913 355.235C492.913 355.235 490.752 363.609 482.239 365.773L473.72 367.936C473.72 367.936 474.233 372.811 480.649 371.272C487.063 369.731 489.627 368.192 489.627 368.192C489.627 368.192 492.107 382.378 480.476 386.572C468.848 390.767 461.583 390.866 461.583 390.866C461.583 390.866 462.381 395.883 468.563 394.609C474.748 393.334 477.287 392.108 477.287 392.108C477.287 392.108 480.248 399.747 468.134 403.851C456.02 407.954 451.66 406.159 451.66 406.159C451.66 406.159 455.251 411.29 459.354 411.547C463.46 411.803 465.943 411.031 465.943 411.031C465.943 411.031 465.255 417.191 454.225 423.348C443.193 429.503 436.01 429.429 436.01 429.429L448.39 433.248C448.39 433.248 444.081 445.138 429.655 446.301C415.23 447.461 406.252 442.333 406.252 442.333C406.252 442.333 408.202 447.766 416.155 451.707L424.107 455.645C424.107 455.645 419.777 464.265 403.779 463.303C396.279 462.85 392.407 461.203 390.411 459.578C391.294 461.627 392.122 464.493 392.143 468.094C392.183 475.858 384.416 480.563 384.416 480.563C384.416 480.563 386.755 471.854 378.802 461.325C377.172 459.166 375.583 457.252 374.102 455.404C374.323 457.44 374.285 459.763 373.787 462.356C371.779 472.821 367.389 476.079 367.389 476.079L363.359 468.845C363.359 468.845 363.832 472.626 361.773 477.267C359.711 481.911 354.595 487.718 354.595 487.718L346.401 476.985C346.401 476.985 346.401 483.224 340.221 489.315C334.043 495.409 328.498 498.601 328.498 498.601C328.498 498.601 326.048 491.638 324.423 489.317L322.796 486.997C322.796 486.997 319.012 493.38 312.99 497.874C306.972 502.373 301.206 502.99 301.206 502.99C301.206 502.99 294.704 502.373 288.683 497.874C282.663 493.38 278.141 486.997 278.141 486.997L276.514 489.317C274.886 491.638 272.436 498.601 272.436 498.601C272.436 498.601 266.893 495.409 260.713 489.315C254.536 483.224 254.536 476.985 254.536 476.985L246.341 487.718C246.341 487.718 241.225 481.911 239.165 477.267C237.105 472.626 237.577 468.845 237.577 468.845L233.546 476.079C233.546 476.079 229.155 472.821 227.147 462.356C226.817 460.631 226.703 459.037 226.72 457.554C225.758 458.747 224.764 459.989 223.755 461.325C215.802 471.854 218.14 480.563 218.14 480.563C218.14 480.563 210.373 475.858 210.414 468.094C210.434 464.493 211.263 461.627 212.147 459.578C210.151 461.203 206.279 462.85 198.777 463.303C182.779 464.265 178.451 455.645 178.451 455.645L186.403 451.707C194.355 447.766 196.305 442.333 196.305 442.333C196.305 442.333 187.325 447.461 172.901 446.301C158.476 445.138 154.165 433.248 154.165 433.248L166.546 429.429C166.546 429.429 159.363 429.503 148.332 423.348C137.301 417.191 136.613 411.031 136.613 411.031C136.613 411.031 139.097 411.803 143.202 411.547C147.305 411.29 150.897 406.159 150.897 406.159C150.897 406.159 146.536 407.954 134.423 403.851C122.308 399.747 125.27 392.108 125.27 392.108C125.27 392.108 127.809 393.334 133.993 394.609C140.177 395.883 140.974 390.866 140.974 390.866C140.974 390.866 133.71 390.767 122.08 386.572C110.45 382.378 112.93 368.192 112.93 368.192C112.93 368.192 115.496 369.731 121.909 371.272C128.322 372.811 128.835 367.936 128.835 367.936L120.32 365.773C111.804 363.609 109.644 355.235 109.644 355.235C109.644 355.235 114.982 352.801 118.278 347.182C121.572 341.565 120.745 341.055 120.745 341.055C120.745 341.055 120.08 340.39 116.589 342.55C113.099 344.711 112.683 349.865 112.683 349.865C112.683 349.865 112.019 348.202 113.348 342.136C114.677 336.068 119.747 333.494 119.747 333.494C119.747 333.494 115.675 333.742 111.105 339.143C106.534 344.546 107.818 348.7 107.818 348.7C107.818 348.7 104.206 342.802 104.622 333.658C105.038 324.518 109.644 318.98 109.644 318.98C109.644 318.98 106.866 320.445 105.179 323.353C103.88 325.594 104.218 327.501 104.442 328.261C104.159 327.433 103.339 324.939 101.474 318.744C99.0425 310.663 101.066 296.901 105.872 289.474C110.678 282.047 118.54 279.427 118.54 279.427C118.54 279.427 115.92 276.589 108.599 277.637C101.277 278.688 100.371 279.902 100.371 279.902C100.371 279.902 102.814 272 107.818 269.065C111.888 266.678 119.033 267.371 121.105 267.715C119.684 267.161 116.135 264.955 110.726 261.915C104.837 258.602 103.37 260.684 103.208 260.96C103.378 260.645 108.638 251.019 117.375 250.261C122.905 249.78 125.64 250.456 126.918 251.035C125.234 249.983 121.584 247.925 117.011 246.663C110.678 244.916 107.74 247.424 107.74 247.424C107.74 247.424 109.367 242.077 116.138 239.318C122.909 236.56 125.71 240.357 125.71 240.357C125.71 240.357 122.691 235.523 118.105 232.903C115.659 231.506 113.984 231.647 112.947 232.08C115.731 230.225 122.537 226.754 129.899 230.937C139.51 236.398 149.558 235.306 149.558 235.306C149.558 235.306 149.559 235.309 144.317 230.722C139.075 226.135 135.146 217.401 127.283 214.78C122.374 213.144 120.107 213.893 119.096 214.688C121.016 212.403 126.516 206.905 134.518 207.623C144.577 208.528 149.378 215.92 155.276 218.541C161.173 221.162 176.977 209.094 176.977 209.094C176.977 209.094 170.394 228.379 156.028 237.691C141.663 247.001 135.505 242.745 135.505 242.745L141.574 247.424C147.643 252.103 150.641 259.059 150.641 259.059C150.641 259.059 145.767 259.165 136.78 263.665C127.794 268.164 122.422 285.843 122.422 285.843L149.871 281.483C149.871 281.483 135.761 289.179 121.107 299.447C106.452 309.713 113.813 330.04 113.813 330.04C113.813 330.04 118.061 326.633 126.44 321.189C134.819 315.746 142.149 315.608 142.149 315.608C142.149 315.608 139.353 322.786 133.993 338.262C128.633 353.74 121.653 356.391 121.653 356.391C121.653 356.391 125.5 360.753 132.427 363.061C139.256 365.338 151.877 365.762 152.229 365.773H152.235C152.235 365.773 152.236 365.773 152.237 365.773H152.229C152.146 365.775 151.277 365.971 145.254 371.272C138.84 376.914 126.527 378.711 126.527 378.711L137.341 383.505C148.155 388.299 159.363 388.203 159.363 388.203C159.363 388.203 159.364 388.203 154.166 393.334C148.969 398.463 142.149 401.121 142.149 401.121C142.149 401.121 148.846 403.081 158.595 401.723C164.172 400.946 167.241 399.387 168.852 398.194C168.069 399.308 166.903 401.139 165.161 404.133C159.922 413.139 155.525 420.784 155.525 420.784C155.525 420.784 157.844 421.037 168.661 417.96C179.48 414.883 190.957 399.232 190.957 399.232C190.957 399.232 190.994 402.825 187.147 415.393C183.298 427.964 177.731 434.38 177.731 434.38C177.731 434.38 176.089 437.458 186.094 429.429C196.099 421.401 199.644 409.201 199.644 409.201V422.835C199.644 436.688 202.03 438.08 202.03 438.08L207.552 429.429L207.187 445.994C207.187 445.994 227.602 429.249 228.129 418.049C228.615 407.713 233.654 398.92 234.431 397.62C233.364 393.844 232.369 389.343 231.96 388.129C231.921 388.012 231.895 387.91 231.861 387.801C230.993 386.199 230.345 384.597 229.982 383.117C228.796 378.28 230.846 372.153 230.846 369.538C230.846 366.923 229.717 360.222 230.04 358.45C230.362 356.678 232.619 351.033 234.554 348.616C236.489 346.196 239.391 337.007 239.391 337.007C239.391 337.007 240.197 341.845 238.423 344.907C236.65 347.971 235.683 352.323 235.587 355.548C235.49 358.772 236.489 361.675 235.841 364.51C235.193 367.347 236.006 377.798 235.844 381.827C235.683 385.859 242.615 398.11 259.22 401.494C275.825 404.882 292.916 392.306 295.721 388.096C296.76 386.54 297.504 383.957 298.032 381.319V380.986C297.895 381.086 297.479 380.834 297.169 380.385C297.154 380.39 296.976 380.397 296.976 380.397V380.329C296.976 379.484 295.826 378.019 295.364 376.896C294.574 374.977 276.663 358.602 273.162 355.847C269.661 353.087 258.032 346.748 257.465 344.714C256.902 342.682 259.84 331.389 260.855 330.373C260.942 330.287 261.023 330.229 261.097 330.183C260.99 329.896 260.883 329.591 260.769 329.253C260.441 328.299 259.613 326.381 258.575 324.942C257.542 323.914 256.833 322.946 256.907 322.149C257.215 318.754 255.67 316.588 253.817 309.796C251.965 303.002 253.198 305.475 255.67 299.605C258.141 293.737 257.215 292.503 258.143 287.557C259.068 282.619 255.053 284.162 255.67 277.368C256.287 270.571 247.331 272.425 245.169 272.425C243.011 272.425 236.212 270.263 236.212 270.263L236.38 269.817C234.856 269.169 233.501 268.169 232.567 266.641C229.621 261.821 225.184 255.72 225.713 252.811C220.353 250.013 217.381 245.111 220.154 246.874C224.169 249.43 227.259 247.719 234.67 247.103C241.647 246.522 246.722 247.052 252.958 248.913C254.444 248.849 255.927 248.807 257.339 248.588C259.863 248.197 269.425 247.505 266.289 252.272L264.73 252.134C264.735 253.237 263.486 254.605 263.113 255.369C262.47 256.687 262.521 258.163 262.551 259.628C262.755 259.945 262.958 260.262 263.191 260.602C268.241 267.933 263.191 277.368 263.191 277.368C263.191 277.368 262.465 284.472 263.082 290.035C263.699 295.593 261.541 295.898 259.84 299.605C258.141 303.309 256.595 308.563 256.595 308.563L258.76 316.588C258.76 316.588 258.763 321.095 259.847 325.94C263.295 328.885 267.429 332.544 263.082 333.27C263.082 333.27 262.884 334.448 261.772 331.904C261.744 332.12 261.701 332.333 261.645 332.518C261.307 333.649 259.499 342.23 261.645 345.054C263.791 347.875 274.518 353.296 278.583 354.763C282.648 356.233 285.02 355.781 285.02 355.781C285.02 355.781 281.181 351.943 275.645 349.568C270.113 347.199 266.05 346.633 263.905 344.488C261.757 342.345 265.598 339.859 268.871 337.15C272.146 334.438 278.357 336.131 279.939 336.584C281.323 336.98 294.841 340.582 298.55 341.469C302.257 340.582 315.775 336.98 317.159 336.584C318.741 336.131 324.951 334.438 328.224 337.15C331.499 339.859 335.341 342.345 333.196 344.488C331.05 346.633 326.983 347.199 321.45 349.568C315.917 351.943 312.079 355.781 312.079 355.781C312.079 355.781 314.45 356.233 318.515 354.763C322.58 353.296 333.308 347.875 335.453 345.054C337.598 342.23 335.791 333.649 335.453 332.518C335.397 332.336 335.356 332.127 335.326 331.912C334.219 334.445 334.021 333.27 334.021 333.27C329.156 332.458 333.472 329.385 336.926 326.407C338.157 323.386 338.342 316.588 338.342 316.588L340.508 308.563C340.508 308.563 338.962 303.309 337.263 299.605C335.562 295.898 333.404 295.593 334.021 290.035C334.635 284.472 333.911 277.368 333.911 277.368C333.911 277.368 328.862 267.933 333.911 260.602C334.425 259.858 334.841 259.18 335.212 258.543C335.209 257.444 335.12 256.36 334.635 255.369C334.27 254.62 333.066 253.295 333.018 252.205L332.261 252.272C329.123 247.505 338.685 248.197 341.206 248.588C342.222 248.745 343.276 248.808 344.337 248.856C350.487 247.041 355.527 246.528 362.431 247.103C369.844 247.719 372.934 249.43 376.949 246.874C379.724 245.111 376.751 250.013 371.388 252.811C371.919 255.72 367.48 261.821 364.535 266.641C363.601 268.169 362.247 269.169 360.724 269.817L360.889 270.263C360.889 270.263 354.092 272.425 351.934 272.425C349.773 272.425 340.815 270.571 341.432 277.368C342.049 284.162 338.035 282.619 338.959 287.557C339.889 292.503 338.962 293.737 341.432 299.605C343.905 305.475 345.14 303.002 343.286 309.796C341.432 316.588 339.889 318.754 340.196 322.149C340.259 322.847 337.943 326.778 336.616 328.397C336.53 328.684 336.438 328.969 336.341 329.253C336.225 329.591 336.121 329.898 336.016 330.185C336.09 330.231 336.179 330.289 336.263 330.373C337.281 331.389 340.237 342.682 339.673 344.714C339.109 346.748 327.518 353.087 324.02 355.847C320.518 358.602 302.536 374.977 301.747 376.896C301.285 378.019 300.15 379.484 300.15 380.329V380.397C300.15 380.397 299.957 380.39 299.939 380.385C299.837 380.532 299.573 380.659 299.487 380.758C300.02 383.587 300.795 386.43 301.907 388.096C304.713 392.306 321.8 404.882 338.406 401.494C355.011 398.11 361.946 385.859 361.785 381.827C361.623 377.798 362.433 367.347 361.785 364.51C361.138 361.675 362.138 358.772 362.042 355.548C361.946 352.323 360.978 347.971 359.203 344.907C357.431 341.845 358.236 337.007 358.236 337.007C358.236 337.007 361.138 346.196 363.073 348.616C365.01 351.033 367.265 356.678 367.587 358.45C367.91 360.222 366.782 366.923 366.782 369.538C366.782 372.153 368.831 378.28 367.646 383.117C367.328 384.412 366.788 385.801 366.079 387.202C366.013 387.482 365.932 387.781 365.815 388.129C365.152 390.101 362.936 400.768 361.384 402.873C359.835 404.978 360.277 408.964 360.94 415.274C361.311 418.796 359.373 423.762 357.586 427.466L357.632 427.451C357.632 427.451 355.412 436.015 351.962 443.81C348.511 451.605 346.376 452.291 346.376 452.291L340.703 444.239C340.703 444.239 341.117 445.009 337.337 453.154C333.556 461.297 332.49 460.512 332.49 460.512L327.313 454.517L324.682 461.284C322.054 468.051 321.397 466.423 321.397 466.423L317.207 462.226C317.207 462.226 317.458 460.855 315.321 465.567C313.185 470.277 311.301 470.536 311.301 470.536L309.176 465.052C309.176 465.052 308.79 465.997 307.394 470.62C306.099 474.909 301.206 479.042 300.15 479.624V479.626L300.097 479.598ZM377.177 501.508C376.304 501.841 375.433 501.81 374.562 501.416C373.691 501.023 373.089 500.388 372.754 499.515C372.422 498.641 372.449 497.78 372.841 496.93C373.234 496.079 373.871 495.488 374.752 495.15C375.674 494.799 376.543 494.807 377.362 495.175C378.183 495.541 378.767 496.183 379.117 497.102C379.457 497.996 379.437 498.869 379.059 499.723C378.68 500.578 378.053 501.175 377.177 501.508ZM216.339 498.593C215.478 498.23 214.87 497.602 214.514 496.717C214.159 495.828 214.165 494.954 214.531 494.091C214.895 493.231 215.513 492.628 216.385 492.289C217.256 491.945 218.126 491.961 218.996 492.329C219.903 492.712 220.523 493.322 220.86 494.155C221.197 494.987 221.173 495.856 220.789 496.762C220.417 497.641 219.797 498.257 218.93 498.61C218.065 498.966 217.202 498.961 216.339 498.593ZM388.062 497.006C387.207 497.387 386.333 497.407 385.442 497.062C384.551 496.717 383.916 496.117 383.535 495.262C383.154 494.406 383.134 493.545 383.479 492.674C383.822 491.806 384.426 491.179 385.289 490.793C386.188 490.392 387.057 490.354 387.895 490.673C388.735 490.994 389.355 491.606 389.756 492.504C390.144 493.375 390.172 494.248 389.842 495.124C389.51 495.998 388.915 496.625 388.062 497.006ZM205.624 493.697C204.783 493.286 204.21 492.626 203.905 491.722C203.599 490.816 203.651 489.943 204.064 489.102C204.476 488.261 205.126 487.695 206.015 487.403C206.902 487.111 207.772 487.172 208.621 487.588C209.504 488.023 210.09 488.662 210.381 489.513C210.672 490.364 210.6 491.23 210.167 492.113C209.746 492.971 209.095 493.55 208.21 493.857C207.326 494.162 206.464 494.111 205.624 493.697ZM398.671 491.92C397.838 492.349 396.967 492.415 396.055 492.118C395.149 491.824 394.481 491.26 394.054 490.427C393.625 489.595 393.559 488.734 393.856 487.847C394.151 486.959 394.72 486.299 395.56 485.867C396.436 485.42 397.302 485.331 398.157 485.606C399.01 485.88 399.663 486.456 400.113 487.332C400.549 488.18 400.625 489.051 400.343 489.943C400.059 490.836 399.501 491.494 398.671 491.92ZM195.214 488.236C194.398 487.777 193.863 487.088 193.606 486.169C193.351 485.248 193.451 484.379 193.909 483.562C194.367 482.746 195.047 482.216 195.95 481.972C196.853 481.729 197.716 481.835 198.542 482.3C199.4 482.78 199.95 483.453 200.194 484.316C200.438 485.182 200.319 486.043 199.839 486.901C199.371 487.733 198.689 488.279 197.788 488.536C196.889 488.792 196.031 488.693 195.214 488.236ZM409.002 486.253C408.192 486.725 407.326 486.839 406.402 486.593C405.48 486.347 404.782 485.822 404.309 485.014C403.837 484.204 403.723 483.351 403.972 482.447C404.218 481.546 404.751 480.855 405.567 480.38C406.414 479.883 407.275 479.748 408.143 479.974C409.012 480.202 409.695 480.743 410.193 481.591C410.673 482.416 410.797 483.28 410.563 484.186C410.33 485.09 409.809 485.781 409.002 486.253ZM185.115 482.209C184.325 481.706 183.828 480.989 183.623 480.058C183.417 479.123 183.566 478.26 184.067 477.47C184.569 476.681 185.276 476.188 186.191 475.995C187.106 475.8 187.964 475.957 188.761 476.462C189.591 476.988 190.106 477.692 190.301 478.567C190.497 479.443 190.332 480.299 189.805 481.129C189.293 481.934 188.581 482.442 187.669 482.65C186.758 482.856 185.907 482.709 185.115 482.209ZM418.995 480.038C418.216 480.553 417.355 480.713 416.419 480.52C415.484 480.325 414.758 479.837 414.242 479.055C413.727 478.273 413.57 477.425 413.765 476.513C413.963 475.599 414.455 474.88 415.245 474.358C416.066 473.817 416.916 473.634 417.797 473.817C418.676 473.995 419.386 474.497 419.93 475.315C420.455 476.115 420.628 476.97 420.443 477.887C420.257 478.806 419.777 479.522 418.995 480.038ZM300.152 479.667C300.167 479.685 300.15 479.7 300.15 479.7L300.145 479.697C300.14 479.69 300.129 479.677 300.147 479.664L300.152 479.667ZM175.335 475.622C174.573 475.079 174.116 474.335 173.962 473.393C173.808 472.448 174.003 471.595 174.547 470.836C175.09 470.072 175.825 469.619 176.748 469.478C177.673 469.333 178.519 469.533 179.289 470.084C180.09 470.656 180.564 471.385 180.711 472.27C180.861 473.157 180.647 473.999 180.076 474.802C179.521 475.576 178.783 476.046 177.861 476.204C176.939 476.359 176.096 476.165 175.335 475.622ZM428.629 473.286C427.875 473.845 427.029 474.053 426.085 473.908C425.138 473.763 424.386 473.317 423.83 472.565C423.274 471.813 423.065 470.975 423.215 470.054C423.363 469.127 423.815 468.383 424.574 467.822C425.363 467.236 426.204 467.009 427.093 467.139C427.981 467.271 428.717 467.733 429.304 468.523C429.873 469.289 430.091 470.135 429.957 471.062C429.822 471.988 429.38 472.73 428.629 473.286ZM165.943 468.525C165.213 467.942 164.795 467.175 164.693 466.225C164.591 465.275 164.833 464.435 165.416 463.704C166.001 462.973 166.759 462.559 167.689 462.467C168.62 462.373 169.455 462.622 170.193 463.211C170.961 463.826 171.395 464.579 171.494 465.471C171.594 466.365 171.337 467.195 170.722 467.964C170.127 468.711 169.363 469.135 168.434 469.244C167.505 469.348 166.675 469.112 165.943 468.525ZM437.899 466.009C437.18 466.609 436.345 466.86 435.393 466.768C434.441 466.677 433.666 466.271 433.07 465.552C432.473 464.831 432.221 464.006 432.318 463.074C432.415 462.145 432.826 461.375 433.555 460.774C434.311 460.144 435.139 459.872 436.033 459.956C436.927 460.04 437.688 460.459 438.315 461.216C438.925 461.952 439.189 462.784 439.105 463.717C439.021 464.648 438.62 465.412 437.899 466.009ZM156.963 460.939C156.265 460.314 155.89 459.524 155.84 458.57C155.789 457.618 156.075 456.79 156.698 456.092C157.322 455.393 158.101 455.023 159.035 454.979C159.969 454.939 160.789 455.231 161.495 455.86C162.229 456.515 162.62 457.293 162.671 458.189C162.723 459.085 162.421 459.9 161.765 460.634C161.129 461.348 160.345 461.731 159.411 461.789C158.477 461.845 157.661 461.561 156.963 460.939ZM446.752 458.247C446.067 458.882 445.244 459.179 444.292 459.141C443.335 459.1 442.54 458.735 441.903 458.049C441.268 457.364 440.974 456.551 441.019 455.619C441.065 454.685 441.436 453.895 442.129 453.253C442.85 452.585 443.66 452.268 444.559 452.303C445.455 452.336 446.24 452.715 446.907 453.436C447.555 454.139 447.865 454.954 447.832 455.891C447.799 456.825 447.441 457.61 446.752 458.247ZM148.384 452.852C147.721 452.192 147.389 451.384 147.391 450.427C147.392 449.473 147.723 448.663 148.383 448C149.043 447.334 149.842 447.007 150.777 447.017C151.712 447.025 152.515 447.362 153.184 448.028C153.881 448.723 154.231 449.518 154.233 450.417C154.235 451.316 153.889 452.113 153.195 452.811C152.521 453.487 151.717 453.829 150.781 453.835C149.847 453.839 149.047 453.512 148.384 452.852ZM455.164 450.018C454.514 450.691 453.71 451.031 452.755 451.044C451.8 451.054 450.988 450.737 450.315 450.084C449.642 449.434 449.305 448.64 449.299 447.705C449.294 446.771 449.619 445.963 450.277 445.283C450.962 444.577 451.755 444.217 452.651 444.201C453.55 444.186 454.352 444.524 455.058 445.207C455.743 445.872 456.097 446.672 456.117 447.609C456.134 448.54 455.817 449.345 455.164 450.018ZM304.758 399.905C302.318 399.917 300.264 400.045 299.091 400.133V400.225C299.091 400.225 298.987 400.215 298.791 400.197L298.568 400.177L298.34 400.197L298.032 400.225V400.133C296.879 400.042 294.871 399.917 292.487 399.905H292.185C288.26 399.9 283.384 400.21 279.596 401.467C278.86 401.71 278.035 401.936 277.146 402.149C274.345 402.977 272.08 403.589 271.151 403.751C270.785 403.817 270.219 403.848 269.511 403.851H269.392C268.952 403.851 268.46 403.843 267.929 403.825L267.637 403.815C260.799 404.788 253.725 405.613 250.923 407.08C246.273 409.515 245.649 407.192 243.545 412.507C241.441 417.82 238.86 420.034 241.738 425.461C244.617 430.887 249.029 431.219 249.029 431.219L249.032 431.272L249.116 431.263C249.535 431.209 249.97 431.095 250.421 430.897C254.109 429.29 256.61 426.605 256.61 426.605L258.075 431.303L261.665 428.954C261.665 428.954 261.726 429.229 261.31 432.387C260.894 435.545 259.702 436.559 259.702 436.559L264.583 434.652L264.88 444.305L268.747 436.439L269.341 444.841L271.781 436.975L273.982 440.669L277.849 438.405L280.706 447.047L287.191 439.956L289.869 444.902L293.439 441.027L295.859 450.663L299.974 440.469L303.976 450.663L306.302 441.027L309.732 444.902L312.304 439.956L318.538 447.047L321.28 438.405L324.994 440.669L327.112 436.975L329.456 444.841L330.027 436.439L333.742 444.305L334.029 434.652L338.716 436.559L338.703 436.546C338.576 436.424 337.547 435.347 337.172 432.387C336.773 429.229 336.829 428.954 336.829 428.954L340.28 431.303L341.689 426.605L341.717 426.636C341.998 426.938 344.35 429.388 347.673 430.897C348.052 431.069 348.813 431.171 348.813 431.232V431.219C348.813 431.219 353.178 430.887 356.055 425.461C358.934 420.034 356.294 417.82 354.189 412.507C352.086 407.192 351.421 409.515 346.769 407.08C344.058 405.658 337.279 404.841 330.629 403.906L329.984 403.815C329.395 403.835 328.844 403.848 328.354 403.851H328.232C327.47 403.851 326.861 403.82 326.477 403.751C325.594 403.597 323.512 403.038 320.909 402.274C319.779 402.025 318.736 401.758 317.855 401.467C314.153 400.238 309.334 399.915 305.375 399.905H305.066H304.758ZM140.283 444.338C139.657 443.643 139.37 442.817 139.423 441.863C139.476 440.911 139.85 440.121 140.545 439.494C141.241 438.867 142.055 438.583 142.989 438.641C143.922 438.701 144.705 439.08 145.338 439.783C145.997 440.515 146.302 441.327 146.256 442.226C146.21 443.122 145.82 443.899 145.09 444.559C144.381 445.197 143.558 445.493 142.624 445.45C141.69 445.405 140.909 445.034 140.283 444.338ZM463.122 441.343C462.507 442.048 461.723 442.434 460.771 442.497C459.819 442.561 458.989 442.284 458.28 441.673C457.574 441.058 457.193 440.283 457.137 439.352C457.082 438.417 457.363 437.592 457.983 436.881C458.63 436.137 459.4 435.734 460.296 435.67C461.192 435.609 462.01 435.898 462.754 436.544C463.475 437.17 463.868 437.95 463.937 438.882C464.008 439.814 463.736 440.634 463.122 441.343ZM132.628 435.363C132.04 434.637 131.799 433.796 131.904 432.847C132.009 431.897 132.424 431.13 133.154 430.541C133.882 429.952 134.711 429.713 135.64 429.823C136.569 429.932 137.33 430.356 137.923 431.09C138.541 431.857 138.803 432.684 138.707 433.58C138.611 434.471 138.181 435.228 137.416 435.845C136.672 436.444 135.835 436.696 134.906 436.602C133.975 436.505 133.216 436.094 132.628 435.363ZM470.589 432.257C470.013 432.997 469.253 433.423 468.304 433.54C467.357 433.654 466.511 433.423 465.772 432.849C465.034 432.275 464.612 431.524 464.506 430.594C464.399 429.665 464.635 428.827 465.217 428.081C465.821 427.304 466.567 426.86 467.458 426.748C468.35 426.636 469.185 426.883 469.959 427.487C470.716 428.073 471.153 428.83 471.272 429.757C471.389 430.686 471.163 431.519 470.589 432.257ZM125.488 426.009C124.94 425.25 124.745 424.399 124.901 423.455C125.057 422.513 125.515 421.769 126.275 421.22C127.035 420.674 127.874 420.479 128.796 420.639C129.717 420.799 130.455 421.263 131.007 422.03C131.582 422.828 131.798 423.67 131.655 424.557C131.511 425.443 131.04 426.174 130.242 426.751C129.466 427.309 128.618 427.515 127.694 427.367C126.77 427.22 126.034 426.768 125.488 426.009ZM477.559 422.767C477.026 423.536 476.289 424.003 475.347 424.171C474.405 424.338 473.552 424.153 472.783 423.62C472.013 423.087 471.551 422.358 471.394 421.436C471.237 420.514 471.427 419.666 471.968 418.889C472.527 418.079 473.25 417.597 474.134 417.437C475.017 417.277 475.863 417.475 476.67 418.036C477.458 418.58 477.935 419.313 478.105 420.232C478.275 421.152 478.092 421.997 477.559 422.767ZM118.866 416.277C118.361 415.49 118.213 414.632 118.421 413.697C118.628 412.765 119.126 412.044 119.913 411.539C120.701 411.034 121.551 410.887 122.463 411.097C123.375 411.308 124.086 411.811 124.596 412.608C125.126 413.433 125.296 414.289 125.104 415.165C124.912 416.043 124.402 416.746 123.574 417.277C122.77 417.793 121.911 417.95 120.996 417.754C120.081 417.559 119.372 417.067 118.866 416.277ZM484.016 412.889C483.526 413.687 482.815 414.195 481.883 414.413C480.953 414.632 480.091 414.494 479.29 414.004C478.496 413.515 477.993 412.814 477.788 411.902C477.579 410.988 477.724 410.13 478.219 409.325C478.735 408.487 479.43 407.964 480.304 407.756C481.177 407.547 482.033 407.7 482.871 408.215C483.683 408.718 484.201 409.421 484.422 410.33C484.64 411.242 484.506 412.093 484.016 412.889ZM112.793 406.209C112.333 405.397 112.231 404.529 112.489 403.61C112.747 402.688 113.283 401.997 114.098 401.537C114.911 401.075 115.768 400.974 116.667 401.233C117.566 401.492 118.249 402.033 118.714 402.855C119.199 403.711 119.322 404.572 119.082 405.437C118.843 406.304 118.295 406.979 117.439 407.464C116.608 407.936 115.741 408.047 114.838 407.801C113.937 407.555 113.255 407.025 112.793 406.209ZM435.962 263.109C435.865 263.103 435.238 262.994 431.881 262.25C427.301 261.23 424.399 259.025 421.017 255.999C417.634 252.971 415.035 245.452 410.114 239.318C405.193 233.185 405.127 230.522 405.127 230.522C405.127 230.522 403.124 229.334 409.4 232.388C415.679 235.442 423.929 250.636 423.929 250.636V248.167L422.312 241.378C422.312 241.378 418.831 228.651 415.606 224.24C412.381 219.829 403.042 219.469 391.137 215.501C380.785 212.05 383.373 208.614 384.223 207.775C384.629 208.045 386.508 208.686 393.105 210.218C404.625 212.893 410.279 211.964 410.279 211.964C410.279 211.964 393.366 206.262 381.067 196.342C368.765 186.422 353.534 189.819 353.534 189.819L364.456 195.05L360.323 198.405C360.323 198.405 370.076 200.017 375.067 202.09C380.059 204.164 381.392 212.715 381.392 212.715L378.005 213.695C378.005 213.695 378.581 213.887 384.904 217.165C391.226 220.444 394.74 228.874 394.74 228.874L388.651 230.748L392.163 231.919C395.677 233.09 402.212 243.371 402.212 243.371L395.911 244.565L401.062 248.078C406.214 251.59 407.854 259.318 407.854 259.318L402.728 258.132C397.601 256.946 398.721 258.383 398.721 258.383L400.828 259.843C402.936 261.306 404.932 265.84 404.932 265.84L399.658 263.276C399.658 263.276 399.892 263.769 402.936 274.542C405.98 285.313 405.277 302.174 400.125 311.777C394.973 321.38 389.068 325.63 389.068 325.63L385.373 322.081C385.373 322.081 385.373 323.251 386.526 334.405C387.653 345.3 382.807 347.948 382.583 348.063C382.557 347.943 382.195 347.217 379.752 343.327C376.474 338.109 377.408 334.258 377.408 334.258C377.408 334.258 374.131 343.861 374.722 354.245C375.311 364.63 379.282 369.622 382.877 382.817C386.473 396.013 382.093 398.661 382.093 398.661C382.093 398.661 380.689 403.109 385.137 395.38C387.879 390.617 388.131 386.839 387.917 384.635C388.161 385.811 388.534 387.623 389.119 390.465C390.759 398.427 387.775 406.316 387.775 406.316C387.775 406.316 390.289 404.75 393.212 394.609C396.136 384.467 393.333 383.439 390.946 376.292C388.562 369.145 390.946 367.982 390.946 367.982C390.946 367.982 390.992 367.278 395.075 374.464C399.158 381.647 404.462 383.927 404.462 383.927C404.462 383.927 399.001 374.936 399.033 370.429C399.067 365.925 405.145 359.57 402.266 353.379C399.386 347.189 396.38 344.66 396.38 344.66C396.38 344.66 404.007 349.213 406.965 352.059C409.479 354.473 412.483 367.304 413.123 371.125C412.976 367.032 413.036 352.339 410.533 347.182C407.613 341.169 404.007 337.833 404.007 337.833C404.007 337.833 416.071 345.115 420.966 350.234C425.204 354.664 428.162 366.359 428.728 369.589C428.639 367.233 428.563 360.257 427.07 353.379C425.206 344.798 423.241 341.474 420.509 337.833C417.779 334.189 411.518 328.616 411.518 328.616C411.518 328.616 422.558 331.231 429.957 334.761C437.353 338.287 443.728 350.579 443.728 350.579C443.728 350.579 440.654 340.45 438.49 335.995C436.324 331.539 432.993 328.616 432.993 328.616C432.993 328.616 425.813 322.388 419.234 311.5C412.658 300.613 414.61 297.401 414.61 297.401C414.61 297.401 419.681 305.343 423.924 307.889C428.167 310.434 441.571 313.658 448.187 316.203C454.804 318.747 456.33 321.189 456.33 321.189C456.33 321.189 455.144 317.899 451.071 313.659C446.999 309.416 444.793 309.078 439.194 305.343C433.595 301.611 430.371 296.86 426.795 292.135C423.223 287.407 421.21 284.155 421.21 284.155C421.21 284.155 425.79 285.493 434.103 287.531C442.418 289.568 448.177 301.568 448.177 301.568C448.177 301.568 445.64 294.824 439.194 285.153C432.747 275.484 429.693 275.822 423.076 270.863C416.457 265.901 414.669 260.989 414.669 260.989C414.669 260.989 417.472 262.758 426.635 263.947C435.545 265.099 435.944 263.212 435.962 263.109ZM489.893 402.721C489.449 403.544 488.767 404.089 487.85 404.359C486.933 404.627 486.062 404.539 485.24 404.092C484.417 403.645 483.879 402.97 483.622 402.073C483.366 401.172 483.462 400.309 483.914 399.476C484.384 398.61 485.049 398.051 485.91 397.798C486.771 397.541 487.634 397.648 488.497 398.115C489.338 398.572 489.891 399.248 490.16 400.144C490.43 401.04 490.341 401.898 489.893 402.721ZM107.272 395.812C106.856 394.972 106.803 394.101 107.11 393.197C107.419 392.293 107.991 391.633 108.83 391.216C109.669 390.8 110.53 390.747 111.413 391.054C112.295 391.361 112.948 391.94 113.368 392.786C113.805 393.667 113.881 394.535 113.595 395.385C113.308 396.236 112.724 396.881 111.843 397.318C110.986 397.742 110.115 397.808 109.228 397.511C108.34 397.216 107.688 396.65 107.272 395.812ZM248.124 194.823C247.322 194.279 245.052 192.905 241.928 192.422C238 191.813 233.536 194.761 233.536 194.761C233.536 194.761 238.229 190.275 248.319 186.916C254.561 184.839 257.854 185.332 259.461 186.01C256.382 184.035 248.385 179.507 240.119 179.774C229.573 180.114 227.702 184.366 227.702 184.366L235.186 186.577C235.186 186.577 233.486 186.236 221.579 188.788C209.673 191.34 200.318 203.415 200.318 203.415C200.318 203.415 201.169 203.415 205.646 203.156C210.123 202.897 212.565 207.327 212.565 207.327C212.565 207.327 201.169 209.199 191.644 213.621C182.119 218.043 180.077 223.316 180.077 223.316C180.077 223.316 183.309 222.465 189.943 220.935C195.891 219.561 197.05 222.695 197.226 223.358C197.087 223.242 196.464 223.271 193.855 224.737C190.113 226.838 186.881 232.841 181.683 241.457C177.641 248.158 173.269 250.636 171.52 251.41C172.114 251.178 173.152 250.774 174.975 250.064C179.227 248.407 185.521 249.169 185.521 249.169C185.521 249.169 178.206 253.252 168.377 260.989C158.549 268.727 160.517 274.344 160.517 274.344C160.517 274.344 162.388 272.983 170.553 270.261C178.717 267.539 181.021 270.863 181.021 270.863C181.021 270.863 178.376 271.792 167.321 280.805C161.334 285.688 158.443 287.524 157.047 288.184C158.182 287.971 160.234 287.597 163.921 286.945C173.446 285.262 180.758 286.945 180.758 286.945C180.758 286.945 171.063 288.969 163.408 295.113C155.754 301.26 152.353 310.741 153.543 309.357C154.735 307.976 163.238 303.937 170.042 303.599C176.846 303.256 177.866 308.699 177.866 308.699C177.866 308.699 174.975 308.189 166.811 314.994C158.647 321.799 159.157 337.444 158.136 343.058C157.116 348.672 150.482 351.734 150.482 351.734C150.482 351.734 152.183 351.902 156.818 349.934C161.452 347.966 160.858 345.099 162.388 340.846C163.919 336.593 168.511 330.302 174.508 327.478C180.506 324.655 184.155 327.478 184.155 327.478C184.155 327.478 182.799 328.261 179.737 330.099C176.676 331.935 173.784 344.079 172.594 351.561C171.404 359.047 163.345 363.401 163.345 363.401C163.345 363.401 168.171 363.81 172.764 359.897C177.357 355.984 178.547 350.373 181.268 347.311C183.989 344.249 188.071 345.269 188.071 345.269C188.071 345.269 183.479 350.373 182.119 357.345C181.007 363.038 177.517 369.977 176.273 372.331C176.723 371.874 177.34 371.259 178.197 370.429C182.952 365.826 187.902 357.175 192.154 355.235C196.406 353.296 198.182 355.235 198.182 355.235C198.182 355.235 195.725 355.644 193.344 360.067C190.963 364.49 190.282 372.313 188.729 379.501C187.175 386.689 181.946 391.369 181.946 391.369C181.946 391.369 187.902 387.281 192.465 383.858C197.027 380.435 197.257 373.334 201.339 369.421C205.42 365.509 208.636 367.037 208.636 367.037C208.636 367.037 205.614 369.025 201.752 379.981C197.888 390.934 199.337 395.845 199.337 395.845C199.337 395.845 203.617 390.14 208.467 382.817C213.318 375.495 225.588 367.882 225.663 354.931C225.74 341.977 223.811 341.349 223.811 341.349C223.811 341.349 219.31 345.628 214.174 350.764C209.039 355.901 204.983 353.379 204.983 353.379C204.983 353.379 208.183 352.76 212.462 345.056C216.742 337.353 212.748 338.739 212.748 338.739C212.748 338.739 207.041 336.497 202.761 326.511C198.481 316.522 202.475 309.357 202.475 309.357L196.08 310.505C196.08 310.505 201.264 307.991 202.645 300.649C202.915 299.204 203.105 298.211 203.235 297.538C202.852 297.911 200.77 299.892 196.238 303.279C191.183 307.057 186.812 306.577 186.812 306.577C186.812 306.577 196.578 299.503 200.78 293.595C204.578 288.25 202.288 279.297 201.815 277.632C201.535 277.936 201.084 278.391 200.367 279.079C197.271 282.057 191.066 282.596 191.066 282.596C191.066 282.596 198.908 277.36 202.678 267.62C206.448 257.881 204.796 253.064 204.796 253.064C204.796 253.064 200.479 255.997 195.295 259.843C190.466 263.431 190.68 265.447 190.732 265.706C190.664 265.394 190.018 261.844 194.667 255.999C199.536 249.873 200.949 251.598 206.549 242.027C212.149 232.455 208.177 236.046 208.177 236.046L199.856 238.696C200.865 238.058 203.33 235.912 209.313 229.026C218.56 218.382 219.069 218.153 219.095 218.152L207.319 217.507C208.315 217.423 210.901 216.893 217.583 214.502C227.782 210.853 230.8 204.482 230.8 204.482L220.96 206.157C220.96 206.157 226.393 200.951 236.991 197.104C244.877 194.241 247.366 194.502 248.124 194.823ZM495.228 392.206C494.827 393.052 494.177 393.636 493.276 393.953C492.374 394.273 491.501 394.233 490.655 393.832C489.81 393.43 489.233 392.788 488.929 391.904C488.624 391.018 488.675 390.15 489.079 389.297C489.5 388.408 490.132 387.812 490.978 387.509C491.823 387.207 492.692 387.268 493.58 387.687C494.444 388.096 495.033 388.741 495.353 389.619C495.67 390.498 495.629 391.361 495.228 392.206ZM102.327 385.123C101.958 384.265 101.951 383.389 102.309 382.505C102.667 381.619 103.275 380.989 104.135 380.621C104.996 380.253 105.859 380.245 106.723 380.601C107.587 380.959 108.207 381.568 108.58 382.436C108.968 383.343 108.995 384.211 108.663 385.046C108.33 385.879 107.712 386.491 106.808 386.879C105.931 387.255 105.057 387.273 104.186 386.928C103.316 386.585 102.697 385.983 102.327 385.123ZM499.964 381.451C499.611 382.317 498.994 382.934 498.11 383.302C497.229 383.668 496.355 383.675 495.487 383.323C494.621 382.97 494.012 382.36 493.657 381.494C493.304 380.626 493.306 379.757 493.664 378.881C494.035 377.97 494.634 377.341 495.462 376.993C496.292 376.645 497.161 376.655 498.072 377.028C498.956 377.389 499.58 378.001 499.946 378.859C500.312 379.719 500.319 380.583 499.964 381.451ZM267.815 382.817C268.731 382.817 269.473 382.076 269.473 381.159C269.473 380.242 268.731 379.501 267.815 379.501C266.899 379.501 266.157 380.242 266.157 381.159C266.157 382.076 266.899 382.817 267.815 382.817ZM329.811 379.501C328.897 379.501 328.153 380.242 328.153 381.159C328.153 382.076 328.897 382.817 329.811 382.817C330.728 382.817 331.469 382.076 331.469 381.159C331.469 380.242 330.728 379.501 329.811 379.501ZM340.328 374.464C338.804 374.464 337.57 375.698 337.57 377.221C337.57 378.745 338.804 379.981 340.328 379.981C341.851 379.981 343.088 378.745 343.088 377.221C343.088 375.698 341.851 374.464 340.328 374.464ZM257.301 379.981C258.824 379.981 260.058 378.745 260.058 377.221C260.058 375.698 258.824 374.464 257.301 374.464C255.777 374.464 254.541 375.698 254.541 377.221C254.541 378.745 255.777 379.981 257.301 379.981ZM97.9729 374.167C97.6522 373.288 97.6936 372.415 98.0994 371.549C98.5047 370.685 99.1473 370.091 100.026 369.769C100.905 369.449 101.767 369.49 102.611 369.893C103.455 370.297 104.039 370.942 104.363 371.831C104.702 372.755 104.681 373.623 104.303 374.438C103.925 375.251 103.274 375.83 102.351 376.165C101.453 376.495 100.58 376.465 99.7298 376.073C98.8805 375.68 98.2942 375.047 97.9729 374.167ZM504.112 370.417C503.808 371.3 503.224 371.95 502.365 372.367C501.502 372.781 500.631 372.836 499.745 372.531C498.862 372.227 498.219 371.65 497.818 370.805C497.42 369.959 497.371 369.091 497.681 368.197C498.001 367.265 498.565 366.605 499.372 366.212C500.18 365.818 501.048 365.783 501.98 366.103C502.881 366.415 503.539 366.991 503.953 367.829C504.364 368.669 504.417 369.53 504.112 370.417ZM264.433 364.252C262.897 364.252 261.65 365.498 261.65 367.037C261.65 368.576 262.897 369.823 264.433 369.823C265.971 369.823 267.218 368.576 267.218 367.037C267.218 365.498 265.971 364.252 264.433 364.252ZM335.979 367.037C335.979 365.498 334.732 364.252 333.193 364.252C331.657 364.252 330.408 365.498 330.408 367.037C330.408 368.576 331.657 369.823 333.193 369.823C334.732 369.823 335.979 368.576 335.979 367.037ZM94.2349 363.002C93.9622 362.106 94.0522 361.24 94.5049 360.397C94.9576 359.554 95.6318 358.999 96.5269 358.726C97.4215 358.453 98.2795 358.541 99.1004 358.991C99.9202 359.44 100.468 360.116 100.744 361.022C101.031 361.964 100.963 362.83 100.54 363.622C100.117 364.414 99.4358 364.955 98.4955 365.239C97.5813 365.518 96.7107 365.44 95.8833 365.003C95.0569 364.564 94.5071 363.899 94.2349 363.002ZM507.644 359.183C507.388 360.082 506.842 360.763 506.007 361.225C505.169 361.687 504.301 361.791 503.402 361.535C502.5 361.279 501.827 360.74 501.38 359.918C500.933 359.097 500.84 358.229 501.099 357.32C501.368 356.373 501.896 355.682 502.681 355.246C503.465 354.809 504.331 354.725 505.275 354.994C506.194 355.256 506.883 355.794 507.342 356.609C507.799 357.424 507.901 358.282 507.644 359.183ZM344.464 357.092C345.49 357.092 346.323 356.261 346.323 355.235C346.323 354.209 345.49 353.379 344.464 353.379C343.441 353.379 342.608 354.209 342.608 355.235C342.608 356.261 343.441 357.092 344.464 357.092ZM253.163 353.379C252.137 353.379 251.306 354.209 251.306 355.235C251.306 356.261 252.137 357.092 253.163 357.092C254.188 357.092 255.018 356.261 255.018 355.235C255.018 354.209 254.188 353.379 253.163 353.379ZM91.1171 351.658C90.894 350.749 91.0315 349.888 91.5311 349.073C92.028 348.256 92.7316 347.738 93.6415 347.514C94.5502 347.291 95.4022 347.425 96.1964 347.92C96.9911 348.413 97.5011 349.119 97.7264 350.038C97.9615 350.993 97.8447 351.854 97.3795 352.623C96.9136 353.39 96.204 353.893 95.2484 354.126C94.3205 354.355 93.4565 354.227 92.6547 353.745C91.8524 353.263 91.3407 352.569 91.1171 351.658ZM510.551 347.773C510.346 348.687 509.838 349.398 509.028 349.904C508.218 350.414 507.355 350.564 506.443 350.358C505.532 350.152 504.829 349.649 504.338 348.855C503.846 348.058 503.706 347.199 503.914 346.275C504.13 345.315 504.617 344.597 505.377 344.117C506.136 343.637 506.997 343.505 507.957 343.723C508.888 343.934 509.605 344.432 510.107 345.221C510.61 346.011 510.757 346.862 510.551 347.773ZM88.6293 340.159C88.4564 339.239 88.6407 338.384 89.1835 337.597C89.7262 336.809 90.456 336.332 91.3762 336.159C92.2958 335.984 93.1402 336.17 93.906 336.705C94.6718 337.241 95.1431 337.972 95.3171 338.902C95.4982 339.869 95.3351 340.722 94.8284 341.466C94.3216 342.205 93.5842 342.667 92.6176 342.85C91.6789 343.025 90.8231 342.85 90.0485 342.327C89.2751 341.801 88.8016 341.078 88.6293 340.159ZM512.827 336.218C512.672 337.139 512.204 337.879 511.425 338.429C510.643 338.98 509.79 339.176 508.868 339.021C507.946 338.866 507.215 338.404 506.682 337.635C506.149 336.868 505.961 336.017 506.118 335.085C506.283 334.115 506.73 333.369 507.461 332.848C508.193 332.328 509.043 332.15 510.013 332.315C510.955 332.475 511.699 332.932 512.242 333.694C512.788 334.453 512.984 335.296 512.827 336.218ZM86.7715 328.522C86.6498 327.595 86.8811 326.752 87.4653 325.996C88.05 325.241 88.8055 324.802 89.7338 324.681C90.6616 324.559 91.494 324.787 92.2293 325.364C92.9656 325.942 93.3949 326.699 93.5176 327.636C93.6469 328.611 93.4375 329.454 92.8904 330.167C92.3438 330.881 91.5818 331.3 90.6071 331.429C89.6607 331.553 88.8153 331.333 88.0707 330.766C87.3267 330.198 86.8931 329.451 86.7715 328.522ZM514.467 324.559C514.363 325.488 513.933 326.249 513.184 326.841C512.435 327.435 511.595 327.679 510.665 327.575C509.737 327.469 508.982 327.047 508.408 326.311C507.832 325.571 507.598 324.734 507.705 323.794C507.814 322.817 508.223 322.047 508.924 321.489C509.627 320.928 510.465 320.704 511.443 320.813C512.392 320.923 513.159 321.339 513.746 322.068C514.33 322.797 514.573 323.627 514.467 324.559ZM85.5546 316.82C85.4826 315.888 85.7602 315.057 86.3853 314.334C87.0093 313.61 87.7882 313.214 88.722 313.143C89.6553 313.072 90.4729 313.346 91.1765 313.963C91.8802 314.58 92.2675 315.357 92.3395 316.301C92.4142 317.282 92.1595 318.112 91.5753 318.795C90.9905 319.475 90.2073 319.856 89.2271 319.93C88.2736 320.001 87.4418 319.735 86.73 319.127C86.0182 318.523 85.6265 317.754 85.5546 316.82ZM515.467 312.836C515.414 313.77 515.028 314.555 514.312 315.187C513.596 315.819 512.77 316.109 511.836 316.053C510.902 315.999 510.128 315.621 509.513 314.915C508.899 314.21 508.619 313.384 508.672 312.442C508.731 311.457 509.094 310.67 509.767 310.073C510.437 309.474 511.265 309.205 512.245 309.261C513.2 309.319 513.989 309.693 514.611 310.391C515.236 311.086 515.521 311.901 515.467 312.836ZM84.9742 305.072C84.9524 304.135 85.2742 303.322 85.9364 302.634C86.5991 301.946 87.3987 301.593 88.3347 301.57C89.2702 301.55 90.072 301.867 90.7407 302.519C91.4105 303.175 91.7553 303.975 91.7766 304.919C91.7989 305.902 91.4995 306.719 90.8782 307.367C90.2575 308.017 89.4556 308.352 88.4716 308.372C87.5171 308.395 86.7016 308.085 86.0225 307.438C85.344 306.795 84.9938 306.006 84.9742 305.072ZM515.833 301.09C515.817 302.027 515.464 302.827 514.777 303.49C514.088 304.152 513.276 304.475 512.339 304.46C511.402 304.444 510.613 304.096 509.97 303.418C509.327 302.738 509.013 301.928 509.028 300.983C509.043 299.996 509.373 299.193 510.021 298.569C510.665 297.944 511.481 297.64 512.463 297.655C513.418 297.673 514.223 298.013 514.875 298.683C515.528 299.354 515.848 300.156 515.833 301.09ZM501.949 96.7211L461.748 147.212C496.912 184.419 519.38 233.772 522.198 288.319L586.538 299.544C586.413 220.265 554.095 148.54 501.949 96.7211ZM98.3989 96.378C46.0436 148.224 13.5832 220.094 13.4601 299.544L77.8015 288.319C80.6324 233.607 103.225 184.124 138.589 146.857L98.3989 96.378ZM85.0255 293.288C85.0544 292.351 85.4193 291.559 86.1175 290.906C86.8167 290.253 87.6338 289.943 88.5698 289.972C89.5047 290.002 90.2891 290.36 90.9218 291.051C91.5556 291.739 91.8567 292.556 91.8273 293.501C91.7962 294.484 91.4536 295.283 90.7985 295.898C90.144 296.512 89.3253 296.804 88.3413 296.774C87.3878 296.743 86.5882 296.388 85.9462 295.71C85.3025 295.029 84.996 294.222 85.0255 293.288ZM515.566 289.299C515.614 290.23 515.315 291.053 514.67 291.759C514.028 292.465 513.238 292.841 512.301 292.887C511.366 292.935 510.556 292.637 509.869 292.003C509.183 291.368 508.817 290.578 508.772 289.634C508.721 288.651 508.997 287.826 509.602 287.161C510.203 286.496 510.998 286.138 511.978 286.089C512.933 286.041 513.758 286.331 514.454 286.958C515.15 287.582 515.521 288.362 515.566 289.299ZM85.71 281.545C85.7896 280.613 86.1965 279.841 86.9291 279.226C87.6622 278.614 88.4945 278.348 89.4278 278.427C90.3605 278.508 91.1236 278.907 91.7182 279.63C92.3138 280.351 92.5696 281.184 92.4895 282.126C92.406 283.106 92.0209 283.883 91.3342 284.462C90.6464 285.043 89.8129 285.29 88.8333 285.206C87.8809 285.124 87.1036 284.726 86.4982 284.013C85.8922 283.299 85.6298 282.476 85.71 281.545ZM374.11 260.989C374.11 260.989 374.417 271.188 368.857 273.661C363.299 276.131 354.836 277.985 354.836 277.985C354.836 277.985 347.369 276.751 345.142 281.999C342.915 287.25 346.937 281.695 352.802 280.458C358.665 279.219 376.888 285.688 374.11 260.989ZM244.302 280.458C250.166 281.695 254.188 287.25 251.961 281.999C249.735 276.751 242.265 277.985 242.265 277.985C242.265 277.985 233.804 276.131 228.248 273.661C222.685 271.188 222.994 260.989 222.994 260.989C220.216 285.688 238.438 279.219 244.302 280.458ZM514.667 277.568C514.764 278.5 514.51 279.335 513.905 280.075C513.299 280.816 512.532 281.235 511.6 281.331C510.668 281.428 509.843 281.179 509.125 280.58C508.403 279.983 507.997 279.214 507.898 278.274C507.796 277.294 508.028 276.457 508.594 275.761C509.16 275.062 509.932 274.664 510.912 274.562C511.862 274.463 512.699 274.707 513.428 275.294C514.157 275.88 514.571 276.639 514.667 277.568ZM87.0344 269.829C87.1658 268.903 87.6136 268.154 88.3795 267.583C89.1442 267.008 89.9907 266.79 90.9174 266.92C91.8442 267.049 92.5849 267.494 93.1391 268.245C93.6933 268.999 93.9049 269.842 93.7729 270.779C93.636 271.754 93.2089 272.511 92.4905 273.051C91.7733 273.592 90.9278 273.793 89.9536 273.656C89.0078 273.521 88.2524 273.082 87.6873 272.338C87.1216 271.594 86.9045 270.756 87.0344 269.829ZM280.815 254.222C280.208 257.007 280.569 259.963 280.15 262.814C279.665 266.097 278.53 269.228 277.677 272.419C277.611 272.668 277.966 272.825 278.096 272.594C280.764 267.806 283.697 259.683 281.83 254.222C281.673 253.757 280.934 253.678 280.815 254.222ZM513.129 265.897C513.276 266.821 513.068 267.671 512.504 268.441C511.94 269.215 511.196 269.672 510.272 269.822C509.348 269.969 508.51 269.763 507.759 269.207C507.007 268.649 506.558 267.905 506.41 266.971C506.253 265.998 506.441 265.15 506.966 264.421C507.494 263.695 508.244 263.253 509.216 263.098C510.158 262.948 511.009 263.146 511.768 263.692C512.527 264.238 512.981 264.972 513.129 265.897ZM323.613 250.748C323.456 250.209 322.864 250.132 322.463 250.445C318.104 253.871 321.843 263.786 323.69 267.722C323.801 267.963 324.241 267.854 324.205 267.583C323.839 264.866 323.354 262.187 323.21 259.439C323.057 256.583 324.421 253.465 323.613 250.748ZM246.826 260.349C246.823 260.349 246.82 260.349 246.817 260.349C246.765 260.47 246.704 260.575 246.622 260.645C246.407 260.823 246.166 260.9 245.914 260.902H245.89C245.11 260.9 244.243 260.222 243.795 259.858C241.977 258.378 241.859 257.075 241.859 254.783L245.314 253.714C245.16 253.712 245.004 253.709 244.848 253.709H244.534C241.439 253.719 238.027 254.031 234.749 254.43C234.579 256.159 234.607 258.259 235.348 259.947C236.196 261.88 237.6 263.956 239.357 265.541C240.407 265.721 242.312 266.046 245.788 266.641C246.995 266.848 248.074 266.95 249.032 266.953H249.104C254.228 266.935 255.929 264.022 255.67 258.838C255.5 255.446 251.983 254.105 247.213 253.787L247.1 253.78C247.735 255.73 249.664 259.927 246.889 260.346L246.826 260.349ZM349.89 253.787C345.119 254.105 341.602 255.446 341.432 258.838C341.171 264.048 342.89 266.963 348.069 266.953H348.143C349.085 266.945 350.139 266.843 351.314 266.641C354.79 266.046 356.695 265.721 357.746 265.541C359.503 263.956 360.907 261.88 361.755 259.947C362.497 258.259 362.524 256.159 362.354 254.43C359.077 254.031 355.664 253.719 352.569 253.709H352.256C352.099 253.709 351.944 253.712 351.789 253.714L355.243 254.783C355.243 257.075 355.125 258.378 353.307 259.858C352.866 260.219 352.01 260.884 351.238 260.902H351.213C350.954 260.902 350.702 260.828 350.482 260.645C350.398 260.575 350.339 260.47 350.286 260.349L350.212 260.346C347.483 259.932 349.309 255.86 349.971 253.874L350.004 253.78L349.89 253.787ZM88.9942 258.229C89.1753 257.312 89.6624 256.588 90.4582 256.058C91.2545 255.53 92.1109 255.354 93.03 255.535C93.9485 255.717 94.6636 256.199 95.1758 256.982C95.6875 257.764 95.8527 258.62 95.6695 259.546C95.4791 260.511 95.0116 261.245 94.2644 261.745C93.5187 262.245 92.6629 262.4 91.698 262.21C90.762 262.024 90.0305 261.544 89.5069 260.77C88.9833 259.993 88.812 259.148 88.9942 258.229ZM510.953 254.329C511.151 255.243 510.991 256.101 510.47 256.9C509.947 257.703 509.231 258.203 508.317 258.401C507.4 258.599 506.553 258.442 505.773 257.926C504.993 257.411 504.501 256.69 504.303 255.768C504.092 254.806 504.232 253.948 504.719 253.191C505.204 252.437 505.93 251.955 506.893 251.747C507.825 251.545 508.685 251.696 509.473 252.2C510.262 252.704 510.754 253.412 510.953 254.329ZM91.5884 246.745C91.8186 245.839 92.3465 245.144 93.1696 244.658C93.9938 244.173 94.8595 244.046 95.766 244.278C96.6725 244.51 97.3604 245.03 97.8289 245.84C98.2975 246.649 98.4147 247.511 98.1813 248.428C97.938 249.382 97.4302 250.087 96.6578 250.545C95.8855 251.003 95.022 251.111 94.0691 250.868C93.1445 250.632 92.4409 250.113 91.9604 249.309C91.4815 248.507 91.3566 247.653 91.5884 246.745ZM508.147 242.902C508.396 243.804 508.282 244.67 507.807 245.499C507.332 246.327 506.641 246.867 505.74 247.114C504.836 247.362 503.983 247.251 503.173 246.779C502.365 246.308 501.837 245.616 501.586 244.706C501.325 243.757 501.418 242.891 501.863 242.111C502.305 241.33 503 240.81 503.953 240.549C504.872 240.296 505.74 240.398 506.553 240.859C507.368 241.318 507.901 241.999 508.147 242.902ZM333.404 192.422C333.404 192.422 332.025 192.71 327.229 195.05C322.432 197.389 314.511 197.725 311.72 199.063C308.932 200.402 306.589 202.41 306.589 202.41C306.589 202.41 307.259 197.389 311.944 194.154C316.631 190.919 321.762 188.241 323.771 185.676C325.779 183.109 325.444 181.771 325.444 181.771C325.444 181.771 323.882 184.225 319.977 185.117C316.859 185.83 314.328 185.629 312.743 186.026C314.33 184.994 317.012 182.752 317.974 179.73C319.205 175.872 317.651 170.68 316.946 168.675C317.26 169.853 317.433 172.12 315.333 174.596C312.279 178.201 311.499 178.424 311.499 178.424C311.499 178.424 312.726 175.299 311.053 172.4C309.379 169.499 307.483 167.713 306.7 165.705C305.921 163.697 305.586 165.482 305.027 168.606C304.522 171.443 305.116 171.703 305.23 171.727C305.027 171.694 302.148 171.188 300.769 168.606C299.337 165.928 299.225 166.375 299.225 166.375C299.225 166.375 299.002 166.932 299.225 170.056C299.449 173.18 300.376 174.596 300.376 174.596C300.376 174.596 296.994 175.969 294.988 173.18L292.979 170.391C292.979 170.391 292.081 170.656 292.865 174.596C293.65 178.535 295.991 182.105 295.991 182.105C295.991 182.105 290.413 182.998 286.954 179.093C283.496 175.188 272.228 177.977 272.228 177.977C272.228 177.977 284.164 179.985 287.513 189.022C290.859 198.059 290.301 197.278 290.301 197.278C290.301 197.278 289.63 195.604 285.728 193.15C282.44 191.083 279.474 191.783 278.619 191.856C280.055 192.361 287.729 196.778 290.859 206.872C294.317 218.029 294.094 219.814 294.094 219.814L288.851 215.24C288.851 215.24 290.859 217.024 295.544 226.396C300.231 235.768 301.013 241.457 301.013 241.457L302.547 232.463C302.547 232.463 306.033 211.781 314.399 205.979C322.765 200.179 330.209 198.052 333.404 192.422ZM94.8093 235.423C95.0896 234.53 95.6547 233.865 96.5045 233.426C97.3527 232.987 98.2244 232.907 99.1167 233.189C100.009 233.47 100.667 234.027 101.092 234.861C101.515 235.695 101.585 236.564 101.3 237.465C101.006 238.403 100.46 239.08 99.6633 239.495C98.8669 239.911 97.9991 239.971 97.0609 239.675C96.15 239.388 95.4769 238.832 95.0411 238.003C94.6053 237.176 94.5289 236.315 94.8093 235.423ZM257.27 237.691L265.248 236.387L269.483 237.691C269.483 237.691 269.547 237.496 269.636 237.168C269.996 235.826 270.778 232.237 269.483 230.294C267.871 227.873 268.513 228.883 268.513 228.883L267.508 232.463L263.364 230.911L260.162 229.542L259.352 231.543C259.352 231.543 258.068 230.911 254.655 231.438C251.242 231.965 244.338 235.507 244.338 235.507L253.769 234.807L257.27 237.691ZM329.692 237.691L333.927 236.387L341.905 237.691L345.404 234.807L354.836 235.507C354.836 235.507 347.932 231.965 344.52 231.438C341.108 230.911 339.823 231.543 339.823 231.543L339.013 229.542L335.811 230.911L331.667 232.463L330.662 228.883C330.662 228.883 331.304 227.873 329.692 230.294C328.397 232.237 329.179 235.826 329.54 237.168C329.629 237.496 329.692 237.691 329.692 237.691ZM504.717 231.646C505.014 232.534 504.948 233.404 504.519 234.258C504.089 235.112 503.432 235.688 502.543 235.985C501.657 236.282 500.797 236.218 499.964 235.791C499.131 235.366 498.565 234.705 498.265 233.807C497.953 232.875 497.996 232.006 498.397 231.202C498.796 230.399 499.463 229.84 500.398 229.528C501.302 229.225 502.175 229.281 503.013 229.694C503.851 230.108 504.419 230.759 504.717 231.646ZM98.6454 224.305C98.976 223.429 99.5765 222.795 100.447 222.404C101.32 222.013 102.194 221.982 103.07 222.311C103.946 222.641 104.572 223.233 104.949 224.089C105.326 224.945 105.347 225.816 105.015 226.701C104.668 227.622 104.086 228.268 103.268 228.639C102.45 229.01 101.581 229.022 100.66 228.676C99.7658 228.339 99.1249 227.746 98.7355 226.895C98.346 226.045 98.3165 225.181 98.6454 224.305ZM500.669 220.583C501.015 221.453 500.997 222.326 500.614 223.202C500.233 224.079 499.608 224.689 498.737 225.035C497.869 225.381 497.006 225.363 496.15 224.984C495.297 224.605 494.695 223.975 494.345 223.096C493.982 222.183 493.979 221.312 494.335 220.488C494.69 219.663 495.322 219.069 496.239 218.705C497.125 218.354 497.998 218.361 498.859 218.728C499.72 219.095 500.321 219.714 500.669 220.583ZM103.094 213.398C103.472 212.541 104.107 211.941 104.998 211.598C105.89 211.256 106.764 211.273 107.621 211.651C108.478 212.027 109.071 212.654 109.401 213.529C109.73 214.405 109.703 215.275 109.322 216.14C108.926 217.04 108.309 217.653 107.472 217.979C106.634 218.305 105.765 218.267 104.865 217.872C103.991 217.487 103.383 216.859 103.041 215.989C102.7 215.118 102.717 214.254 103.094 213.398ZM496.018 209.759C496.412 210.608 496.439 211.481 496.107 212.377C495.774 213.272 495.183 213.917 494.335 214.31C493.484 214.702 492.623 214.733 491.747 214.401C490.874 214.069 490.239 213.474 489.841 212.616C489.429 211.722 489.376 210.855 489.686 210.011C489.995 209.168 490.597 208.541 491.491 208.127C492.357 207.727 493.23 207.686 494.109 208.005C494.987 208.324 495.625 208.909 496.018 209.759ZM406.955 165.671L406.958 159.311C406.958 159.311 401.512 161.966 398.889 171.33C396.266 180.694 396.548 185.195 396.548 185.195C396.548 185.195 404.703 164.464 421.586 162.38C438.47 160.295 446.91 168.877 449.584 172.816C452.257 176.755 459.854 189.135 453.1 199.405C446.347 209.674 440.431 206.601 440.431 206.601C440.431 206.601 443.675 212.828 449.723 212.025C455.774 211.222 457.18 209.533 457.18 209.533C457.18 209.533 454.413 210.518 451.648 208.97C451.191 208.715 450.815 208.506 450.497 208.328C451.696 208.663 453.514 208.569 455.822 206.601C460.136 202.921 463.767 201.373 463.767 201.373C463.767 201.373 460.555 201.936 457.884 201.373L455.21 200.812C455.21 200.812 454.078 201.195 458.958 193.94C463.838 186.686 459.712 172.816 459.712 172.816L456.195 174.645C456.195 174.645 452.536 167.389 452.397 165.671C452.257 163.953 451.648 163.39 451.648 163.39L447.755 164.094C447.755 164.094 443.609 162.918 441.329 156.875C439.047 150.832 438.47 149.92 438.47 149.92C438.47 149.92 437.485 151.714 433.405 152.136C429.325 152.558 425.072 152.776 425.072 152.776L427.027 148.76C427.027 148.76 424.401 147.48 416.665 154.732C408.928 161.983 406.955 165.671 406.955 165.671ZM108.131 202.76C108.554 201.926 109.222 201.362 110.131 201.069C111.04 200.775 111.912 200.84 112.747 201.265C113.582 201.688 114.139 202.346 114.419 203.237C114.7 204.13 114.627 204.998 114.199 205.841C113.753 206.718 113.104 207.296 112.25 207.574C111.396 207.853 110.53 207.771 109.654 207.325C108.802 206.893 108.23 206.233 107.936 205.345C107.642 204.456 107.708 203.595 108.131 202.76ZM151.254 195.05L148.927 202.838L165.409 207.295C165.409 207.295 152.193 197.221 156.75 179.762C161.306 162.303 180.758 155.715 190.9 162.104C201.041 168.494 208.789 180.73 208.789 180.73C208.789 180.73 212.781 174.145 207.71 164.331C202.639 154.516 200.617 154.735 200.617 154.735L200.143 161.296C200.213 159.768 200.067 153.468 193.254 150.323C185.467 146.729 181.99 148.659 181.99 148.659L184.868 154.118C184.868 154.118 178.678 152.677 170.69 156.591C162.704 160.506 155.794 161.705 155.794 161.705L156.713 167.745C156.713 167.745 153.77 168.008 149.325 173.848C144.881 179.687 144.533 189.26 144.533 189.26L149.325 183.869C149.325 183.869 153.583 187.262 151.254 195.05ZM172.533 197.331C168.041 202.699 168.736 205.359 168.736 205.359C168.736 205.359 178.054 198.362 192.643 197.867C207.232 197.372 208.026 189.981 208.026 189.981C208.026 189.981 199.749 187.73 194.887 184.164C190.023 180.597 189.065 173.848 189.065 173.848V177.788C189.065 180.316 189.967 182.195 190.571 183.178C190.023 182.51 188.913 181.327 186.657 179.301C182.442 175.519 179.74 177.031 174.885 176.373C170.03 175.714 167.42 174.978 167.42 174.978C167.42 174.978 167.637 175.519 169.474 177.68C171.311 179.841 172.824 179.949 176.24 179.762C179.655 179.575 180.531 183.813 180.531 183.813C180.531 183.813 174.54 182.329 167.865 183.812C161.189 185.296 158.47 183.812 158.47 183.812C158.47 183.812 162.675 190.486 170.705 190.058C178.735 189.628 181.997 191.72 181.997 191.72C181.997 191.72 177.025 191.962 172.533 197.331ZM490.78 199.213C491.219 200.039 491.298 200.909 491.013 201.822C490.732 202.735 490.175 203.41 489.35 203.85C488.523 204.289 487.664 204.366 486.773 204.082C485.882 203.799 485.214 203.24 484.77 202.405C484.308 201.535 484.209 200.672 484.473 199.813C484.735 198.954 485.303 198.295 486.171 197.833C487.015 197.385 487.883 197.296 488.779 197.567C489.673 197.838 490.341 198.386 490.78 199.213ZM441.641 199.502C440.425 199.274 435.05 198.374 430.447 199.322C425.219 200.398 427.372 198.399 427.372 198.399C427.372 198.399 433.598 193.556 436.904 192.449C440.209 191.344 446.836 192.449 446.836 192.449C446.836 192.449 439.364 190.019 436.134 190.097C432.907 190.173 432.369 190.558 428.524 191.942C424.681 193.325 424.912 190.789 424.912 190.789C424.912 190.789 426.448 190.481 429.525 188.559C432.6 186.637 434.443 184.638 438.595 180.64C442.748 176.643 448.283 178.946 448.283 178.946C448.283 178.946 445.744 177.027 441.517 176.797C437.289 176.566 433.753 177.796 429.525 180.794C425.295 183.793 422.373 183.562 422.373 183.562C422.373 183.562 422.682 179.025 424.449 175.105C426.219 171.184 430.894 169.473 430.894 169.473C430.894 169.473 426.824 169.949 420.631 175.655C414.435 181.36 417.043 185.435 411.338 192.119C405.633 198.802 397.645 195.706 397.645 195.706C397.645 195.706 403.076 198.861 403.538 198.938C404 199.014 403.924 199.322 413.072 201.706C422.22 204.089 431.6 203.858 434.905 201.244C437.701 199.034 440.761 199.351 441.641 199.502ZM113.743 192.418C114.211 191.607 114.907 191.081 115.832 190.838C116.756 190.595 117.623 190.707 118.433 191.176C119.242 191.644 119.764 192.332 119.995 193.239C120.226 194.145 120.106 195.008 119.633 195.825C119.14 196.677 118.46 197.219 117.591 197.451C116.724 197.682 115.864 197.551 115.013 197.059C114.187 196.581 113.65 195.89 113.406 194.988C113.162 194.085 113.274 193.228 113.743 192.418ZM484.985 188.987C485.471 189.788 485.595 190.652 485.361 191.579C485.131 192.506 484.612 193.211 483.81 193.695C483.01 194.179 482.155 194.303 481.251 194.068C480.344 193.833 479.649 193.312 479.158 192.501C478.651 191.659 478.506 190.802 478.722 189.931C478.937 189.059 479.466 188.369 480.309 187.861C481.126 187.367 481.99 187.231 482.899 187.453C483.808 187.674 484.503 188.185 484.985 188.987ZM119.912 182.392C120.425 181.609 121.149 181.121 122.085 180.929C123.022 180.736 123.881 180.896 124.664 181.408C125.447 181.92 125.93 182.635 126.112 183.553C126.293 184.471 126.126 185.325 125.607 186.117C125.07 186.94 124.361 187.443 123.482 187.628C122.603 187.811 121.751 187.634 120.928 187.095C120.129 186.573 119.632 185.854 119.437 184.939C119.242 184.024 119.4 183.176 119.912 182.392ZM478.613 179.052C479.141 179.825 479.311 180.681 479.133 181.619C478.951 182.558 478.473 183.29 477.699 183.816C476.924 184.344 476.079 184.514 475.162 184.329C474.245 184.145 473.522 183.661 472.989 182.879C472.435 182.067 472.242 181.219 472.409 180.336C472.577 179.454 473.067 178.737 473.882 178.182C474.672 177.645 475.525 177.463 476.444 177.634C477.363 177.805 478.087 178.277 478.613 179.052ZM207.117 146.311L205.646 151.78C205.646 151.78 211.397 151.065 217.988 155.879C222.836 159.419 226.533 167.473 228.149 171.483C227.776 170.392 227.272 168.837 226.612 166.638C224.829 160.695 226.493 160.575 225.614 151.78C224.734 142.985 222.333 141.912 222.333 141.912C222.333 141.912 227.683 143.576 230.655 145.953C233.626 148.331 236.302 156.591 236.302 156.591C236.302 156.591 238.144 148.094 236.627 142.605C235.111 137.116 233.983 136.682 233.983 136.682C233.983 136.682 236.48 137.632 239.967 139.67C243.453 141.709 245.008 149.29 245.008 149.29C245.008 149.29 246.703 141.555 245.802 137.672C244.901 133.788 243.493 131.331 243.493 131.331L247.178 134.066C250.863 136.8 252.765 150.352 252.765 150.352C252.765 150.352 253.954 145.003 255.498 139.415C257.044 133.828 263.344 130.334 263.344 130.334L260.018 141.199C260.018 141.199 265.604 138.227 268.348 132.878C271.093 127.53 272.083 125.619 272.083 125.619C272.083 125.619 272.855 125.864 273.926 131.926C274.993 137.989 271.072 147.261 271.072 147.261C271.072 147.261 275.115 143.338 275.874 140.009C276.635 136.682 277.016 133.59 277.016 133.59C277.016 133.59 277.491 133.71 279.434 138.94C281.373 144.171 277.491 153.206 277.491 153.206C277.491 153.206 281.414 149.519 283.555 146.191C285.695 142.863 287.257 135.374 287.257 135.374C287.257 135.374 287.597 135.849 290.092 142.605C292.588 149.36 299.485 151.66 299.485 151.66C299.485 151.66 300.079 149.639 299.604 144.289C299.157 139.266 302.686 135.307 303.118 134.844C303.067 135.12 303.128 136.671 304.477 144.765C306.259 155.464 311.253 160.1 311.253 160.1C311.253 160.1 311.489 150.471 311.253 145.36C311.014 140.248 315.77 138.227 317.791 134.185C319.812 130.143 318.86 126.815 318.86 126.815C318.86 126.815 321.714 135.374 323.021 141.555C324.329 147.737 319.099 153.562 319.099 153.562C319.099 153.562 324.448 148.45 327.064 146.073C329.677 143.696 330.987 139.534 330.154 132.759C329.321 125.983 333.124 122.893 333.124 122.893C333.124 122.893 333.124 122.298 333.81 125.158C334.496 128.02 340.14 139.297 340.14 139.297C340.14 139.297 340.376 140.605 340.496 132.52C340.615 124.437 345.964 124.675 345.964 124.675L345.472 131.273C344.982 137.871 351.076 148.672 351.076 148.672C351.076 148.672 351.314 146.548 352.145 138.821C352.977 131.095 360.399 129.91 360.399 129.91C360.399 129.91 359.754 130.856 359.277 140.366C358.802 149.877 362.014 158.792 362.014 158.792C362.014 158.792 366.531 148.688 369.857 144.052C373.186 139.415 378.581 140.129 378.581 140.129C378.581 140.129 376.992 141.317 374.295 144.648C371.599 147.978 369.976 159.031 369.976 159.031C369.976 159.031 371.167 156.652 377.467 154.275C383.766 151.898 389.829 152.776 389.829 152.776C389.829 152.776 387.214 155.344 386.62 163.785C386.026 172.225 391.97 181.141 391.97 181.141C391.97 181.141 392.325 171.987 393.582 164.855C394.839 157.723 401.372 154.732 401.372 154.732C401.372 154.732 410.599 149.606 412.005 146.628C413.412 143.65 411.841 141.748 412.419 138.853C412.999 135.957 414.819 136.06 414.819 136.06C414.819 136.06 407.265 133.354 403.39 138.935C399.516 144.517 390.5 142.327 390.5 142.327C390.5 142.327 392.896 141.252 394.882 139.515C396.868 137.777 397.198 132.566 397.645 130.498C398.091 128.429 400.176 128.509 400.176 128.509C400.176 128.509 392.566 126.527 388.859 129.91C385.155 133.293 382.393 131.904 382.393 131.904C382.393 131.904 384.873 131.408 386.115 126.113C387.356 120.82 382.144 117.015 382.144 117.015C382.144 117.015 381.316 120.158 377.18 123.467C373.046 126.775 368.413 126.692 368.413 126.692C368.413 126.692 369.819 120.737 369.735 117.924C369.654 115.112 372.201 113.788 372.201 113.788L369.157 113.706C369.157 113.706 365.249 113.637 361.321 115.599C357.393 117.56 356.253 120.82 356.253 120.82L356.471 119.202C356.692 117.585 356.004 115.442 355.839 113.706C355.674 111.969 358.817 110.132 358.817 110.132C358.817 110.132 352.861 107.254 348.23 109.735C343.595 112.217 341.364 117.842 341.364 117.842C341.364 117.842 341.61 118.586 340.866 116.767C340.122 114.946 337.474 112.63 336.73 110.132C335.986 107.633 338.385 106.28 338.385 106.28C338.385 106.28 336.4 105.931 332.762 107.393C329.12 108.858 327.053 115.691 327.053 115.691C327.053 115.691 323.512 111.359 323.303 108.187C323.095 105.016 325.274 104.808 325.274 104.808C325.274 104.808 319.779 105.038 315.531 108.895C311.284 112.752 307.551 117.784 307.551 117.784C307.551 117.784 308.691 113.327 305.037 108.187C301.381 103.047 295.419 104.173 295.419 104.173C295.419 104.173 297.395 106.177 297.395 110.011C297.395 113.846 288.069 119.649 288.069 119.649C288.069 119.649 290.555 112.291 286.203 108.187C281.851 104.084 278.74 106.177 278.74 106.177C278.74 106.177 280.503 107.938 281.229 112.572C281.955 117.207 278.223 118.406 278.223 118.406C278.223 118.406 278.949 112.394 276.237 109.568C273.525 106.739 268.897 107.938 268.897 107.938C268.897 107.938 270.763 108.975 272.083 113.035C273.401 117.096 268.069 119.441 268.069 119.441C268.069 119.441 267.343 115.504 263.404 112.572C259.467 109.642 255.529 111.047 255.529 111.047C255.529 111.047 258.74 113.947 260.294 118.611C261.848 123.274 256.669 127.729 256.669 127.729C256.669 127.729 257.29 119.021 253.186 115.739C249.083 112.458 243.61 113.833 243.61 113.833C243.61 113.833 246.926 114.857 248.688 118.795C250.45 122.734 248.688 125.004 248.688 125.004C248.688 125.004 245.061 120.38 240.293 118.618C235.526 116.857 227.509 120.298 227.509 120.298H228.376C228.376 120.298 230.033 120.958 232.21 122.512C234.386 124.067 234.904 128.147 234.904 128.147C234.904 128.147 228.687 126.593 224.23 125.35C219.773 124.106 218.841 124.107 218.841 124.107C218.841 124.107 219.152 124.833 220.291 127.631C221.431 130.429 225.99 132.884 225.99 132.884C225.99 132.884 225.34 133.501 216.435 131.932C207.528 130.365 207.112 131.943 207.112 131.943L214.061 139.711C214.061 139.711 210.027 140.038 205.107 138.015C200.188 135.993 190.809 138.959 190.809 138.959C190.809 138.959 194.397 139.059 198.439 139.297C202.48 139.534 207.117 146.311 207.117 146.311ZM126.629 172.706C127.184 171.953 127.933 171.505 128.878 171.364C129.823 171.223 130.673 171.429 131.427 171.983C132.182 172.538 132.623 173.278 132.755 174.205C132.886 175.13 132.672 175.975 132.112 176.736C131.53 177.53 130.795 177.993 129.907 178.129C129.019 178.265 128.179 178.041 127.387 177.459C126.616 176.894 126.159 176.148 126.015 175.225C125.871 174.301 126.075 173.461 126.629 172.706ZM471.734 169.516C472.303 170.259 472.521 171.105 472.389 172.052C472.26 172.999 471.823 173.756 471.079 174.323C470.335 174.891 469.5 175.108 468.575 174.974C467.649 174.839 466.9 174.396 466.326 173.645C465.729 172.862 465.491 172.026 465.61 171.136C465.729 170.246 466.179 169.503 466.964 168.905C467.72 168.326 468.563 168.097 469.492 168.218C470.419 168.339 471.166 168.772 471.734 169.516ZM133.851 163.418C134.445 162.694 135.218 162.288 136.17 162.199C137.12 162.109 137.957 162.362 138.681 162.956C139.404 163.551 139.806 164.314 139.887 165.246C139.967 166.178 139.707 167.008 139.108 167.739C138.481 168.499 137.722 168.922 136.829 169.009C135.935 169.097 135.109 168.828 134.349 168.204C133.611 167.596 133.195 166.828 133.101 165.898C133.006 164.967 133.256 164.14 133.851 163.418ZM464.333 160.347C464.94 161.06 465.206 161.892 465.125 162.844C465.049 163.797 464.653 164.576 463.94 165.184C463.228 165.791 462.406 166.053 461.474 165.969C460.542 165.886 459.77 165.484 459.158 164.764C458.518 164.017 458.237 163.195 458.305 162.299C458.377 161.403 458.785 160.637 459.534 159.998C460.263 159.379 461.091 159.105 462.025 159.174C462.957 159.244 463.726 159.637 464.333 160.347ZM141.573 154.528C142.205 153.838 142.999 153.474 143.954 153.437C144.909 153.399 145.731 153.697 146.42 154.329C147.111 154.963 147.471 155.746 147.5 156.681C147.53 157.616 147.226 158.432 146.586 159.129C145.922 159.854 145.14 160.234 144.243 160.274C143.345 160.312 142.534 159.998 141.809 159.333C141.106 158.687 140.733 157.897 140.688 156.963C140.645 156.029 140.94 155.218 141.573 154.528ZM456.465 151.619C457.109 152.296 457.419 153.113 457.391 154.069C457.363 155.025 457.01 155.825 456.335 156.469C455.655 157.115 454.85 157.421 453.915 157.388C452.981 157.355 452.186 156.995 451.536 156.31C450.856 155.597 450.528 154.792 450.551 153.894C450.574 152.997 450.939 152.209 451.653 151.531C452.346 150.872 453.159 150.553 454.093 150.572C455.027 150.592 455.819 150.941 456.465 151.619ZM149.761 146.074C150.431 145.42 151.242 145.1 152.199 145.113C153.154 145.128 153.959 145.47 154.613 146.139C155.268 146.809 155.584 147.611 155.563 148.546C155.542 149.48 155.194 150.279 154.517 150.94C153.814 151.628 153.013 151.966 152.116 151.956C151.218 151.946 150.424 151.589 149.737 150.885C149.069 150.203 148.739 149.394 148.747 148.459C148.754 147.523 149.091 146.728 149.761 146.074ZM448.108 143.304C448.789 143.945 449.142 144.744 449.167 145.7C449.193 146.655 448.883 147.473 448.24 148.154C447.601 148.836 446.811 149.185 445.876 149.202C444.94 149.22 444.13 148.904 443.441 148.257C442.723 147.581 442.355 146.795 442.327 145.897C442.299 145 442.624 144.193 443.3 143.477C443.955 142.781 444.749 142.419 445.684 142.388C446.618 142.357 447.425 142.662 448.108 143.304ZM158.413 138.063C159.117 137.446 159.946 137.171 160.899 137.237C161.852 137.303 162.638 137.687 163.254 138.392C163.871 139.096 164.144 139.915 164.072 140.847C164.001 141.779 163.61 142.557 162.899 143.18C162.158 143.829 161.34 144.123 160.444 144.065C159.548 144.005 158.776 143.606 158.127 142.866C157.498 142.148 157.212 141.322 157.27 140.389C157.329 139.455 157.709 138.68 158.413 138.063ZM439.339 135.48C440.055 136.084 440.451 136.861 440.527 137.815C440.603 138.767 440.339 139.6 439.735 140.315C439.13 141.031 438.363 141.422 437.429 141.49C436.497 141.559 435.669 141.288 434.948 140.678C434.194 140.043 433.78 139.277 433.707 138.382C433.633 137.487 433.912 136.664 434.547 135.913C435.164 135.183 435.936 134.777 436.868 134.696C437.8 134.614 438.625 134.876 439.339 135.48ZM300.132 13.4603L311.355 77.7845C365.315 80.4976 414.207 102.432 451.323 136.88L501.865 96.6393C450.104 45.256 378.833 13.4984 300.132 13.4603ZM167.463 130.555C168.2 129.977 169.042 129.748 169.99 129.865C170.939 129.983 171.702 130.41 172.28 131.146C172.857 131.883 173.084 132.714 172.963 133.642C172.84 134.569 172.407 135.325 171.664 135.908C170.89 136.516 170.056 136.765 169.165 136.658C168.274 136.55 167.524 136.109 166.917 135.336C166.328 134.585 166.087 133.743 166.195 132.815C166.304 131.887 166.727 131.133 167.463 130.555ZM300.132 13.4603H300C221.397 13.4603 150.186 45.1103 98.4115 96.3655L148.964 136.614C186.113 102.26 234.988 80.4185 288.909 77.7715L300.132 13.4603ZM430.135 128.123C430.881 128.688 431.318 129.443 431.447 130.39C431.574 131.337 431.356 132.184 430.792 132.93C430.228 133.677 429.482 134.111 428.555 134.229C427.628 134.348 426.785 134.122 426.031 133.552C425.247 132.96 424.792 132.218 424.668 131.329C424.544 130.438 424.779 129.602 425.374 128.817C425.948 128.055 426.699 127.607 427.626 127.475C428.55 127.343 429.388 127.559 430.135 128.123ZM176.92 123.541C177.687 123.004 178.54 122.821 179.48 122.989C180.421 123.159 181.16 123.626 181.696 124.394C182.233 125.161 182.416 126.003 182.243 126.922C182.071 127.841 181.597 128.572 180.823 129.115C180.016 129.679 179.171 129.883 178.286 129.728C177.402 129.571 176.678 129.089 176.114 128.284C175.567 127.502 175.372 126.65 175.531 125.729C175.69 124.807 176.152 124.077 176.92 123.541ZM420.56 121.292C421.336 121.814 421.814 122.545 421.994 123.484C422.174 124.422 422.002 125.279 421.479 126.056C420.956 126.832 420.235 127.305 419.315 127.474C418.394 127.643 417.543 127.463 416.758 126.936C415.943 126.387 415.449 125.671 415.276 124.789C415.106 123.908 415.294 123.059 415.842 122.243C416.375 121.451 417.101 120.964 418.018 120.781C418.937 120.598 419.783 120.769 420.56 121.292ZM186.729 117.062C187.523 116.568 188.385 116.432 189.315 116.651C190.245 116.871 190.957 117.379 191.451 118.174C191.947 118.969 192.082 119.82 191.86 120.729C191.637 121.637 191.126 122.341 190.323 122.84C189.487 123.36 188.632 123.518 187.757 123.314C186.882 123.11 186.185 122.59 185.667 121.755C185.161 120.944 185.014 120.082 185.223 119.17C185.432 118.259 185.933 117.556 186.729 117.062ZM410.607 114.98C411.411 115.459 411.929 116.163 412.16 117.091C412.391 118.018 412.264 118.884 411.784 119.687C411.307 120.491 410.612 121.002 409.702 121.221C408.794 121.441 407.933 121.309 407.12 120.823C406.275 120.319 405.744 119.632 405.523 118.761C405.305 117.891 405.445 117.033 405.95 116.188C406.44 115.368 407.138 114.841 408.042 114.609C408.949 114.377 409.804 114.5 410.607 114.98ZM196.903 111.112C197.724 110.662 198.592 110.573 199.509 110.843C200.425 111.114 201.108 111.66 201.558 112.481C202.009 113.302 202.097 114.16 201.825 115.054C201.555 115.95 201.004 116.624 200.175 117.079C199.312 117.552 198.449 117.663 197.589 117.411C196.725 117.16 196.058 116.603 195.585 115.741C195.125 114.903 195.025 114.035 195.284 113.136C195.542 112.237 196.082 111.563 196.903 111.112ZM400.331 109.225C401.158 109.66 401.715 110.333 401.997 111.248C402.276 112.161 402.2 113.031 401.765 113.861C401.331 114.689 400.666 115.238 399.77 115.507C398.873 115.775 398.008 115.69 397.17 115.251C396.299 114.794 395.73 114.136 395.463 113.279C395.194 112.422 395.291 111.557 395.745 110.686C396.19 109.84 396.857 109.277 397.751 108.995C398.642 108.714 399.503 108.79 400.331 109.225ZM207.386 105.731C208.23 105.327 209.102 105.286 210.003 105.607C210.903 105.926 211.556 106.509 211.96 107.354C212.364 108.197 212.406 109.059 212.086 109.938C211.765 110.817 211.179 111.46 210.326 111.868C209.439 112.294 208.571 112.357 207.725 112.058C206.877 111.761 206.241 111.167 205.816 110.281C205.403 109.418 205.351 108.547 205.659 107.663C205.966 106.78 206.542 106.136 207.386 105.731ZM389.774 104.05C390.624 104.44 391.218 105.083 391.549 105.978C391.879 106.875 391.85 107.749 391.46 108.601C391.071 109.451 390.439 110.036 389.558 110.354C388.679 110.671 387.808 110.633 386.948 110.24C386.051 109.831 385.449 109.207 385.135 108.365C384.82 107.523 384.868 106.655 385.277 105.761C385.673 104.893 386.308 104.293 387.184 103.963C388.06 103.633 388.923 103.662 389.774 104.05ZM218.117 100.947C218.982 100.59 219.855 100.596 220.736 100.965C221.618 101.336 222.237 101.953 222.594 102.817C222.953 103.682 222.946 104.545 222.579 105.405C222.21 106.264 221.59 106.874 220.716 107.236C219.807 107.611 218.938 107.627 218.108 107.282C217.278 106.939 216.676 106.312 216.301 105.403C215.935 104.52 215.931 103.646 216.286 102.781C216.642 101.917 217.251 101.305 218.117 100.947ZM378.922 99.4516C379.792 99.7936 380.42 100.402 380.798 101.279C381.176 102.155 381.196 103.031 380.854 103.901C380.513 104.773 379.912 105.392 379.051 105.757C378.19 106.122 377.319 106.131 376.438 105.788C375.522 105.428 374.884 104.837 374.527 104.014C374.166 103.191 374.166 102.322 374.524 101.405C374.872 100.517 375.476 99.8831 376.331 99.5056C377.185 99.1276 378.051 99.1096 378.922 99.4516ZM229.127 96.7467C230.01 96.4364 230.882 96.4904 231.741 96.9082C232.601 97.326 233.186 97.9767 233.494 98.8587C233.804 99.7435 233.751 100.604 233.337 101.443C232.922 102.28 232.268 102.856 231.376 103.168C230.447 103.494 229.579 103.461 228.769 103.072C227.96 102.682 227.393 102.023 227.068 101.096C226.751 100.193 226.795 99.3202 227.198 98.4764C227.6 97.6331 228.243 97.0555 229.127 96.7467ZM367.854 95.4644C368.743 95.7573 369.4 96.3306 369.827 97.1853C370.256 98.0406 370.322 98.9133 370.03 99.8007C369.735 100.69 369.169 101.34 368.329 101.752C367.491 102.164 366.62 102.222 365.723 101.927C364.789 101.619 364.121 101.064 363.715 100.262C363.311 99.4598 363.263 98.5915 363.571 97.6571C363.87 96.7505 364.436 96.0851 365.269 95.6613C366.104 95.2369 366.965 95.1715 367.854 95.4644ZM240.338 93.162C241.237 92.9029 242.104 93.0044 242.939 93.4691C243.775 93.9322 244.323 94.6145 244.582 95.514C244.844 96.4124 244.743 97.2693 244.283 98.0836C243.823 98.8975 243.139 99.4369 242.23 99.6993C241.285 99.972 240.419 99.8929 239.633 99.4587C238.846 99.0251 238.316 98.3367 238.042 97.3915C237.777 96.4745 237.869 95.6062 238.317 94.7842C238.765 93.9638 239.439 93.4233 240.338 93.162ZM356.573 92.0885C357.477 92.3324 358.167 92.8691 358.64 93.6998C359.112 94.5289 359.229 95.3967 358.985 96.3C358.741 97.2033 358.21 97.884 357.395 98.3416C356.581 98.7998 355.714 98.9056 354.803 98.6591C353.853 98.4033 353.153 97.8856 352.706 97.1073C352.256 96.3284 352.162 95.4644 352.419 94.5142C352.667 93.5929 353.196 92.8964 354.003 92.4278C354.813 91.9582 355.669 91.8447 356.573 92.0885ZM251.745 90.198C252.656 89.9875 253.517 90.1375 254.325 90.6464C255.135 91.1564 255.643 91.8671 255.854 92.7791C256.064 93.6911 255.917 94.5404 255.412 95.3285C254.909 96.1156 254.195 96.6164 253.273 96.8291C252.315 97.05 251.455 96.9218 250.693 96.4456C249.932 95.97 249.441 95.2527 249.219 94.2938C249.004 93.3633 249.144 92.5009 249.637 91.7067C250.13 90.9109 250.833 90.4085 251.745 90.198ZM345.127 89.34C346.043 89.5331 346.759 90.0316 347.28 90.8335C347.798 91.6369 347.958 92.4955 347.767 93.4118C347.572 94.3282 347.079 95.0356 346.289 95.538C345.502 96.0398 344.644 96.1931 343.72 95.9973C342.758 95.7933 342.032 95.316 341.541 94.5627C341.051 93.8105 340.907 92.9525 341.11 91.9898C341.308 91.056 341.798 90.3322 342.58 89.8189C343.362 89.3056 344.21 89.1464 345.127 89.34ZM263.283 87.8684C264.205 87.7075 265.055 87.9044 265.834 88.4575C266.614 89.0105 267.083 89.748 267.244 90.6709C267.404 91.5933 267.211 92.4333 266.662 93.192C266.116 93.9502 265.377 94.4106 264.446 94.5725C263.476 94.7405 262.625 94.566 261.891 94.0489C261.155 93.5313 260.705 92.7884 260.535 91.8186C260.373 90.8782 260.558 90.0246 261.094 89.2582C261.63 88.4913 262.361 88.0276 263.283 87.8684ZM333.538 87.222C334.462 87.3649 335.206 87.8236 335.768 88.596C336.329 89.3695 336.539 90.2176 336.395 91.1438C336.253 92.0684 335.801 92.8031 335.039 93.3475C334.28 93.8913 333.432 94.0909 332.498 93.9475C331.525 93.7969 330.773 93.3589 330.243 92.634C329.712 91.9096 329.524 91.062 329.672 90.09C329.819 89.1464 330.268 88.3958 331.022 87.8405C331.771 87.2853 332.612 87.0791 333.538 87.222ZM274.924 86.1736C275.856 86.0645 276.694 86.3067 277.443 86.9013C278.192 87.4969 278.619 88.2589 278.728 89.1873C278.837 90.1173 278.598 90.9458 278.012 91.674C277.423 92.4016 276.661 92.8205 275.721 92.9318C274.744 93.0469 273.903 92.8255 273.197 92.2691C272.492 91.7116 272.083 90.9458 271.969 89.9684C271.857 89.0204 272.088 88.1782 272.667 87.4418C273.243 86.7055 273.995 86.2822 274.924 86.1736ZM321.869 85.7438C322.801 85.836 323.567 86.2527 324.169 86.9935C324.773 87.7358 325.028 88.572 324.936 89.5025C324.845 90.4347 324.434 91.1924 323.705 91.7771C322.973 92.3624 322.138 92.6089 321.196 92.5145C320.218 92.4185 319.444 92.0215 318.875 91.3276C318.304 90.6327 318.068 89.796 318.167 88.8169C318.261 87.8673 318.67 87.0938 319.388 86.4982C320.112 85.9025 320.937 85.6511 321.869 85.7438ZM286.655 85.1155C287.587 85.056 288.412 85.3451 289.125 85.9789C289.841 86.6133 290.227 87.3987 290.285 88.3325C290.344 89.2658 290.06 90.0802 289.432 90.7756C288.808 91.4706 288.023 91.8469 287.079 91.9064C286.099 91.9686 285.271 91.7024 284.598 91.1073C283.923 90.5144 283.555 89.7262 283.493 88.7444C283.435 87.7909 283.712 86.9624 284.329 86.2587C284.943 85.5556 285.721 85.1733 286.655 85.1155ZM310.103 84.9005C311.037 84.942 311.827 85.3162 312.469 86.0242C313.112 86.7322 313.411 87.5531 313.371 88.488C313.33 89.4235 312.959 90.2029 312.263 90.8264C311.565 91.4493 310.745 91.7411 309.801 91.6991C308.818 91.6555 308.024 91.302 307.417 90.6393C306.812 89.9765 306.528 89.154 306.574 88.1711C306.617 87.2165 306.98 86.4229 307.668 85.7891C308.356 85.1558 309.169 84.8596 310.103 84.9005ZM298.492 84.6851C299.426 84.6851 300.231 85.0255 300.904 85.7029C301.577 86.3809 301.915 87.1882 301.915 88.1231C301.915 89.0596 301.579 89.8549 300.911 90.5089C300.244 91.1624 299.437 91.4896 298.492 91.4896C297.509 91.4896 296.697 91.1722 296.065 90.5373C295.427 89.9024 295.11 89.0924 295.11 88.1095C295.11 87.1538 295.44 86.346 296.097 85.6811C296.758 85.0184 297.555 84.6851 298.492 84.6851Z" fill="black"/>
</svg>
