<svg width="70" height="70" viewBox="0 0 70 70" fill="none" xmlns="http://www.w3.org/2000/svg">
<path fill-rule="evenodd" clip-rule="evenodd" d="M70 35.0001C70 15.67 54.3301 0 35 0C15.6701 0 0 15.67 0 35.0001C0 54.3298 15.6701 70 35 70C54.3301 70 70 54.3298 70 35.0001ZM69.7532 35.0001C69.7532 54.1936 54.1938 69.753 35 69.753C15.8064 69.753 0.246843 54.1936 0.246843 35.0001C0.246843 15.8064 15.8064 0.246872 35 0.246872C54.1938 0.246872 69.7532 15.8064 69.7532 35.0001ZM68.9235 35.0001C68.9235 16.2647 53.7355 1.07665 35 1.07665C16.2648 1.07665 1.07659 16.2647 1.07659 35.0001C1.07659 53.7353 16.2648 68.9232 35 68.9232C53.7355 68.9232 68.9235 53.7353 68.9235 35.0001ZM17.443 54.1204L11.5428 58.8179C17.5786 64.7622 25.8611 68.4294 35 68.4294H35.0154L33.7061 60.9267C27.4452 60.6189 21.7676 58.0936 17.443 54.1204ZM52.6099 54.0718C48.2862 58.0664 42.5993 60.6094 36.3247 60.9249L35.0154 68.4294C44.1735 68.425 52.4701 64.7385 58.5047 58.7711L52.6099 54.0718ZM39.4756 63.6046L39.3601 63.614C39.2588 63.3474 39.1157 63.1427 38.9309 62.9994C38.746 62.856 38.5313 62.7944 38.286 62.8142C38.1651 62.824 38.057 62.8569 37.961 62.9138C37.8651 62.9703 37.7916 63.0459 37.7407 63.1407C37.6897 63.2355 37.6687 63.3409 37.6779 63.4576C37.6838 63.5249 37.7004 63.5903 37.7285 63.6537C37.7564 63.7171 37.8177 63.7927 37.9125 63.8806C38.0073 63.9683 38.148 64.0625 38.3355 64.1629C38.5452 64.2714 38.6735 64.3404 38.7197 64.3706C38.9812 64.5068 39.1969 64.6357 39.366 64.7572C39.5352 64.8792 39.6676 65.0146 39.7633 65.1642C39.859 65.3135 39.9146 65.487 39.9309 65.6846C39.9455 65.8668 39.9238 66.0354 39.8658 66.1903C39.8077 66.3452 39.718 66.4829 39.5977 66.6032C39.4768 66.7232 39.3293 66.8209 39.1554 66.8959C38.9815 66.9705 38.7896 67.0164 38.5799 67.0333C38.3642 67.0508 38.1118 67.0307 37.8224 66.9723C37.7901 66.967 37.7495 66.9616 37.7001 66.9554C37.6509 66.9492 37.6074 66.948 37.5697 66.951C37.477 66.9584 37.4136 67.0126 37.3799 67.113L37.2762 67.121L37.203 65.8849L37.3188 65.8754C37.3751 66.1056 37.4714 66.2943 37.6077 66.4403C37.7439 66.5866 37.8929 66.6885 38.0547 66.746C38.2167 66.8035 38.3728 66.8263 38.5233 66.8141C38.7428 66.7964 38.919 66.7202 39.0526 66.586C39.1859 66.4518 39.2458 66.2969 39.2316 66.1207C39.2218 66.0022 39.1836 65.9012 39.1157 65.8182C39.0485 65.735 38.9507 65.655 38.8234 65.5792C38.6957 65.5027 38.456 65.3712 38.1047 65.1849C37.9193 65.0842 37.7605 64.9858 37.6284 64.889C37.496 64.7921 37.3914 64.6976 37.3144 64.6055C37.2371 64.5131 37.1802 64.4192 37.1438 64.3235C37.107 64.2281 37.0845 64.1247 37.0753 64.0139C37.0579 63.8007 37.0958 63.5853 37.1888 63.3688C37.2815 63.1522 37.4237 62.9703 37.6148 62.8222C37.8058 62.6744 38.031 62.59 38.2899 62.569C38.4104 62.5592 38.5271 62.5619 38.64 62.5767C38.6699 62.5781 38.7102 62.5835 38.7606 62.5921C38.8112 62.601 38.8533 62.6081 38.8879 62.6131C38.9762 62.622 39.042 62.6246 39.0855 62.6211C39.1528 62.6158 39.1987 62.601 39.2238 62.577C39.2487 62.553 39.2715 62.5195 39.2917 62.4759L39.3835 62.4685L39.4756 63.6046ZM40.0933 62.3865L40.0788 62.308L42.0907 61.9324L42.1064 62.0165C41.8833 62.0583 41.7492 62.1359 41.7032 62.2499C41.657 62.3637 41.6499 62.5041 41.681 62.6706L42.2424 65.6769C42.2604 65.7717 42.285 65.8555 42.3164 65.9278C42.3481 66.0001 42.4068 66.0599 42.493 66.107C42.5789 66.1541 42.6986 66.1636 42.8514 66.1349L42.8748 66.1304L42.8908 66.2149L40.8789 66.5908L40.8629 66.5063C41.0838 66.4652 41.218 66.3879 41.2651 66.2747C41.3119 66.1618 41.3199 66.0217 41.2888 65.855L40.7272 62.8489C40.6905 62.651 40.6205 62.5162 40.518 62.4443C40.4153 62.3723 40.2737 62.353 40.0933 62.3865ZM47.5246 59.8292L47.5554 59.9062C47.4559 59.9548 47.3768 60.0019 47.3182 60.0472C47.2592 60.0925 47.221 60.1574 47.2038 60.2418C47.1863 60.326 47.2106 60.4308 47.2758 60.5567L48.5534 63.093C48.6438 63.2704 48.7249 63.3957 48.7966 63.4686C48.8683 63.5415 48.937 63.5817 49.0034 63.59C49.0694 63.5983 49.1663 63.5921 49.2937 63.5714L49.3248 63.6481L47.5317 64.3744L47.5006 64.2974C47.6493 64.2334 47.7512 64.1455 47.8063 64.035C47.8614 63.9239 47.8345 63.7598 47.7258 63.5423L46.5269 61.132L46.5163 61.1361L46.5107 64.7883L46.4179 64.8259L43.874 62.3272L43.8636 62.3314L44.5731 64.5791C44.6424 64.8001 44.7238 64.9577 44.8174 65.0528C44.9113 65.1473 45.0047 65.1959 45.0974 65.1985C45.1901 65.2012 45.2899 65.1849 45.3971 65.1496L45.4285 65.2267L44.1021 65.7637L44.071 65.687C44.2348 65.6082 44.3343 65.4897 44.3698 65.3312C44.4057 65.1728 44.3802 64.9432 44.2934 64.6425L43.5546 62.0645C43.2833 61.8675 42.9963 61.8047 42.6938 61.8758L42.6627 61.7988L44.0739 61.2271L46.2449 63.3397L46.2515 60.3449L47.5246 59.8292ZM52.2618 61.989L50.0387 63.319L49.9951 63.2464C50.1889 63.1303 50.2878 63.0124 50.2908 62.8924C50.294 62.7728 50.2523 62.6409 50.1666 62.4973L48.6159 59.9053C48.5371 59.7732 48.4447 59.6755 48.3398 59.6115C48.2344 59.5472 48.0892 59.5706 47.9035 59.6817L47.8733 59.6997L47.83 59.6269L49.7549 58.4752C50.0105 58.3223 50.2404 58.2246 50.4442 58.1822C50.5494 58.1647 50.6673 58.1588 50.7979 58.1644C50.9282 58.1703 51.066 58.2062 51.2108 58.2717C51.3554 58.3368 51.4736 58.4464 51.5657 58.6005C51.6827 58.796 51.7206 58.9876 51.6801 59.1754C51.6392 59.3632 51.5645 59.5232 51.4567 59.6559C51.3489 59.7886 51.2381 59.9059 51.1246 60.0078L51.1306 60.0179C51.2419 59.9649 51.372 59.9142 51.5213 59.8656C51.6703 59.8173 51.8264 59.7901 51.989 59.7833C52.1519 59.7768 52.3149 59.8114 52.4784 59.8873C52.6419 59.9631 52.7814 60.0979 52.8975 60.2916C53.0193 60.4957 53.072 60.7019 53.0548 60.9104C53.0379 61.1192 52.9671 61.3165 52.8421 61.5023C52.7693 61.6119 52.6881 61.7001 52.5989 61.7671C52.5098 61.834 52.3975 61.9081 52.2618 61.989ZM50.5224 60.589L50.2419 60.7573L50.9481 61.9377C51.0553 62.1166 51.167 62.2034 51.2843 62.1978C51.401 62.1928 51.5284 62.1489 51.6652 62.0669C51.7556 62.013 51.8373 61.9561 51.9105 61.8962C51.9837 61.8367 52.0488 61.7579 52.1063 61.6604C52.1632 61.5624 52.189 61.4421 52.183 61.2993C52.1771 61.1569 52.1191 60.9933 52.0092 60.8094C51.8868 60.6056 51.7461 60.4696 51.5867 60.4018C51.4268 60.3343 51.2576 60.3197 51.079 60.3582C50.9001 60.3974 50.7147 60.4744 50.5224 60.589ZM52.7672 56.6415L55.9818 58.3253C56.1492 58.4094 56.2902 58.4441 56.4045 58.4298C56.5192 58.4156 56.6365 58.3712 56.757 58.2968L56.8074 58.3546L55.4119 59.5736L55.3612 59.5155C55.5425 59.3384 55.5855 59.1953 55.4898 59.086C55.4747 59.0685 55.4507 59.0469 55.4172 59.0208C55.3837 58.9947 55.3467 58.9681 55.3058 58.9417C55.2649 58.9151 55.2398 58.8991 55.23 58.8931L54.4376 58.482L53.5578 59.2504L53.8733 60.0357C53.9094 60.131 53.953 60.2078 54.0045 60.2664C54.0836 60.3574 54.1636 60.395 54.2442 60.3799C54.325 60.3645 54.4065 60.3301 54.4894 60.2768L54.5398 60.3348L53.6562 61.1065L53.6052 61.0487C53.689 60.959 53.7376 60.8408 53.7507 60.6945C53.7637 60.5478 53.7178 60.3396 53.6132 60.0688L52.3854 56.9754L52.7672 56.6415ZM49.4871 58.915L49.2312 59.0679L50.119 60.5517L50.3746 60.3985C50.5651 60.2845 50.7218 60.129 50.8444 59.932C50.967 59.7353 50.9315 59.4746 50.7375 59.1505C50.5944 58.9115 50.4069 58.7681 50.1743 58.721C50.0917 58.7006 49.9993 58.7018 49.8977 58.7252C49.7958 58.7486 49.6589 58.8117 49.4871 58.915ZM60.4646 34.9998C60.4646 49.0636 49.0638 60.4646 35 60.4646C20.9363 60.4646 9.53538 49.0636 9.53538 34.9998C9.53538 20.9362 20.9363 9.53535 35 9.53535C49.0638 9.53535 60.4646 20.9362 60.4646 34.9998ZM34.59 60.1494C34.481 60.1473 34.388 60.1062 34.3107 60.0256C34.2337 59.945 34.196 59.8502 34.1978 59.7409C34.1999 59.6319 34.2405 59.5398 34.3199 59.4648C34.3993 59.3902 34.494 59.3535 34.6042 59.3555C34.7189 59.3576 34.8128 59.3961 34.8857 59.4717C34.9582 59.5472 34.9938 59.642 34.9917 59.7569C34.9896 59.8683 34.9496 59.9619 34.8714 60.038C34.7929 60.1142 34.6993 60.1512 34.59 60.1494ZM35.9624 60.1367C35.8531 60.1408 35.758 60.1047 35.6766 60.0286C35.5954 59.9521 35.5527 59.8594 35.5489 59.7504C35.5448 59.6411 35.5806 59.5472 35.6558 59.4681C35.7311 59.389 35.8238 59.3472 35.934 59.3434C36.0486 59.3392 36.1443 59.373 36.221 59.4444C36.2978 59.5158 36.338 59.6088 36.3422 59.7234C36.3463 59.8348 36.3111 59.9308 36.237 60.0108C36.163 60.0908 36.0714 60.1328 35.9624 60.1367ZM33.2179 60.0878C33.1092 60.0801 33.0183 60.0339 32.9457 59.9495C32.8728 59.8647 32.8405 59.7682 32.8482 59.6592C32.8562 59.5502 32.9018 59.4607 32.9851 59.3902C33.0683 59.3194 33.1649 59.288 33.2751 59.2963C33.3894 59.3043 33.481 59.3481 33.5497 59.4272C33.6181 59.5063 33.6483 59.6035 33.64 59.7178C33.632 59.8289 33.587 59.9204 33.5047 59.9921C33.4226 60.0638 33.3269 60.0958 33.2179 60.0878ZM37.3331 60.0505C37.2243 60.0602 37.1272 60.0291 37.0419 59.9575C36.9566 59.8858 36.9089 59.7954 36.8991 59.6867C36.8893 59.578 36.9198 59.482 36.9906 59.3991C37.0614 59.3161 37.1518 59.2696 37.2617 59.2599C37.376 59.2495 37.4735 59.2776 37.5537 59.3449C37.6343 59.4121 37.6796 59.5028 37.69 59.6171C37.7001 59.7282 37.6702 59.8256 37.6005 59.9098C37.5309 59.9936 37.4418 60.0404 37.3331 60.0505ZM31.8508 59.9524C31.7427 59.9385 31.6545 59.8876 31.5863 59.799C31.5185 59.7107 31.4915 59.6124 31.5052 59.5039C31.5188 59.3958 31.5691 59.3084 31.6562 59.2427C31.7433 59.1769 31.8414 59.1508 31.9507 59.1648C32.0647 59.1793 32.1536 59.2279 32.2179 59.3105C32.2821 59.3935 32.307 59.4918 32.2925 59.6058C32.2783 59.716 32.2282 59.8049 32.1423 59.8721C32.0564 59.9394 31.9593 59.966 31.8508 59.9524ZM38.6981 59.8896C38.5899 59.9053 38.4913 59.8796 38.4021 59.8126C38.313 59.7457 38.2605 59.6583 38.2448 59.5502C38.2291 59.442 38.2543 59.3446 38.3207 59.2578C38.387 59.171 38.4744 59.1197 38.5837 59.104C38.6972 59.0875 38.7958 59.1106 38.8799 59.1731C38.9638 59.2359 39.0141 59.3238 39.0307 59.4373C39.0467 59.5478 39.0224 59.6467 38.9575 59.7344C38.8924 59.8221 38.8062 59.8739 38.6981 59.8896ZM30.4938 59.7424C30.3866 59.7229 30.3013 59.6669 30.2382 59.575C30.1751 59.4829 30.1535 59.3834 30.173 59.2759C30.1929 59.1686 30.248 59.0842 30.3383 59.0232C30.4287 58.9621 30.5282 58.9417 30.6369 58.9616C30.7495 58.9823 30.836 59.0356 30.8952 59.1218C30.9551 59.208 30.9746 59.3075 30.9539 59.4204C30.9337 59.53 30.8789 59.6162 30.7895 59.6784C30.6997 59.7406 30.6014 59.762 30.4938 59.7424ZM40.0491 59.6547C39.9422 59.6763 39.8424 59.6562 39.7496 59.594C39.6572 59.5321 39.6001 59.4477 39.5784 59.3407C39.5568 59.2335 39.5767 59.1348 39.6377 59.0448C39.6993 58.9544 39.784 58.8985 39.8921 58.8765C40.0047 58.8537 40.1045 58.8715 40.1919 58.9293C40.279 58.9873 40.3341 59.0726 40.3569 59.1852C40.3788 59.2942 40.3599 59.3946 40.2997 59.4856C40.2396 59.5768 40.1564 59.6331 40.0491 59.6547ZM29.1498 59.4583C29.0436 59.4326 28.9615 59.3724 28.9037 59.277C28.8457 59.1817 28.8296 59.0809 28.8551 58.9749C28.8807 58.8685 28.9403 58.7877 29.0338 58.7317C29.1275 58.6757 29.228 58.6606 29.3353 58.6864C29.447 58.713 29.53 58.7711 29.5847 58.8608C29.6395 58.95 29.6535 59.0504 29.6268 59.1621C29.6005 59.2702 29.5411 59.3532 29.4482 59.4106C29.3554 59.4681 29.2559 59.4838 29.1498 59.4583ZM41.3892 59.3455C41.2832 59.373 41.1825 59.3582 41.0868 59.3013C40.9908 59.2447 40.9289 59.1636 40.9017 59.0578C40.8741 58.9521 40.8886 58.8525 40.9449 58.7589C41.0012 58.6656 41.0827 58.6049 41.1893 58.5771C41.3004 58.5483 41.4011 58.5602 41.4914 58.6135C41.5818 58.6665 41.6416 58.7486 41.6704 58.8597C41.6985 58.9675 41.6849 59.0685 41.6301 59.163C41.575 59.2572 41.4947 59.3179 41.3892 59.3455ZM59.123 35.0001C59.123 21.6772 48.3229 10.8771 35 10.8771C21.6773 10.8771 10.877 21.6772 10.877 35.0001C10.877 48.3227 21.6773 59.123 35 59.123C48.3229 59.123 59.123 48.3227 59.123 35.0001ZM27.8237 59.1005C27.7191 59.0691 27.6405 59.0045 27.5879 58.9062C27.5353 58.8078 27.5247 58.7062 27.5561 58.6016C27.5874 58.4971 27.6515 58.4195 27.748 58.3685C27.8447 58.3179 27.9457 58.3084 28.0514 58.3401C28.1614 58.373 28.2412 58.4355 28.2909 58.5276C28.3407 58.62 28.3491 58.721 28.3161 58.8309C28.2842 58.9379 28.2202 59.0172 28.1243 59.0694C28.0286 59.1215 27.9283 59.1319 27.8237 59.1005ZM53.4547 58.995L54.1885 58.3543L52.9426 57.694L53.4547 58.995ZM42.7098 58.9627C42.6058 58.9959 42.5045 58.9867 42.4056 58.9355C42.3066 58.8839 42.2406 58.8063 42.2074 58.7024C42.1739 58.5984 42.1831 58.498 42.2341 58.4017C42.285 58.3051 42.3629 58.24 42.4681 58.2065C42.5774 58.1715 42.6787 58.178 42.7717 58.226C42.865 58.274 42.929 58.3528 42.964 58.4621C42.9977 58.5682 42.99 58.6698 42.9403 58.7669C42.8908 58.8641 42.8141 58.9293 42.7098 58.9627ZM58.8762 35.0001C58.8762 48.1865 48.1864 58.8759 35 58.8759C21.8136 58.8759 11.1239 48.1865 11.1239 35.0001C11.1239 21.8135 21.8136 11.1239 35 11.1239C48.1864 11.1239 58.8762 21.8135 58.8762 35.0001ZM1.57034 34.9468L1.57028 35.0001C1.57028 44.3181 5.38277 52.7456 11.5322 58.8075L16.2196 52.9201C12.0416 48.5422 9.37891 42.7075 9.07152 36.2558L1.57034 34.9468ZM68.4297 34.9468L60.9287 36.2558C60.6222 42.6803 57.981 48.4925 53.8351 52.8626L58.5273 58.7489C64.6416 52.6923 68.4297 44.2885 68.4297 35.0001V34.9468ZM26.5209 58.6713C26.4182 58.6342 26.3433 58.5652 26.2963 58.4642C26.2491 58.3632 26.2442 58.261 26.2812 58.1585C26.3182 58.0557 26.3863 57.9817 26.4856 57.9363C26.5848 57.891 26.6864 57.8869 26.7902 57.9245C26.8981 57.9633 26.9744 58.0302 27.0189 58.125C27.0636 58.2198 27.0663 58.3211 27.0274 58.4292C26.9897 58.5341 26.9215 58.6096 26.8229 58.6567C26.7243 58.7035 26.6237 58.7083 26.5209 58.6713ZM35.0113 55.9531C34.8747 55.8746 34.2745 55.3989 34.1196 54.9057C33.9499 54.3663 33.8886 54.2561 33.8886 54.2561L33.6291 54.8959C33.6291 54.8959 33.3995 54.8657 33.14 54.3162C32.8808 53.7664 32.9104 53.9264 32.9104 53.9264L32.4018 54.416C32.4018 54.416 32.3218 54.6059 32.0025 53.8165L31.6835 53.027L31.0549 53.7264C31.0549 53.7264 30.9251 53.8179 30.466 52.868C30.0071 51.9177 30.0572 51.8279 30.0572 51.8279L29.3686 52.7672C29.3686 52.7672 29.1091 52.6873 28.6901 51.7779C28.2711 50.8685 28.0017 49.8693 28.0017 49.8693L28.0249 49.877C27.8155 49.4442 27.5872 48.8613 27.6306 48.4486C27.708 47.7125 27.7596 47.2474 27.5788 47.0019C27.5127 46.9121 27.4562 46.7347 27.3821 46.4767C27.3798 46.7447 27.3662 47.8345 27.5911 49.787C27.7727 51.3632 27.4261 52.1076 26.8839 52.8336C26.8903 52.8908 26.8983 52.9488 26.9089 53.0087C27.0056 53.5502 27.6257 53.9394 27.6257 53.9394L28.6422 53.2116C28.6422 53.2116 28.6424 53.2116 28.7401 53.8716C28.838 54.5315 29.086 54.8026 29.086 54.8026L29.7856 53.0087C29.7856 53.0087 30.0288 53.5839 30.2551 54.5484C30.4814 55.5132 31.0827 55.7164 31.0827 55.7164L31.1755 55.1915L31.7863 55.965L32.7398 54.7348C32.7398 54.7348 32.9756 55.1915 33.4377 56.0657C33.8998 56.9395 34.4256 57.0702 34.4256 57.0702L35.1407 56.617L35.7696 57.0702C35.7696 57.0702 36.2524 56.9395 36.7145 56.0657C37.1766 55.1915 37.3908 54.7348 37.3908 54.7348L38.3337 55.965L38.9392 55.1915L39.0292 55.7164C39.0292 55.7164 39.6294 55.5132 39.8554 54.5484C40.0817 53.5839 40.3243 53.0087 40.3243 53.0087L41.0237 54.8026C41.0237 54.8026 41.2713 54.5315 41.3691 53.8716C41.4672 53.2116 41.4669 53.2116 41.4669 53.2116L42.4835 53.9394C42.4835 53.9394 43.1035 53.5502 43.2004 53.0087C43.2264 52.8614 43.2386 52.7204 43.243 52.5922C42.8022 51.9337 42.5457 51.1899 42.7071 49.787C42.9666 47.5348 42.9352 46.3676 42.9352 46.3676C42.9352 46.3676 43.6219 47.4657 43.6832 48.7724C43.7448 50.079 46.1265 52.0326 46.1265 52.0326L46.0838 50.1001L46.7198 51.1093C46.7198 51.1093 46.9896 50.947 46.9896 49.3308V47.74C46.9896 47.74 47.4118 49.1634 48.5789 50.1001C49.7463 51.0367 49.5588 50.6777 49.5588 50.6777C49.5588 50.6777 48.9115 49.9291 48.4625 48.4625C48.0134 46.9962 48.019 46.5771 48.019 46.5771C48.019 46.5771 49.3585 48.403 50.6205 48.762C51.8827 49.121 52.1534 49.0914 52.1534 49.0914C52.1534 49.0914 51.6407 48.1995 51.0292 47.1488C50.826 46.7992 50.6901 46.586 50.5988 46.4559C50.7866 46.5949 51.1445 46.777 51.7956 46.8677C52.9328 47.0262 53.7142 46.7975 53.7142 46.7975C53.7142 46.7975 52.9186 46.4873 52.3122 45.889L51.7058 45.2903C51.7058 45.2903 53.0136 45.3015 54.2753 44.7423L55.5369 44.183C55.5369 44.183 54.1002 43.9733 53.3519 43.3151C52.6493 42.6966 52.548 42.6738 52.5382 42.6735H52.5373H52.5376H52.5382C52.5794 42.6723 54.0516 42.6228 54.8485 42.3571C55.6566 42.0878 56.1056 41.5789 56.1056 41.5789C56.1056 41.5789 55.291 41.2697 54.6657 39.4639C54.0404 37.6584 53.7142 36.821 53.7142 36.821C53.7142 36.821 54.5694 36.837 55.547 37.4721C56.5245 38.1072 57.0201 38.5047 57.0201 38.5047C57.0201 38.5047 57.8788 36.1332 56.169 34.9355C54.4592 33.7376 52.8134 32.8398 52.8134 32.8398L56.0159 33.3484C56.0159 33.3484 55.3891 31.2858 54.3407 30.7609C53.2921 30.236 52.7233 30.2235 52.7233 30.2235C52.7233 30.2235 53.0732 29.412 53.7812 28.8662L54.4894 28.3203C54.4894 28.3203 53.7711 28.8168 52.0951 27.7305C50.419 26.6443 49.6509 24.3943 49.6509 24.3943C49.6509 24.3943 51.4949 25.8022 52.1827 25.4965C52.8709 25.1907 53.431 24.3283 54.6044 24.2228C55.5381 24.1388 56.1797 24.7804 56.4039 25.0469C56.2857 24.9542 56.0212 24.8668 55.4486 25.0576C54.5312 25.3635 54.0729 26.3823 53.4612 26.9175C52.8495 27.4527 52.8498 27.4524 52.8498 27.4524C52.8498 27.4524 54.022 27.5798 55.1435 26.9427C56.0022 26.4547 56.7964 26.8596 57.1211 27.076C57.0002 27.0254 56.8047 27.009 56.5195 27.172C55.9845 27.4777 55.6323 28.0417 55.6323 28.0417C55.6323 28.0417 55.959 27.5987 56.749 27.9205C57.5388 28.2423 57.7286 28.8662 57.7286 28.8662C57.7286 28.8662 57.3859 28.5735 56.6468 28.7773C56.1136 28.9245 55.6877 29.1648 55.4913 29.2874C55.6403 29.2199 55.9593 29.141 56.6045 29.1971C57.6238 29.2856 58.2376 30.4087 58.2571 30.4454C58.2384 30.4131 58.0672 30.1702 57.3803 30.5568C56.749 30.9113 56.3352 31.1688 56.1693 31.2333C56.411 31.1933 57.2446 31.1125 57.7195 31.3909C58.3033 31.7334 58.5883 32.6552 58.5883 32.6552C58.5883 32.6552 58.4825 32.5136 57.6285 32.391C56.7742 32.2686 56.4685 32.5998 56.4685 32.5998C56.4685 32.5998 57.3859 32.9055 57.9464 33.772C58.5071 34.6384 58.7432 36.2439 58.4597 37.1868C58.242 37.9096 58.1463 38.2005 58.1134 38.2971C58.1395 38.2085 58.1789 37.986 58.0272 37.7245C57.8305 37.3853 57.5065 37.2144 57.5065 37.2144C57.5065 37.2144 58.0438 37.8604 58.0924 38.9268C58.1407 39.9935 57.7195 40.6817 57.7195 40.6817C57.7195 40.6817 57.8693 40.197 57.3361 39.5667C56.8029 38.9366 56.3278 38.9076 56.3278 38.9076C56.3278 38.9076 56.9194 39.2079 57.0743 39.9159C57.2295 40.6236 57.1519 40.8176 57.1519 40.8176C57.1519 40.8176 57.1033 40.2163 56.6963 39.9642C56.289 39.7121 56.2114 39.7897 56.2114 39.7897C56.2114 39.7897 56.1148 39.8493 56.4993 40.5045C56.8838 41.1601 57.5065 41.4441 57.5065 41.4441C57.5065 41.4441 57.2544 42.4211 56.2611 42.6735L55.2673 42.9258C55.2673 42.9258 55.3272 43.4946 56.0757 43.3151C56.824 43.1353 57.1232 42.9558 57.1232 42.9558C57.1232 42.9558 57.4126 44.6108 56.0556 45.1001C54.6989 45.5895 53.8514 45.601 53.8514 45.601C53.8514 45.601 53.9444 46.1864 54.6657 46.0377C55.3873 45.889 55.6835 45.7459 55.6835 45.7459C55.6835 45.7459 56.0289 46.6372 54.6156 47.1159C53.2023 47.5946 52.6937 47.3852 52.6937 47.3852C52.6937 47.3852 53.1126 47.9838 53.5913 48.0138C54.0703 48.0437 54.36 47.9536 54.36 47.9536C54.36 47.9536 54.2797 48.6723 52.9929 49.3906C51.7058 50.1086 50.8678 50.1001 50.8678 50.1001L52.3122 50.5456C52.3122 50.5456 51.8095 51.9328 50.1264 52.0685C48.4435 52.2038 47.3961 51.6055 47.3961 51.6055C47.3961 51.6055 47.6236 52.2394 48.5513 52.6991L49.4791 53.1586C49.4791 53.1586 48.974 54.1642 47.1075 54.052C46.2325 53.9992 45.7808 53.807 45.5479 53.6174C45.651 53.8565 45.7476 54.1909 45.7499 54.6109C45.7547 55.5168 44.8485 56.0657 44.8485 56.0657C44.8485 56.0657 45.1214 55.0496 44.1936 53.8212C44.0034 53.5694 43.818 53.3461 43.6453 53.1304C43.6711 53.368 43.6666 53.639 43.6086 53.9415C43.3742 55.1625 42.8621 55.5426 42.8621 55.5426L42.392 54.6986C42.392 54.6986 42.4471 55.1397 42.2068 55.6812C41.9663 56.223 41.3694 56.9004 41.3694 56.9004L40.4135 55.6483C40.4135 55.6483 40.4135 56.3761 39.6925 57.0868C38.9718 57.7977 38.3248 58.1701 38.3248 58.1701C38.3248 58.1701 38.039 57.3578 37.8494 57.0871L37.6595 56.8163C37.6595 56.8163 37.2181 57.561 36.5155 58.0853C35.8134 58.6102 35.1407 58.6822 35.1407 58.6822C35.1407 58.6822 34.3821 58.6102 33.6797 58.0853C32.9774 57.561 32.4498 56.8163 32.4498 56.8163L32.2599 57.0871C32.0701 57.3578 31.7842 58.1701 31.7842 58.1701C31.7842 58.1701 31.1375 57.7977 30.4165 57.0868C29.6958 56.3761 29.6958 55.6483 29.6958 55.6483L28.7398 56.9004C28.7398 56.9004 28.1428 56.223 27.9025 55.6812C27.6622 55.1397 27.7173 54.6986 27.7173 54.6986L27.247 55.5426C27.247 55.5426 26.7348 55.1625 26.5005 53.9415C26.462 53.7403 26.4487 53.5543 26.4507 53.3813C26.3384 53.5205 26.2224 53.6654 26.1047 53.8212C25.1769 55.0496 25.4497 56.0657 25.4497 56.0657C25.4497 56.0657 24.5435 55.5168 24.5483 54.6109C24.5506 54.1909 24.6474 53.8565 24.7505 53.6174C24.5176 53.807 24.0659 53.9992 23.1906 54.052C21.3242 54.1642 20.8193 53.1586 20.8193 53.1586L21.747 52.6991C22.6748 52.2394 22.9023 51.6055 22.9023 51.6055C22.9023 51.6055 21.8546 52.2038 20.1718 52.0685C18.4889 51.9328 17.986 50.5456 17.986 50.5456L19.4304 50.1001C19.4304 50.1001 18.5924 50.1086 17.3054 49.3906C16.0184 48.6723 15.9382 47.9536 15.9382 47.9536C15.9382 47.9536 16.228 48.0437 16.7069 48.0138C17.1856 47.9838 17.6047 47.3852 17.6047 47.3852C17.6047 47.3852 17.0959 47.5946 15.6827 47.1159C14.2693 46.6372 14.6148 45.7459 14.6148 45.7459C14.6148 45.7459 14.911 45.889 15.6325 46.0377C16.354 46.1864 16.447 45.601 16.447 45.601C16.447 45.601 15.5995 45.5895 14.2427 45.1001C12.8858 44.6108 13.1752 42.9558 13.1752 42.9558C13.1752 42.9558 13.4745 43.1353 14.2227 43.3151C14.9709 43.4946 15.0307 42.9258 15.0307 42.9258L14.0373 42.6735C13.0438 42.4211 12.7918 41.4441 12.7918 41.4441C12.7918 41.4441 13.4146 41.1601 13.7991 40.5045C14.1834 39.8493 14.0869 39.7897 14.0869 39.7897C14.0869 39.7897 14.0093 39.7121 13.6021 39.9642C13.1949 40.2163 13.1464 40.8176 13.1464 40.8176C13.1464 40.8176 13.0689 40.6236 13.2239 39.9159C13.3791 39.2079 13.9705 38.9076 13.9705 38.9076C13.9705 38.9076 13.4954 38.9366 12.9622 39.5667C12.4289 40.197 12.5788 40.6817 12.5788 40.6817C12.5788 40.6817 12.1574 39.9935 12.2059 38.9268C12.2544 37.8604 12.7918 37.2144 12.7918 37.2144C12.7918 37.2144 12.4677 37.3853 12.2709 37.7245C12.1194 37.986 12.1587 38.2085 12.1849 38.2971C12.1519 38.2005 12.0562 37.9096 11.8386 37.1868C11.5549 36.2439 11.7911 34.6384 12.3518 33.772C12.9124 32.9055 13.8297 32.5998 13.8297 32.5998C13.8297 32.5998 13.524 32.2686 12.6699 32.391C11.8156 32.5136 11.71 32.6552 11.71 32.6552C11.71 32.6552 11.995 31.7334 12.5788 31.3909C13.0536 31.1125 13.8872 31.1933 14.1289 31.2333C13.9631 31.1688 13.5491 30.9113 12.9181 30.5568C12.231 30.1702 12.0599 30.4131 12.041 30.4454C12.0607 30.4087 12.6744 29.2856 13.6938 29.1971C14.3389 29.141 14.658 29.2199 14.8071 29.2874C14.6106 29.1648 14.1848 28.9245 13.6513 28.7773C12.9124 28.5735 12.5696 28.8662 12.5696 28.8662C12.5696 28.8662 12.7594 28.2423 13.5494 27.9205C14.3394 27.5987 14.6661 28.0417 14.6661 28.0417C14.6661 28.0417 14.3139 27.4777 13.7788 27.172C13.4936 27.009 13.2981 27.0255 13.1771 27.076C13.502 26.8596 14.296 26.4547 15.1549 26.9427C16.2761 27.5798 17.4484 27.4524 17.4484 27.4524C17.4484 27.4524 17.4485 27.4527 16.837 26.9175C16.2254 26.3823 15.767 25.3635 14.8497 25.0576C14.277 24.8668 14.0125 24.9542 13.8945 25.0469C14.1185 24.7804 14.7602 24.1388 15.6938 24.2228C16.8673 24.3283 17.4275 25.1907 18.1156 25.4965C18.8035 25.8022 20.6473 24.3943 20.6473 24.3943C20.6473 24.3943 19.8793 26.6443 18.2033 27.7305C16.5273 28.8168 15.8089 28.3203 15.8089 28.3203L16.5169 28.8662C17.225 29.412 17.5748 30.2235 17.5748 30.2235C17.5748 30.2235 17.0062 30.236 15.9577 30.7609C14.9093 31.2858 14.2825 33.3484 14.2825 33.3484L17.485 32.8398C17.485 32.8398 15.8388 33.7376 14.1291 34.9355C12.4194 36.1332 13.2782 38.5047 13.2782 38.5047C13.2782 38.5047 13.7738 38.1072 14.7513 37.4721C15.7288 36.837 16.5841 36.821 16.5841 36.821C16.5841 36.821 16.2578 37.6584 15.6325 39.4639C15.0072 41.2697 14.1928 41.5789 14.1928 41.5789C14.1928 41.5789 14.6417 42.0878 15.4498 42.3571C16.2466 42.6228 17.719 42.6723 17.7601 42.6735H17.7607C17.7608 42.6735 17.7609 42.6735 17.7609 42.6735H17.7601C17.7503 42.6738 17.6491 42.6966 16.9463 43.3151C16.198 43.9733 14.7614 44.183 14.7614 44.183L16.0231 44.7423C17.2848 45.3015 18.5924 45.2903 18.5924 45.2903C18.5924 45.2903 18.5925 45.2903 17.9861 45.889C17.3797 46.4873 16.5841 46.7975 16.5841 46.7975C16.5841 46.7975 17.3654 47.0262 18.5027 46.8677C19.1534 46.777 19.5115 46.5951 19.6994 46.4559C19.608 46.586 19.472 46.7995 19.2688 47.1488C18.6576 48.1995 18.1446 49.0914 18.1446 49.0914C18.1446 49.0914 18.4151 49.121 19.6772 48.762C20.9393 48.403 22.2782 46.5771 22.2782 46.5771C22.2782 46.5771 22.2827 46.9962 21.8338 48.4625C21.3848 49.9291 20.7353 50.6777 20.7353 50.6777C20.7353 50.6777 20.5437 51.0367 21.711 50.1001C22.8782 49.1634 23.2918 47.74 23.2918 47.74V49.3308C23.2918 50.947 23.5701 51.1093 23.5701 51.1093L24.2144 50.1001L24.1718 52.0326C24.1718 52.0326 26.5536 50.079 26.6151 48.7724C26.6717 47.5665 27.2596 46.5406 27.3503 46.389C27.2258 45.9485 27.1096 45.4233 27.062 45.2817C27.0574 45.2681 27.0543 45.2562 27.0505 45.2435C26.9492 45.0566 26.8736 44.8697 26.8312 44.697C26.6928 44.1326 26.932 43.4179 26.932 43.1128C26.932 42.8076 26.8003 42.0259 26.838 41.8191C26.8756 41.6124 27.1389 40.9539 27.3646 40.6719C27.5904 40.3896 27.9289 39.3175 27.9289 39.3175C27.9289 39.3175 28.023 39.8819 27.816 40.2391C27.6091 40.5966 27.4963 41.1044 27.4851 41.4806C27.4739 41.8568 27.5904 42.1954 27.5148 42.5262C27.4392 42.8571 27.534 44.0764 27.5151 44.5465C27.4963 45.0169 28.3051 46.4461 30.2424 46.841C32.1797 47.2362 34.1735 45.769 34.5009 45.2778C34.622 45.0963 34.7088 44.795 34.7704 44.4872V44.4484C34.7544 44.46 34.7058 44.4306 34.6697 44.3782C34.6679 44.3788 34.6472 44.3797 34.6472 44.3797V44.3717C34.6472 44.2731 34.513 44.1021 34.4591 43.9712C34.367 43.7473 32.2774 41.8369 31.8689 41.5155C31.4604 41.1935 30.1037 40.4539 30.0377 40.2166C29.9719 39.9796 30.3146 38.662 30.4331 38.5435C30.4432 38.5334 30.4527 38.5266 30.4613 38.5213C30.4488 38.4878 30.4364 38.4523 30.423 38.4129C30.3848 38.3015 30.2883 38.0779 30.1671 37.9099C30.0465 37.7899 29.9639 37.6771 29.9725 37.5841C30.0083 37.188 29.8282 36.9353 29.612 36.1429C29.3959 35.3502 29.5398 35.6388 29.8282 34.9539C30.1165 34.2693 30.0083 34.1254 30.1168 33.5483C30.2246 32.9722 29.7562 33.1523 29.8282 32.3596C29.9002 31.5666 28.8553 31.7828 28.6031 31.7828C28.3513 31.7828 27.558 31.5307 27.558 31.5307L27.5777 31.4786C27.3998 31.4031 27.2418 31.2864 27.1328 31.108C26.7891 30.5458 26.2714 29.834 26.3331 29.4945C25.7079 29.1682 25.3611 28.5964 25.6847 28.802C26.1531 29.1002 26.5135 28.9005 27.3782 28.8287C28.1921 28.7609 28.7842 28.8227 29.5118 29.0398C29.6852 29.0324 29.8582 29.0275 30.0229 29.002C30.3173 28.9563 31.4329 28.8756 31.067 29.4317L30.8852 29.4157C30.8857 29.5443 30.74 29.7039 30.6965 29.7931C30.6215 29.9468 30.6274 30.1189 30.631 30.2899C30.6547 30.3269 30.6784 30.3639 30.7056 30.4036C31.2948 31.2588 30.7056 32.3596 30.7056 32.3596C30.7056 32.3596 30.6209 33.1884 30.6929 33.8374C30.7649 34.4859 30.5131 34.5214 30.3146 34.9539C30.1165 35.3861 29.9361 35.999 29.9361 35.999L30.1887 36.9353C30.1887 36.9353 30.189 37.4611 30.3155 38.0263C30.7178 38.3699 31.2 38.7968 30.6929 38.8815C30.6929 38.8815 30.6698 39.019 30.5401 38.7221C30.5368 38.7473 30.5318 38.7722 30.5252 38.7938C30.4858 38.9256 30.2749 39.9269 30.5252 40.2563C30.7756 40.5854 32.0271 41.2178 32.5014 41.389C32.9756 41.5605 33.2523 41.5078 33.2523 41.5078C33.2523 41.5078 32.8044 41.0599 32.1586 40.783C31.5132 40.5066 31.0392 40.4405 30.7889 40.1902C30.5383 39.9402 30.9865 39.6502 31.3683 39.3341C31.7504 39.0178 32.475 39.2154 32.6595 39.2681C32.821 39.3143 34.3981 39.7346 34.8309 39.838C35.2633 39.7346 36.8404 39.3143 37.0019 39.2681C37.1864 39.2154 37.911 39.0178 38.2928 39.3341C38.6749 39.6502 39.1231 39.9402 38.8728 40.1902C38.6225 40.4405 38.148 40.5066 37.5025 40.783C36.857 41.0599 36.4091 41.5078 36.4091 41.5078C36.4091 41.5078 36.6858 41.5605 37.1601 41.389C37.6343 41.2178 38.8859 40.5854 39.1362 40.2563C39.3865 39.9269 39.1756 38.9256 39.1362 38.7938C39.1297 38.7725 39.1249 38.7482 39.1214 38.723C38.9922 39.0187 38.9691 38.8815 38.9691 38.8815C38.4015 38.7867 38.9051 38.4283 39.308 38.0808C39.4516 37.7283 39.4733 36.9353 39.4733 36.9353L39.7259 35.999C39.7259 35.999 39.5455 35.3861 39.3474 34.9539C39.1489 34.5214 38.8971 34.4859 38.9691 33.8374C39.0408 33.1884 38.9564 32.3596 38.9564 32.3596C38.9564 32.3596 38.3672 31.2588 38.9564 30.4036C39.0162 30.3168 39.0648 30.2377 39.108 30.1634C39.1077 30.0351 39.0974 29.9086 39.0408 29.7931C38.9981 29.7057 38.8577 29.5511 38.8521 29.4239L38.7638 29.4317C38.3977 28.8756 39.5133 28.9563 39.8074 29.002C39.9259 29.0202 40.0488 29.0276 40.1727 29.0332C40.8901 28.8215 41.4781 28.7616 42.2835 28.8287C43.1485 28.9005 43.509 29.1002 43.9773 28.802C44.3011 28.5964 43.9542 29.1682 43.3286 29.4945C43.3905 29.834 42.8727 30.5458 42.5291 31.108C42.4201 31.2864 42.2622 31.4031 42.0845 31.4786L42.1037 31.5307C42.1037 31.5307 41.3107 31.7828 41.059 31.7828C40.8069 31.7828 39.7618 31.5666 39.8338 32.3596C39.9058 33.1523 39.4374 32.9722 39.5453 33.5483C39.6537 34.1254 39.5455 34.2693 39.8338 34.9539C40.1223 35.6388 40.2663 35.3502 40.05 36.1429C39.8338 36.9353 39.6537 37.188 39.6895 37.5841C39.6969 37.6655 39.4268 38.1241 39.2718 38.3131C39.2618 38.3465 39.2511 38.3797 39.2398 38.4129C39.2262 38.4523 39.2141 38.4881 39.2019 38.5216C39.2105 38.5269 39.2209 38.5337 39.2307 38.5435C39.3494 38.662 39.6943 39.9796 39.6285 40.2166C39.5627 40.4539 38.2105 41.1935 37.8023 41.5155C37.3938 41.8369 35.2959 43.7473 35.2038 43.9712C35.1499 44.1021 35.0175 44.2731 35.0175 44.3717V44.3797C35.0175 44.3797 34.995 44.3788 34.9929 44.3782C34.981 44.3954 34.9502 44.4102 34.9402 44.4218C35.0024 44.7518 35.0927 45.0835 35.2225 45.2778C35.5498 45.769 37.5434 47.2362 39.4807 46.841C41.418 46.4461 42.227 45.0169 42.2083 44.5465C42.1893 44.0764 42.2838 42.8571 42.2083 42.5262C42.1328 42.1954 42.2495 41.8568 42.2382 41.4806C42.227 41.1044 42.1141 40.5966 41.907 40.2391C41.7003 39.8819 41.7942 39.3175 41.7942 39.3175C41.7942 39.3175 42.1328 40.3896 42.3585 40.6719C42.5845 40.9539 42.8476 41.6124 42.8852 41.8191C42.9228 42.0259 42.7913 42.8076 42.7913 43.1128C42.7913 43.4179 43.0303 44.1326 42.892 44.697C42.855 44.848 42.7919 45.0101 42.7092 45.1736C42.7015 45.2062 42.692 45.2411 42.6784 45.2817C42.6011 45.5119 42.3425 46.7563 42.1615 47.0019C41.9808 47.2474 42.0323 47.7125 42.1097 48.4486C42.1529 48.8595 41.9269 49.4389 41.7183 49.8711L41.7237 49.8693C41.7237 49.8693 41.4648 50.8685 41.0622 51.7779C40.6596 52.6873 40.4105 52.7672 40.4105 52.7672L39.7488 51.8279C39.7488 51.8279 39.797 51.9177 39.356 52.868C38.9149 53.8179 38.7905 53.7264 38.7905 53.7264L38.1865 53.027L37.8796 53.8165C37.573 54.6059 37.4963 54.416 37.4963 54.416L37.0075 53.9264C37.0075 53.9264 37.0368 53.7664 36.7874 54.3162C36.5383 54.8657 36.3185 54.8959 36.3185 54.8959L36.0706 54.2561C36.0706 54.2561 36.0255 54.3663 35.8626 54.9057C35.7115 55.406 35.1407 55.8882 35.0175 55.9561V55.9564L35.0113 55.9531ZM44.004 58.5092C43.9021 58.548 43.8005 58.5445 43.6989 58.4986C43.5973 58.4526 43.5271 58.3786 43.488 58.2767C43.4492 58.1748 43.4524 58.0744 43.4981 57.9751C43.544 57.8759 43.6183 57.8069 43.7211 57.7675C43.8286 57.7266 43.93 57.7275 44.0256 57.7704C44.1213 57.8131 44.1894 57.888 44.2303 57.9953C44.27 58.0996 44.2676 58.2014 44.2235 58.301C44.1794 58.4008 44.1062 58.4704 44.004 58.5092ZM25.2396 58.1692C25.1391 58.1268 25.0682 58.0536 25.0267 57.9503C24.9852 57.8466 24.9858 57.7447 25.0286 57.644C25.0711 57.5435 25.1432 57.4733 25.2449 57.4336C25.3465 57.3936 25.4481 57.3954 25.5495 57.4384C25.6553 57.4831 25.7278 57.5542 25.767 57.6514C25.8063 57.7485 25.8035 57.8498 25.7587 57.9556C25.7153 58.0581 25.643 58.1301 25.5419 58.1712C25.4409 58.2127 25.3402 58.2121 25.2396 58.1692ZM45.2739 57.984C45.1741 58.0285 45.0722 58.0308 44.9682 57.9905C44.8642 57.9503 44.7902 57.8803 44.7458 57.7805C44.7013 57.6807 44.6989 57.5803 44.7392 57.4787C44.7792 57.3774 44.8497 57.3042 44.9504 57.2592C45.0553 57.2124 45.1566 57.2079 45.2544 57.2452C45.3524 57.2826 45.4247 57.354 45.4715 57.4588C45.5168 57.5604 45.5201 57.6623 45.4816 57.7645C45.4428 57.8664 45.3735 57.9396 45.2739 57.984ZM23.9894 57.598C23.8914 57.5501 23.8245 57.473 23.7889 57.3676C23.7532 57.2618 23.7594 57.1599 23.8075 57.0619C23.8555 56.9638 23.9314 56.8978 24.0351 56.8637C24.1386 56.8296 24.2401 56.8368 24.3391 56.8853C24.4421 56.936 24.5105 57.0106 24.5445 57.1099C24.5784 57.2091 24.57 57.3101 24.5195 57.4132C24.4704 57.5133 24.3944 57.5809 24.2912 57.6167C24.188 57.6523 24.0874 57.6463 23.9894 57.598ZM46.5115 57.3907C46.4144 57.4408 46.3128 57.4485 46.2064 57.4138C46.1007 57.3794 46.0228 57.3137 45.973 57.2165C45.9229 57.1193 45.9152 57.0189 45.9499 56.9155C45.9843 56.8119 46.0506 56.7349 46.1487 56.6845C46.2509 56.6324 46.3519 56.622 46.4517 56.654C46.5512 56.686 46.6274 56.7532 46.6798 56.8554C46.7307 56.9544 46.7396 57.056 46.7068 57.1599C46.6736 57.2642 46.6084 57.3409 46.5115 57.3907ZM22.775 56.9609C22.6797 56.9073 22.6173 56.827 22.5874 56.7197C22.5575 56.6122 22.5693 56.5109 22.6227 56.4155C22.6761 56.3204 22.7555 56.2585 22.8608 56.2301C22.9662 56.2016 23.0669 56.2141 23.1632 56.2683C23.2633 56.3243 23.3275 56.4028 23.356 56.5035C23.3844 56.6045 23.3706 56.7049 23.3145 56.8051C23.26 56.9022 23.1804 56.9659 23.0753 56.9958C22.9704 57.0257 22.8703 57.0142 22.775 56.9609ZM47.7169 56.7295C47.6224 56.7846 47.5214 56.7979 47.4135 56.7692C47.306 56.7405 47.2246 56.6792 47.1695 56.585C47.1144 56.4905 47.101 56.3909 47.1301 56.2855C47.1588 56.1803 47.221 56.0998 47.3161 56.0444C47.415 55.9863 47.5154 55.9706 47.6168 55.997C47.7181 56.0236 47.7977 56.0867 47.8558 56.1857C47.9118 56.2819 47.9263 56.3826 47.8991 56.4884C47.8718 56.5939 47.8111 56.6744 47.7169 56.7295ZM21.5968 56.2576C21.5046 56.199 21.4466 56.1155 21.4227 56.0067C21.3987 55.8977 21.416 55.797 21.4745 55.7049C21.533 55.6128 21.6156 55.5553 21.7223 55.5328C21.8291 55.51 21.9291 55.5283 22.0221 55.5873C22.119 55.6486 22.179 55.7307 22.2018 55.8329C22.2247 55.9351 22.2054 56.0349 22.144 56.1317C22.0842 56.2256 22.0011 56.2849 21.8947 56.3092C21.7884 56.3332 21.6891 56.316 21.5968 56.2576ZM48.8828 56.0044C48.7919 56.0645 48.6915 56.0832 48.5821 56.0606C48.4731 56.0378 48.3884 55.981 48.3283 55.8897C48.2681 55.7985 48.2498 55.6996 48.2726 55.5932C48.2957 55.4866 48.3532 55.4027 48.4453 55.3417C48.541 55.2786 48.6402 55.2573 48.743 55.2786C48.8455 55.2994 48.9284 55.358 48.9918 55.4534C49.0531 55.5467 49.0733 55.6465 49.0517 55.7535C49.03 55.8607 48.974 55.9442 48.8828 56.0044ZM35.0178 55.9611C35.0195 55.9632 35.0175 55.965 35.0175 55.965L35.0169 55.9647C35.0163 55.9638 35.0151 55.9623 35.0172 55.9608L35.0178 55.9611ZM20.4557 55.4892C20.3669 55.4258 20.3135 55.3391 20.2955 55.2292C20.2776 55.119 20.3003 55.0194 20.3638 54.9309C20.4272 54.8417 20.5129 54.789 20.6206 54.7724C20.7285 54.7555 20.8272 54.7789 20.9171 54.8432C21.0105 54.9098 21.0658 54.9948 21.083 55.0982C21.1004 55.2016 21.0756 55.2999 21.0089 55.3936C20.9441 55.4839 20.858 55.5387 20.7505 55.5571C20.6428 55.5751 20.5446 55.5526 20.4557 55.4892ZM50.0067 55.2167C49.9187 55.2819 49.8201 55.3062 49.7099 55.2893C49.5994 55.2724 49.5117 55.2203 49.4468 55.1326C49.3819 55.0449 49.3577 54.9471 49.3751 54.8396C49.3923 54.7315 49.445 54.6447 49.5336 54.5792C49.6257 54.5108 49.7238 54.4844 49.8275 54.4996C49.9311 54.515 50.0171 54.5689 50.0855 54.661C50.1518 54.7505 50.1773 54.8491 50.1616 54.9572C50.1459 55.0653 50.0944 55.1518 50.0067 55.2167ZM19.36 54.6613C19.2749 54.5932 19.2262 54.5037 19.2142 54.3929C19.2023 54.2821 19.2304 54.1841 19.2986 54.0988C19.3669 54.0135 19.4552 53.9652 19.5637 53.9545C19.6723 53.9435 19.7697 53.9726 19.8559 54.0413C19.9455 54.113 19.9961 54.201 20.0077 54.3049C20.0193 54.4092 19.9893 54.5061 19.9176 54.5958C19.8481 54.6829 19.759 54.7324 19.6506 54.7451C19.5422 54.7573 19.4454 54.7297 19.36 54.6613ZM51.0882 54.3677C51.0044 54.4376 50.9069 54.467 50.7958 54.4563C50.6847 54.4456 50.5944 54.3982 50.5248 54.3144C50.4552 54.2303 50.4258 54.134 50.4371 54.0253C50.4484 53.9169 50.4963 53.8271 50.5814 53.7569C50.6696 53.6835 50.7662 53.6518 50.8705 53.6615C50.9747 53.6713 51.0636 53.7202 51.1368 53.8085C51.2079 53.8944 51.2387 53.9915 51.2289 54.1002C51.2191 54.209 51.1723 54.2981 51.0882 54.3677ZM18.3123 53.7762C18.2308 53.7033 18.1871 53.6112 18.1813 53.4998C18.1754 53.3887 18.2087 53.2922 18.2814 53.2107C18.3542 53.1292 18.4451 53.086 18.5541 53.0809C18.6631 53.0762 18.7587 53.1103 18.8411 53.1837C18.9267 53.2602 18.9724 53.3508 18.9783 53.4554C18.9843 53.5599 18.949 53.655 18.8726 53.7406C18.7985 53.8239 18.7069 53.8686 18.5979 53.8754C18.489 53.8819 18.3938 53.8488 18.3123 53.7762ZM52.1211 53.4622C52.0411 53.5362 51.9452 53.5709 51.8341 53.5665C51.7224 53.5617 51.6297 53.5191 51.5553 53.4391C51.4813 53.3591 51.4469 53.2643 51.4523 53.1556C51.4576 53.0466 51.5008 52.9545 51.5817 52.8795C51.6658 52.8016 51.7603 52.7646 51.8652 52.7687C51.9698 52.7726 52.0613 52.8167 52.1392 52.9008C52.2147 52.9829 52.2509 53.078 52.247 53.1873C52.2432 53.2963 52.2014 53.3878 52.1211 53.4622ZM17.3114 52.8327C17.234 52.7557 17.1954 52.6615 17.1955 52.5498C17.1957 52.4384 17.2343 52.3439 17.3113 52.2666C17.3883 52.189 17.4815 52.1508 17.5906 52.152C17.6997 52.1529 17.7934 52.1923 17.8715 52.2699C17.9529 52.3511 17.9936 52.4438 17.9939 52.5486C17.9941 52.6535 17.9537 52.7465 17.8728 52.828C17.7941 52.9068 17.7003 52.9468 17.5911 52.9473C17.4821 52.9479 17.3888 52.9097 17.3114 52.8327ZM53.1025 52.5021C53.0267 52.5806 52.9328 52.6203 52.8214 52.6218C52.71 52.623 52.6152 52.586 52.5367 52.5098C52.4582 52.434 52.4188 52.3413 52.4182 52.2323C52.4176 52.1233 52.4556 52.0291 52.5323 51.9497C52.6123 51.8673 52.7047 51.8253 52.8093 51.8235C52.9141 51.8217 53.0077 51.8611 53.0901 51.9408C53.1701 52.0184 53.2112 52.1117 53.2136 52.221C53.2157 52.3297 53.1786 52.4236 53.1025 52.5021ZM35.5551 46.6556C35.2705 46.6571 35.0308 46.6719 34.8939 46.6822V46.6929C34.8939 46.6929 34.8818 46.6917 34.859 46.6896L34.8329 46.6873L34.8063 46.6896L34.7704 46.6929V46.6822C34.6359 46.6716 34.4016 46.6571 34.1235 46.6556H34.0882C33.6303 46.655 33.0615 46.6911 32.6195 46.8378C32.5336 46.8662 32.4374 46.8926 32.3337 46.9174C32.007 47.014 31.7427 47.0854 31.6343 47.1044C31.5917 47.1121 31.5256 47.1156 31.4429 47.1159H31.429C31.3778 47.1159 31.3203 47.115 31.2584 47.1129L31.2243 47.1118C30.4266 47.2252 29.6012 47.3215 29.2744 47.4927C28.7318 47.7768 28.659 47.5057 28.4136 48.1257C28.1681 48.7457 27.867 49.004 28.2028 49.6371C28.5387 50.2701 29.0534 50.3089 29.0534 50.3089L29.0537 50.3151L29.0635 50.3139C29.1123 50.3077 29.1632 50.2944 29.2158 50.2713C29.6461 50.0838 29.9378 49.7707 29.9378 49.7707L30.1088 50.3187L30.5276 50.0447C30.5276 50.0447 30.5347 50.0767 30.4861 50.4452C30.4376 50.8137 30.2986 50.9318 30.2986 50.9318L30.868 50.7094L30.9026 51.8356L31.3538 50.9179L31.4231 51.8981L31.7078 50.9804L31.9646 51.4114L32.4157 51.1472L32.749 52.1555L33.5055 51.3282L33.8181 51.9052L34.2346 51.4532L34.5169 52.5774L34.997 51.388L35.4639 52.5774L35.7352 51.4532L36.1354 51.9052L36.4355 51.3282L37.1627 52.1555L37.4826 51.1472L37.916 51.4114L38.1631 50.9804L38.4365 51.8981L38.5031 50.9179L38.9365 51.8356L38.97 50.7094L39.5168 50.9318L39.5153 50.9304C39.5005 50.9162 39.3806 50.7906 39.3367 50.4452C39.2902 50.0767 39.2967 50.0447 39.2967 50.0447L39.6993 50.3187L39.8637 49.7707L39.8669 49.7742C39.8998 49.8095 40.1741 50.0953 40.5619 50.2713C40.606 50.2914 40.6949 50.3033 40.6949 50.3104V50.3089C40.6949 50.3089 41.2041 50.2701 41.5397 49.6371C41.8756 49.004 41.5676 48.7457 41.322 48.1257C41.0767 47.5057 40.9991 47.7768 40.4564 47.4927C40.1401 47.3268 39.3492 47.2314 38.5733 47.1224L38.4981 47.1118C38.4294 47.1141 38.3651 47.1156 38.3079 47.1159H38.2937C38.2048 47.1159 38.1337 47.1124 38.089 47.1044C37.9859 47.0863 37.743 47.0211 37.4394 46.932C37.3076 46.9029 37.1858 46.8718 37.083 46.8378C36.6511 46.6944 36.0889 46.6568 35.6271 46.6556H35.591H35.5551ZM16.3664 51.8395C16.2933 51.7583 16.2598 51.662 16.266 51.5507C16.2722 51.4396 16.3159 51.3475 16.397 51.2743C16.4781 51.2011 16.5731 51.1679 16.6821 51.1748C16.7909 51.1819 16.8823 51.226 16.9561 51.3081C17.033 51.3934 17.0686 51.4882 17.0632 51.593C17.0578 51.6976 17.0124 51.7882 16.9272 51.8652C16.8444 51.9396 16.7485 51.9743 16.6395 51.9692C16.5305 51.9639 16.4394 51.9206 16.3664 51.8395ZM54.0309 51.4899C53.9592 51.5723 53.8677 51.6173 53.7566 51.6247C53.6455 51.6321 53.5486 51.5998 53.466 51.5284C53.3836 51.4568 53.3392 51.3664 53.3327 51.2577C53.3262 51.1487 53.359 51.0524 53.4313 50.9695C53.5069 50.8827 53.5966 50.8356 53.7012 50.8282C53.8057 50.8211 53.9011 50.8548 53.9879 50.9301C54.0721 51.0032 54.118 51.0942 54.126 51.2029C54.1343 51.3116 54.1026 51.4073 54.0309 51.4899ZM15.4732 50.7923C15.4047 50.7076 15.3766 50.6096 15.3888 50.4988C15.401 50.388 15.4495 50.2985 15.5346 50.2298C15.6196 50.1611 15.7163 50.1332 15.8246 50.146C15.933 50.1587 16.0219 50.2082 16.091 50.2938C16.1631 50.3832 16.1937 50.4798 16.1825 50.5844C16.1713 50.6884 16.1211 50.7766 16.0319 50.8486C15.9451 50.9185 15.8475 50.9478 15.739 50.9369C15.6304 50.9256 15.5419 50.8776 15.4732 50.7923ZM54.9021 50.43C54.8348 50.5162 54.7463 50.566 54.6355 50.5796C54.525 50.593 54.4263 50.566 54.3401 50.4991C54.2539 50.4321 54.2048 50.3444 54.1923 50.236C54.1799 50.1276 54.2074 50.0298 54.2753 49.9428C54.3458 49.8521 54.4329 49.8003 54.5368 49.7872C54.6408 49.7742 54.7383 49.8029 54.8286 49.8734C54.9169 49.9419 54.9678 50.0301 54.9818 50.1383C54.9954 50.2467 54.969 50.3438 54.9021 50.43ZM14.6402 49.701C14.5763 49.6125 14.5536 49.5132 14.5719 49.403C14.59 49.2931 14.6434 49.2064 14.7321 49.1424C14.8207 49.0787 14.9187 49.0559 15.0262 49.0745C15.1337 49.0932 15.2197 49.1474 15.2842 49.2369C15.3513 49.3299 15.3765 49.4282 15.3597 49.5316C15.3429 49.635 15.288 49.7203 15.1949 49.7875C15.1044 49.8527 15.0054 49.8767 14.8976 49.8595C14.7898 49.8423 14.704 49.7896 14.6402 49.701ZM55.7152 49.3228C55.653 49.4125 55.5671 49.467 55.4572 49.4866C55.3473 49.5061 55.2478 49.4845 55.158 49.4223C55.0683 49.3601 55.0143 49.2751 54.996 49.1675C54.9776 49.06 54.9998 48.9611 55.0629 48.8704C55.1281 48.7759 55.2125 48.7197 55.3156 48.701C55.4187 48.6823 55.5173 48.7054 55.6115 48.7709C55.7034 48.8343 55.759 48.9199 55.7789 49.0271C55.7987 49.1344 55.7774 49.233 55.7152 49.3228ZM13.8677 48.5656C13.8088 48.4738 13.7915 48.3737 13.8157 48.2647C13.8399 48.1559 13.8981 48.0718 13.9899 48.0129C14.0818 47.9539 14.181 47.9367 14.2874 47.9613C14.3937 47.9859 14.4767 48.0446 14.5362 48.1376C14.598 48.2339 14.6179 48.3337 14.5954 48.4359C14.5731 48.5384 14.5136 48.6204 14.417 48.6823C14.3231 48.7425 14.2229 48.7608 14.1162 48.738C14.0095 48.7152 13.9267 48.6577 13.8677 48.5656ZM56.4685 48.1705C56.4113 48.2635 56.3284 48.3227 56.2197 48.3482C56.1113 48.3737 56.0105 48.3577 55.9172 48.3005C55.8245 48.2433 55.7659 48.1616 55.7419 48.0552C55.7176 47.9486 55.7345 47.8485 55.7922 47.7546C55.8524 47.6568 55.9335 47.5958 56.0354 47.5715C56.1373 47.5472 56.2372 47.565 56.3349 47.6251C56.4297 47.6838 56.4901 47.7658 56.5159 47.8719C56.5414 47.9782 56.5257 48.0774 56.4685 48.1705ZM13.1592 47.3911C13.1054 47.2963 13.0936 47.195 13.1237 47.0878C13.1538 46.9802 13.2164 46.8997 13.3114 46.8461C13.4063 46.7921 13.5063 46.7803 13.6111 46.8105C13.716 46.8407 13.7956 46.9038 13.8499 46.9998C13.9066 47.0996 13.9209 47.2 13.8929 47.301C13.865 47.4021 13.8011 47.4809 13.7012 47.5374C13.6043 47.5925 13.5031 47.6056 13.3978 47.5768C13.2926 47.5481 13.2131 47.4862 13.1592 47.3911ZM50.8622 30.696C50.8509 30.6954 50.7778 30.6827 50.3861 30.5959C49.8518 30.4768 49.5132 30.2197 49.1186 29.8666C48.724 29.5133 48.4207 28.6361 47.8466 27.9205C47.2725 27.2049 47.2648 26.8942 47.2648 26.8942C47.2648 26.8942 47.0311 26.7556 47.7634 27.1119C48.4959 27.4683 49.4584 29.2409 49.4584 29.2409V28.9528L49.2697 28.1608C49.2697 28.1608 48.8636 26.676 48.4874 26.1613C48.1111 25.6467 47.0216 25.6047 45.6326 25.1418C44.4249 24.7392 44.7268 24.3383 44.826 24.2404C44.8734 24.2719 45.0926 24.3467 45.8622 24.5254C47.2062 24.8375 47.8659 24.7292 47.8659 24.7292C47.8659 24.7292 45.8927 24.0639 44.4578 22.9065C43.0226 21.7492 41.2456 22.1456 41.2456 22.1456L42.5199 22.7558L42.0377 23.1472C42.0377 23.1472 43.1755 23.3353 43.7578 23.5772C44.3402 23.8191 44.4957 24.8168 44.4957 24.8168L44.1006 24.9311C44.1006 24.9311 44.1678 24.9534 44.9054 25.3359C45.643 25.7184 46.053 26.702 46.053 26.702L45.3426 26.9206L45.7523 27.0572C46.1623 27.1939 46.9248 28.3933 46.9248 28.3933L46.1895 28.5326L46.7906 28.9424C47.3916 29.3522 47.583 30.2537 47.583 30.2537L46.9849 30.1154C46.3868 29.9771 46.5175 30.1447 46.5175 30.1447L46.7633 30.315C47.0092 30.4857 47.242 31.0147 47.242 31.0147L46.6268 30.7155C46.6268 30.7155 46.654 30.773 47.0092 32.0299C47.3644 33.2865 47.2823 35.2537 46.6813 36.374C46.0802 37.4943 45.3912 37.9902 45.3912 37.9902L44.9602 37.5761C44.9602 37.5761 44.9602 37.7126 45.0947 39.0139C45.2262 40.285 44.6607 40.594 44.6347 40.6073C44.6317 40.5934 44.5893 40.5087 44.3044 40.0548C43.922 39.4461 44.031 38.9967 44.031 38.9967C44.031 38.9967 43.6485 40.1171 43.7176 41.3286C43.7863 42.5402 44.2496 43.1225 44.669 44.662C45.0885 46.2015 44.5775 46.5104 44.5775 46.5104C44.5775 46.5104 44.4137 47.0294 44.9327 46.1277C45.2526 45.572 45.2819 45.1312 45.257 44.8741C45.2855 45.0112 45.329 45.2228 45.3971 45.5542C45.5885 46.4832 45.2404 47.4035 45.2404 47.4035C45.2404 47.4035 45.5337 47.2208 45.8747 46.0377C46.2159 44.8545 45.8889 44.7346 45.6104 43.9007C45.3323 43.0668 45.6104 42.9312 45.6104 42.9312C45.6104 42.9312 45.6158 42.8491 46.0921 43.6874C46.5684 44.5254 47.1872 44.7915 47.1872 44.7915C47.1872 44.7915 46.55 43.7425 46.5539 43.2167C46.5578 42.6912 47.2669 41.9498 46.931 41.2276C46.5951 40.5054 46.2443 40.2104 46.2443 40.2104C46.2443 40.2104 47.1342 40.7415 47.4793 41.0736C47.7726 41.3553 48.123 42.8521 48.1976 43.2979C48.1805 42.8204 48.1876 41.1061 47.8955 40.5045C47.5548 39.8031 47.1342 39.4138 47.1342 39.4138C47.1342 39.4138 48.5416 40.2634 49.1127 40.8606C49.6071 41.3775 49.9522 42.7419 50.0182 43.1187C50.0079 42.8438 49.999 42.0301 49.8248 41.2276C49.6074 40.2264 49.3781 39.8386 49.0594 39.4138C48.7409 38.9887 48.0104 38.3385 48.0104 38.3385C48.0104 38.3385 49.2984 38.6436 50.1616 39.0554C51.0245 39.4668 51.7683 40.9009 51.7683 40.9009C51.7683 40.9009 51.4096 39.7192 51.1572 39.1994C50.9045 38.6795 50.5159 38.3385 50.5159 38.3385C50.5159 38.3385 49.6782 37.6119 48.9107 36.3417C48.1434 35.0715 48.3712 34.6968 48.3712 34.6968C48.3712 34.6968 48.9628 35.6234 49.4578 35.9205C49.9528 36.2173 51.5165 36.5935 52.2885 36.8903C53.0605 37.1871 53.2385 37.4721 53.2385 37.4721C53.2385 37.4721 53.1001 37.0882 52.625 36.5935C52.1499 36.0985 51.8924 36.0591 51.2393 35.6234C50.5861 35.1879 50.2099 34.6337 49.7928 34.0824C49.376 33.5308 49.1411 33.1514 49.1411 33.1514C49.1411 33.1514 49.6755 33.3075 50.6453 33.5454C51.6155 33.7829 52.2873 35.1829 52.2873 35.1829C52.2873 35.1829 51.9914 34.3961 51.2393 33.2678C50.4872 32.1398 50.1308 32.1792 49.3588 31.6007C48.5866 31.0218 48.378 30.4486 48.378 30.4486C48.378 30.4486 48.7051 30.6551 49.7741 30.7937C50.8136 30.9282 50.8601 30.7081 50.8622 30.696ZM57.1543 46.9841C57.1024 47.0801 57.0227 47.1438 56.9158 47.1752C56.8089 47.2066 56.7073 47.1962 56.6113 47.144C56.5153 47.0919 56.4525 47.0131 56.4226 46.9086C56.3927 46.8034 56.4039 46.7027 56.4567 46.6055C56.5115 46.5045 56.5891 46.4393 56.6895 46.4097C56.7899 46.3798 56.8906 46.3922 56.9913 46.4467C57.0894 46.5001 57.154 46.5789 57.1854 46.6834C57.2168 46.788 57.2064 46.8881 57.1543 46.9841ZM12.5151 46.1781C12.4666 46.08 12.4603 45.9784 12.4962 45.873C12.5322 45.7675 12.599 45.6905 12.6969 45.6419C12.7946 45.5933 12.8951 45.5871 12.9982 45.6229C13.1011 45.6588 13.1773 45.7263 13.2263 45.825C13.2772 45.9278 13.2861 46.0291 13.2527 46.1283C13.2192 46.2275 13.1511 46.3028 13.0483 46.3537C12.9484 46.4032 12.8467 46.4109 12.7433 46.3762C12.6397 46.3419 12.5636 46.2758 12.5151 46.1781ZM28.9478 22.7293C28.8543 22.6659 28.5894 22.5056 28.2249 22.4492C27.7666 22.3781 27.2459 22.7221 27.2459 22.7221C27.2459 22.7221 27.7934 22.1988 28.9705 21.8069C29.6988 21.5645 30.083 21.622 30.2705 21.7012C29.9112 21.4707 28.9782 20.9425 28.0139 20.9736C26.7836 21.0133 26.5652 21.5094 26.5652 21.5094L27.4383 21.7673C27.4383 21.7673 27.24 21.7276 25.8509 22.0253C24.4619 22.323 23.3704 23.7318 23.3704 23.7318C23.3704 23.7318 23.4697 23.7318 23.992 23.7015C24.5144 23.6713 24.7992 24.1882 24.7992 24.1882C24.7992 24.1882 23.4697 24.4065 22.3585 24.9225C21.2471 25.4384 21.009 26.0535 21.009 26.0535C21.009 26.0535 21.3861 25.9543 22.16 25.7757C22.854 25.6155 22.9892 25.9811 23.0097 26.0585C22.9935 26.0449 22.9208 26.0483 22.6164 26.2193C22.1799 26.4644 21.8028 27.1647 21.1964 28.17C20.7248 28.9518 20.2147 29.2409 20.0106 29.3312C20.08 29.3041 20.2011 29.2569 20.4137 29.1741C20.9098 28.9808 21.6441 29.0697 21.6441 29.0697C21.6441 29.0697 20.7907 29.5461 19.6441 30.4486C18.4974 31.3515 18.727 32.0068 18.727 32.0068C18.727 32.0068 18.9453 31.848 19.8978 31.5304C20.8503 31.2129 21.1191 31.6007 21.1191 31.6007C21.1191 31.6007 20.8106 31.7091 19.5207 32.7607C18.8223 33.3303 18.485 33.5445 18.3222 33.6215C18.4546 33.5966 18.6939 33.5531 19.1241 33.4769C20.2354 33.2805 21.0884 33.4769 21.0884 33.4769C21.0884 33.4769 19.9573 33.713 19.0643 34.4299C18.1713 35.147 17.7745 36.2531 17.9134 36.0917C18.0524 35.9305 19.0444 35.4593 19.8382 35.4199C20.632 35.3799 20.7511 36.015 20.7511 36.015C20.7511 36.015 20.4137 35.9554 19.4613 36.7493C18.5088 37.5432 18.5683 39.3685 18.4492 40.0234C18.3302 40.6784 17.5562 41.0356 17.5562 41.0356C17.5562 41.0356 17.7547 41.0552 18.2954 40.8256C18.8361 40.596 18.7667 40.2616 18.9453 39.7654C19.124 39.2693 19.6596 38.5352 20.3593 38.2058C21.059 37.8764 21.4847 38.2058 21.4847 38.2058C21.4847 38.2058 21.3265 38.2971 20.9693 38.5115C20.6122 38.7257 20.2748 40.1425 20.1359 41.0155C19.9971 41.8888 19.0569 42.3968 19.0569 42.3968C19.0569 42.3968 19.62 42.4445 20.1558 41.988C20.6916 41.5315 20.8304 40.8769 21.1479 40.5196C21.4655 40.1624 21.9416 40.2815 21.9416 40.2815C21.9416 40.2815 21.4059 40.8769 21.2471 41.6903C21.1175 42.3544 20.7104 43.164 20.5652 43.4386C20.6177 43.3853 20.6897 43.3136 20.7897 43.2167C21.3444 42.6797 21.9219 41.6704 22.418 41.4441C22.914 41.2178 23.1212 41.4441 23.1212 41.4441C23.1212 41.4441 22.8346 41.4918 22.5568 42.0078C22.279 42.5239 22.1996 43.4365 22.0184 44.2751C21.8371 45.1137 21.227 45.6597 21.227 45.6597C21.227 45.6597 21.9219 45.1828 22.4542 44.7835C22.9866 44.3841 23.0133 43.5556 23.4895 43.0991C23.9657 42.6427 24.3409 42.821 24.3409 42.821C24.3409 42.821 23.9883 43.0529 23.5377 44.3311C23.0869 45.609 23.256 46.1819 23.256 46.1819C23.256 46.1819 23.7553 45.5163 24.3212 44.662C24.8871 43.8077 26.3186 42.9196 26.3274 41.4086C26.3363 39.8973 26.1112 39.8241 26.1112 39.8241C26.1112 39.8241 25.5862 40.3232 24.987 40.9225C24.3878 41.5217 23.9147 41.2276 23.9147 41.2276C23.9147 41.2276 24.288 41.1553 24.7872 40.2566C25.2866 39.3578 24.8206 39.5196 24.8206 39.5196C24.8206 39.5196 24.1548 39.258 23.6554 38.093C23.1562 36.9276 23.6221 36.0917 23.6221 36.0917L22.876 36.2256C22.876 36.2256 23.4808 35.9323 23.6418 35.0756C23.6734 34.9071 23.6955 34.7913 23.7107 34.7128C23.666 34.7563 23.4231 34.9874 22.8944 35.3825C22.3047 35.8233 21.7948 35.7673 21.7948 35.7673C21.7948 35.7673 22.9341 34.942 23.4243 34.2527C23.8675 33.6292 23.6002 32.5847 23.5451 32.3904C23.5124 32.4259 23.4598 32.479 23.3761 32.5592C23.015 32.9067 22.2911 32.9695 22.2911 32.9695C22.2911 32.9695 23.2059 32.3587 23.6458 31.2224C24.0856 30.0861 23.8929 29.5241 23.8929 29.5241C23.8929 29.5241 23.3892 29.8663 22.7844 30.315C22.221 30.7336 22.246 30.9688 22.2521 30.999C22.2442 30.9626 22.1687 30.5485 22.7111 29.8666C23.2792 29.1519 23.4441 29.3531 24.0974 28.2365C24.7507 27.1198 24.2873 27.5387 24.2873 27.5387L23.3165 27.8479C23.4342 27.7734 23.7218 27.5231 24.4198 26.7197C25.4987 25.4779 25.5581 25.4512 25.5611 25.4511L24.1872 25.3758C24.3034 25.3661 24.6051 25.3042 25.3846 25.0253C26.5746 24.5995 26.9267 23.8562 26.9267 23.8562L25.7787 24.0517C25.7787 24.0517 26.4125 23.4443 27.649 22.9955C28.569 22.6614 28.8593 22.6919 28.9478 22.7293ZM57.7766 45.7574C57.7298 45.8561 57.654 45.9242 57.5488 45.9612C57.4437 45.9986 57.3418 45.9938 57.2431 45.947C57.1445 45.9002 57.0772 45.8253 57.0417 45.7222C57.0061 45.6188 57.0121 45.5175 57.0592 45.418C57.1083 45.3143 57.1821 45.2447 57.2807 45.2094C57.3794 45.1742 57.4807 45.1813 57.5844 45.2302C57.6851 45.2778 57.7538 45.3531 57.7911 45.4556C57.8282 45.5581 57.8234 45.6588 57.7766 45.7574ZM11.9382 44.931C11.8951 44.8308 11.8944 44.7286 11.9361 44.6256C11.9778 44.5222 12.0488 44.4487 12.1491 44.4058C12.2495 44.3628 12.3502 44.3619 12.451 44.4034C12.5519 44.4452 12.6242 44.5163 12.6676 44.6176C12.7129 44.7233 12.7161 44.8246 12.6774 44.9221C12.6385 45.0192 12.5664 45.0906 12.4609 45.136C12.3586 45.1798 12.2566 45.1819 12.155 45.1416C12.0536 45.1016 11.9813 45.0314 11.9382 44.931ZM58.3291 44.5026C58.2879 44.6036 58.2159 44.6756 58.1128 44.7186C58.0101 44.7612 57.9081 44.7621 57.8068 44.7209C57.7058 44.6798 57.6347 44.6087 57.5933 44.5077C57.5521 44.4064 57.5524 44.3051 57.5942 44.2029C57.6374 44.0965 57.7073 44.023 57.8039 43.9825C57.9007 43.9419 58.0021 43.9431 58.1084 43.9866C58.2115 44.0287 58.2844 44.1001 58.327 44.2002C58.3697 44.3006 58.3706 44.4013 58.3291 44.5026ZM31.2451 44.662C31.352 44.662 31.4385 44.5755 31.4385 44.4686C31.4385 44.3616 31.352 44.2751 31.2451 44.2751C31.1381 44.2751 31.0516 44.3616 31.0516 44.4686C31.0516 44.5755 31.1381 44.662 31.2451 44.662ZM38.478 44.2751C38.3713 44.2751 38.2845 44.3616 38.2845 44.4686C38.2845 44.5755 38.3713 44.662 38.478 44.662C38.5849 44.662 38.6714 44.5755 38.6714 44.4686C38.6714 44.3616 38.5849 44.2751 38.478 44.2751ZM39.7049 43.6874C39.5272 43.6874 39.3832 43.8314 39.3832 44.0091C39.3832 44.1869 39.5272 44.3311 39.7049 44.3311C39.8827 44.3311 40.0269 44.1869 40.0269 44.0091C40.0269 43.8314 39.8827 43.6874 39.7049 43.6874ZM30.0184 44.3311C30.1961 44.3311 30.3401 44.1869 30.3401 44.0091C30.3401 43.8314 30.1961 43.6874 30.0184 43.6874C29.8407 43.6874 29.6964 43.8314 29.6964 44.0091C29.6964 44.1869 29.8407 44.3311 30.0184 44.3311ZM11.4302 43.6528C11.3928 43.5503 11.3976 43.4484 11.445 43.3474C11.4922 43.2466 11.5672 43.1773 11.6697 43.1397C11.7723 43.1024 11.8728 43.1071 11.9713 43.1542C12.0697 43.2013 12.1379 43.2766 12.1758 43.3802C12.2153 43.4881 12.2128 43.5894 12.1687 43.6845C12.1245 43.7793 12.0487 43.8468 11.9409 43.8859C11.8362 43.9244 11.7343 43.9209 11.6352 43.8752C11.536 43.8293 11.4677 43.7556 11.4302 43.6528ZM58.8131 43.2152C58.7776 43.3183 58.7094 43.3942 58.6093 43.4427C58.5086 43.491 58.407 43.4975 58.3036 43.462C58.2005 43.4265 58.1256 43.3592 58.0788 43.2606C58.0323 43.1619 58.0266 43.0606 58.0628 42.9563C58.1001 42.8476 58.1659 42.7706 58.2601 42.7247C58.3543 42.6788 58.4556 42.6746 58.5643 42.712C58.6694 42.7484 58.7462 42.8156 58.7945 42.9134C58.8424 43.0114 58.8487 43.1119 58.8131 43.2152ZM30.8505 42.496C30.6713 42.496 30.5258 42.6415 30.5258 42.821C30.5258 43.0005 30.6713 43.1459 30.8505 43.1459C31.03 43.1459 31.1755 43.0005 31.1755 42.821C31.1755 42.6415 31.03 42.496 30.8505 42.496ZM39.1975 42.821C39.1975 42.6415 39.052 42.496 38.8725 42.496C38.6933 42.496 38.5476 42.6415 38.5476 42.821C38.5476 43.0005 38.6933 43.1459 38.8725 43.1459C39.052 43.1459 39.1975 43.0005 39.1975 42.821ZM10.9941 42.3503C10.9623 42.2457 10.9727 42.1447 11.0256 42.0464C11.0784 41.948 11.157 41.8831 11.2614 41.8514C11.3659 41.8194 11.466 41.8298 11.5617 41.8822C11.6574 41.9347 11.7213 42.0135 11.7535 42.1192C11.787 42.2291 11.7789 42.3301 11.7297 42.4226C11.6803 42.515 11.6009 42.5781 11.4911 42.6112C11.3845 42.6438 11.2829 42.6347 11.1864 42.5837C11.09 42.5325 11.0258 42.4548 10.9941 42.3503ZM59.2252 41.9048C59.1952 42.0096 59.1316 42.089 59.0341 42.1429C58.9363 42.1968 58.835 42.209 58.7302 42.1791C58.625 42.1491 58.5465 42.0863 58.4944 41.9904C58.4422 41.8947 58.4313 41.7934 58.4615 41.6873C58.4929 41.5768 58.5545 41.4963 58.646 41.4453C58.7376 41.3944 58.8386 41.3846 58.9488 41.416C59.056 41.4465 59.1363 41.5093 59.1899 41.6044C59.2432 41.6995 59.2551 41.7996 59.2252 41.9048ZM40.1875 41.6607C40.3071 41.6607 40.4043 41.5638 40.4043 41.4441C40.4043 41.3245 40.3071 41.2276 40.1875 41.2276C40.0681 41.2276 39.9709 41.3245 39.9709 41.4441C39.9709 41.5638 40.0681 41.6607 40.1875 41.6607ZM29.5357 41.2276C29.416 41.2276 29.3191 41.3245 29.3191 41.4441C29.3191 41.5638 29.416 41.6607 29.5357 41.6607C29.6552 41.6607 29.7521 41.5638 29.7521 41.4441C29.7521 41.3245 29.6552 41.2276 29.5357 41.2276ZM10.6303 41.0268C10.6043 40.9207 10.6204 40.8203 10.6786 40.7252C10.7366 40.6298 10.8187 40.5694 10.9248 40.5433C11.0309 40.5173 11.1302 40.533 11.2229 40.5907C11.3156 40.6482 11.3751 40.7305 11.4014 40.8378C11.4288 40.9491 11.4152 41.0496 11.3609 41.1393C11.3066 41.2288 11.2238 41.2874 11.1123 41.3147C11.0041 41.3413 10.9032 41.3265 10.8097 41.2703C10.7161 41.214 10.6564 41.1331 10.6303 41.0268ZM59.5643 40.5735C59.5403 40.6802 59.4811 40.7631 59.3866 40.8221C59.2921 40.8816 59.1914 40.8991 59.085 40.8751C58.9787 40.8511 58.8966 40.7924 58.8395 40.6997C58.782 40.6067 58.7657 40.5066 58.79 40.3988C58.8152 40.2868 58.8721 40.203 58.9606 40.147C59.0492 40.091 59.1496 40.0756 59.2616 40.1011C59.3703 40.1256 59.4538 40.1837 59.5125 40.2758C59.5712 40.368 59.5883 40.4672 59.5643 40.5735ZM10.3401 39.6852C10.3199 39.5779 10.3414 39.4781 10.4047 39.3863C10.468 39.2944 10.5532 39.2388 10.6606 39.2186C10.7678 39.1982 10.8663 39.2198 10.9557 39.2823C11.0451 39.3448 11.1 39.4301 11.1204 39.5385C11.1415 39.6514 11.1225 39.7509 11.0633 39.8377C11.0042 39.9239 10.9182 39.9778 10.8054 39.9992C10.6959 40.0196 10.596 39.9992 10.5057 39.9381C10.4155 39.8768 10.3602 39.7924 10.3401 39.6852ZM59.8298 39.2254C59.8117 39.333 59.7572 39.4192 59.6662 39.4834C59.575 39.5477 59.4755 39.5705 59.3679 39.5525C59.2604 39.5344 59.1751 39.4805 59.1129 39.3907C59.0507 39.3013 59.0288 39.202 59.0471 39.0933C59.0664 38.9802 59.1185 38.8931 59.2038 38.8323C59.2891 38.7716 59.3884 38.7509 59.5015 38.7701C59.6114 38.7888 59.6982 38.8421 59.7616 38.931C59.8253 39.0195 59.8481 39.1179 59.8298 39.2254ZM10.1233 38.3276C10.1091 38.2195 10.1361 38.1211 10.2043 38.0328C10.2725 37.9449 10.3607 37.8936 10.4689 37.8794C10.5772 37.8652 10.6743 37.8918 10.7601 37.9591C10.846 38.0266 10.8961 38.1149 10.9104 38.2242C10.9255 38.3379 10.901 38.4363 10.8372 38.5195C10.7734 38.6028 10.6845 38.6516 10.5709 38.6667C10.4604 38.6813 10.3618 38.6555 10.2749 38.5894C10.1881 38.5231 10.1375 38.436 10.1233 38.3276ZM60.0211 37.8652C60.009 37.9736 59.9589 38.0625 59.8715 38.1315C59.7841 38.2008 59.6861 38.2292 59.5777 38.2171C59.4692 38.2046 59.3813 38.1555 59.3143 38.0696C59.2471 37.9834 59.2198 37.8856 59.2323 37.776C59.245 37.662 59.2927 37.5722 59.3745 37.507C59.4565 37.4416 59.5543 37.4155 59.6683 37.4282C59.7791 37.441 59.8686 37.4896 59.937 37.5746C60.0051 37.6596 60.0336 37.7565 60.0211 37.8652ZM9.98137 36.9623C9.97299 36.8536 10.0053 36.7567 10.0783 36.6723C10.1511 36.5879 10.2419 36.5416 10.3509 36.5334C10.4598 36.5251 10.5552 36.5571 10.6373 36.629C10.7194 36.701 10.7645 36.7917 10.7729 36.9019C10.7817 37.0162 10.7519 37.1131 10.6838 37.1927C10.6156 37.2721 10.5242 37.3166 10.4098 37.3252C10.2986 37.3334 10.2016 37.3023 10.1185 37.2315C10.0354 37.161 9.98975 37.0713 9.98137 36.9623ZM60.1378 36.4975C60.1316 36.6065 60.0866 36.6981 60.003 36.7718C59.9195 36.8456 59.8232 36.8793 59.7142 36.8728C59.6052 36.8666 59.5149 36.8225 59.4432 36.7401C59.3715 36.6578 59.3389 36.5615 59.3451 36.4516C59.3519 36.3367 59.3943 36.2448 59.4728 36.1752C59.551 36.1053 59.6476 36.0739 59.7619 36.0804C59.8733 36.0872 59.9654 36.1308 60.038 36.2122C60.1109 36.2934 60.144 36.3885 60.1378 36.4975ZM9.91362 35.5917C9.91114 35.4824 9.94867 35.3876 10.0259 35.3073C10.1032 35.227 10.1965 35.1858 10.3057 35.1832C10.4148 35.1808 10.5084 35.2178 10.5864 35.294C10.6646 35.3704 10.7048 35.4637 10.7072 35.5739C10.7098 35.6885 10.6749 35.7839 10.6025 35.8594C10.53 35.9353 10.4365 35.9744 10.3217 35.9767C10.2103 35.9794 10.1152 35.9433 10.0359 35.8677C9.95681 35.7928 9.91596 35.7007 9.91362 35.5917ZM60.1805 35.1272C60.1787 35.2365 60.1375 35.3298 60.0573 35.4071C59.977 35.4844 59.8822 35.522 59.7729 35.5203C59.6636 35.5185 59.5714 35.4779 59.4965 35.3988C59.4216 35.3194 59.3848 35.2249 59.3866 35.1147C59.3884 34.9995 59.4269 34.9059 59.5024 34.833C59.5777 34.7602 59.6728 34.7246 59.7874 34.7264C59.8988 34.7285 59.9927 34.7682 60.0688 34.8464C60.1449 34.9246 60.1823 35.0182 60.1805 35.1272ZM58.5607 11.2841L53.8706 17.1748C57.973 21.5156 60.5943 27.2734 60.9231 33.6372L68.4297 34.9468C68.4149 25.6976 64.6446 17.3296 58.5607 11.2841ZM11.4799 11.2441C5.37175 17.2928 1.58471 25.6776 1.57034 34.9468L9.07682 33.6372C9.40711 27.2541 12.0429 21.4811 16.1687 17.1333L11.4799 11.2441ZM9.91967 34.2169C9.92299 34.1076 9.96558 34.0152 10.047 33.939C10.1286 33.8629 10.2239 33.8268 10.3331 33.83C10.4422 33.8336 10.5337 33.8753 10.6075 33.9559C10.6815 34.0362 10.7166 34.1316 10.7132 34.2418C10.7096 34.3564 10.6696 34.4497 10.5932 34.5214C10.5168 34.5931 10.4213 34.6272 10.3065 34.6236C10.1953 34.6201 10.102 34.5786 10.027 34.4995C9.95199 34.4201 9.9162 34.3259 9.91967 34.2169ZM60.1494 33.7515C60.155 33.8602 60.1201 33.9562 60.0448 34.0386C59.9699 34.1209 59.8777 34.1648 59.7684 34.1701C59.6594 34.1757 59.5649 34.1411 59.4847 34.067C59.4047 33.9929 59.362 33.9008 59.3567 33.7906C59.3508 33.676 59.383 33.5797 59.4536 33.5021C59.5238 33.4245 59.6165 33.3827 59.7308 33.3771C59.8422 33.3715 59.9385 33.4052 60.0196 33.4784C60.1008 33.5513 60.144 33.6422 60.1494 33.7515ZM9.99953 32.8469C10.0088 32.7381 10.0563 32.6481 10.1417 32.5764C10.2272 32.505 10.3244 32.4739 10.4332 32.4831C10.5421 32.4926 10.6311 32.5391 10.7005 32.6235C10.7699 32.7076 10.7998 32.8048 10.7904 32.9147C10.7807 33.029 10.7358 33.1197 10.6557 33.1872C10.5754 33.2551 10.4782 33.2838 10.3639 33.274C10.2528 33.2645 10.1621 33.218 10.0915 33.1348C10.0207 33.0516 9.99014 32.9556 9.99953 32.8469ZM43.6462 30.4486C43.6462 30.4486 43.682 31.6386 43.0333 31.9271C42.3849 32.2153 41.3975 32.4316 41.3975 32.4316C41.3975 32.4316 40.5263 32.2876 40.2666 32.8999C40.0068 33.5125 40.476 32.8643 41.1603 32.7201C41.8442 32.5755 43.9702 33.3303 43.6462 30.4486ZM28.5019 32.7201C29.186 32.8643 29.6552 33.5125 29.3955 32.8999C29.1358 32.2876 28.2643 32.4316 28.2643 32.4316C28.2643 32.4316 27.2771 32.2153 26.6289 31.9271C25.9799 31.6386 26.016 30.4486 26.016 30.4486C25.6918 33.3303 27.8177 32.5755 28.5019 32.7201ZM60.0445 32.383C60.0558 32.4917 60.0261 32.5891 59.9556 32.6753C59.8849 32.7618 59.7954 32.8107 59.6867 32.822C59.578 32.8332 59.4817 32.8042 59.3979 32.7343C59.3137 32.6647 59.2663 32.5749 59.2548 32.4653C59.2429 32.351 59.2699 32.2532 59.3359 32.1721C59.402 32.0906 59.4921 32.0441 59.6064 32.0322C59.7172 32.0207 59.8149 32.0491 59.9 32.1176C59.985 32.186 60.0333 32.2746 60.0445 32.383ZM10.154 31.4801C10.1694 31.372 10.2216 31.2846 10.3109 31.2179C10.4002 31.151 10.4989 31.1255 10.607 31.1406C10.7151 31.1557 10.8016 31.2076 10.8662 31.2952C10.9309 31.3832 10.9556 31.4816 10.9402 31.5909C10.9242 31.7046 10.8744 31.7929 10.7906 31.856C10.7069 31.9191 10.6083 31.9425 10.4946 31.9265C10.3842 31.9108 10.2961 31.8596 10.2302 31.7728C10.1642 31.686 10.1389 31.5882 10.154 31.4801ZM32.7617 29.6592C32.6909 29.9842 32.733 30.329 32.6841 30.6616C32.6275 31.0446 32.4951 31.4099 32.3956 31.7822C32.3879 31.8113 32.4294 31.8296 32.4445 31.8027C32.7558 31.244 33.0979 30.2964 32.8802 29.6592C32.8619 29.605 32.7757 29.5958 32.7617 29.6592ZM59.865 31.0212C59.8822 31.1291 59.8579 31.2283 59.7921 31.3181C59.7264 31.4084 59.6396 31.4617 59.5317 31.4792C59.4239 31.4964 59.3262 31.4724 59.2385 31.4075C59.1508 31.3423 59.0984 31.2556 59.0812 31.1465C59.0628 31.0331 59.0848 30.9342 59.1461 30.8491C59.2077 30.7644 59.2951 30.7129 59.4085 30.6948C59.5184 30.6773 59.6177 30.7004 59.7062 30.7641C59.7948 30.8278 59.8478 30.9134 59.865 31.0212ZM37.7549 29.254C37.7365 29.191 37.6675 29.182 37.6207 29.2185C37.1121 29.6183 37.5484 30.7751 37.7638 31.2342C37.7768 31.2624 37.828 31.2496 37.8239 31.2179C37.7812 30.901 37.7247 30.5885 37.7078 30.2679C37.69 29.9347 37.8491 29.5709 37.7549 29.254ZM28.7964 30.374C28.796 30.374 28.7957 30.374 28.7953 30.374C28.7892 30.3882 28.7821 30.4004 28.7726 30.4087C28.7475 30.4294 28.7193 30.4383 28.69 30.4386H28.6872C28.5962 30.4383 28.495 30.3592 28.4428 30.3168C28.2306 30.1441 28.2169 29.9922 28.2169 29.7247L28.62 29.6C28.602 29.5997 28.5838 29.5994 28.5656 29.5994H28.529C28.1679 29.6006 27.7698 29.637 27.3873 29.6835C27.3676 29.8852 27.3708 30.1302 27.4573 30.3272C27.5562 30.5526 27.72 30.7949 27.925 30.9798C28.0475 31.0008 28.2697 31.0387 28.6753 31.108C28.8161 31.1323 28.9419 31.1442 29.0538 31.1445H29.0621C29.66 31.1424 29.8584 30.8026 29.8282 30.1977C29.8084 29.802 29.398 29.6456 28.8415 29.6086L28.8284 29.6077C28.9024 29.8352 29.1274 30.3248 28.8037 30.3737L28.7964 30.374ZM40.8205 29.6086C40.2639 29.6456 39.8536 29.802 39.8338 30.1977C39.8033 30.8056 40.0038 31.1457 40.6081 31.1445H40.6167C40.7266 31.1436 40.8495 31.1317 40.9867 31.108C41.3922 31.0387 41.6144 31.0008 41.737 30.9798C41.942 30.7949 42.1058 30.5526 42.2047 30.3272C42.2912 30.1302 42.2945 29.8852 42.2747 29.6835C41.8922 29.637 41.4941 29.6006 41.133 29.5994H41.0966C41.0782 29.5994 41.0601 29.5997 41.0421 29.6L41.4449 29.7247C41.4449 29.9922 41.4313 30.1441 41.2192 30.3168C41.1677 30.3589 41.0678 30.4365 40.9778 30.4386H40.9748C40.9446 30.4386 40.9153 30.43 40.8895 30.4087C40.8797 30.4004 40.8729 30.3882 40.8667 30.374L40.8581 30.3737C40.5397 30.3254 40.7527 29.8503 40.83 29.6186L40.8338 29.6077L40.8205 29.6086ZM10.3826 30.1266C10.4038 30.0197 10.4606 29.9353 10.5535 29.8734C10.6464 29.8118 10.7462 29.7913 10.8535 29.8124C10.9607 29.8337 11.0441 29.89 11.1038 29.9812C11.1635 30.0724 11.1828 30.1723 11.1615 30.2804C11.1392 30.393 11.0847 30.4786 10.9975 30.5369C10.9105 30.5953 10.8107 30.6133 10.6981 30.5911C10.5889 30.5695 10.5036 30.5135 10.4425 30.4232C10.3814 30.3325 10.3614 30.2339 10.3826 30.1266ZM59.6111 29.6716C59.6342 29.7783 59.6156 29.8784 59.5549 29.9717C59.4938 30.0653 59.4103 30.1237 59.3037 30.1468C59.1967 30.1699 59.0978 30.1515 59.0068 30.0914C58.9159 30.0313 58.8584 29.9471 58.8353 29.8396C58.8107 29.7273 58.827 29.6272 58.8839 29.5389C58.9405 29.451 59.0252 29.3948 59.1375 29.3705C59.2462 29.3469 59.3466 29.3646 59.4384 29.4233C59.5306 29.4821 59.588 29.5647 59.6111 29.6716ZM10.6853 28.7869C10.7122 28.6811 10.7738 28.6001 10.8698 28.5434C10.966 28.4869 11.0669 28.4721 11.1727 28.4991C11.2785 28.5261 11.3587 28.5869 11.4134 28.6813C11.4681 28.7757 11.4817 28.8763 11.4545 28.9833C11.4261 29.0945 11.3668 29.1768 11.2767 29.2303C11.1866 29.2837 11.0859 29.2963 10.9747 29.2679C10.8668 29.2404 10.7848 29.1798 10.7287 29.0861C10.6728 28.9926 10.6582 28.8928 10.6853 28.7869ZM59.2838 28.3385C59.3128 28.4438 59.2995 28.5448 59.2441 28.6415C59.1887 28.7382 59.1082 28.8011 59.003 28.83C58.8975 28.8589 58.798 28.8459 58.7035 28.7909C58.6093 28.7359 58.5477 28.6552 58.5184 28.549C58.4879 28.4382 58.4988 28.3373 58.5507 28.2463C58.6022 28.1552 58.6834 28.0945 58.7945 28.064C58.9017 28.0345 59.003 28.0465 59.0978 28.1002C59.1929 28.1537 59.2551 28.2333 59.2838 28.3385ZM38.8971 22.4492C38.8971 22.4492 38.7363 22.4828 38.1767 22.7558C37.6171 23.0287 36.6929 23.0679 36.3674 23.224C36.0421 23.3802 35.7687 23.6145 35.7687 23.6145C35.7687 23.6145 35.8469 23.0287 36.3934 22.6513C36.9403 22.2738 37.5389 21.9615 37.7732 21.6622C38.0076 21.3627 37.9685 21.2066 37.9685 21.2066C37.9685 21.2066 37.7863 21.4929 37.3307 21.597C36.9669 21.6802 36.6716 21.6567 36.4867 21.703C36.6719 21.5827 36.9847 21.321 37.097 20.9685C37.2406 20.5184 37.0593 19.9127 36.977 19.6787C37.0137 19.8162 37.0339 20.0807 36.7889 20.3695C36.4325 20.79 36.3416 20.8161 36.3416 20.8161C36.3416 20.8161 36.4847 20.4516 36.2895 20.1133C36.0942 19.7748 35.873 19.5665 35.7817 19.3322C35.6908 19.098 35.6517 19.3062 35.5865 19.6707C35.5276 20.0017 35.5969 20.0319 35.6102 20.0348C35.5865 20.031 35.2506 19.972 35.0898 19.6707C34.9227 19.3583 34.9096 19.4104 34.9096 19.4104C34.9096 19.4104 34.8836 19.4754 34.9096 19.8399C34.9357 20.2044 35.0438 20.3695 35.0438 20.3695C35.0438 20.3695 34.6493 20.5297 34.4153 20.2044L34.1809 19.8789C34.1809 19.8789 34.0761 19.9099 34.1676 20.3695C34.2591 20.8292 34.5323 21.2456 34.5323 21.2456C34.5323 21.2456 33.8815 21.3498 33.478 20.8942C33.0745 20.4386 31.7599 20.764 31.7599 20.764C31.7599 20.764 33.1525 20.9982 33.5432 22.0526C33.9336 23.1069 33.8684 23.0158 33.8684 23.0158C33.8684 23.0158 33.7902 22.8205 33.3349 22.5342C32.9513 22.293 32.6053 22.3747 32.5055 22.3832C32.6732 22.4421 33.5684 22.9574 33.9336 24.1351C34.3371 25.4366 34.311 25.645 34.311 25.645L33.6993 25.1113C33.6993 25.1113 33.9336 25.3195 34.4801 26.4128C35.027 27.5063 35.1182 28.17 35.1182 28.17L35.2971 27.1207C35.2971 27.1207 35.7038 24.7078 36.6799 24.0309C37.6559 23.3542 38.5245 23.1061 38.8971 22.4492ZM11.0611 27.466C11.0938 27.3619 11.1597 27.2842 11.2588 27.233C11.3578 27.1818 11.4595 27.1725 11.5636 27.2054C11.6677 27.2382 11.7445 27.3031 11.794 27.4005C11.8434 27.4978 11.8515 27.5991 11.8183 27.7042C11.784 27.8137 11.7203 27.8927 11.6274 27.9411C11.5344 27.9896 11.4333 27.9966 11.3238 27.9621C11.2175 27.9286 11.139 27.8637 11.0882 27.7671C11.0373 27.6705 11.0284 27.5701 11.0611 27.466ZM30.0149 27.7305L30.9456 27.5785L31.4397 27.7305C31.4397 27.7305 31.4471 27.7079 31.4575 27.6696C31.4995 27.513 31.5908 27.0943 31.4397 26.8677C31.2516 26.5852 31.3265 26.703 31.3265 26.703L31.2092 27.1207L30.7258 26.9396L30.3523 26.7799L30.2578 27.0134C30.2578 27.0134 30.1079 26.9396 29.7097 27.0011C29.3116 27.0626 28.5061 27.4758 28.5061 27.4758L29.6064 27.3942L30.0149 27.7305ZM38.464 27.7305L38.9581 27.5785L39.8889 27.7305L40.2971 27.3942L41.3975 27.4758C41.3975 27.4758 40.5921 27.0626 40.194 27.0011C39.7959 26.9396 39.646 27.0134 39.646 27.0134L39.5515 26.7799L39.1779 26.9396L38.6945 27.1207L38.5772 26.703C38.5772 26.703 38.6521 26.5852 38.464 26.8677C38.313 27.0943 38.4042 27.513 38.4463 27.6696C38.4566 27.7079 38.464 27.7305 38.464 27.7305ZM58.8836 27.0254C58.9183 27.1289 58.9106 27.2305 58.8605 27.3301C58.8104 27.4297 58.7337 27.4969 58.63 27.5316C58.5267 27.5662 58.4262 27.5587 58.3291 27.509C58.2319 27.4594 58.1659 27.3822 58.1309 27.2775C58.0945 27.1687 58.0995 27.0673 58.1463 26.9736C58.1928 26.8799 58.2707 26.8147 58.3797 26.7783C58.4852 26.7429 58.5871 26.7494 58.6848 26.7977C58.7826 26.8459 58.849 26.9218 58.8836 27.0254ZM11.5086 26.1689C11.5472 26.0667 11.6173 25.9928 11.7188 25.9472C11.8207 25.9015 11.9226 25.8979 12.0248 25.9363C12.127 25.9748 12.2001 26.0439 12.244 26.1438C12.288 26.2436 12.2906 26.3452 12.2517 26.4485C12.2113 26.5559 12.1433 26.6313 12.0479 26.6745C11.9525 26.7178 11.851 26.7192 11.7437 26.6788C11.6394 26.6396 11.5646 26.5703 11.5192 26.4711C11.4737 26.3718 11.4703 26.2711 11.5086 26.1689ZM58.4114 25.7347C58.4517 25.8362 58.4496 25.938 58.4049 26.0402C58.3605 26.1425 58.2876 26.2138 58.186 26.2541C58.0847 26.2945 57.984 26.2924 57.8842 26.2482C57.7846 26.2039 57.7144 26.1304 57.6735 26.0279C57.6312 25.9214 57.6309 25.8198 57.6724 25.7236C57.7138 25.6274 57.7876 25.5581 57.8945 25.5156C57.9979 25.4746 58.0998 25.4754 58.2002 25.5183C58.3006 25.5611 58.3709 25.6333 58.4114 25.7347ZM12.0277 24.8964C12.0717 24.7964 12.1458 24.7264 12.2498 24.6865C12.3539 24.6465 12.4558 24.6485 12.5558 24.6925C12.6558 24.7365 12.7249 24.8097 12.7634 24.9117C12.8018 25.0139 12.7987 25.1154 12.7543 25.2163C12.708 25.3214 12.636 25.3928 12.5384 25.4309C12.4406 25.4689 12.3393 25.4645 12.2343 25.4184C12.1323 25.3735 12.0614 25.3001 12.0215 25.1987C11.9816 25.0971 11.9836 24.9963 12.0277 24.8964ZM57.8688 24.4718C57.9147 24.5709 57.9179 24.6728 57.8791 24.7773C57.8403 24.8817 57.7713 24.957 57.6724 25.0028C57.5731 25.0486 57.4727 25.0522 57.3705 25.0134C57.2686 24.9747 57.1945 24.9053 57.148 24.8052C57.1001 24.7009 57.0938 24.5997 57.13 24.5013C57.1661 24.4029 57.2363 24.3298 57.3406 24.2815C57.4416 24.2348 57.5435 24.23 57.646 24.2673C57.7485 24.3044 57.8228 24.3727 57.8688 24.4718ZM47.4781 19.3283L47.4784 18.5863C47.4784 18.5863 46.843 18.896 46.537 19.9885C46.231 21.081 46.2639 21.6061 46.2639 21.6061C46.2639 21.6061 47.2154 19.1875 49.185 18.9443C51.1548 18.7012 52.1395 19.7023 52.4514 20.1619C52.7633 20.6214 53.6496 22.0657 52.8617 23.2638C52.0737 24.462 51.3835 24.1034 51.3835 24.1034C51.3835 24.1034 51.7621 24.8299 52.4677 24.7362C53.1736 24.6425 53.3377 24.4455 53.3377 24.4455C53.3377 24.4455 53.0148 24.5604 52.6922 24.3799C52.6389 24.3501 52.5951 24.3257 52.5581 24.305C52.6979 24.344 52.91 24.3331 53.1792 24.1034C53.6825 23.6741 54.1061 23.4935 54.1061 23.4935C54.1061 23.4935 53.7314 23.5592 53.4198 23.4935L53.1078 23.428C53.1078 23.428 52.9757 23.4727 53.5451 22.6263C54.1144 21.78 53.6331 20.1619 53.6331 20.1619L53.2228 20.3752C53.2228 20.3752 52.7959 19.5287 52.7796 19.3283C52.7633 19.1278 52.6922 19.0622 52.6922 19.0622L52.2381 19.1443C52.2381 19.1443 51.7544 19.0071 51.4884 18.3021C51.2221 17.5971 51.1548 17.4906 51.1548 17.4906C51.1548 17.4906 51.0399 17.6999 50.5639 17.7492C50.0878 17.7984 49.5917 17.8239 49.5917 17.8239L49.8198 17.3553C49.8198 17.3553 49.5135 17.206 48.6109 18.0521C47.7083 18.898 47.4781 19.3283 47.4781 19.3283ZM12.6153 23.6554C12.6647 23.558 12.7426 23.4922 12.8486 23.458C12.9547 23.4237 13.0564 23.4313 13.1538 23.4808C13.2512 23.5302 13.3162 23.607 13.3489 23.711C13.3817 23.8152 13.3731 23.9164 13.3232 24.0148C13.2712 24.1171 13.1955 24.1845 13.0958 24.2169C12.9962 24.2495 12.8952 24.2399 12.7929 24.1879C12.6936 24.1375 12.6268 24.0605 12.5925 23.9569C12.5583 23.8532 12.5659 23.7527 12.6153 23.6554ZM17.6463 22.7558L17.3748 23.6644L19.2977 24.1844C19.2977 24.1844 17.7559 23.0091 18.2875 20.9722C18.819 18.9354 21.0884 18.1667 22.2717 18.9121C23.4549 19.6576 24.3587 21.0851 24.3587 21.0851C24.3587 21.0851 24.8245 20.3169 24.2328 19.1719C23.6412 18.0269 23.4052 18.0524 23.4052 18.0524L23.3499 18.8178C23.3582 18.6396 23.3412 17.9046 22.5463 17.5377C21.6378 17.1184 21.2322 17.3436 21.2322 17.3436L21.5679 17.9804C21.5679 17.9804 20.8458 17.8123 19.9139 18.2689C18.9821 18.7257 18.1759 18.8656 18.1759 18.8656L18.2832 19.5702C18.2832 19.5702 17.9398 19.6009 17.4213 20.2822C16.9028 20.9634 16.8622 22.0803 16.8622 22.0803L17.4213 21.4514C17.4213 21.4514 17.9179 21.8472 17.6463 22.7558ZM20.1289 23.022C19.6048 23.6482 19.6859 23.9586 19.6859 23.9586C19.6859 23.9586 20.773 23.1422 22.475 23.0845C24.177 23.0268 24.2697 22.1644 24.2697 22.1644C24.2697 22.1644 23.304 21.9018 22.7368 21.4858C22.1694 21.0697 22.0575 20.2822 22.0575 20.2822V20.7419C22.0575 21.0369 22.1628 21.2561 22.2333 21.3708C22.1694 21.2929 22.0399 21.1547 21.7766 20.9184C21.2849 20.4771 20.9697 20.6537 20.4033 20.5769C19.8368 20.5 19.5324 20.4141 19.5324 20.4141C19.5324 20.4141 19.5577 20.4771 19.7719 20.7293C19.9863 20.9815 20.1628 20.994 20.5614 20.9722C20.9598 20.9503 21.062 21.4448 21.062 21.4448C21.062 21.4448 20.363 21.2716 19.5842 21.4447C18.8054 21.6179 18.4882 21.4447 18.4882 21.4447C18.4882 21.4447 18.9788 22.2234 19.9156 22.1734C20.8524 22.1233 21.2331 22.3673 21.2331 22.3673C21.2331 22.3673 20.6529 22.3956 20.1289 23.022ZM57.2576 23.2415C57.3089 23.3379 57.3181 23.4394 57.2849 23.5459C57.252 23.6524 57.1871 23.7311 57.0909 23.7825C56.9943 23.8337 56.8942 23.8427 56.7902 23.8096C56.6862 23.7766 56.6083 23.7113 56.5565 23.6139C56.5026 23.5124 56.491 23.4117 56.5218 23.3115C56.5523 23.2113 56.6187 23.1344 56.72 23.0805C56.8183 23.0282 56.9197 23.0179 57.0242 23.0495C57.1285 23.0811 57.2064 23.145 57.2576 23.2415ZM51.5248 23.2752C51.3829 23.2486 50.7558 23.1436 50.2188 23.2542C49.6089 23.3798 49.8601 23.1466 49.8601 23.1466C49.8601 23.1466 50.5864 22.5816 50.9721 22.4525C51.3578 22.3235 52.1309 22.4525 52.1309 22.4525C52.1309 22.4525 51.2591 22.169 50.8823 22.178C50.5058 22.1868 50.443 22.2318 49.9945 22.3932C49.5461 22.5547 49.573 22.2587 49.573 22.2587C49.573 22.2587 49.7522 22.2227 50.1113 21.9985C50.47 21.7744 50.685 21.5411 51.1694 21.0746C51.654 20.6084 52.2998 20.877 52.2998 20.877C52.2998 20.877 52.0035 20.6532 51.5103 20.6263C51.0171 20.5993 50.6045 20.7429 50.1113 21.0927C49.6177 21.4425 49.2768 21.4155 49.2768 21.4155C49.2768 21.4155 49.3129 20.8863 49.5191 20.4289C49.7256 19.9715 50.2709 19.7719 50.2709 19.7719C50.2709 19.7719 49.7961 19.8274 49.0736 20.4931C48.3508 21.1587 48.655 21.6342 47.9894 22.414C47.3238 23.1936 46.3919 22.8324 46.3919 22.8324C46.3919 22.8324 47.0255 23.2004 47.0794 23.2094C47.1333 23.2183 47.1244 23.2542 48.1917 23.5323C49.259 23.8104 50.3533 23.7834 50.7389 23.4785C51.0651 23.2207 51.422 23.2576 51.5248 23.2752ZM13.27 22.4488C13.3246 22.3542 13.4058 22.2929 13.5137 22.2645C13.6215 22.2361 13.7227 22.2492 13.8172 22.3039C13.9116 22.3585 13.9725 22.4388 13.9994 22.5445C14.0264 22.6502 14.0124 22.7509 13.9572 22.8463C13.8997 22.9457 13.8203 23.0089 13.719 23.0359C13.6178 23.0629 13.5175 23.0476 13.4182 22.9902C13.3218 22.9344 13.2592 22.8538 13.2307 22.7486C13.2022 22.6433 13.2153 22.5433 13.27 22.4488ZM56.5817 22.0485C56.6382 22.1419 56.6528 22.2428 56.6255 22.3509C56.5985 22.459 56.5381 22.5413 56.4445 22.5977C56.3512 22.6541 56.2514 22.6687 56.1459 22.6413C56.0402 22.6139 55.959 22.553 55.9018 22.4585C55.8426 22.3603 55.8257 22.2603 55.8509 22.1586C55.8761 22.0569 55.9377 21.9764 56.036 21.917C56.1314 21.8595 56.2321 21.8436 56.3382 21.8695C56.4442 21.8953 56.5254 21.9549 56.5817 22.0485ZM13.9898 21.279C14.0496 21.1877 14.1341 21.1308 14.2433 21.1084C14.3525 21.0859 14.4527 21.1045 14.5441 21.1643C14.6355 21.224 14.6918 21.3074 14.7131 21.4144C14.7342 21.5216 14.7147 21.6213 14.6542 21.7136C14.5915 21.8097 14.5088 21.8684 14.4062 21.8899C14.3037 21.9114 14.2043 21.8906 14.1083 21.8278C14.0151 21.7668 13.9571 21.683 13.9342 21.5762C13.9115 21.4695 13.93 21.3705 13.9898 21.279ZM55.8381 20.8894C55.8998 20.9796 55.9196 21.0795 55.8989 21.1889C55.8775 21.2984 55.8218 21.3838 55.7315 21.4452C55.6412 21.5068 55.5425 21.5267 55.4356 21.505C55.3286 21.4836 55.2442 21.4271 55.182 21.3359C55.1174 21.2412 55.0949 21.1422 55.1145 21.0392C55.134 20.9363 55.1912 20.8526 55.2863 20.7879C55.3784 20.7252 55.4779 20.704 55.5852 20.724C55.6924 20.7439 55.7768 20.799 55.8381 20.8894ZM24.1637 17.0696L23.992 17.7077C23.992 17.7077 24.663 17.6243 25.4319 18.1859C25.9976 18.599 26.4288 19.5385 26.6174 20.0064C26.5738 19.879 26.5151 19.6976 26.4381 19.4411C26.2301 18.7477 26.4243 18.7337 26.3216 17.7077C26.219 16.6815 25.9388 16.5564 25.9388 16.5564C25.9388 16.5564 26.563 16.7505 26.9097 17.0279C27.2564 17.3053 27.5685 18.2689 27.5685 18.2689C27.5685 18.2689 27.7834 17.2776 27.6066 16.6372C27.4296 15.9969 27.298 15.9462 27.298 15.9462C27.298 15.9462 27.5893 16.0571 27.9961 16.2949C28.4029 16.5327 28.5843 17.4172 28.5843 17.4172C28.5843 17.4172 28.7819 16.5148 28.6769 16.0617C28.5719 15.6086 28.4075 15.322 28.4075 15.322L28.8375 15.6411C29.2674 15.96 29.4893 17.5411 29.4893 17.5411C29.4893 17.5411 29.628 16.917 29.8081 16.2651C29.9885 15.6133 30.7234 15.2056 30.7234 15.2056L30.3354 16.4732C30.3354 16.4732 30.9871 16.1265 31.3073 15.5025C31.6275 14.8785 31.743 14.6555 31.743 14.6555C31.743 14.6555 31.8331 14.6841 31.9581 15.3914C32.0825 16.0987 31.6251 17.1804 31.6251 17.1804C31.6251 17.1804 32.0967 16.7228 32.1853 16.3345C32.2741 15.9462 32.3186 15.5855 32.3186 15.5855C32.3186 15.5855 32.374 15.5995 32.6006 16.2097C32.8269 16.8199 32.374 17.874 32.374 17.874C32.374 17.874 32.8316 17.444 33.0814 17.0556C33.3311 16.6674 33.5133 15.7936 33.5133 15.7936C33.5133 15.7936 33.5529 15.849 33.8441 16.6372C34.1353 17.4253 34.9399 17.6936 34.9399 17.6936C34.9399 17.6936 35.0092 17.4579 34.9538 16.8337C34.9017 16.2477 35.3134 15.7858 35.3638 15.7318C35.3578 15.764 35.3649 15.9449 35.5222 16.8893C35.7302 18.1375 36.3129 18.6783 36.3129 18.6783C36.3129 18.6783 36.3404 17.5549 36.3129 16.9586C36.285 16.3622 36.8398 16.1265 37.0756 15.6549C37.3114 15.1834 37.2003 14.7951 37.2003 14.7951C37.2003 14.7951 37.5333 15.7936 37.6859 16.5148C37.8384 17.236 37.2282 17.9155 37.2282 17.9155C37.2282 17.9155 37.8523 17.3192 38.1574 17.0418C38.4623 16.7645 38.6151 16.279 38.518 15.4885C38.4208 14.6979 38.8645 14.3374 38.8645 14.3374C38.8645 14.3374 38.8645 14.2681 38.9445 14.6018C39.0245 14.9357 39.683 16.2513 39.683 16.2513C39.683 16.2513 39.7105 16.4038 39.7245 15.4607C39.7384 14.5176 40.3625 14.5454 40.3625 14.5454L40.3051 15.3152C40.2479 16.085 40.9588 17.3451 40.9588 17.3451C40.9588 17.3451 40.9867 17.0972 41.0835 16.1959C41.1807 15.2944 42.0466 15.1562 42.0466 15.1562C42.0466 15.1562 41.9713 15.2666 41.9156 16.3761C41.8602 17.4857 42.235 18.5258 42.235 18.5258C42.235 18.5258 42.7619 17.3469 43.15 16.8061C43.5383 16.2651 44.1678 16.3484 44.1678 16.3484C44.1678 16.3484 43.9824 16.487 43.6678 16.8756C43.3532 17.2641 43.1639 18.5536 43.1639 18.5536C43.1639 18.5536 43.3028 18.2761 44.0378 17.9988C44.7727 17.7214 45.4801 17.8239 45.4801 17.8239C45.4801 17.8239 45.175 18.1235 45.1057 19.1082C45.0363 20.0929 45.7298 21.1331 45.7298 21.1331C45.7298 21.1331 45.7713 20.0651 45.9179 19.2331C46.0645 18.401 46.8267 18.0521 46.8267 18.0521C46.8267 18.0521 47.9032 17.4541 48.0673 17.1066C48.2314 16.7592 48.0481 16.5373 48.1156 16.1994C48.1831 15.8616 48.3955 15.8737 48.3955 15.8737C48.3955 15.8737 47.5143 15.558 47.0622 16.2091C46.6102 16.8603 45.5583 16.6048 45.5583 16.6048C45.5583 16.6048 45.8379 16.4794 46.0696 16.2767C46.3012 16.0741 46.3397 15.4661 46.3919 15.2248C46.444 14.9834 46.6872 14.9927 46.6872 14.9927C46.6872 14.9927 45.7994 14.7615 45.3669 15.1562C44.9347 15.5508 44.6125 15.3888 44.6125 15.3888C44.6125 15.3888 44.9019 15.3309 45.0467 14.7133C45.1916 14.0956 44.5834 13.6517 44.5834 13.6517C44.5834 13.6517 44.4869 14.0184 44.0043 14.4045C43.5221 14.7904 42.9814 14.7808 42.9814 14.7808C42.9814 14.7808 43.1456 14.086 43.1358 13.7578C43.1263 13.4298 43.4234 13.2753 43.4234 13.2753L43.0682 13.2657C43.0682 13.2657 42.6124 13.2576 42.1541 13.4865C41.6958 13.7154 41.5628 14.0956 41.5628 14.0956L41.5883 13.9069C41.6141 13.7182 41.5338 13.4683 41.5145 13.2657C41.4953 13.0631 41.862 12.8487 41.862 12.8487C41.862 12.8487 41.1671 12.5129 40.6268 12.8024C40.0862 13.0919 39.8258 13.7482 39.8258 13.7482C39.8258 13.7482 39.8545 13.8351 39.7677 13.6228C39.6809 13.4104 39.372 13.1402 39.2852 12.8487C39.1984 12.5573 39.4783 12.3993 39.4783 12.3993C39.4783 12.3993 39.2467 12.3586 38.8222 12.5292C38.3974 12.7001 38.1563 13.4973 38.1563 13.4973C38.1563 13.4973 37.743 12.9919 37.7187 12.6218C37.6944 12.2519 37.9486 12.2276 37.9486 12.2276C37.9486 12.2276 37.3076 12.2544 36.812 12.7044C36.3164 13.1544 35.881 13.7414 35.881 13.7414C35.881 13.7414 36.014 13.2215 35.5877 12.6218C35.1611 12.0222 34.4656 12.1535 34.4656 12.1535C34.4656 12.1535 34.6961 12.3873 34.6961 12.8346C34.6961 13.282 33.608 13.959 33.608 13.959C33.608 13.959 33.898 13.1006 33.3903 12.6218C32.8826 12.1432 32.5197 12.3873 32.5197 12.3873C32.5197 12.3873 32.7253 12.5928 32.81 13.1334C32.8947 13.6741 32.4593 13.814 32.4593 13.814C32.4593 13.814 32.544 13.1127 32.2276 12.7829C31.9113 12.453 31.3713 12.5928 31.3713 12.5928C31.3713 12.5928 31.589 12.7138 31.743 13.1874C31.8968 13.6612 31.2747 13.9348 31.2747 13.9348C31.2747 13.9348 31.19 13.4754 30.7305 13.1334C30.2711 12.7915 29.8116 12.9554 29.8116 12.9554C29.8116 12.9554 30.1864 13.2939 30.3677 13.8379C30.5489 14.382 29.9446 14.9017 29.9446 14.9017C29.9446 14.9017 30.0172 13.8858 29.5384 13.503C29.0596 13.1201 28.4212 13.2806 28.4212 13.2806C28.4212 13.2806 28.808 13.4 29.0136 13.8594C29.2191 14.3189 29.0136 14.5838 29.0136 14.5838C29.0136 14.5838 28.5904 14.0443 28.0342 13.8388C27.4781 13.6333 26.5427 14.0348 26.5427 14.0348H26.6438C26.6438 14.0348 26.8372 14.1118 27.0911 14.2931C27.345 14.4746 27.4055 14.9505 27.4055 14.9505C27.4055 14.9505 26.6801 14.7692 26.1601 14.6242C25.6403 14.479 25.5314 14.4791 25.5314 14.4791C25.5314 14.4791 25.5677 14.5639 25.7006 14.8903C25.8337 15.2167 26.3655 15.5031 26.3655 15.5031C26.3655 15.5031 26.2897 15.575 25.2507 15.3921C24.2116 15.2092 24.1631 15.3933 24.1631 15.3933L24.9737 16.2997C24.9737 16.2997 24.5031 16.3378 23.9292 16.1018C23.3552 15.8658 22.2611 16.2119 22.2611 16.2119C22.2611 16.2119 22.6796 16.2235 23.1512 16.2513C23.6227 16.279 24.1637 17.0696 24.1637 17.0696ZM14.7734 20.1491C14.8381 20.0612 14.9255 20.0089 15.0358 19.9925C15.146 19.976 15.2451 20.0001 15.3332 20.0648C15.4212 20.1295 15.4727 20.2158 15.488 20.3238C15.5034 20.4318 15.4784 20.5303 15.4131 20.6192C15.3451 20.7118 15.2593 20.7658 15.1558 20.7817C15.0522 20.7976 14.9542 20.7714 14.8618 20.7035C14.7719 20.6376 14.7186 20.5506 14.7017 20.4428C14.6849 20.3351 14.7087 20.2371 14.7734 20.1491ZM55.0357 19.7768C55.102 19.8636 55.1275 19.9622 55.1121 20.0727C55.097 20.1831 55.046 20.2715 54.9592 20.3377C54.8724 20.404 54.775 20.4293 54.6672 20.4136C54.559 20.3979 54.4717 20.3462 54.4047 20.2586C54.3351 20.1672 54.3073 20.0697 54.3212 19.9659C54.3351 19.862 54.3875 19.7754 54.4791 19.7056C54.5673 19.638 54.6657 19.6113 54.7741 19.6254C54.8822 19.6396 54.9693 19.6901 55.0357 19.7768ZM15.6159 19.0654C15.6853 18.981 15.7754 18.9336 15.8865 18.9232C15.9973 18.9127 16.095 18.9422 16.1795 19.0116C16.2638 19.0809 16.3107 19.1699 16.3202 19.2787C16.3296 19.3874 16.2992 19.4843 16.2292 19.5696C16.1562 19.6582 16.0676 19.7076 15.9634 19.7177C15.8591 19.728 15.7627 19.6966 15.674 19.6238C15.5879 19.5529 15.5394 19.4633 15.5284 19.3547C15.5174 19.2462 15.5466 19.1497 15.6159 19.0654ZM54.1722 18.7072C54.243 18.7903 54.2741 18.8874 54.2646 18.9985C54.2557 19.1097 54.2095 19.2006 54.1263 19.2715C54.0433 19.3424 53.9473 19.3728 53.8386 19.3631C53.7299 19.3534 53.6399 19.3065 53.5685 19.2225C53.4938 19.1352 53.4609 19.0394 53.4689 18.9349C53.4772 18.8304 53.5249 18.741 53.6123 18.6665C53.6973 18.5942 53.7939 18.5622 53.9029 18.5703C54.0116 18.5785 54.1014 18.6243 54.1722 18.7072ZM16.5168 18.0282C16.5906 17.9478 16.6832 17.9053 16.7946 17.901C16.9061 17.8966 17.002 17.9312 17.0824 18.005C17.163 18.079 17.2049 18.1704 17.2084 18.2794C17.2118 18.3885 17.1764 18.4837 17.1017 18.565C17.0242 18.6496 16.933 18.694 16.8283 18.6986C16.7237 18.703 16.629 18.6665 16.5444 18.5889C16.4624 18.5136 16.4188 18.4213 16.4136 18.3124C16.4086 18.2034 16.443 18.1087 16.5168 18.0282ZM53.2542 17.6889C53.3294 17.7679 53.3656 17.8632 53.3623 17.9747C53.359 18.0863 53.3179 18.1796 53.2391 18.2547C53.1597 18.3301 53.0658 18.3658 52.9568 18.3619C52.8478 18.358 52.755 18.3161 52.6792 18.2362C52.5998 18.153 52.5616 18.0591 52.5643 17.9543C52.5669 17.8496 52.6096 17.7577 52.6928 17.6786C52.7737 17.6017 52.8685 17.5645 52.9775 17.5667C53.0865 17.5691 53.1789 17.6098 53.2542 17.6889ZM17.4721 17.042C17.5503 16.9657 17.6449 16.9283 17.7565 16.9299C17.868 16.9316 17.9619 16.9715 18.0382 17.0496C18.1146 17.1277 18.1515 17.2213 18.149 17.3304C18.1465 17.4394 18.1059 17.5326 18.027 17.6097C17.945 17.6899 17.8515 17.7294 17.7469 17.7282C17.6421 17.727 17.5495 17.6854 17.4693 17.6033C17.3914 17.5237 17.3529 17.4293 17.3538 17.3201C17.3546 17.211 17.394 17.1182 17.4721 17.042ZM52.2793 16.7188C52.3587 16.7936 52.3999 16.8868 52.4028 16.9983C52.4058 17.1097 52.3697 17.2052 52.2947 17.2846C52.2201 17.3642 52.1279 17.4049 52.0189 17.4069C51.9096 17.409 51.8151 17.3721 51.7349 17.2966C51.651 17.2178 51.6081 17.1261 51.6048 17.0213C51.6015 16.9167 51.6395 16.8225 51.7183 16.739C51.7947 16.6578 51.8874 16.6155 51.9964 16.6119C52.1054 16.6083 52.1996 16.6439 52.2793 16.7188ZM18.4815 16.1074C18.5636 16.0354 18.6604 16.0033 18.7716 16.011C18.8828 16.0187 18.9744 16.0635 19.0463 16.1458C19.1183 16.2278 19.1501 16.3234 19.1417 16.4321C19.1334 16.541 19.0878 16.6317 19.0048 16.7044C18.9184 16.78 18.823 16.8143 18.7185 16.8076C18.6139 16.8007 18.5238 16.754 18.4482 16.6677C18.3747 16.5839 18.3414 16.4875 18.3482 16.3787C18.355 16.2698 18.3994 16.1793 18.4815 16.1074ZM51.2562 15.806C51.3397 15.8764 51.3859 15.9671 51.3948 16.0784C51.4037 16.1895 51.3729 16.2867 51.3024 16.3701C51.2319 16.4536 51.1424 16.4992 51.0334 16.5072C50.9247 16.5152 50.8281 16.4836 50.744 16.4124C50.656 16.3383 50.6077 16.2491 50.5991 16.1446C50.5905 16.0401 50.6231 15.9442 50.6972 15.8564C50.7692 15.7714 50.8592 15.724 50.9679 15.7145C51.0766 15.705 51.1729 15.7355 51.2562 15.806ZM35.0154 1.57037L36.3247 9.07487C42.6201 9.39141 48.3241 11.9504 52.6543 15.9693L58.551 11.2746C52.5121 5.27987 44.1971 1.57481 35.0154 1.57037ZM19.5373 15.2314C19.6233 15.164 19.7216 15.1372 19.8322 15.1509C19.9429 15.1646 20.0319 15.2145 20.0993 15.3004C20.1667 15.3863 20.1932 15.4833 20.179 15.5916C20.1647 15.6997 20.1142 15.7879 20.0274 15.8559C19.9372 15.9269 19.8399 15.9559 19.7359 15.9434C19.632 15.9309 19.5444 15.8794 19.4736 15.7892C19.4049 15.7015 19.3768 15.6034 19.3894 15.4951C19.4021 15.3868 19.4515 15.2988 19.5373 15.2314ZM35.0154 1.57037H35C25.8297 1.57037 17.5217 5.26287 11.4814 11.2426L17.3792 15.9383C21.7132 11.9303 27.4153 9.38217 33.7061 9.07333L35.0154 1.57037ZM50.1823 14.9477C50.2694 15.0136 50.3204 15.1017 50.3355 15.2122C50.3503 15.3226 50.3248 15.4215 50.2591 15.5085C50.1933 15.5957 50.1062 15.6462 49.9981 15.6601C49.89 15.6739 49.7916 15.6476 49.7036 15.5811C49.6121 15.512 49.5591 15.4254 49.5446 15.3216C49.5301 15.2178 49.5576 15.1202 49.6269 15.0286C49.6939 14.9398 49.7816 14.8876 49.8897 14.8721C49.9975 14.8567 50.0953 14.8819 50.1823 14.9477ZM20.6406 14.4131C20.7301 14.3505 20.8297 14.329 20.9393 14.3487C21.0491 14.3685 21.1353 14.4231 21.1979 14.5126C21.2605 14.6021 21.2818 14.7003 21.2617 14.8076C21.2416 14.9148 21.1863 15.0001 21.0959 15.0634C21.0019 15.1292 20.9033 15.153 20.8001 15.1349C20.6969 15.1166 20.6124 15.0605 20.5466 14.9665C20.4828 14.8752 20.46 14.7759 20.4786 14.6684C20.4972 14.5608 20.5511 14.4757 20.6406 14.4131ZM49.0653 14.1507C49.1559 14.2117 49.2116 14.297 49.2327 14.4064C49.2537 14.5159 49.2335 14.6159 49.1725 14.7065C49.1115 14.7971 49.0274 14.8523 48.9201 14.872C48.8126 14.8917 48.7134 14.8708 48.6218 14.8092C48.5268 14.7451 48.469 14.6615 48.4488 14.5588C48.429 14.4559 48.4509 14.3569 48.5149 14.2616C48.5771 14.1693 48.6618 14.1124 48.7688 14.0911C48.876 14.0698 48.9746 14.0897 49.0653 14.1507ZM21.785 13.6572C21.8777 13.5996 21.9783 13.5837 22.0868 13.6093C22.1953 13.635 22.2784 13.6943 22.336 13.7869C22.3938 13.8796 22.4095 13.979 22.3836 14.085C22.3577 14.1911 22.298 14.2731 22.2043 14.3314C22.1068 14.392 22.0071 14.4104 21.905 14.3867C21.8029 14.3629 21.7216 14.3021 21.6611 14.2047C21.6021 14.1101 21.585 14.0096 21.6094 13.9032C21.6337 13.797 21.6922 13.7149 21.785 13.6572ZM47.9041 13.4143C47.998 13.4703 48.0584 13.5523 48.0854 13.6606C48.1123 13.7688 48.0975 13.8698 48.0415 13.9635C47.9858 14.0572 47.9047 14.1169 47.7986 14.1424C47.6926 14.1681 47.5922 14.1527 47.4974 14.096C47.3987 14.0373 47.3368 13.957 47.311 13.8555C47.2856 13.7539 47.3019 13.6538 47.3608 13.5553C47.418 13.4596 47.4994 13.3982 47.6049 13.371C47.7107 13.344 47.8105 13.3583 47.9041 13.4143ZM22.972 12.9631C23.0678 12.9106 23.1691 12.9003 23.276 12.9317C23.3829 12.9633 23.4626 13.027 23.5151 13.1228C23.5677 13.2186 23.578 13.3187 23.5463 13.423C23.5147 13.5275 23.4505 13.6061 23.3538 13.6592C23.253 13.7144 23.1524 13.7273 23.052 13.698C22.9513 13.6687 22.8734 13.6037 22.8182 13.5031C22.7647 13.4053 22.7529 13.3041 22.7832 13.1992C22.8133 13.0943 22.8762 13.0157 22.972 12.9631ZM46.7053 12.7429C46.8018 12.7936 46.8667 12.8722 46.8996 12.9789C46.9322 13.0854 46.9233 13.187 46.8726 13.2838C46.822 13.3804 46.7444 13.4445 46.6398 13.4758C46.5352 13.5072 46.4342 13.4972 46.3365 13.4459C46.2349 13.3926 46.1685 13.3158 46.1374 13.2159C46.106 13.1159 46.1173 13.015 46.1703 12.9134C46.2221 12.8147 46.3 12.749 46.4043 12.7161C46.5083 12.6833 46.6087 12.6922 46.7053 12.7429ZM24.195 12.3353C24.2935 12.2882 24.3953 12.2834 24.5003 12.3208C24.6053 12.3581 24.6815 12.4261 24.7286 12.5246C24.7758 12.6231 24.7807 12.7235 24.7433 12.8261C24.7059 12.9286 24.6375 13.0037 24.5381 13.0513C24.4345 13.101 24.3333 13.1084 24.2346 13.0734C24.1357 13.0387 24.0615 12.9695 24.0119 12.8661C23.9637 12.7655 23.9576 12.6638 23.9935 12.5607C24.0294 12.4576 24.0965 12.3825 24.195 12.3353ZM45.4736 12.1392C45.5728 12.1846 45.6421 12.2597 45.6806 12.3641C45.7191 12.4688 45.7159 12.5707 45.6703 12.6701C45.6249 12.7693 45.5512 12.8376 45.4484 12.8746C45.3459 12.9116 45.2443 12.9072 45.1439 12.8614C45.0393 12.8136 44.9691 12.7408 44.9324 12.6425C44.8956 12.5444 44.9013 12.4431 44.949 12.3388C44.9952 12.2375 45.0692 12.1675 45.1714 12.129C45.2736 12.0904 45.3743 12.0939 45.4736 12.1392ZM25.447 11.7772C25.5479 11.7355 25.6498 11.7362 25.7526 11.7793C25.8554 11.8225 25.9276 11.8945 25.9693 11.9953C26.0112 12.0963 26.0104 12.1969 25.9676 12.2972C25.9245 12.3974 25.8522 12.4686 25.7502 12.5108C25.6442 12.5547 25.5427 12.5565 25.446 12.5163C25.3491 12.4762 25.2789 12.4031 25.235 12.2969C25.1925 12.194 25.1919 12.0921 25.2334 11.9911C25.2749 11.8903 25.346 11.8189 25.447 11.7772ZM44.2075 11.6027C44.3091 11.6426 44.3823 11.7135 44.4264 11.8158C44.4706 11.9182 44.4729 12.0202 44.4329 12.1218C44.3932 12.2235 44.323 12.2957 44.2226 12.3383C44.1222 12.3809 44.0206 12.382 43.9178 12.3419C43.8109 12.2999 43.7365 12.231 43.6948 12.135C43.6527 12.039 43.6527 11.9375 43.6945 11.8307C43.735 11.727 43.8055 11.653 43.9054 11.609C44.0049 11.5649 44.1059 11.5628 44.2075 11.6027ZM26.7315 11.2871C26.8345 11.2509 26.9362 11.2572 27.0364 11.306C27.1368 11.3547 27.2051 11.4306 27.241 11.5335C27.2771 11.6368 27.271 11.7371 27.2226 11.835C27.1742 11.9327 27.0979 11.9999 26.9939 12.0363C26.8855 12.0743 26.7842 12.0705 26.6897 12.025C26.5953 11.9796 26.5292 11.9027 26.4913 11.7945C26.4544 11.6892 26.4594 11.5874 26.5065 11.4889C26.5534 11.3905 26.6284 11.3231 26.7315 11.2871ZM42.9163 11.1375C43.02 11.1717 43.0967 11.2386 43.1464 11.3383C43.1965 11.438 43.2042 11.5399 43.1701 11.6434C43.1358 11.7472 43.0697 11.823 42.9717 11.8711C42.8739 11.9191 42.7723 11.9259 42.6677 11.8915C42.5587 11.8556 42.4808 11.7908 42.4334 11.6972C42.3863 11.6037 42.3807 11.5023 42.4165 11.3933C42.4515 11.2876 42.5176 11.21 42.6147 11.1605C42.7122 11.111 42.8126 11.1033 42.9163 11.1375ZM28.0394 10.8689C28.1443 10.8387 28.2455 10.8505 28.3429 10.9047C28.4404 10.9588 28.5043 11.0384 28.5346 11.1433C28.5651 11.2481 28.5534 11.3481 28.4997 11.4431C28.446 11.538 28.3661 11.601 28.2602 11.6316C28.1499 11.6634 28.0489 11.6541 27.9572 11.6035C27.8654 11.553 27.8035 11.4726 27.7716 11.3624C27.7406 11.2554 27.7513 11.154 27.8037 11.0581C27.8559 10.9625 27.9345 10.8994 28.0394 10.8689ZM41.6002 10.7436C41.7056 10.7721 41.7862 10.8347 41.8413 10.9316C41.8964 11.0284 41.91 11.1296 41.8816 11.235C41.8531 11.3404 41.7912 11.4198 41.6961 11.4732C41.601 11.5266 41.5 11.539 41.3937 11.5102C41.2829 11.4804 41.2011 11.42 41.149 11.3292C41.0966 11.2383 41.0856 11.1375 41.1155 11.0267C41.1446 10.9192 41.2062 10.8379 41.3004 10.7832C41.3949 10.7284 41.4947 10.7152 41.6002 10.7436ZM29.3702 10.5231C29.4766 10.4985 29.5769 10.5161 29.6712 10.5754C29.7657 10.6349 29.825 10.7178 29.8496 10.8242C29.8741 10.9306 29.857 11.0297 29.798 11.1217C29.7394 11.2135 29.6561 11.2719 29.5485 11.2967C29.4367 11.3225 29.3364 11.3076 29.2475 11.252C29.1588 11.1965 29.1014 11.1128 29.0756 11.001C29.0505 10.8924 29.0668 10.7918 29.1243 10.6991C29.1818 10.6063 29.2638 10.5476 29.3702 10.5231ZM40.2648 10.423C40.3717 10.4456 40.4553 10.5037 40.516 10.5972C40.5764 10.6909 40.5951 10.7912 40.5729 10.898C40.55 11.0049 40.4926 11.0875 40.4004 11.1461C40.3086 11.2046 40.2085 11.2225 40.1007 11.1997C39.9884 11.1759 39.9037 11.1202 39.8465 11.0323C39.7893 10.9446 39.7725 10.8445 39.7962 10.7321C39.8193 10.6232 39.8764 10.5387 39.9677 10.4789C40.0589 10.419 40.1578 10.4004 40.2648 10.423ZM30.7163 10.2513C30.8238 10.2325 30.9231 10.2555 31.014 10.32C31.105 10.3846 31.1598 10.4706 31.1784 10.5783C31.1971 10.6859 31.1746 10.7839 31.1106 10.8724C31.0469 10.9609 30.9607 11.0146 30.852 11.0334C30.7388 11.0531 30.6396 11.0327 30.554 10.9724C30.4681 10.912 30.4156 10.8253 30.3958 10.7122C30.3768 10.6024 30.3985 10.5028 30.461 10.4135C30.5235 10.324 30.6088 10.2699 30.7163 10.2513ZM38.9128 10.1759C39.0206 10.1925 39.1074 10.2461 39.1729 10.3362C39.2384 10.4264 39.263 10.5254 39.2461 10.6334C39.2295 10.7413 39.1768 10.8271 39.0879 10.8905C38.9993 10.954 38.9004 10.9773 38.7914 10.9605C38.6779 10.943 38.5902 10.8919 38.5283 10.8073C38.4664 10.7228 38.4445 10.6239 38.4617 10.5105C38.4788 10.4004 38.5313 10.3129 38.6193 10.2481C38.7066 10.1833 38.8047 10.1592 38.9128 10.1759ZM32.0745 10.0536C32.1832 10.0409 32.281 10.0691 32.3683 10.1385C32.4557 10.208 32.5055 10.2968 32.5182 10.4052C32.531 10.5137 32.5031 10.6103 32.4347 10.6953C32.366 10.7802 32.2771 10.829 32.1675 10.842C32.0535 10.8555 31.9554 10.8297 31.8731 10.7647C31.7907 10.6997 31.743 10.6103 31.7297 10.4963C31.7167 10.3857 31.7436 10.2875 31.8112 10.2016C31.8784 10.1156 31.9661 10.0663 32.0745 10.0536ZM37.5514 10.0034C37.6601 10.0142 37.7495 10.0628 37.8197 10.1492C37.8903 10.2359 37.9199 10.3334 37.9092 10.442C37.8985 10.5507 37.8506 10.6391 37.7655 10.7074C37.6802 10.7756 37.5828 10.8044 37.4729 10.7934C37.3588 10.7822 37.2685 10.7359 37.2021 10.6549C37.1355 10.5738 37.1079 10.4762 37.1195 10.362C37.1304 10.2512 37.1781 10.1609 37.262 10.0914C37.3464 10.022 37.4427 9.9926 37.5514 10.0034ZM33.443 9.93013C33.5518 9.92322 33.648 9.95693 33.7313 10.0308C33.8148 10.1049 33.8598 10.1965 33.8666 10.3055C33.8735 10.4143 33.8403 10.5094 33.7671 10.5905C33.6942 10.6716 33.6027 10.7155 33.4925 10.7224C33.3782 10.7297 33.2816 10.6986 33.2031 10.6292C33.1243 10.56 33.0814 10.468 33.0742 10.3535C33.0674 10.2423 33.0997 10.1456 33.1717 10.0635C33.2434 9.98149 33.334 9.93691 33.443 9.93013ZM36.1787 9.90506C36.2877 9.90989 36.3798 9.95359 36.4548 10.0362C36.5297 10.1187 36.5646 10.2145 36.5599 10.3236C36.5552 10.4327 36.5119 10.5237 36.4308 10.5964C36.3493 10.6691 36.2536 10.7031 36.1434 10.6982C36.0288 10.6932 35.9361 10.6519 35.8653 10.5746C35.7948 10.4973 35.7616 10.4013 35.7669 10.2866C35.772 10.1752 35.8143 10.0827 35.8946 10.0087C35.9749 9.93484 36.0697 9.90027 36.1787 9.90506ZM34.824 9.87992C34.9331 9.87992 35.027 9.91964 35.1055 9.99864C35.184 10.0778 35.2233 10.1719 35.2233 10.281C35.2233 10.3903 35.1842 10.4831 35.1063 10.5594C35.0284 10.6356 34.9342 10.6738 34.824 10.6738C34.7094 10.6738 34.6146 10.6368 34.5409 10.5627C34.4665 10.4886 34.4295 10.3941 34.4295 10.2794C34.4295 10.168 34.468 10.0737 34.5447 9.99615C34.6217 9.91878 34.7147 9.87992 34.824 9.87992Z" fill="#2C4359"/>
</svg>
