<svg width="22" height="22" viewBox="0 0 22 22" fill="none" xmlns="http://www.w3.org/2000/svg">
<path d="M11 0C17.0749 0 22 4.92514 22 11C22 17.0749 17.0746 22 11 22C4.92536 22 0 17.0762 0 11C0 4.92382 4.92448 0 11 0Z" fill="#53AE94"/>
<path d="M12.3577 9.53434V7.89798H16.0997V5.40472H5.9102V7.89798H9.65262V9.53302C6.61112 9.67272 4.32422 10.2751 4.32422 10.9967C4.32422 11.7183 6.61222 12.3206 9.65262 12.4612V17.7027H12.3586V12.4608C15.3946 12.3206 17.6769 11.7187 17.6769 10.9978C17.6769 10.2768 15.3946 9.67492 12.3586 9.53478L12.3577 9.53434ZM12.3586 12.0168V12.0155C12.2823 12.0203 11.89 12.0439 11.0166 12.0439C10.3183 12.0439 9.82708 12.0241 9.65394 12.0151V12.0173C6.96686 11.8982 4.96112 11.4303 4.96112 10.8704C4.96112 10.3105 6.96708 9.84322 9.65394 9.72398V11.5511C9.82994 11.5632 10.3333 11.5929 11.0281 11.5929C11.8625 11.5929 12.2821 11.5581 12.3591 11.5511V9.72398C15.0409 9.84344 17.042 10.3118 17.042 10.8697C17.042 11.4277 15.04 11.8963 12.3591 12.0157" fill="white"/>
</svg>
